<svg width="14" height="14" viewBox="0 0 14 14" fill="none" xmlns="http://www.w3.org/2000/svg">
<path d="M4.55474 5.36152H5.50923C5.70493 5.36152 5.8731 5.39082 6.01372 5.44941C6.15552 5.50801 6.2645 5.59473 6.34067 5.70957C6.41685 5.82441 6.45493 5.96563 6.45493 6.1332C6.45493 6.27031 6.43149 6.38809 6.38462 6.48652C6.33892 6.58379 6.27388 6.66523 6.1895 6.73086C6.1063 6.79531 6.00845 6.84688 5.89595 6.88555L5.72896 6.97344H4.89927L4.89575 6.56211H5.51274C5.60532 6.56211 5.68208 6.5457 5.74302 6.51289C5.80396 6.48008 5.84966 6.43438 5.88013 6.37578C5.91177 6.31719 5.92759 6.24922 5.92759 6.17188C5.92759 6.08984 5.91235 6.01895 5.88189 5.95918C5.85142 5.89941 5.80513 5.85371 5.74302 5.82207C5.68091 5.79043 5.60298 5.77461 5.50923 5.77461H5.08208V7.9209H4.55474V5.36152ZM5.9856 7.9209L5.402 6.78008L5.95923 6.77656L6.54985 7.89629V7.9209H5.9856ZM8.57837 7.50957V7.9209H7.21606V7.50957H8.57837ZM7.38833 5.36152V7.9209H6.86099V5.36152H7.38833ZM8.40083 6.40391V6.80469H7.21606V6.40391H8.40083ZM8.57661 5.36152V5.77461H7.21606V5.36152H8.57661ZM9.41333 5.36152V7.9209H8.88599V5.36152H9.41333ZM10.4329 6.45488V6.86621H9.26919V6.45488H10.4329ZM10.5559 5.36152V5.77461H9.26919V5.36152H10.5559Z" fill="#7C29E5"/>
<path d="M4.55474 5.36152V5.26152H4.45474V5.36152H4.55474ZM6.01372 5.44941L5.97526 5.54172L5.97553 5.54183L6.01372 5.44941ZM6.34067 5.70957L6.42401 5.6543L6.34067 5.70957ZM6.38462 6.48652L6.29433 6.44353L6.29411 6.444L6.38462 6.48652ZM6.1895 6.73086L6.25074 6.80991L6.2509 6.80979L6.1895 6.73086ZM5.89595 6.88555L5.86344 6.79098L5.85617 6.79348L5.84937 6.79706L5.89595 6.88555ZM5.72896 6.97344V7.07344H5.75366L5.77553 7.06193L5.72896 6.97344ZM4.89927 6.97344L4.79927 6.97429L4.80012 7.07344H4.89927V6.97344ZM4.89575 6.56211V6.46211H4.79489L4.79576 6.56296L4.89575 6.56211ZM5.88013 6.37578L5.79213 6.32826L5.79141 6.32965L5.88013 6.37578ZM5.08208 5.77461V5.67461H4.98208V5.77461H5.08208ZM5.08208 7.9209V8.0209H5.18208V7.9209H5.08208ZM4.55474 7.9209H4.45474V8.0209H4.55474V7.9209ZM5.9856 7.9209L5.89657 7.96644L5.92443 8.0209H5.9856V7.9209ZM5.402 6.78008L5.40137 6.68008L5.23905 6.6811L5.31297 6.82562L5.402 6.78008ZM5.95923 6.77656L6.04768 6.72991L6.01934 6.67618L5.9586 6.67656L5.95923 6.77656ZM6.54985 7.89629H6.64985V7.87153L6.6383 7.84963L6.54985 7.89629ZM6.54985 7.9209V8.0209H6.64985V7.9209H6.54985ZM4.55474 5.46152H5.50923V5.26152H4.55474V5.46152ZM5.50923 5.46152C5.69533 5.46152 5.84975 5.48943 5.97526 5.54172L6.05218 5.35711C5.89644 5.29221 5.71454 5.26152 5.50923 5.26152V5.46152ZM5.97553 5.54183C6.10108 5.59372 6.19341 5.66846 6.25734 5.76484L6.42401 5.6543C6.3356 5.521 6.20995 5.4223 6.05191 5.35699L5.97553 5.54183ZM6.25734 5.76484C6.32049 5.86006 6.35493 5.981 6.35493 6.1332H6.55493C6.55493 5.95025 6.5132 5.78877 6.42401 5.6543L6.25734 5.76484ZM6.35493 6.1332C6.35493 6.25916 6.33338 6.36152 6.29433 6.44353L6.47491 6.52952C6.5296 6.41465 6.55493 6.28146 6.55493 6.1332H6.35493ZM6.29411 6.444C6.25507 6.52708 6.19998 6.59603 6.12811 6.65192L6.2509 6.80979C6.34778 6.73444 6.42276 6.6405 6.47513 6.52905L6.29411 6.444ZM6.12826 6.6518C6.05477 6.70873 5.96691 6.75541 5.86344 6.79098L5.92846 6.98012C6.04998 6.93834 6.15783 6.88189 6.25074 6.80991L6.12826 6.6518ZM5.84937 6.79706L5.68238 6.88495L5.77553 7.06193L5.94252 6.97404L5.84937 6.79706ZM5.72896 6.87344H4.89927V7.07344H5.72896V6.87344ZM4.99926 6.97258L4.99575 6.56125L4.79576 6.56296L4.79927 6.97429L4.99926 6.97258ZM4.89575 6.66211H5.51274V6.46211H4.89575V6.66211ZM5.51274 6.66211C5.61651 6.66211 5.71083 6.6438 5.79043 6.60094L5.69561 6.42484C5.65333 6.44761 5.59414 6.46211 5.51274 6.46211V6.66211ZM5.79043 6.60094C5.86813 6.5591 5.92867 6.49919 5.96885 6.42192L5.79141 6.32965C5.77065 6.36956 5.73978 6.40106 5.69561 6.42484L5.79043 6.60094ZM5.96812 6.4233C6.00883 6.34791 6.02759 6.26311 6.02759 6.17188H5.82759C5.82759 6.23532 5.81471 6.28647 5.79214 6.32827L5.96812 6.4233ZM6.02759 6.17188C6.02759 6.07752 6.01004 5.99039 5.97098 5.91376L5.79279 6.0046C5.81467 6.0475 5.82759 6.10217 5.82759 6.17188H6.02759ZM5.97098 5.91376C5.93053 5.83442 5.86855 5.77379 5.78841 5.73297L5.69763 5.91117C5.74171 5.93363 5.77231 5.96441 5.79279 6.0046L5.97098 5.91376ZM5.78841 5.73297C5.70825 5.69213 5.61356 5.67461 5.50923 5.67461V5.87461C5.59239 5.87461 5.65357 5.88873 5.69763 5.91117L5.78841 5.73297ZM5.50923 5.67461H5.08208V5.87461H5.50923V5.67461ZM4.98208 5.77461V7.9209H5.18208V5.77461H4.98208ZM5.08208 7.8209H4.55474V8.0209H5.08208V7.8209ZM4.65474 7.9209V5.36152H4.45474V7.9209H4.65474ZM6.07462 7.87536L5.49103 6.73454L5.31297 6.82562L5.89657 7.96644L6.07462 7.87536ZM5.40263 6.88008L5.95986 6.87656L5.9586 6.67656L5.40137 6.68008L5.40263 6.88008ZM5.87078 6.82322L6.4614 7.94294L6.6383 7.84963L6.04768 6.72991L5.87078 6.82322ZM6.44985 7.89629V7.9209H6.64985V7.89629H6.44985ZM6.54985 7.8209H5.9856V8.0209H6.54985V7.8209ZM8.57837 7.50957H8.67837V7.40957H8.57837V7.50957ZM8.57837 7.9209V8.0209H8.67837V7.9209H8.57837ZM7.21606 7.9209H7.11606V8.0209H7.21606V7.9209ZM7.21606 7.50957V7.40957H7.11606V7.50957H7.21606ZM7.38833 5.36152H7.48833V5.26152H7.38833V5.36152ZM7.38833 7.9209V8.0209H7.48833V7.9209H7.38833ZM6.86099 7.9209H6.76099V8.0209H6.86099V7.9209ZM6.86099 5.36152V5.26152H6.76099V5.36152H6.86099ZM8.40083 6.40391H8.50083V6.30391H8.40083V6.40391ZM8.40083 6.80469V6.90469H8.50083V6.80469H8.40083ZM7.21606 6.80469H7.11606V6.90469H7.21606V6.80469ZM7.21606 6.40391V6.30391H7.11606V6.40391H7.21606ZM8.57661 5.36152H8.67661V5.26152H8.57661V5.36152ZM8.57661 5.77461V5.87461H8.67661V5.77461H8.57661ZM7.21606 5.77461H7.11606V5.87461H7.21606V5.77461ZM7.21606 5.36152V5.26152H7.11606V5.36152H7.21606ZM8.47837 7.50957V7.9209H8.67837V7.50957H8.47837ZM8.57837 7.8209H7.21606V8.0209H8.57837V7.8209ZM7.31606 7.9209V7.50957H7.11606V7.9209H7.31606ZM7.21606 7.60957H8.57837V7.40957H7.21606V7.60957ZM7.28833 5.36152V7.9209H7.48833V5.36152H7.28833ZM7.38833 7.8209H6.86099V8.0209H7.38833V7.8209ZM6.96099 7.9209V5.36152H6.76099V7.9209H6.96099ZM6.86099 5.46152H7.38833V5.26152H6.86099V5.46152ZM8.30083 6.40391V6.80469H8.50083V6.40391H8.30083ZM8.40083 6.70469H7.21606V6.90469H8.40083V6.70469ZM7.31606 6.80469V6.40391H7.11606V6.80469H7.31606ZM7.21606 6.50391H8.40083V6.30391H7.21606V6.50391ZM8.47661 5.36152V5.77461H8.67661V5.36152H8.47661ZM8.57661 5.67461H7.21606V5.87461H8.57661V5.67461ZM7.31606 5.77461V5.36152H7.11606V5.77461H7.31606ZM7.21606 5.46152H8.57661V5.26152H7.21606V5.46152ZM9.41333 5.36152H9.51333V5.26152H9.41333V5.36152ZM9.41333 7.9209V8.0209H9.51333V7.9209H9.41333ZM8.88599 7.9209H8.78599V8.0209H8.88599V7.9209ZM8.88599 5.36152V5.26152H8.78599V5.36152H8.88599ZM10.4329 6.45488H10.5329V6.35488H10.4329V6.45488ZM10.4329 6.86621V6.96621H10.5329V6.86621H10.4329ZM9.26919 6.86621H9.16919V6.96621H9.26919V6.86621ZM9.26919 6.45488V6.35488H9.16919V6.45488H9.26919ZM10.5559 5.36152H10.6559V5.26152H10.5559V5.36152ZM10.5559 5.77461V5.87461H10.6559V5.77461H10.5559ZM9.26919 5.77461H9.16919V5.87461H9.26919V5.77461ZM9.26919 5.36152V5.26152H9.16919V5.36152H9.26919ZM9.31333 5.36152V7.9209H9.51333V5.36152H9.31333ZM9.41333 7.8209H8.88599V8.0209H9.41333V7.8209ZM8.98599 7.9209V5.36152H8.78599V7.9209H8.98599ZM8.88599 5.46152H9.41333V5.26152H8.88599V5.46152ZM10.3329 6.45488V6.86621H10.5329V6.45488H10.3329ZM10.4329 6.76621H9.26919V6.96621H10.4329V6.76621ZM9.36919 6.86621V6.45488H9.16919V6.86621H9.36919ZM9.26919 6.55488H10.4329V6.35488H9.26919V6.55488ZM10.4559 5.36152V5.77461H10.6559V5.36152H10.4559ZM10.5559 5.67461H9.26919V5.87461H10.5559V5.67461ZM9.36919 5.77461V5.36152H9.16919V5.77461H9.36919ZM9.26919 5.46152H10.5559V5.26152H9.26919V5.46152Z" fill="#7C29E5"/>
<path d="M11.4227 2.78591C10.8485 2.2078 10.194 1.74687 9.45931 1.40363C8.68675 1.04267 7.87551 0.862109 7.02684 0.862109C6.17913 0.862109 5.38717 1.02043 4.65226 1.33708C3.91844 1.65327 3.2757 2.08392 2.72482 2.62826C2.17385 3.17268 1.73704 3.81236 1.41434 4.5461C1.09119 5.28089 0.929736 6.06645 0.929736 6.90185C0.929736 7.73725 1.09119 8.52872 1.41422 9.27614C1.73685 10.0227 2.17065 10.6651 2.71539 11.2037C3.25992 11.7421 3.90264 12.1723 4.64265 12.4948C5.38397 12.8179 6.179 12.9793 7.02684 12.9793C8.62185 12.9793 9.9969 12.4377 11.149 11.3552C12.3012 10.2727 12.9283 8.92642 13.0297 7.31938L13.033 7.26623H12.9798H12.4146H12.3688L12.3648 7.31183C12.2404 8.71889 11.6712 9.9036 10.6565 10.8682C9.64211 11.8324 8.43336 12.3142 7.02684 12.3142C5.50758 12.3142 4.22396 11.7855 3.17218 10.7279C2.12033 9.67023 1.59489 8.38333 1.59489 6.86418C1.59489 5.38309 2.12004 4.12451 3.17186 3.08553C4.22358 2.04665 5.5073 1.52718 7.02684 1.52718C7.77304 1.52718 8.48813 1.68567 9.17222 2.00285C9.82155 2.30391 10.3982 2.70832 10.9022 3.21657H9.21209H9.16209V3.26657V3.83164V3.88164H9.21209H12.0378H12.0878V3.83164V1.00629V0.956288H12.0378H11.4727H11.4227V1.00629V2.78591Z" fill="#7C29E5" stroke="#7C29E5" stroke-width="0.1"/>
</svg>
