<svg width="14" height="14" viewBox="0 0 14 14" fill="none" xmlns="http://www.w3.org/2000/svg">
<path d="M5.58481 7.26777C5.58481 7.22207 5.57778 7.18105 5.56372 7.14473C5.55083 7.10723 5.52622 7.07324 5.48989 7.04277C5.45356 7.01113 5.40259 6.98008 5.33696 6.94961C5.27134 6.91914 5.18638 6.8875 5.08208 6.85469C4.96606 6.81719 4.85591 6.775 4.75161 6.72813C4.64849 6.68125 4.55708 6.62676 4.47739 6.56465C4.39888 6.50137 4.33677 6.42813 4.29106 6.34492C4.24653 6.26172 4.22427 6.16504 4.22427 6.05488C4.22427 5.94824 4.24771 5.85156 4.29458 5.76484C4.34146 5.67695 4.40708 5.60195 4.49146 5.53984C4.57583 5.47656 4.67544 5.42793 4.79028 5.39395C4.9063 5.35996 5.03345 5.34297 5.17173 5.34297C5.3604 5.34297 5.52505 5.37695 5.66567 5.44492C5.8063 5.51289 5.91528 5.60605 5.99263 5.72441C6.07114 5.84277 6.1104 5.97813 6.1104 6.13047H5.58657C5.58657 6.05547 5.57075 5.98984 5.53911 5.93359C5.50864 5.87617 5.46177 5.83105 5.39849 5.79824C5.33638 5.76543 5.25786 5.74902 5.16294 5.74902C5.07153 5.74902 4.99536 5.76309 4.93442 5.79121C4.87349 5.81816 4.82778 5.85508 4.79731 5.90195C4.76685 5.94766 4.75161 5.99922 4.75161 6.05664C4.75161 6.1 4.76216 6.13926 4.78325 6.17441C4.80552 6.20957 4.83833 6.24238 4.88169 6.27285C4.92505 6.30332 4.97837 6.33203 5.04165 6.35898C5.10493 6.38594 5.17817 6.4123 5.26138 6.43809C5.40083 6.48027 5.52329 6.52773 5.62876 6.58047C5.7354 6.6332 5.82446 6.69238 5.89595 6.75801C5.96743 6.82363 6.02134 6.89805 6.05767 6.98125C6.09399 7.06445 6.11216 7.15879 6.11216 7.26426C6.11216 7.37559 6.09048 7.4752 6.04712 7.56309C6.00376 7.65098 5.94106 7.72539 5.85903 7.78633C5.777 7.84727 5.67915 7.89355 5.56548 7.9252C5.45181 7.95684 5.32466 7.97266 5.18403 7.97266C5.05747 7.97266 4.93267 7.95625 4.80962 7.92344C4.68657 7.88945 4.57466 7.83848 4.47388 7.77051C4.37427 7.70254 4.29458 7.61582 4.23481 7.51035C4.17505 7.40488 4.14517 7.28008 4.14517 7.13594H4.67427C4.67427 7.21563 4.68657 7.28301 4.71118 7.33809C4.73579 7.39316 4.77036 7.4377 4.81489 7.47168C4.8606 7.50566 4.9145 7.53027 4.97661 7.54551C5.03989 7.56074 5.10903 7.56836 5.18403 7.56836C5.27544 7.56836 5.35044 7.55547 5.40903 7.52969C5.4688 7.50391 5.51274 7.46816 5.54087 7.42246C5.57017 7.37676 5.58481 7.3252 5.58481 7.26777ZM7.88403 5.37813H8.40962V7.06914C8.40962 7.26602 8.36743 7.43184 8.28306 7.5666C8.19985 7.70137 8.08442 7.80273 7.93677 7.8707C7.79028 7.93867 7.62153 7.97266 7.43052 7.97266C7.2395 7.97266 7.06958 7.93867 6.92075 7.8707C6.7731 7.80273 6.65708 7.70137 6.57271 7.5666C6.4895 7.43184 6.4479 7.26602 6.4479 7.06914V5.37813H6.97524V7.06914C6.97524 7.18398 6.99341 7.27773 7.02974 7.35039C7.06606 7.42305 7.11821 7.47637 7.18618 7.51035C7.25532 7.54434 7.33677 7.56133 7.43052 7.56133C7.52661 7.56133 7.60806 7.54434 7.67485 7.51035C7.74282 7.47637 7.79438 7.42305 7.82954 7.35039C7.86587 7.27773 7.88403 7.18398 7.88403 7.06914V5.37813ZM9.84048 7.0252H9.18833V6.61387H9.84048C9.94126 6.61387 10.0233 6.59746 10.0866 6.56465C10.1499 6.53066 10.1961 6.48379 10.2254 6.42402C10.2547 6.36426 10.2694 6.29688 10.2694 6.22188C10.2694 6.1457 10.2547 6.0748 10.2254 6.00918C10.1961 5.94355 10.1499 5.89082 10.0866 5.85098C10.0233 5.81113 9.94126 5.79121 9.84048 5.79121H9.37114V7.9375H8.8438V5.37813H9.84048C10.0409 5.37813 10.2125 5.41445 10.3555 5.48711C10.4997 5.55859 10.6098 5.65762 10.686 5.78418C10.7622 5.91074 10.8002 6.05547 10.8002 6.21836C10.8002 6.38359 10.7622 6.52656 10.686 6.64727C10.6098 6.76797 10.4997 6.86113 10.3555 6.92676C10.2125 6.99238 10.0409 7.0252 9.84048 7.0252Z" fill="#7C29E5"/>
<path d="M5.56372 7.14473L5.46908 7.17726L5.47046 7.18083L5.56372 7.14473ZM5.48989 7.04277L5.4242 7.11819L5.42563 7.11939L5.48989 7.04277ZM5.33696 6.94961L5.29485 7.04031L5.33696 6.94961ZM5.08208 6.85469L5.05132 6.94984L5.05207 6.95008L5.08208 6.85469ZM4.75161 6.72812L4.71023 6.81916L4.71062 6.81934L4.75161 6.72812ZM4.47739 6.56465L4.41463 6.64252L4.41592 6.64352L4.47739 6.56465ZM4.29106 6.34492L4.20289 6.39211L4.20342 6.39307L4.29106 6.34492ZM4.29458 5.76484L4.38255 5.8124L4.38282 5.8119L4.29458 5.76484ZM4.49146 5.53984L4.55074 5.62038L4.55146 5.61984L4.49146 5.53984ZM4.79028 5.39395L4.76217 5.29798L4.76191 5.29806L4.79028 5.39395ZM5.99263 5.72441L5.90891 5.77912L5.9093 5.77969L5.99263 5.72441ZM6.1104 6.13047V6.23047H6.2104V6.13047H6.1104ZM5.58657 6.13047H5.48657V6.23047H5.58657V6.13047ZM5.53911 5.93359L5.45075 5.98048L5.45195 5.98262L5.53911 5.93359ZM5.39849 5.79824L5.35177 5.88666L5.35245 5.88702L5.39849 5.79824ZM4.93442 5.79121L4.97488 5.88268L4.97633 5.88201L4.93442 5.79121ZM4.79731 5.90195L4.88053 5.95743L4.88116 5.95645L4.79731 5.90195ZM4.78325 6.17441L4.69748 6.22588L4.69877 6.22792L4.78325 6.17441ZM4.88169 6.27285L4.93918 6.19103L4.88169 6.27285ZM5.26138 6.43809L5.23178 6.53361L5.23242 6.5338L5.26138 6.43809ZM5.62876 6.58047L5.58404 6.66991L5.58443 6.67011L5.62876 6.58047ZM6.05767 6.98125L5.96602 7.02126L6.05767 6.98125ZM6.04712 7.56309L5.95744 7.51884L6.04712 7.56309ZM5.85903 7.78633L5.7994 7.70605L5.85903 7.78633ZM4.80962 7.92344L4.783 8.01983L4.78385 8.02006L4.80962 7.92344ZM4.47388 7.77051L4.41751 7.85311L4.41796 7.85342L4.47388 7.77051ZM4.14517 7.13594V7.03594H4.04517V7.13594H4.14517ZM4.67427 7.13594H4.77427V7.03594H4.67427V7.13594ZM4.81489 7.47168L4.75422 7.55118L4.75522 7.55193L4.81489 7.47168ZM4.97661 7.54551L4.95279 7.64263L4.95321 7.64273L4.97661 7.54551ZM5.40903 7.52969L5.36942 7.43786L5.36876 7.43816L5.40903 7.52969ZM5.54087 7.42246L5.45667 7.36849L5.4557 7.37005L5.54087 7.42246ZM5.68481 7.26777C5.68481 7.21182 5.6762 7.15828 5.65698 7.10863L5.47046 7.18083C5.47937 7.20383 5.48481 7.23232 5.48481 7.26777H5.68481ZM5.65829 7.11222C5.63843 7.05444 5.60166 7.006 5.55415 6.96615L5.42563 7.11939C5.45078 7.14048 5.46323 7.16001 5.46915 7.17723L5.65829 7.11222ZM5.55557 6.96737C5.50955 6.92728 5.44941 6.89157 5.37907 6.85891L5.29485 7.04031C5.35576 7.06859 5.39758 7.09499 5.42421 7.11818L5.55557 6.96737ZM5.37907 6.85891C5.30808 6.82595 5.21866 6.79282 5.11209 6.7593L5.05207 6.95008C5.15409 6.98218 5.2346 7.01233 5.29485 7.04031L5.37907 6.85891ZM5.11284 6.75953C5.00008 6.72309 4.89335 6.68219 4.79261 6.63691L4.71062 6.81934C4.81846 6.86781 4.93205 6.91129 5.05132 6.94984L5.11284 6.75953ZM4.79299 6.63709C4.69617 6.59308 4.61166 6.54251 4.53887 6.48578L4.41592 6.64352C4.5025 6.711 4.6008 6.76942 4.71023 6.81916L4.79299 6.63709ZM4.54015 6.48679C4.47115 6.43118 4.41775 6.36785 4.37871 6.29678L4.20342 6.39307C4.25579 6.4884 4.32661 6.57156 4.41464 6.64251L4.54015 6.48679ZM4.37923 6.29773C4.34368 6.2313 4.32427 6.15134 4.32427 6.05488H4.12427C4.12427 6.17874 4.14939 6.29214 4.2029 6.39211L4.37923 6.29773ZM4.32427 6.05488C4.32427 5.96345 4.34421 5.88333 4.38255 5.8124L4.20661 5.71729C4.1512 5.8198 4.12427 5.93303 4.12427 6.05488H4.32427ZM4.38282 5.8119C4.4223 5.73788 4.47775 5.6741 4.55074 5.62038L4.43217 5.45931C4.33641 5.5298 4.26061 5.61603 4.20634 5.71779L4.38282 5.8119ZM4.55146 5.61984C4.62512 5.5646 4.71369 5.5209 4.81866 5.48984L4.76191 5.29806C4.63719 5.33496 4.52654 5.38853 4.43146 5.45984L4.55146 5.61984ZM4.8184 5.48991C4.92408 5.45896 5.04162 5.44297 5.17173 5.44297V5.24297C5.02527 5.24297 4.88852 5.26097 4.76217 5.29798L4.8184 5.48991ZM5.17173 5.44297C5.34842 5.44297 5.49763 5.47477 5.62216 5.53496L5.70919 5.35489C5.55247 5.27914 5.37238 5.24297 5.17173 5.24297V5.44297ZM5.62216 5.53496C5.74819 5.59587 5.84253 5.67753 5.90892 5.77912L6.07634 5.66971C5.98804 5.53458 5.86441 5.42991 5.70919 5.35489L5.62216 5.53496ZM5.9093 5.77969C5.97614 5.88046 6.0104 5.99629 6.0104 6.13047H6.2104C6.2104 5.95996 6.16614 5.80508 6.07596 5.66913L5.9093 5.77969ZM6.1104 6.03047H5.58657V6.23047H6.1104V6.03047ZM5.68657 6.13047C5.68657 6.0411 5.66761 5.95806 5.62627 5.88457L5.45195 5.98262C5.4739 6.02163 5.48657 6.06983 5.48657 6.13047H5.68657ZM5.62745 5.88672C5.58654 5.80963 5.52401 5.75068 5.44452 5.70947L5.35245 5.88702C5.39953 5.91143 5.43075 5.94271 5.45078 5.98047L5.62745 5.88672ZM5.4452 5.70982C5.36453 5.66721 5.26868 5.64902 5.16294 5.64902V5.84902C5.24704 5.84902 5.30822 5.86365 5.35177 5.88666L5.4452 5.70982ZM5.16294 5.64902C5.06201 5.64902 4.97044 5.66445 4.89252 5.70042L4.97633 5.88201C5.02028 5.86172 5.08106 5.84902 5.16294 5.84902V5.64902ZM4.89397 5.69976C4.81875 5.73303 4.7564 5.78141 4.71347 5.84745L4.88116 5.95645C4.89917 5.92875 4.92823 5.9033 4.97487 5.88266L4.89397 5.69976ZM4.71411 5.84648C4.67218 5.90938 4.65161 5.98042 4.65161 6.05664H4.85161C4.85161 6.01801 4.86152 5.98593 4.88052 5.95742L4.71411 5.84648ZM4.65161 6.05664C4.65161 6.11704 4.66654 6.17426 4.6975 6.22586L4.869 6.12296C4.85778 6.10426 4.85161 6.08296 4.85161 6.05664H4.65161ZM4.69877 6.22792C4.72972 6.27679 4.77289 6.31862 4.8242 6.35467L4.93918 6.19103C4.90377 6.16615 4.88132 6.14235 4.86773 6.12091L4.69877 6.22792ZM4.8242 6.35467C4.87468 6.39015 4.93453 6.42205 5.00246 6.45099L5.08084 6.26698C5.0222 6.24201 4.97541 6.21649 4.93918 6.19103L4.8242 6.35467ZM5.00246 6.45099C5.06957 6.47957 5.14613 6.50707 5.23178 6.53361L5.29097 6.34257C5.21021 6.31754 5.14029 6.2923 5.08084 6.26698L5.00246 6.45099ZM5.23242 6.5338C5.36766 6.57471 5.48465 6.62022 5.58404 6.66991L5.67348 6.49103C5.56193 6.43525 5.434 6.38583 5.29033 6.34237L5.23242 6.5338ZM5.58443 6.67011C5.68443 6.71956 5.76517 6.7737 5.82832 6.83167L5.96357 6.68434C5.88375 6.61107 5.78637 6.54685 5.67309 6.49083L5.58443 6.67011ZM5.82832 6.83167C5.89026 6.88854 5.93564 6.95169 5.96602 7.02126L6.14931 6.94124C6.10703 6.8444 6.0446 6.75873 5.96357 6.68434L5.82832 6.83167ZM5.96602 7.02126C5.99602 7.08997 6.01216 7.17035 6.01216 7.26426H6.21216C6.21216 7.14722 6.19197 7.03894 6.14931 6.94124L5.96602 7.02126ZM6.01216 7.26426C6.01216 7.36234 5.99314 7.44648 5.95744 7.51884L6.1368 7.60733C6.18782 7.50391 6.21216 7.38883 6.21216 7.26426H6.01216ZM5.95744 7.51884C5.9214 7.5919 5.86926 7.65416 5.7994 7.70605L5.91867 7.8666C6.01287 7.79662 6.08612 7.71006 6.1368 7.60733L5.95744 7.51884ZM5.7994 7.70605C5.72863 7.75863 5.64231 7.80001 5.53866 7.82886L5.59229 8.02153C5.71599 7.9871 5.82538 7.9359 5.91867 7.8666L5.7994 7.70605ZM5.53866 7.82886C5.4352 7.85766 5.31727 7.87266 5.18403 7.87266V8.07266C5.33204 8.07266 5.46841 8.05602 5.59229 8.02153L5.53866 7.82886ZM5.18403 7.87266C5.06622 7.87266 4.95008 7.8574 4.83539 7.82681L4.78385 8.02006C4.91525 8.0551 5.04872 8.07266 5.18403 8.07266V7.87266ZM4.83624 7.82705C4.7231 7.7958 4.62116 7.74922 4.52979 7.6876L4.41796 7.85342C4.52816 7.92773 4.65005 7.98311 4.783 8.01983L4.83624 7.82705ZM4.53024 7.68791C4.44332 7.6286 4.37409 7.5533 4.32182 7.46105L4.14781 7.55965C4.21507 7.67834 4.30521 7.77648 4.41751 7.85311L4.53024 7.68791ZM4.32182 7.46105C4.27205 7.37323 4.24517 7.26607 4.24517 7.13594H4.04517C4.04517 7.29409 4.07805 7.43654 4.14781 7.55965L4.32182 7.46105ZM4.14517 7.23594H4.67427V7.03594H4.14517V7.23594ZM4.57427 7.13594C4.57427 7.22539 4.58801 7.30755 4.61988 7.37888L4.80248 7.29729C4.78513 7.25846 4.77427 7.20586 4.77427 7.13594H4.57427ZM4.61988 7.37888C4.65077 7.44801 4.6954 7.50628 4.75423 7.55117L4.87556 7.39218C4.84533 7.36911 4.82081 7.33832 4.80248 7.29729L4.61988 7.37888ZM4.75522 7.55193C4.81287 7.59479 4.87931 7.62461 4.95279 7.64263L5.00043 7.44839C4.94969 7.43594 4.90832 7.41654 4.87456 7.39143L4.75522 7.55193ZM4.95321 7.64273C5.02521 7.66006 5.10232 7.66836 5.18403 7.66836V7.46836C5.11575 7.46836 5.05458 7.46142 5.00002 7.44829L4.95321 7.64273ZM5.18403 7.66836C5.28382 7.66836 5.37381 7.65444 5.44931 7.62122L5.36876 7.43816C5.32707 7.4565 5.26706 7.46836 5.18403 7.46836V7.66836ZM5.44864 7.62151C5.5232 7.58935 5.58502 7.54152 5.62604 7.47487L5.4557 7.37005C5.44047 7.3948 5.4144 7.41846 5.36942 7.43787L5.44864 7.62151ZM5.62506 7.47643C5.66529 7.41367 5.68481 7.34317 5.68481 7.26777H5.48481C5.48481 7.30722 5.47505 7.33985 5.45668 7.36849L5.62506 7.47643ZM7.88403 5.37813V5.27813H7.78403V5.37813H7.88403ZM8.40962 5.37813H8.50962V5.27813H8.40962V5.37813ZM8.28306 7.5666L8.1983 7.51353L8.19797 7.51407L8.28306 7.5666ZM7.93677 7.8707L7.89495 7.77986L7.89468 7.77999L7.93677 7.8707ZM6.92075 7.8707L6.87894 7.96154L6.87921 7.96167L6.92075 7.8707ZM6.57271 7.5666L6.48761 7.61914L6.48795 7.61967L6.57271 7.5666ZM6.4479 5.37813V5.27813H6.3479V5.37813H6.4479ZM6.97524 5.37813H7.07524V5.27813H6.97524V5.37813ZM7.18618 7.51035L7.14146 7.5998L7.14207 7.6001L7.18618 7.51035ZM7.67485 7.51035L7.63013 7.42091L7.62951 7.42122L7.67485 7.51035ZM7.82954 7.35039L7.74009 7.30567L7.73953 7.30683L7.82954 7.35039ZM7.88403 5.47813H8.40962V5.27813H7.88403V5.47813ZM8.30962 5.37813V7.06914H8.50962V5.37813H8.30962ZM8.30962 7.06914C8.30962 7.25171 8.27058 7.39808 8.1983 7.51354L8.36782 7.61967C8.46428 7.46559 8.50962 7.28032 8.50962 7.06914H8.30962ZM8.19797 7.51407C8.12539 7.63162 8.02523 7.7199 7.89495 7.77987L7.97858 7.96154C8.14362 7.88557 8.27432 7.77111 8.36815 7.61914L8.19797 7.51407ZM7.89468 7.77999C7.76358 7.84082 7.60962 7.87266 7.43052 7.87266V8.07266C7.63344 8.07266 7.81699 8.03652 7.97886 7.96141L7.89468 7.77999ZM7.43052 7.87266C7.25146 7.87266 7.09608 7.84084 6.96229 7.77974L6.87921 7.96167C7.04308 8.03651 7.22755 8.07266 7.43052 8.07266V7.87266ZM6.96257 7.77987C6.83218 7.71985 6.73126 7.63141 6.65746 7.51354L6.48795 7.61967C6.5829 7.77132 6.71401 7.88562 6.87894 7.96154L6.96257 7.77987ZM6.65779 7.51407C6.58646 7.39852 6.5479 7.25195 6.5479 7.06914H6.3479C6.3479 7.28008 6.39255 7.46515 6.48762 7.61914L6.65779 7.51407ZM6.5479 7.06914V5.37813H6.3479V7.06914H6.5479ZM6.4479 5.47813H6.97524V5.27813H6.4479V5.47813ZM6.87524 5.37813V7.06914H7.07524V5.37813H6.87524ZM6.87524 7.06914C6.87524 7.1935 6.89476 7.30404 6.94029 7.39511L7.11918 7.30567C7.09206 7.25143 7.07524 7.17447 7.07524 7.06914H6.87524ZM6.94029 7.39511C6.98559 7.4857 7.05277 7.55545 7.14146 7.59979L7.2309 7.42091C7.18366 7.39729 7.14654 7.36039 7.11918 7.30567L6.94029 7.39511ZM7.14207 7.6001C7.22759 7.64213 7.32474 7.66133 7.43052 7.66133V7.46133C7.3488 7.46133 7.28305 7.44654 7.23029 7.42061L7.14207 7.6001ZM7.43052 7.66133C7.53806 7.66133 7.63596 7.64234 7.7202 7.59948L7.62951 7.42122C7.58016 7.44633 7.51516 7.46133 7.43052 7.46133V7.66133ZM7.71957 7.59979C7.80857 7.5553 7.87542 7.48516 7.91956 7.39395L7.73953 7.30683C7.71335 7.36093 7.67708 7.39744 7.63013 7.42091L7.71957 7.59979ZM7.91898 7.39511C7.96452 7.30404 7.98403 7.1935 7.98403 7.06914H7.78403C7.78403 7.17447 7.76722 7.25143 7.7401 7.30567L7.91898 7.39511ZM7.98403 7.06914V5.37813H7.78403V7.06914H7.98403ZM9.18833 7.0252H9.08833V7.1252H9.18833V7.0252ZM9.18833 6.61387V6.51387H9.08833V6.61387H9.18833ZM10.0866 6.56465L10.1326 6.65343L10.1339 6.65275L10.0866 6.56465ZM9.37114 5.79121V5.69121H9.27114V5.79121H9.37114ZM9.37114 7.9375V8.0375H9.47114V7.9375H9.37114ZM8.8438 7.9375H8.7438V8.0375H8.8438V7.9375ZM8.8438 5.37813V5.27813H8.7438V5.37813H8.8438ZM10.3555 5.48711L10.3102 5.57626L10.3111 5.5767L10.3555 5.48711ZM10.686 5.78418L10.7717 5.73261L10.686 5.78418ZM10.686 6.64727L10.7706 6.70063L10.686 6.64727ZM10.3555 6.92676L10.3141 6.83575L10.3138 6.83587L10.3555 6.92676ZM9.84048 6.9252H9.18833V7.1252H9.84048V6.9252ZM9.28833 7.0252V6.61387H9.08833V7.0252H9.28833ZM9.18833 6.71387H9.84048V6.51387H9.18833V6.71387ZM9.84048 6.71387C9.95106 6.71387 10.0504 6.69602 10.1326 6.65342L10.0405 6.47587C9.99614 6.4989 9.93146 6.51387 9.84048 6.51387V6.71387ZM10.1339 6.65275C10.214 6.6097 10.276 6.54809 10.3152 6.46804L10.1356 6.38001C10.1163 6.41949 10.0857 6.45163 10.0393 6.47655L10.1339 6.65275ZM10.3152 6.46804C10.3521 6.39292 10.3694 6.31018 10.3694 6.22188H10.1694C10.1694 6.28357 10.1574 6.33559 10.1356 6.38001L10.3152 6.46804ZM10.3694 6.22188C10.3694 6.13251 10.3521 6.04763 10.3168 5.96841L10.1341 6.04994C10.1574 6.10198 10.1694 6.15889 10.1694 6.22188H10.3694ZM10.3168 5.96841C10.2791 5.88397 10.2192 5.81628 10.1399 5.76635L10.0333 5.9356C10.0806 5.96536 10.1132 6.00314 10.1341 6.04994L10.3168 5.96841ZM10.1399 5.76635C10.056 5.71354 9.95375 5.69121 9.84048 5.69121V5.89121C9.92877 5.89121 9.99061 5.90873 10.0333 5.9356L10.1399 5.76635ZM9.84048 5.69121H9.37114V5.89121H9.84048V5.69121ZM9.27114 5.79121V7.9375H9.47114V5.79121H9.27114ZM9.37114 7.8375H8.8438V8.0375H9.37114V7.8375ZM8.9438 7.9375V5.37813H8.7438V7.9375H8.9438ZM8.8438 5.47813H9.84048V5.27813H8.8438V5.47813ZM9.84048 5.47813C10.029 5.47813 10.1843 5.51229 10.3102 5.57626L10.4008 5.39796C10.2408 5.31661 10.0528 5.27813 9.84048 5.27813V5.47813ZM10.3111 5.5767C10.4397 5.64049 10.5349 5.72699 10.6003 5.83575L10.7717 5.73261C10.6848 5.58825 10.5596 5.4767 10.3999 5.39752L10.3111 5.5767ZM10.6003 5.83575C10.6662 5.94517 10.7002 6.07172 10.7002 6.21836H10.9002C10.9002 6.03922 10.8582 5.87631 10.7717 5.73261L10.6003 5.83575ZM10.7002 6.21836C10.7002 6.36774 10.666 6.49156 10.6014 6.5939L10.7706 6.70063C10.8583 6.56157 10.9002 6.39944 10.9002 6.21836H10.7002ZM10.6014 6.5939C10.5368 6.69634 10.4425 6.77728 10.3141 6.83575L10.397 7.01777C10.5568 6.94499 10.6829 6.8396 10.7706 6.70063L10.6014 6.5939ZM10.3138 6.83587C10.187 6.89408 10.0303 6.9252 9.84048 6.9252V7.1252C10.0515 7.1252 10.2381 7.09068 10.3972 7.01764L10.3138 6.83587Z" fill="#7C29E5"/>
<path d="M11.4227 2.80251C10.8485 2.2244 10.194 1.76347 9.45931 1.42023C8.68675 1.05927 7.87551 0.878711 7.02684 0.878711C6.17913 0.878711 5.38717 1.03703 4.65226 1.35368C3.91844 1.66987 3.2757 2.10052 2.72482 2.64486C2.17385 3.18929 1.73704 3.82896 1.41434 4.5627C1.09119 5.2975 0.929736 6.08305 0.929736 6.91845C0.929736 7.75386 1.09119 8.54532 1.41422 9.29274C1.73685 10.0393 2.17065 10.6817 2.71539 11.2203C3.25992 11.7587 3.90264 12.1889 4.64265 12.5114C5.38397 12.8345 6.179 12.9959 7.02684 12.9959C8.62185 12.9959 9.9969 12.4543 11.149 11.3719C12.3012 10.2893 12.9283 8.94302 13.0297 7.33598L13.033 7.28283H12.9798H12.4146H12.3688L12.3648 7.32843C12.2404 8.7355 11.6712 9.9202 10.6565 10.8848C9.64211 11.849 8.43336 12.3308 7.02684 12.3308C5.50758 12.3308 4.22396 11.8021 3.17218 10.7445C2.12033 9.68683 1.59489 8.39993 1.59489 6.88078C1.59489 5.39969 2.12004 4.14111 3.17186 3.10213C4.22358 2.06325 5.5073 1.54378 7.02684 1.54378C7.77304 1.54378 8.48813 1.70227 9.17222 2.01945C9.82155 2.32051 10.3982 2.72492 10.9022 3.23317H9.21209H9.16209V3.28317V3.84824V3.89824H9.21209H12.0378H12.0878V3.84824V1.02289V0.972889H12.0378H11.4727H11.4227V1.02289V2.80251Z" fill="#7C29E5" stroke="#7C29E5" stroke-width="0.1"/>
</svg>
