<svg width="14" height="14" viewBox="0 0 14 14" fill="none" xmlns="http://www.w3.org/2000/svg">
<path d="M4.93013 7.57539L5.62271 8.12383L5.29048 8.41211L4.60845 7.86367L4.93013 7.57539ZM5.64028 6.61563V6.73691C5.64028 6.93145 5.61392 7.10605 5.56118 7.26074C5.50962 7.41543 5.43521 7.54727 5.33794 7.65625C5.24067 7.76406 5.12583 7.84668 4.99341 7.9041C4.86099 7.96152 4.71392 7.99023 4.5522 7.99023C4.39165 7.99023 4.24458 7.96152 4.11099 7.9041C3.97739 7.84668 3.86196 7.76406 3.7647 7.65625C3.66743 7.54727 3.59185 7.41543 3.53794 7.26074C3.48521 7.10605 3.45884 6.93145 3.45884 6.73691V6.61563C3.45884 6.41992 3.48521 6.24531 3.53794 6.0918C3.59185 5.93711 3.66685 5.80527 3.76294 5.69629C3.85903 5.5873 3.97388 5.5041 4.10747 5.44668C4.24106 5.38926 4.38813 5.36055 4.54868 5.36055C4.7104 5.36055 4.85747 5.38926 4.98989 5.44668C5.12349 5.5041 5.23892 5.5873 5.33618 5.69629C5.43345 5.80527 5.50845 5.93711 5.56118 6.0918C5.61392 6.24531 5.64028 6.41992 5.64028 6.61563ZM5.10767 6.73691V6.61211C5.10767 6.47617 5.09478 6.35664 5.06899 6.25352C5.04438 6.15039 5.00806 6.06367 4.96001 5.99336C4.91313 5.92305 4.85513 5.87031 4.78599 5.83516C4.71685 5.79883 4.63774 5.78066 4.54868 5.78066C4.45962 5.78066 4.38052 5.79883 4.31138 5.83516C4.24224 5.87031 4.18423 5.92305 4.13735 5.99336C4.09048 6.06367 4.05474 6.15039 4.03013 6.25352C4.00552 6.35664 3.99321 6.47617 3.99321 6.61211V6.73691C3.99321 6.87168 4.00552 6.99121 4.03013 7.09551C4.05474 7.19863 4.09048 7.28594 4.13735 7.35742C4.1854 7.42773 4.24399 7.48105 4.31313 7.51738C4.38345 7.55371 4.46313 7.57188 4.5522 7.57188C4.64126 7.57188 4.71978 7.55371 4.78774 7.51738C4.85688 7.48105 4.91489 7.42773 4.96177 7.35742C5.00981 7.28594 5.04614 7.19863 5.07075 7.09551C5.09536 6.99121 5.10767 6.87168 5.10767 6.73691ZM7.43501 5.3957H7.9606V7.08672C7.9606 7.28359 7.91841 7.44941 7.83403 7.58418C7.75083 7.71895 7.6354 7.82031 7.48774 7.88828C7.34126 7.95625 7.17251 7.99023 6.98149 7.99023C6.79048 7.99023 6.62056 7.95625 6.47173 7.88828C6.32407 7.82031 6.20806 7.71895 6.12368 7.58418C6.04048 7.44941 5.99888 7.28359 5.99888 7.08672V5.3957H6.52622V7.08672C6.52622 7.20156 6.54438 7.29531 6.58071 7.36797C6.61704 7.44063 6.66919 7.49395 6.73716 7.52793C6.8063 7.56191 6.88774 7.57891 6.98149 7.57891C7.07759 7.57891 7.15903 7.56191 7.22583 7.52793C7.2938 7.49395 7.34536 7.44063 7.38052 7.36797C7.41685 7.29531 7.43501 7.20156 7.43501 7.08672V5.3957ZM10.4971 6.61563V6.73691C10.4971 6.93145 10.4708 7.10605 10.418 7.26074C10.3653 7.41543 10.2909 7.54727 10.1948 7.65625C10.0987 7.76406 9.98384 7.84668 9.85024 7.9041C9.71782 7.96152 9.57075 7.99023 9.40903 7.99023C9.24849 7.99023 9.10142 7.96152 8.96782 7.9041C8.8354 7.84668 8.72056 7.76406 8.62329 7.65625C8.52603 7.54727 8.45044 7.41543 8.39653 7.26074C8.3438 7.10605 8.31743 6.93145 8.31743 6.73691V6.61563C8.31743 6.41992 8.3438 6.24531 8.39653 6.0918C8.44927 5.93711 8.52368 5.80527 8.61978 5.69629C8.71704 5.5873 8.83188 5.5041 8.96431 5.44668C9.0979 5.38926 9.24497 5.36055 9.40552 5.36055C9.56724 5.36055 9.71431 5.38926 9.84673 5.44668C9.98032 5.5041 10.0952 5.5873 10.1913 5.69629C10.2885 5.80527 10.3635 5.93711 10.4163 6.0918C10.4702 6.24531 10.4971 6.41992 10.4971 6.61563ZM9.9645 6.73691V6.61211C9.9645 6.47617 9.9522 6.35664 9.92759 6.25352C9.90298 6.15039 9.86665 6.06367 9.8186 5.99336C9.77056 5.92305 9.71196 5.87031 9.64282 5.83516C9.57368 5.79883 9.49458 5.78066 9.40552 5.78066C9.31646 5.78066 9.23735 5.79883 9.16821 5.83516C9.10024 5.87031 9.04224 5.92305 8.99419 5.99336C8.94731 6.06367 8.91157 6.15039 8.88696 6.25352C8.86235 6.35664 8.85005 6.47617 8.85005 6.61211V6.73691C8.85005 6.87168 8.86235 6.99121 8.88696 7.09551C8.91157 7.19863 8.9479 7.28594 8.99595 7.35742C9.04399 7.42773 9.10259 7.48105 9.17173 7.51738C9.24087 7.55371 9.31997 7.57188 9.40903 7.57188C9.4981 7.57188 9.5772 7.55371 9.64634 7.51738C9.71548 7.48105 9.77349 7.42773 9.82036 7.35742C9.86724 7.28594 9.90298 7.19863 9.92759 7.09551C9.9522 6.99121 9.9645 6.87168 9.9645 6.73691Z" fill="#7C29E5"/>
<path d="M4.93013 7.57539L4.99221 7.49699L4.92614 7.44468L4.86339 7.50092L4.93013 7.57539ZM5.62271 8.12383L5.68824 8.19936L5.77934 8.12031L5.68479 8.04543L5.62271 8.12383ZM5.29048 8.41211L5.22781 8.49004L5.29292 8.54239L5.35602 8.48764L5.29048 8.41211ZM4.60845 7.86367L4.54171 7.7892L4.454 7.8678L4.54578 7.9416L4.60845 7.86367ZM5.56118 7.26074L5.46653 7.22847L5.46631 7.22912L5.56118 7.26074ZM5.33794 7.65625L5.41219 7.72324L5.41255 7.72284L5.33794 7.65625ZM3.7647 7.65625L3.69009 7.72284L3.69045 7.72324L3.7647 7.65625ZM3.53794 7.26074L3.44329 7.29301L3.44351 7.29365L3.53794 7.26074ZM3.53794 6.0918L3.44351 6.05889L3.44336 6.05931L3.53794 6.0918ZM3.76294 5.69629L3.68793 5.63015L3.76294 5.69629ZM4.98989 5.44668L4.95011 5.53843L4.9504 5.53855L4.98989 5.44668ZM5.33618 5.69629L5.41079 5.6297L5.33618 5.69629ZM5.56118 6.0918L5.46653 6.12406L5.46661 6.12428L5.56118 6.0918ZM5.06899 6.25352L4.97172 6.27673L4.97198 6.27777L5.06899 6.25352ZM4.96001 5.99336L4.8768 6.04883L4.87745 6.04978L4.96001 5.99336ZM4.78599 5.83516L4.73947 5.92369L4.74066 5.92429L4.78599 5.83516ZM4.31138 5.83516L4.35671 5.9243L4.35789 5.92368L4.31138 5.83516ZM4.03013 7.09551L3.9328 7.11847L3.93286 7.11872L4.03013 7.09551ZM4.13735 7.35742L4.05371 7.41227L4.05479 7.41384L4.13735 7.35742ZM4.31313 7.51738L4.26662 7.60591L4.26723 7.60623L4.31313 7.51738ZM4.78774 7.51738L4.74123 7.42886L4.74061 7.42919L4.78774 7.51738ZM4.96177 7.35742L4.87877 7.30164L4.87856 7.30195L4.96177 7.35742ZM5.07075 7.09551L5.16802 7.11872L5.16808 7.11847L5.07075 7.09551ZM4.86805 7.65379L5.56062 8.20222L5.68479 8.04543L4.99221 7.49699L4.86805 7.65379ZM5.55717 8.0483L5.22494 8.33658L5.35602 8.48764L5.68824 8.19936L5.55717 8.0483ZM5.35314 8.33418L4.67111 7.78574L4.54578 7.9416L5.22781 8.49004L5.35314 8.33418ZM4.67519 7.93814L4.99687 7.64986L4.86339 7.50092L4.54171 7.7892L4.67519 7.93814ZM5.54028 6.61563V6.73691H5.74028V6.61563H5.54028ZM5.54028 6.73691C5.54028 6.9225 5.51512 7.08594 5.46653 7.22847L5.65583 7.29301C5.71271 7.12617 5.74028 6.94039 5.74028 6.73691H5.54028ZM5.46631 7.22912C5.41855 7.3724 5.35054 7.49195 5.26333 7.58966L5.41255 7.72284C5.51987 7.60258 5.60068 7.45846 5.65605 7.29237L5.46631 7.22912ZM5.26369 7.58926C5.17595 7.68652 5.07284 7.76066 4.95362 7.81236L5.03319 7.99585C5.17882 7.9327 5.3054 7.84161 5.41219 7.72324L5.26369 7.58926ZM4.95362 7.81236C4.83519 7.86371 4.70188 7.89023 4.5522 7.89023V8.09023C4.72595 8.09023 4.88678 8.05933 5.03319 7.99585L4.95362 7.81236ZM4.5522 7.89023C4.40381 7.89023 4.27035 7.86375 4.15048 7.81223L4.0715 7.99597C4.21881 8.05929 4.37949 8.09023 4.5522 8.09023V7.89023ZM4.15048 7.81223C4.03011 7.76049 3.92654 7.68636 3.83895 7.58926L3.69045 7.72324C3.79739 7.84177 3.92468 7.93287 4.0715 7.99597L4.15048 7.81223ZM3.83931 7.58966C3.7518 7.49162 3.68247 7.37161 3.63237 7.22783L3.44351 7.29365C3.50122 7.45925 3.58306 7.60291 3.69009 7.72284L3.83931 7.58966ZM3.63259 7.22847C3.584 7.08594 3.55884 6.9225 3.55884 6.73691H3.35884C3.35884 6.94039 3.38641 7.12617 3.44329 7.29301L3.63259 7.22847ZM3.55884 6.73691V6.61563H3.35884V6.73691H3.55884ZM3.55884 6.61563C3.55884 6.42877 3.58402 6.26545 3.63252 6.12428L3.44336 6.05931C3.38639 6.22518 3.35884 6.41107 3.35884 6.61563H3.55884ZM3.63237 6.1247C3.68256 5.98069 3.75144 5.86053 3.83795 5.76242L3.68793 5.63015C3.58225 5.75001 3.50114 5.89352 3.44351 6.05889L3.63237 6.1247ZM3.83795 5.76242C3.92424 5.66455 4.02695 5.59013 4.14696 5.53855L4.06798 5.35481C3.9208 5.41807 3.79382 5.51006 3.68793 5.63015L3.83795 5.76242ZM4.14696 5.53855C4.26684 5.48703 4.40029 5.46055 4.54868 5.46055V5.26055C4.37598 5.26055 4.21529 5.29149 4.06798 5.35481L4.14696 5.53855ZM4.54868 5.46055C4.69836 5.46055 4.83167 5.48707 4.95011 5.53843L5.02968 5.35493C4.88327 5.29145 4.72244 5.26055 4.54868 5.26055V5.46055ZM4.9504 5.53855C5.07052 5.59018 5.17398 5.66473 5.26157 5.76287L5.41079 5.6297C5.30385 5.50988 5.17645 5.41802 5.02938 5.35481L4.9504 5.53855ZM5.26157 5.76287C5.34893 5.86075 5.4176 5.98054 5.46653 6.12406L5.65583 6.05953C5.59929 5.89368 5.51797 5.74979 5.41079 5.6297L5.26157 5.76287ZM5.46661 6.12428C5.5151 6.26545 5.54028 6.42877 5.54028 6.61563H5.74028C5.74028 6.41107 5.71273 6.22518 5.65576 6.05931L5.46661 6.12428ZM5.20767 6.73691V6.61211H5.00767V6.73691H5.20767ZM5.20767 6.61211C5.20767 6.47014 5.19423 6.34216 5.16601 6.22926L4.97198 6.27777C4.99532 6.37112 5.00767 6.4822 5.00767 6.61211H5.20767ZM5.16626 6.2303C5.13949 6.11811 5.09897 6.01946 5.04257 5.93694L4.87745 6.04978C4.91715 6.10788 4.94928 6.18267 4.97173 6.27673L5.16626 6.2303ZM5.04321 5.93789C4.98769 5.8546 4.91711 5.78964 4.83131 5.74602L4.74066 5.92429C4.79315 5.95098 4.83858 5.99149 4.8768 6.04883L5.04321 5.93789ZM4.8325 5.74663C4.74711 5.70177 4.65166 5.68066 4.54868 5.68066V5.88066C4.62383 5.88066 4.68658 5.89589 4.73947 5.92368L4.8325 5.74663ZM4.54868 5.68066C4.44571 5.68066 4.35025 5.70177 4.26486 5.74663L4.35789 5.92368C4.41078 5.89589 4.47353 5.88066 4.54868 5.88066V5.68066ZM4.26605 5.74602C4.18025 5.78964 4.10967 5.8546 4.05415 5.93789L4.22056 6.04883C4.25878 5.99149 4.30422 5.95098 4.3567 5.92429L4.26605 5.74602ZM4.05415 5.93789C3.99929 6.02018 3.95954 6.11849 3.93286 6.2303L4.1274 6.27673C4.14993 6.18229 4.18167 6.10716 4.22056 6.04883L4.05415 5.93789ZM3.93286 6.2303C3.90601 6.34281 3.89321 6.47043 3.89321 6.61211H4.09321C4.09321 6.48192 4.10503 6.37047 4.1274 6.27673L3.93286 6.2303ZM3.89321 6.61211V6.73691H4.09321V6.61211H3.89321ZM3.89321 6.73691C3.89321 6.87753 3.90603 7.00501 3.9328 7.11847L4.12745 7.07254C4.10501 6.97741 4.09321 6.86583 4.09321 6.73691H3.89321ZM3.93286 7.11872C3.95953 7.2305 3.99919 7.32909 4.05373 7.41226L4.22098 7.30259C4.18176 7.24278 4.14994 7.16677 4.1274 7.0723L3.93286 7.11872ZM4.05479 7.41384C4.1112 7.49639 4.18174 7.56131 4.26662 7.60591L4.35965 7.42886C4.30625 7.4008 4.2596 7.35908 4.21992 7.301L4.05479 7.41384ZM4.26723 7.60623C4.35343 7.65076 4.44919 7.67188 4.5522 7.67188V7.47187C4.47708 7.47187 4.41346 7.45666 4.35904 7.42854L4.26723 7.60623ZM4.5522 7.67188C4.65513 7.67188 4.7503 7.65078 4.83488 7.60558L4.74061 7.42919C4.68925 7.45664 4.62739 7.47187 4.5522 7.47187V7.67188ZM4.83426 7.60591C4.9194 7.56117 4.9896 7.49595 5.04497 7.41289L4.87856 7.30195C4.84018 7.35952 4.79437 7.40094 4.74123 7.42886L4.83426 7.60591ZM5.04476 7.41321C5.10082 7.32981 5.14126 7.23088 5.16802 7.11872L4.97348 7.0723C4.95103 7.16639 4.91881 7.24207 4.87877 7.30164L5.04476 7.41321ZM5.16808 7.11847C5.19485 7.00501 5.20767 6.87753 5.20767 6.73691H5.00767C5.00767 6.86583 4.99587 6.97741 4.97342 7.07254L5.16808 7.11847ZM7.43501 5.3957V5.2957H7.33501V5.3957H7.43501ZM7.9606 5.3957H8.0606V5.2957H7.9606V5.3957ZM7.83403 7.58418L7.74927 7.53111L7.74894 7.53165L7.83403 7.58418ZM7.48774 7.88828L7.44593 7.79744L7.44565 7.79757L7.48774 7.88828ZM6.47173 7.88828L6.42991 7.97912L6.43019 7.97924L6.47173 7.88828ZM6.12368 7.58418L6.03859 7.63671L6.03892 7.63725L6.12368 7.58418ZM5.99888 5.3957V5.2957H5.89888V5.3957H5.99888ZM6.52622 5.3957H6.62622V5.2957H6.52622V5.3957ZM6.73716 7.52793L6.69244 7.61737L6.69305 7.61767L6.73716 7.52793ZM7.22583 7.52793L7.18111 7.43848L7.18048 7.4388L7.22583 7.52793ZM7.38052 7.36797L7.29107 7.32324L7.2905 7.32441L7.38052 7.36797ZM7.43501 5.4957H7.9606V5.2957H7.43501V5.4957ZM7.8606 5.3957V7.08672H8.0606V5.3957H7.8606ZM7.8606 7.08672C7.8606 7.26929 7.82156 7.41566 7.74927 7.53111L7.91879 7.63725C8.01526 7.48317 8.0606 7.2979 8.0606 7.08672H7.8606ZM7.74894 7.53165C7.67637 7.6492 7.5762 7.73748 7.44593 7.79744L7.52956 7.97912C7.6946 7.90315 7.82529 7.78869 7.91912 7.63671L7.74894 7.53165ZM7.44565 7.79757C7.31455 7.8584 7.1606 7.89023 6.98149 7.89023V8.09023C7.18442 8.09023 7.36797 8.0541 7.52983 7.97899L7.44565 7.79757ZM6.98149 7.89023C6.80243 7.89023 6.64705 7.85842 6.51327 7.79732L6.43019 7.97924C6.59406 8.05408 6.77853 8.09023 6.98149 8.09023V7.89023ZM6.51354 7.79744C6.38315 7.73742 6.28224 7.64899 6.20844 7.53111L6.03892 7.63725C6.13387 7.7889 6.26499 7.9032 6.42991 7.97912L6.51354 7.79744ZM6.20877 7.53165C6.13743 7.4161 6.09888 7.26953 6.09888 7.08672H5.89888C5.89888 7.29766 5.94352 7.48273 6.03859 7.63671L6.20877 7.53165ZM6.09888 7.08672V5.3957H5.89888V7.08672H6.09888ZM5.99888 5.4957H6.52622V5.2957H5.99888V5.4957ZM6.42622 5.3957V7.08672H6.62622V5.3957H6.42622ZM6.42622 7.08672C6.42622 7.21107 6.44573 7.32162 6.49127 7.41269L6.67016 7.32325C6.64304 7.26901 6.62622 7.19205 6.62622 7.08672H6.42622ZM6.49127 7.41269C6.53656 7.50328 6.60374 7.57302 6.69244 7.61737L6.78188 7.43849C6.73464 7.41487 6.69752 7.37797 6.67016 7.32325L6.49127 7.41269ZM6.69305 7.61767C6.77857 7.65971 6.87571 7.67891 6.98149 7.67891V7.47891C6.89977 7.47891 6.83403 7.46412 6.78127 7.43818L6.69305 7.61767ZM6.98149 7.67891C7.08903 7.67891 7.18693 7.65992 7.27118 7.61706L7.18048 7.4388C7.13113 7.46391 7.06614 7.47891 6.98149 7.47891V7.67891ZM7.27055 7.61737C7.35954 7.57288 7.4264 7.50274 7.47053 7.41152L7.2905 7.32441C7.26432 7.37851 7.22805 7.41501 7.18111 7.43849L7.27055 7.61737ZM7.46996 7.41269C7.5155 7.32162 7.53501 7.21107 7.53501 7.08672H7.33501C7.33501 7.19205 7.3182 7.26901 7.29107 7.32325L7.46996 7.41269ZM7.53501 7.08672V5.3957H7.33501V7.08672H7.53501ZM10.1948 7.65625L10.2694 7.72279L10.2698 7.72239L10.1948 7.65625ZM9.85024 7.9041L9.81075 7.81223L9.81046 7.81236L9.85024 7.9041ZM8.96782 7.9041L8.92804 7.99585L8.92833 7.99597L8.96782 7.9041ZM8.62329 7.65625L8.54868 7.72284L8.54904 7.72324L8.62329 7.65625ZM8.39653 7.26074L8.30188 7.29301L8.3021 7.29365L8.39653 7.26074ZM8.39653 6.0918L8.49111 6.12428L8.49118 6.12406L8.39653 6.0918ZM8.61978 5.69629L8.54517 5.6297L8.54477 5.63015L8.61978 5.69629ZM8.96431 5.44668L8.92482 5.35481L8.92452 5.35493L8.96431 5.44668ZM9.84673 5.44668L9.80694 5.53843L9.80724 5.53855L9.84673 5.44668ZM10.1913 5.69629L10.1163 5.76243L10.1167 5.76287L10.1913 5.69629ZM10.4163 6.0918L10.3216 6.12407L10.3219 6.12493L10.4163 6.0918ZM9.92759 6.25352L9.83032 6.27673L9.92759 6.25352ZM9.64282 5.83516L9.59631 5.92369L9.5975 5.92429L9.64282 5.83516ZM9.16821 5.83516L9.21416 5.92398L9.21473 5.92368L9.16821 5.83516ZM8.99419 5.99336L8.91162 5.93694L8.91098 5.93789L8.99419 5.99336ZM8.88696 7.09551L8.78964 7.11847L8.78969 7.11872L8.88696 7.09551ZM8.99595 7.35742L8.91295 7.41321L8.91338 7.41384L8.99595 7.35742ZM9.17173 7.51738L9.12522 7.60591L9.17173 7.51738ZM9.64634 7.51738L9.69285 7.60591L9.64634 7.51738ZM9.82036 7.35742L9.90357 7.41289L9.90399 7.41226L9.82036 7.35742ZM9.92759 7.09551L10.0249 7.11872L10.0249 7.11847L9.92759 7.09551ZM10.3971 6.61563V6.73691H10.5971V6.61563H10.3971ZM10.3971 6.73691C10.3971 6.9225 10.372 7.08594 10.3234 7.22847L10.5127 7.29301C10.5695 7.12617 10.5971 6.94039 10.5971 6.73691H10.3971ZM10.3234 7.22847C10.2744 7.37224 10.2061 7.49218 10.1198 7.59011L10.2698 7.72239C10.3756 7.60236 10.4562 7.45862 10.5127 7.29301L10.3234 7.22847ZM10.1201 7.58971C10.0338 7.68653 9.93101 7.76054 9.81075 7.81223L9.88973 7.99597C10.0367 7.93282 10.1635 7.84159 10.2694 7.72279L10.1201 7.58971ZM9.81046 7.81236C9.69203 7.86371 9.55872 7.89023 9.40903 7.89023V8.09023C9.58279 8.09023 9.74362 8.05933 9.89003 7.99585L9.81046 7.81236ZM9.40903 7.89023C9.26064 7.89023 9.12719 7.86375 9.00731 7.81223L8.92833 7.99597C9.07564 8.05929 9.23633 8.09023 9.40903 8.09023V7.89023ZM9.00761 7.81236C8.88839 7.76066 8.78528 7.68652 8.69754 7.58926L8.54904 7.72324C8.65583 7.84161 8.78241 7.9327 8.92804 7.99585L9.00761 7.81236ZM8.6979 7.58966C8.61039 7.49162 8.54107 7.37161 8.49096 7.22783L8.3021 7.29365C8.35981 7.45925 8.44166 7.60291 8.54868 7.72284L8.6979 7.58966ZM8.49118 7.22847C8.44259 7.08594 8.41743 6.9225 8.41743 6.73691H8.21743C8.21743 6.94039 8.24501 7.12617 8.30188 7.29301L8.49118 7.22847ZM8.41743 6.73691V6.61563H8.21743V6.73691H8.41743ZM8.41743 6.61563C8.41743 6.42877 8.44262 6.26545 8.49111 6.12428L8.30196 6.05931C8.24498 6.22518 8.21743 6.41107 8.21743 6.61563H8.41743ZM8.49118 6.12406C8.5402 5.9803 8.60843 5.86036 8.69478 5.76242L8.54477 5.63015C8.43894 5.75018 8.35834 5.89392 8.30188 6.05953L8.49118 6.12406ZM8.69438 5.76287C8.78212 5.66457 8.88513 5.59001 9.00409 5.53843L8.92452 5.35493C8.77864 5.41819 8.65196 5.51004 8.54517 5.6297L8.69438 5.76287ZM9.0038 5.53855C9.12367 5.48703 9.25713 5.46055 9.40552 5.46055V5.26055C9.23281 5.26055 9.07213 5.29149 8.92482 5.35481L9.0038 5.53855ZM9.40552 5.46055C9.5552 5.46055 9.68851 5.48707 9.80694 5.53843L9.88651 5.35493C9.7401 5.29145 9.57927 5.26055 9.40552 5.26055V5.46055ZM9.80724 5.53855C9.92725 5.59013 10.03 5.66455 10.1163 5.76242L10.2663 5.63015C10.1604 5.51006 10.0334 5.41807 9.88622 5.35481L9.80724 5.53855ZM10.1167 5.76287C10.204 5.86075 10.2727 5.98054 10.3216 6.12406L10.5109 6.05953C10.4544 5.89368 10.373 5.74979 10.2659 5.6297L10.1167 5.76287ZM10.3219 6.12493C10.3714 6.26589 10.3971 6.42898 10.3971 6.61563H10.5971C10.5971 6.41086 10.5689 6.22474 10.5106 6.05867L10.3219 6.12493ZM10.0645 6.73691V6.61211H9.8645V6.73691H10.0645ZM10.0645 6.61211C10.0645 6.47043 10.0517 6.34281 10.0249 6.2303L9.83032 6.27673C9.85269 6.37047 9.8645 6.48192 9.8645 6.61211H10.0645ZM10.0249 6.2303C9.99808 6.11811 9.95756 6.01946 9.90117 5.93694L9.73604 6.04978C9.77574 6.10788 9.80787 6.18267 9.83032 6.27673L10.0249 6.2303ZM9.90117 5.93694C9.8446 5.85416 9.77368 5.78951 9.68815 5.74602L9.5975 5.92429C9.65024 5.95112 9.69651 5.99194 9.73604 6.04978L9.90117 5.93694ZM9.68933 5.74663C9.60395 5.70177 9.50849 5.68066 9.40552 5.68066V5.88066C9.48067 5.88066 9.54342 5.89589 9.59631 5.92368L9.68933 5.74663ZM9.40552 5.68066C9.30254 5.68066 9.20709 5.70177 9.1217 5.74663L9.21473 5.92368C9.26762 5.89589 9.33037 5.88066 9.40552 5.88066V5.68066ZM9.12227 5.74633C9.038 5.78992 8.96794 5.85453 8.91162 5.93694L9.07675 6.04978C9.11654 5.99156 9.16249 5.9507 9.21416 5.92398L9.12227 5.74633ZM8.91098 5.93789C8.85612 6.02018 8.81638 6.11849 8.78969 6.2303L8.98423 6.27673C9.00677 6.18229 9.03851 6.10716 9.07739 6.04883L8.91098 5.93789ZM8.78969 6.2303C8.76285 6.34281 8.75005 6.47043 8.75005 6.61211H8.95005C8.95005 6.48192 8.96186 6.37047 8.98423 6.27673L8.78969 6.2303ZM8.75005 6.61211V6.73691H8.95005V6.61211H8.75005ZM8.75005 6.73691C8.75005 6.87753 8.76286 7.00501 8.78964 7.11847L8.98429 7.07254C8.96184 6.97741 8.95005 6.86583 8.95005 6.73691H8.75005ZM8.78969 7.11872C8.81646 7.23088 8.8569 7.32981 8.91295 7.41321L9.07894 7.30164C9.0389 7.24207 9.00669 7.16639 8.98423 7.0723L8.78969 7.11872ZM8.91338 7.41384C8.96979 7.49639 9.04034 7.56131 9.12522 7.60591L9.21824 7.42886C9.16484 7.4008 9.1182 7.35908 9.07851 7.301L8.91338 7.41384ZM9.12522 7.60591C9.2106 7.65077 9.30606 7.67188 9.40903 7.67188V7.47187C9.33388 7.47187 9.27113 7.45665 9.21824 7.42886L9.12522 7.60591ZM9.40903 7.67188C9.51201 7.67188 9.60746 7.65077 9.69285 7.60591L9.59982 7.42886C9.54693 7.45665 9.48418 7.47187 9.40903 7.47187V7.67188ZM9.69285 7.60591C9.77799 7.56117 9.8482 7.49595 9.90357 7.41289L9.73716 7.30195C9.69878 7.35952 9.65297 7.40094 9.59982 7.42886L9.69285 7.60591ZM9.90399 7.41226C9.95852 7.32909 9.99818 7.2305 10.0249 7.11872L9.83032 7.0723C9.80777 7.16677 9.77595 7.24278 9.73674 7.30259L9.90399 7.41226ZM10.0249 7.11847C10.0517 7.00501 10.0645 6.87753 10.0645 6.73691H9.8645C9.8645 6.86583 9.85271 6.97741 9.83026 7.07254L10.0249 7.11847Z" fill="#7C29E5"/>
<path d="M11.4227 2.82009C10.8485 2.24198 10.194 1.78105 9.45931 1.43781C8.68675 1.07685 7.87551 0.896289 7.02684 0.896289C6.17913 0.896289 5.38718 1.05461 4.65226 1.37126C3.91844 1.68745 3.2757 2.1181 2.72482 2.66244C2.17385 3.20686 1.73704 3.84654 1.41434 4.58028C1.09119 5.31507 0.929736 6.10063 0.929736 6.93603C0.929736 7.77143 1.09119 8.5629 1.41422 9.31032C1.73685 10.0568 2.17065 10.6993 2.71539 11.2379C3.25992 11.7762 3.90264 12.2064 4.64265 12.529C5.38396 12.8521 6.179 13.0134 7.02684 13.0134C8.62185 13.0134 9.9969 12.4719 11.149 11.3894C12.3012 10.3069 12.9283 8.9606 13.0297 7.35356L13.033 7.30041H12.9798H12.4146H12.3688L12.3648 7.34601C12.2404 8.75307 11.6712 9.93778 10.6565 10.9024C9.64211 11.8665 8.43336 12.3484 7.02684 12.3484C5.50758 12.3484 4.22396 11.8197 3.17218 10.7621C2.12033 9.70441 1.59489 8.4175 1.59489 6.89836C1.59489 5.41727 2.12004 4.15868 3.17186 3.11971C4.22358 2.08083 5.5073 1.56136 7.02684 1.56136C7.77304 1.56136 8.48813 1.71985 9.17222 2.03703C9.82155 2.33809 10.3982 2.7425 10.9022 3.25075H9.21209H9.16209V3.30075V3.86582V3.91582H9.21209H12.0378H12.0878V3.86582V1.04047V0.990467H12.0378H11.4727H11.4227V1.04047V2.82009Z" fill="#7C29E5" stroke="#7C29E5" stroke-width="0.1"/>
</svg>
