<svg width="14" height="13" viewBox="0 0 14 13" fill="none" xmlns="http://www.w3.org/2000/svg">
<path d="M3.41919 5.42285H4.47974C4.69718 5.42285 4.88403 5.4554 5.04028 5.52051C5.19784 5.58561 5.31893 5.68197 5.40356 5.80957C5.4882 5.93717 5.53052 6.09408 5.53052 6.28027C5.53052 6.43262 5.50448 6.56348 5.45239 6.67285C5.40161 6.78092 5.32935 6.87142 5.2356 6.94434C5.14315 7.01595 5.03442 7.07324 4.90942 7.11621L4.72388 7.21387H3.802L3.7981 6.75684H4.48364C4.58651 6.75684 4.67179 6.73861 4.7395 6.70215C4.80721 6.66569 4.85799 6.61491 4.89185 6.5498C4.927 6.4847 4.94458 6.40918 4.94458 6.32324C4.94458 6.2321 4.92765 6.15332 4.8938 6.08691C4.85994 6.02051 4.80851 5.96973 4.7395 5.93457C4.67049 5.89941 4.5839 5.88184 4.47974 5.88184H4.00513V8.2666H3.41919V5.42285ZM5.00903 8.2666L4.3606 6.99902L4.97974 6.99512L5.63599 8.23926V8.2666H5.00903ZM7.13599 5.42285V8.2666H6.552V5.42285H7.13599ZM8.01099 5.42285V5.88184H5.69067V5.42285H8.01099ZM10.6262 6.77832V6.91309C10.6262 7.12923 10.5969 7.32324 10.5383 7.49512C10.4797 7.66699 10.3971 7.81348 10.2903 7.93457C10.1835 8.05436 10.0559 8.14616 9.90747 8.20996C9.76034 8.27376 9.59692 8.30566 9.41724 8.30566C9.23885 8.30566 9.07544 8.27376 8.927 8.20996C8.77987 8.14616 8.65226 8.05436 8.54419 7.93457C8.43612 7.81348 8.35213 7.66699 8.29224 7.49512C8.23364 7.32324 8.20435 7.12923 8.20435 6.91309V6.77832C8.20435 6.56087 8.23364 6.36686 8.29224 6.19629C8.35083 6.02441 8.43351 5.87793 8.54028 5.75684C8.64836 5.63574 8.77596 5.54329 8.9231 5.47949C9.07153 5.41569 9.23494 5.38379 9.41333 5.38379C9.59302 5.38379 9.75643 5.41569 9.90356 5.47949C10.052 5.54329 10.1796 5.63574 10.2864 5.75684C10.3944 5.87793 10.4778 6.02441 10.5364 6.19629C10.5963 6.36686 10.6262 6.56087 10.6262 6.77832ZM10.0344 6.91309V6.77441C10.0344 6.62337 10.0208 6.49056 9.99341 6.37598C9.96606 6.26139 9.9257 6.16504 9.87231 6.08691C9.81893 6.00879 9.75382 5.9502 9.677 5.91113C9.60018 5.87077 9.51229 5.85059 9.41333 5.85059C9.31437 5.85059 9.22648 5.87077 9.14966 5.91113C9.07414 5.9502 9.00968 6.00879 8.9563 6.08691C8.90422 6.16504 8.8645 6.26139 8.83716 6.37598C8.80981 6.49056 8.79614 6.62337 8.79614 6.77441V6.91309C8.79614 7.06283 8.80981 7.19564 8.83716 7.31152C8.8645 7.42611 8.90487 7.52311 8.95825 7.60254C9.01164 7.68066 9.07674 7.73991 9.15356 7.78027C9.23039 7.82064 9.31828 7.84082 9.41724 7.84082C9.51619 7.84082 9.60409 7.82064 9.68091 7.78027C9.75773 7.73991 9.82218 7.68066 9.87427 7.60254C9.92635 7.52311 9.96606 7.42611 9.99341 7.31152C10.0208 7.19564 10.0344 7.06283 10.0344 6.91309Z" fill="#7C29E5"/>
<path d="M3.41919 5.42285V5.32285H3.31919V5.42285H3.41919ZM5.04028 5.52051L5.00182 5.61282L5.00209 5.61293L5.04028 5.52051ZM5.45239 6.67285L5.36211 6.62986L5.36189 6.63032L5.45239 6.67285ZM5.2356 6.94434L5.29684 7.02339L5.29699 7.02327L5.2356 6.94434ZM4.90942 7.11621L4.87692 7.02164L4.86965 7.02414L4.86285 7.02772L4.90942 7.11621ZM4.72388 7.21387V7.31387H4.74859L4.77045 7.30236L4.72388 7.21387ZM3.802 7.21387L3.70201 7.21472L3.70285 7.31387H3.802V7.21387ZM3.7981 6.75684V6.65684H3.69724L3.6981 6.75769L3.7981 6.75684ZM4.89185 6.5498L4.80384 6.50228L4.80312 6.50367L4.89185 6.5498ZM4.00513 5.88184V5.78184H3.90513V5.88184H4.00513ZM4.00513 8.2666V8.3666H4.10513V8.2666H4.00513ZM3.41919 8.2666H3.31919V8.3666H3.41919V8.2666ZM5.00903 8.2666L4.92001 8.31214L4.94786 8.3666H5.00903V8.2666ZM4.3606 6.99902L4.35996 6.89903L4.19764 6.90005L4.27157 7.04457L4.3606 6.99902ZM4.97974 6.99512L5.06819 6.94846L5.03985 6.89474L4.97911 6.89512L4.97974 6.99512ZM5.63599 8.23926H5.73599V8.2145L5.72444 8.1926L5.63599 8.23926ZM5.63599 8.2666V8.3666H5.73599V8.2666H5.63599ZM3.41919 5.52285H4.47974V5.32285H3.41919V5.52285ZM4.47974 5.52285C4.68758 5.52285 4.86069 5.55401 5.00182 5.61282L5.07874 5.4282C4.90738 5.3568 4.70679 5.32285 4.47974 5.32285V5.52285ZM5.00209 5.61293C5.1434 5.67132 5.24783 5.7557 5.32023 5.86484L5.4869 5.7543C5.39002 5.60824 5.25227 5.4999 5.07847 5.42809L5.00209 5.61293ZM5.32023 5.86484C5.39185 5.97282 5.43052 6.10945 5.43052 6.28027H5.63052C5.63052 6.0787 5.58455 5.90153 5.4869 5.7543L5.32023 5.86484ZM5.43052 6.28027C5.43052 6.42147 5.40637 6.53691 5.36211 6.62986L5.54268 6.71584C5.60259 6.59004 5.63052 6.44377 5.63052 6.28027H5.43052ZM5.36189 6.63032C5.31777 6.72422 5.25545 6.80221 5.1742 6.8654L5.29699 7.02327C5.40325 6.94063 5.48546 6.83763 5.5429 6.71538L5.36189 6.63032ZM5.17436 6.86528C5.09162 6.92937 4.99289 6.98178 4.87692 7.02164L4.94193 7.21078C5.07596 7.16471 5.19468 7.10253 5.29684 7.02339L5.17436 6.86528ZM4.86285 7.02772L4.6773 7.12538L4.77045 7.30236L4.956 7.2047L4.86285 7.02772ZM4.72388 7.11387H3.802V7.31387H4.72388V7.11387ZM3.902 7.21301L3.89809 6.75598L3.6981 6.75769L3.70201 7.21472L3.902 7.21301ZM3.7981 6.85684H4.48364V6.65684H3.7981V6.85684ZM4.48364 6.85684C4.59769 6.85684 4.70055 6.8367 4.78691 6.7902L4.69209 6.6141C4.64304 6.64051 4.57532 6.65684 4.48364 6.65684V6.85684ZM4.78691 6.7902C4.87139 6.74471 4.937 6.67972 4.98057 6.59594L4.80312 6.50367C4.77898 6.55009 4.74303 6.58667 4.69209 6.6141L4.78691 6.7902ZM4.97984 6.59732C5.02406 6.51542 5.04458 6.42308 5.04458 6.32324H4.84458C4.84458 6.39528 4.82994 6.45398 4.80386 6.50229L4.97984 6.59732ZM5.04458 6.32324C5.04458 6.21977 5.02534 6.12476 4.98289 6.0415L4.80471 6.13233C4.82997 6.18188 4.84458 6.24442 4.84458 6.32324H5.04458ZM4.98289 6.0415C4.93905 5.95551 4.87193 5.88981 4.78489 5.84547L4.69411 6.02367C4.74509 6.04965 4.78084 6.08551 4.80471 6.13233L4.98289 6.0415ZM4.78489 5.84547C4.69783 5.80111 4.59449 5.78184 4.47974 5.78184V5.98184C4.57332 5.98184 4.64315 5.99772 4.69411 6.02367L4.78489 5.84547ZM4.47974 5.78184H4.00513V5.98184H4.47974V5.78184ZM3.90513 5.88184V8.2666H4.10513V5.88184H3.90513ZM4.00513 8.1666H3.41919V8.3666H4.00513V8.1666ZM3.51919 8.2666V5.42285H3.31919V8.2666H3.51919ZM5.09806 8.22106L4.44962 6.95348L4.27157 7.04457L4.92001 8.31214L5.09806 8.22106ZM4.36123 7.09902L4.98037 7.09512L4.97911 6.89512L4.35996 6.89903L4.36123 7.09902ZM4.89129 7.04177L5.54754 8.28591L5.72444 8.1926L5.06819 6.94846L4.89129 7.04177ZM5.53599 8.23926V8.2666H5.73599V8.23926H5.53599ZM5.63599 8.1666H5.00903V8.3666H5.63599V8.1666ZM7.13599 5.42285H7.23599V5.32285H7.13599V5.42285ZM7.13599 8.2666V8.3666H7.23599V8.2666H7.13599ZM6.552 8.2666H6.452V8.3666H6.552V8.2666ZM6.552 5.42285V5.32285H6.452V5.42285H6.552ZM8.01099 5.42285H8.11099V5.32285H8.01099V5.42285ZM8.01099 5.88184V5.98184H8.11099V5.88184H8.01099ZM5.69067 5.88184H5.59067V5.98184H5.69067V5.88184ZM5.69067 5.42285V5.32285H5.59067V5.42285H5.69067ZM7.03599 5.42285V8.2666H7.23599V5.42285H7.03599ZM7.13599 8.1666H6.552V8.3666H7.13599V8.1666ZM6.652 8.2666V5.42285H6.452V8.2666H6.652ZM6.552 5.52285H7.13599V5.32285H6.552V5.52285ZM7.91099 5.42285V5.88184H8.11099V5.42285H7.91099ZM8.01099 5.78184H5.69067V5.98184H8.01099V5.78184ZM5.79067 5.88184V5.42285H5.59067V5.88184H5.79067ZM5.69067 5.52285H8.01099V5.32285H5.69067V5.52285ZM10.2903 7.93457L10.3649 8.00111L10.3653 8.00071L10.2903 7.93457ZM9.90747 8.20996L9.86798 8.11809L9.86769 8.11822L9.90747 8.20996ZM8.927 8.20996L8.88722 8.30171L8.88751 8.30183L8.927 8.20996ZM8.54419 7.93457L8.46958 8.00116L8.46994 8.00156L8.54419 7.93457ZM8.29224 7.49512L8.19758 7.52739L8.19781 7.52802L8.29224 7.49512ZM8.29224 6.19629L8.38681 6.22878L8.38689 6.22856L8.29224 6.19629ZM8.54028 5.75684L8.46567 5.69025L8.46528 5.6907L8.54028 5.75684ZM8.9231 5.47949L8.88361 5.38762L8.88331 5.38775L8.9231 5.47949ZM9.90356 5.47949L9.86378 5.57124L9.86408 5.57136L9.90356 5.47949ZM10.2864 5.75684L10.2114 5.82297L10.2118 5.82342L10.2864 5.75684ZM10.5364 6.19629L10.4417 6.22856L10.442 6.22942L10.5364 6.19629ZM9.99341 6.37598L9.89614 6.39919L9.99341 6.37598ZM9.677 5.91113L9.63049 5.99967L9.63168 6.00027L9.677 5.91113ZM9.14966 5.91113L9.1956 5.99996L9.19617 5.99966L9.14966 5.91113ZM8.9563 6.08691L8.87373 6.03049L8.87309 6.03144L8.9563 6.08691ZM8.83716 7.31152L8.73983 7.33449L8.73989 7.33474L8.83716 7.31152ZM8.95825 7.60254L8.87525 7.65832L8.87569 7.65896L8.95825 7.60254ZM9.15356 7.78027L9.10705 7.8688L9.15356 7.78027ZM9.87427 7.60254L9.95748 7.65801L9.95789 7.65737L9.87427 7.60254ZM9.99341 7.31152L10.0907 7.33474L10.0907 7.33449L9.99341 7.31152ZM10.5262 6.77832V6.91309H10.7262V6.77832H10.5262ZM10.5262 6.91309C10.5262 7.12029 10.4981 7.30313 10.4437 7.46285L10.633 7.52738C10.6957 7.34336 10.7262 7.13818 10.7262 6.91309H10.5262ZM10.4437 7.46285C10.3888 7.6238 10.3123 7.75839 10.2153 7.86843L10.3653 8.00071C10.4818 7.86857 10.5707 7.71018 10.633 7.52738L10.4437 7.46285ZM10.2156 7.86803C10.1187 7.97683 10.0031 8.06002 9.86798 8.11809L9.94696 8.30183C10.1087 8.2323 10.2484 8.13189 10.3649 8.00111L10.2156 7.86803ZM9.86769 8.11822C9.73454 8.17595 9.58489 8.20566 9.41724 8.20566V8.40566C9.60896 8.40566 9.78613 8.37157 9.94725 8.30171L9.86769 8.11822ZM9.41724 8.20566C9.25101 8.20566 9.10121 8.17599 8.96649 8.11809L8.88751 8.30183C9.04967 8.37153 9.22669 8.40566 9.41724 8.40566V8.20566ZM8.96679 8.11822C8.83286 8.06014 8.71699 7.97682 8.61844 7.86758L8.46994 8.00156C8.58754 8.13191 8.72687 8.23218 8.88722 8.30171L8.96679 8.11822ZM8.6188 7.86798C8.52048 7.75783 8.44276 7.62317 8.38667 7.46221L8.19781 7.52802C8.26151 7.71081 8.35175 7.86913 8.46958 8.00116L8.6188 7.86798ZM8.38689 7.46285C8.33244 7.30313 8.30435 7.12029 8.30435 6.91309H8.10435C8.10435 7.13818 8.13485 7.34336 8.19759 7.52738L8.38689 7.46285ZM8.30435 6.91309V6.77832H8.10435V6.91309H8.30435ZM8.30435 6.77832C8.30435 6.56972 8.33246 6.387 8.38681 6.22878L8.19766 6.1638C8.13482 6.34673 8.10435 6.55202 8.10435 6.77832H8.30435ZM8.38689 6.22856C8.44176 6.0676 8.51826 5.93302 8.61529 5.82297L8.46528 5.6907C8.34877 5.82284 8.2599 5.98123 8.19759 6.16402L8.38689 6.22856ZM8.61489 5.82342C8.71344 5.713 8.8292 5.6292 8.96288 5.57124L8.88331 5.38775C8.72272 5.45738 8.58328 5.55848 8.46568 5.69025L8.61489 5.82342ZM8.96258 5.57136C9.09731 5.51346 9.2471 5.48379 9.41333 5.48379V5.28379C9.22279 5.28379 9.04576 5.31792 8.88361 5.38762L8.96258 5.57136ZM9.41333 5.48379C9.58098 5.48379 9.73063 5.5135 9.86378 5.57124L9.94335 5.38775C9.78223 5.31788 9.60505 5.28379 9.41333 5.28379V5.48379ZM9.86408 5.57136C9.99893 5.62933 10.1144 5.71299 10.2114 5.82297L10.3614 5.6907C10.2448 5.5585 10.1051 5.45726 9.94305 5.38762L9.86408 5.57136ZM10.2118 5.82342C10.3099 5.93341 10.3869 6.06784 10.4417 6.22856L10.631 6.16402C10.5686 5.98099 10.479 5.82245 10.361 5.69025L10.2118 5.82342ZM10.442 6.22942C10.4975 6.38744 10.5262 6.56994 10.5262 6.77832H10.7262C10.7262 6.55181 10.695 6.34629 10.6307 6.16316L10.442 6.22942ZM10.1344 6.91309V6.77441H9.93442V6.91309H10.1344ZM10.1344 6.77441C10.1344 6.61763 10.1203 6.47673 10.0907 6.35276L9.89614 6.39919C9.92124 6.50439 9.93442 6.62912 9.93442 6.77441H10.1344ZM10.0907 6.35276C10.0612 6.22911 10.0166 6.12083 9.95488 6.03049L9.78975 6.14333C9.83479 6.20925 9.87096 6.29368 9.89614 6.39919L10.0907 6.35276ZM9.95488 6.03049C9.89297 5.9399 9.81554 5.86939 9.72233 5.82199L9.63168 6.00027C9.69211 6.031 9.74489 6.07768 9.78975 6.14333L9.95488 6.03049ZM9.72351 5.82261C9.63044 5.77371 9.5262 5.75059 9.41333 5.75059V5.95059C9.49838 5.95059 9.56991 5.96783 9.63049 5.99966L9.72351 5.82261ZM9.41333 5.75059C9.30046 5.75059 9.19622 5.77371 9.10315 5.82261L9.19617 5.99966C9.25675 5.96783 9.32828 5.95059 9.41333 5.95059V5.75059ZM9.10372 5.82231C9.01189 5.86981 8.93538 5.94028 8.87373 6.03049L9.03886 6.14333C9.08398 6.0773 9.13638 6.03058 9.1956 5.99995L9.10372 5.82231ZM8.87309 6.03144C8.81302 6.12155 8.76931 6.22949 8.73989 6.35276L8.93443 6.39919C8.9597 6.2933 8.99541 6.20853 9.0395 6.14238L8.87309 6.03144ZM8.73989 6.35276C8.71031 6.47673 8.69614 6.61763 8.69614 6.77441H8.89614C8.89614 6.62912 8.90932 6.50439 8.93443 6.39919L8.73989 6.35276ZM8.69614 6.77441V6.91309H8.89614V6.77441H8.69614ZM8.69614 6.91309C8.69614 7.06867 8.71033 7.20944 8.73983 7.33449L8.93449 7.28856C8.9093 7.18183 8.89614 7.05698 8.89614 6.91309H8.69614ZM8.73989 7.33474C8.76939 7.45835 8.81387 7.56698 8.87526 7.65832L9.04125 7.54676C8.99587 7.47924 8.95962 7.39386 8.93443 7.28831L8.73989 7.33474ZM8.87569 7.65896C8.93744 7.74932 9.01449 7.82016 9.10705 7.8688L9.20008 7.69175C9.13899 7.65965 9.08584 7.61201 9.04082 7.54612L8.87569 7.65896ZM9.10705 7.8688C9.20012 7.9177 9.30437 7.94082 9.41724 7.94082V7.74082C9.33219 7.74082 9.26065 7.72358 9.20008 7.69175L9.10705 7.8688ZM9.41724 7.94082C9.53011 7.94082 9.63435 7.9177 9.72742 7.8688L9.6344 7.69175C9.57382 7.72358 9.50228 7.74082 9.41724 7.74082V7.94082ZM9.72742 7.8688C9.82024 7.82003 9.89689 7.74888 9.95747 7.65801L9.79106 7.54707C9.74747 7.61245 9.69522 7.65979 9.6344 7.69175L9.72742 7.8688ZM9.95789 7.65737C10.0176 7.56627 10.0613 7.45797 10.0907 7.33474L9.89614 7.28831C9.87086 7.39424 9.83507 7.47996 9.79064 7.5477L9.95789 7.65737ZM10.0907 7.33449C10.1202 7.20944 10.1344 7.06867 10.1344 6.91309H9.93442C9.93442 7.05698 9.92126 7.18183 9.89608 7.28856L10.0907 7.33449Z" fill="#7C29E5"/>
<path d="M11.4227 2.63161C10.8485 2.05351 10.194 1.59257 9.45931 1.24933C8.68675 0.88837 7.87551 0.707812 7.02684 0.707812C6.17913 0.707812 5.38717 0.866131 4.65226 1.18279C3.91844 1.49897 3.2757 1.92962 2.72482 2.47396C2.17385 3.01839 1.73704 3.65806 1.41434 4.3918C1.09119 5.1266 0.929736 5.91215 0.929736 6.74755C0.929736 7.58296 1.09119 8.37442 1.41422 9.12184C1.73685 9.86836 2.17065 10.5108 2.71539 11.0494C3.25992 11.5878 3.90264 12.018 4.64265 12.3405C5.38397 12.6636 6.179 12.825 7.02684 12.825C8.62185 12.825 9.9969 12.2834 11.149 11.201C12.3012 10.1184 12.9283 8.77212 13.0297 7.16508L13.033 7.11194H12.9798H12.4146H12.3688L12.3648 7.15753C12.2404 8.5646 11.6712 9.74931 10.6565 10.7139C9.64211 11.6781 8.43336 12.1599 7.02684 12.1599C5.50758 12.1599 4.22396 11.6312 3.17218 10.5736C2.12033 9.51593 1.59489 8.22903 1.59489 6.70988C1.59489 5.2288 2.12004 3.97021 3.17186 2.93123C4.22358 1.89235 5.5073 1.37288 7.02684 1.37288C7.77304 1.37288 8.48813 1.53137 9.17222 1.84855C9.82155 2.14962 10.3982 2.55402 10.9022 3.06227H9.21209H9.16209V3.11227V3.67734V3.72734H9.21209H12.0378H12.0878V3.67734V0.851991V0.801991H12.0378H11.4727H11.4227V0.851991V2.63161Z" fill="#7C29E5" stroke="#7C29E5" stroke-width="0.1"/>
</svg>
