<svg width="14" height="13" viewBox="0 0 14 13" fill="none" xmlns="http://www.w3.org/2000/svg">
<path d="M4.69031 7.03613H3.95984L3.95593 6.63379H4.56921C4.67729 6.63379 4.76583 6.62012 4.83484 6.59277C4.90385 6.56413 4.95528 6.52311 4.98914 6.46973C5.02429 6.41504 5.04187 6.34863 5.04187 6.27051C5.04187 6.18197 5.02494 6.11035 4.99109 6.05566C4.95854 6.00098 4.9071 5.96126 4.83679 5.93652C4.76778 5.91178 4.67859 5.89941 4.56921 5.89941H4.16296V8.28418H3.57703V5.44043H4.56921C4.73458 5.44043 4.88236 5.45605 5.01257 5.4873C5.14408 5.51855 5.25541 5.56608 5.34656 5.62988C5.4377 5.69368 5.50736 5.77441 5.55554 5.87207C5.60372 5.96842 5.62781 6.08301 5.62781 6.21582C5.62781 6.33301 5.60111 6.44108 5.54773 6.54004C5.49565 6.639 5.41296 6.71973 5.29968 6.78223C5.1877 6.84473 5.04122 6.87923 4.86023 6.88574L4.69031 7.03613ZM4.66492 8.28418H3.79968L4.0282 7.82715H4.66492C4.76778 7.82715 4.85177 7.81087 4.91687 7.77832C4.98197 7.74447 5.03015 7.69889 5.0614 7.6416C5.09265 7.58431 5.10828 7.51855 5.10828 7.44434C5.10828 7.361 5.09395 7.28874 5.06531 7.22754C5.03796 7.16634 4.99369 7.11947 4.9325 7.08691C4.8713 7.05306 4.79057 7.03613 4.69031 7.03613H4.12585L4.12976 6.63379H4.83289L4.96765 6.79199C5.14083 6.78939 5.28015 6.81999 5.38562 6.88379C5.49239 6.94629 5.56986 7.02767 5.61804 7.12793C5.66752 7.22819 5.69226 7.33561 5.69226 7.4502C5.69226 7.63249 5.65255 7.78613 5.57312 7.91113C5.49369 8.03483 5.37716 8.12793 5.22351 8.19043C5.07117 8.25293 4.88497 8.28418 4.66492 8.28418ZM8.01843 7.84473V8.28418H6.07312V7.90918L6.99304 6.92285C7.08549 6.81999 7.15841 6.72949 7.21179 6.65137C7.26518 6.57194 7.30359 6.50098 7.32703 6.43848C7.35177 6.37467 7.36414 6.31413 7.36414 6.25684C7.36414 6.1709 7.34981 6.09733 7.32117 6.03613C7.29252 5.97363 7.2502 5.92546 7.19421 5.8916C7.13953 5.85775 7.07182 5.84082 6.99109 5.84082C6.90515 5.84082 6.83093 5.86165 6.76843 5.90332C6.70723 5.94499 6.66036 6.00293 6.62781 6.07715C6.59656 6.15137 6.58093 6.23535 6.58093 6.3291H6.01648C6.01648 6.15983 6.05684 6.00488 6.13757 5.86426C6.2183 5.72233 6.33223 5.6097 6.47937 5.52637C6.62651 5.44173 6.80098 5.39941 7.00281 5.39941C7.20203 5.39941 7.37 5.43197 7.50671 5.49707C7.64473 5.56087 7.7489 5.65332 7.81921 5.77441C7.89083 5.89421 7.92664 6.03743 7.92664 6.2041C7.92664 6.29785 7.91166 6.38965 7.88171 6.47949C7.85177 6.56803 7.8088 6.65658 7.75281 6.74512C7.69812 6.83236 7.63171 6.9209 7.55359 7.01074C7.47546 7.10059 7.38888 7.19368 7.29382 7.29004L6.79968 7.84473H8.01843ZM9.54187 7.03613H8.8114L8.8075 6.63379H9.42078C9.52885 6.63379 9.61739 6.62012 9.6864 6.59277C9.75541 6.56413 9.80684 6.52311 9.8407 6.46973C9.87585 6.41504 9.89343 6.34863 9.89343 6.27051C9.89343 6.18197 9.87651 6.11035 9.84265 6.05566C9.8101 6.00098 9.75867 5.96126 9.68835 5.93652C9.61934 5.91178 9.53015 5.89941 9.42078 5.89941H9.01453V8.28418H8.42859V5.44043H9.42078C9.58614 5.44043 9.73393 5.45605 9.86414 5.4873C9.99565 5.51855 10.107 5.56608 10.1981 5.62988C10.2893 5.69368 10.3589 5.77441 10.4071 5.87207C10.4553 5.96842 10.4794 6.08301 10.4794 6.21582C10.4794 6.33301 10.4527 6.44108 10.3993 6.54004C10.3472 6.639 10.2645 6.71973 10.1512 6.78223C10.0393 6.84473 9.89278 6.87923 9.71179 6.88574L9.54187 7.03613ZM9.51648 8.28418H8.65125L8.87976 7.82715H9.51648C9.61934 7.82715 9.70333 7.81087 9.76843 7.77832C9.83354 7.74447 9.88171 7.69889 9.91296 7.6416C9.94421 7.58431 9.95984 7.51855 9.95984 7.44434C9.95984 7.361 9.94552 7.28874 9.91687 7.22754C9.88953 7.16634 9.84526 7.11947 9.78406 7.08691C9.72286 7.05306 9.64213 7.03613 9.54187 7.03613H8.97742L8.98132 6.63379H9.68445L9.81921 6.79199C9.99239 6.78939 10.1317 6.81999 10.2372 6.88379C10.344 6.94629 10.4214 7.02767 10.4696 7.12793C10.5191 7.22819 10.5438 7.33561 10.5438 7.4502C10.5438 7.63249 10.5041 7.78613 10.4247 7.91113C10.3453 8.03483 10.2287 8.12793 10.0751 8.19043C9.92273 8.25293 9.73653 8.28418 9.51648 8.28418Z" fill="#7C29E5"/>
<path d="M4.69031 7.03613V7.13613H4.7282L4.75658 7.11102L4.69031 7.03613ZM3.95984 7.03613L3.85984 7.0371L3.86081 7.13613H3.95984V7.03613ZM3.95593 6.63379V6.53379H3.85496L3.85594 6.63476L3.95593 6.63379ZM4.83484 6.59277L4.87168 6.68575L4.87318 6.68513L4.83484 6.59277ZM4.98914 6.46973L4.90502 6.41565L4.90468 6.41617L4.98914 6.46973ZM4.99109 6.05566L4.90515 6.10682L4.90606 6.1083L4.99109 6.05566ZM4.83679 5.93652L4.80305 6.03066L4.8036 6.03085L4.83679 5.93652ZM4.16296 5.89941V5.79941H4.06296V5.89941H4.16296ZM4.16296 8.28418V8.38418H4.26296V8.28418H4.16296ZM3.57703 8.28418H3.47703V8.38418H3.57703V8.28418ZM3.57703 5.44043V5.34043H3.47703V5.44043H3.57703ZM5.01257 5.4873L4.98924 5.58454L4.98945 5.5846L5.01257 5.4873ZM5.34656 5.62988L5.28921 5.71181L5.34656 5.62988ZM5.55554 5.87207L5.46586 5.91631L5.4661 5.91679L5.55554 5.87207ZM5.54773 6.54004L5.45971 6.49256L5.45924 6.49346L5.54773 6.54004ZM5.29968 6.78223L5.25137 6.69467L5.25095 6.69491L5.29968 6.78223ZM4.86023 6.88574L4.85663 6.78581L4.8208 6.7871L4.79395 6.81086L4.86023 6.88574ZM3.79968 8.28418L3.71024 8.23946L3.63788 8.38418H3.79968V8.28418ZM4.0282 7.82715V7.72715H3.96639L3.93876 7.78243L4.0282 7.82715ZM4.91687 7.77832L4.9616 7.86777L4.96301 7.86704L4.91687 7.77832ZM5.06531 7.22754L4.97399 7.26834L4.97474 7.26993L5.06531 7.22754ZM4.9325 7.08691L4.88408 7.17443L4.88553 7.1752L4.9325 7.08691ZM4.12585 7.03613L4.02586 7.03516L4.02488 7.13613H4.12585V7.03613ZM4.12976 6.63379V6.53379H4.03073L4.02977 6.63282L4.12976 6.63379ZM4.83289 6.63379L4.90901 6.56894L4.87906 6.53379H4.83289V6.63379ZM4.96765 6.79199L4.89153 6.85684L4.92207 6.89269L4.96915 6.89198L4.96765 6.79199ZM5.38562 6.88379L5.33385 6.96936L5.3351 6.97009L5.38562 6.88379ZM5.61804 7.12793L5.5279 7.17124L5.52837 7.17218L5.61804 7.12793ZM5.57312 7.91113L5.65727 7.96516L5.65752 7.96476L5.57312 7.91113ZM5.22351 8.19043L5.18583 8.0978L5.18556 8.09791L5.22351 8.19043ZM4.69031 6.93613H3.95984V7.13613H4.69031V6.93613ZM4.05983 7.03516L4.05593 6.63282L3.85594 6.63476L3.85984 7.0371L4.05983 7.03516ZM3.95593 6.73379H4.56921V6.53379H3.95593V6.73379ZM4.56921 6.73379C4.68465 6.73379 4.78688 6.71934 4.87168 6.68574L4.798 6.49981C4.74477 6.5209 4.66993 6.53379 4.56921 6.53379V6.73379ZM4.87318 6.68513C4.95764 6.65007 5.02683 6.59702 5.07359 6.52328L4.90468 6.41617C4.88374 6.44921 4.85006 6.47818 4.7965 6.50041L4.87318 6.68513ZM5.07325 6.5238C5.12071 6.44999 5.14187 6.3639 5.14187 6.27051H4.94187C4.94187 6.33337 4.92788 6.38009 4.90502 6.41565L5.07325 6.5238ZM5.14187 6.27051C5.14187 6.17011 5.12278 6.07842 5.07612 6.00303L4.90606 6.1083C4.9271 6.14229 4.94187 6.19383 4.94187 6.27051H5.14187ZM5.07702 6.00452C5.0305 5.92636 4.95842 5.87331 4.86998 5.84219L4.8036 6.03085C4.85579 6.04922 4.88658 6.0756 4.90516 6.10681L5.07702 6.00452ZM4.87054 5.84239C4.78676 5.81236 4.68499 5.79941 4.56921 5.79941V5.99941C4.67219 5.99941 4.7488 6.01121 4.80305 6.03066L4.87054 5.84239ZM4.56921 5.79941H4.16296V5.99941H4.56921V5.79941ZM4.06296 5.89941V8.28418H4.26296V5.89941H4.06296ZM4.16296 8.18418H3.57703V8.38418H4.16296V8.18418ZM3.67703 8.28418V5.44043H3.47703V8.28418H3.67703ZM3.57703 5.54043H4.56921V5.34043H3.57703V5.54043ZM4.56921 5.54043C4.72848 5.54043 4.86821 5.5555 4.98924 5.58454L5.03591 5.39007C4.89652 5.35661 4.74068 5.34043 4.56921 5.34043V5.54043ZM4.98945 5.5846C5.11125 5.61354 5.21036 5.65661 5.28921 5.71181L5.4039 5.54796C5.30046 5.47555 5.17691 5.42357 5.03569 5.39001L4.98945 5.5846ZM5.28921 5.71181C5.36689 5.76618 5.42529 5.83407 5.46586 5.91631L5.64522 5.82783C5.58944 5.71475 5.50851 5.62119 5.4039 5.54796L5.28921 5.71181ZM5.4661 5.91679C5.5059 5.9964 5.52781 6.09498 5.52781 6.21582H5.72781C5.72781 6.07103 5.70153 5.94045 5.64498 5.82735L5.4661 5.91679ZM5.52781 6.21582C5.52781 6.31716 5.5049 6.40882 5.45972 6.49256L5.63574 6.58752C5.69733 6.47335 5.72781 6.34886 5.72781 6.21582H5.52781ZM5.45924 6.49346C5.41762 6.57254 5.3503 6.64009 5.25137 6.69467L5.34799 6.86978C5.47563 6.79936 5.57367 6.70545 5.63622 6.58661L5.45924 6.49346ZM5.25095 6.69491C5.15731 6.74717 5.02791 6.77965 4.85663 6.78581L4.86382 6.98568C5.05452 6.97882 5.2181 6.94228 5.34842 6.86955L5.25095 6.69491ZM4.79395 6.81086L4.62403 6.96125L4.75658 7.11102L4.92651 6.96063L4.79395 6.81086ZM4.66492 8.18418H3.79968V8.38418H4.66492V8.18418ZM3.88913 8.3289L4.11764 7.87187L3.93876 7.78243L3.71024 8.23946L3.88913 8.3289ZM4.0282 7.92715H4.66492V7.72715H4.0282V7.92715ZM4.66492 7.92715C4.7773 7.92715 4.87808 7.90952 4.96159 7.86776L4.87215 7.68888C4.82546 7.71222 4.75826 7.72715 4.66492 7.72715V7.92715ZM4.96301 7.86704C5.04347 7.8252 5.10727 7.76635 5.14919 7.68949L4.97361 7.59372C4.95304 7.63144 4.92048 7.66373 4.87073 7.6896L4.96301 7.86704ZM5.14919 7.68949C5.1895 7.61559 5.20828 7.53296 5.20828 7.44434H5.00828C5.00828 7.50415 4.99581 7.55303 4.97361 7.59372L5.14919 7.68949ZM5.20828 7.44434C5.20828 7.34969 5.19201 7.26234 5.15588 7.18515L4.97474 7.26993C4.9959 7.31514 5.00828 7.37232 5.00828 7.44434H5.20828ZM5.15661 7.18675C5.11985 7.10449 5.05959 7.04125 4.97946 6.99863L4.88553 7.1752C4.9278 7.19768 4.95607 7.2282 4.97401 7.26833L5.15661 7.18675ZM4.9809 6.99941C4.89984 6.95457 4.80061 6.93613 4.69031 6.93613V7.13613C4.78053 7.13613 4.84275 7.15155 4.88409 7.17442L4.9809 6.99941ZM4.69031 6.93613H4.12585V7.13613H4.69031V6.93613ZM4.22585 7.0371L4.22976 6.63476L4.02977 6.63282L4.02586 7.03516L4.22585 7.0371ZM4.12976 6.73379H4.83289V6.53379H4.12976V6.73379ZM4.75676 6.69864L4.89153 6.85684L5.04378 6.72715L4.90901 6.56894L4.75676 6.69864ZM4.96915 6.89198C5.13084 6.88955 5.24969 6.91843 5.33386 6.96935L5.43738 6.79823C5.31061 6.72154 5.15082 6.68923 4.96615 6.692L4.96915 6.89198ZM5.3351 6.97009C5.42669 7.0237 5.48931 7.09092 5.52791 7.17124L5.70818 7.08462C5.65042 6.96442 5.5581 6.86888 5.43614 6.79749L5.3351 6.97009ZM5.52837 7.17218C5.57088 7.25833 5.59226 7.35057 5.59226 7.4502H5.79226C5.79226 7.32066 5.76416 7.19805 5.70772 7.08367L5.52837 7.17218ZM5.59226 7.4502C5.59226 7.61789 5.55583 7.75188 5.48872 7.8575L5.65752 7.96476C5.74926 7.82039 5.79226 7.64709 5.79226 7.4502H5.59226ZM5.48897 7.8571C5.42209 7.96127 5.32293 8.04203 5.18583 8.0978L5.26119 8.28306C5.43138 8.21383 5.5653 8.10839 5.65727 7.96516L5.48897 7.8571ZM5.18556 8.09791C5.04857 8.15411 4.87608 8.18418 4.66492 8.18418V8.38418C4.89385 8.38418 5.09377 8.35175 5.26147 8.28295L5.18556 8.09791ZM8.01843 7.84473H8.11843V7.74473H8.01843V7.84473ZM8.01843 8.28418V8.38418H8.11843V8.28418H8.01843ZM6.07312 8.28418H5.97312V8.38418H6.07312V8.28418ZM6.07312 7.90918L5.99999 7.84097L5.97312 7.86978V7.90918H6.07312ZM6.99304 6.92285L7.06618 6.99107L7.06742 6.9897L6.99304 6.92285ZM7.21179 6.65137L7.29436 6.70779L7.29479 6.70715L7.21179 6.65137ZM7.32703 6.43848L7.23378 6.40232L7.23339 6.40336L7.32703 6.43848ZM7.32117 6.03613L7.23026 6.0778L7.2306 6.07853L7.32117 6.03613ZM7.19421 5.8916L7.14158 5.97663L7.14247 5.97717L7.19421 5.8916ZM6.76843 5.90332L6.71296 5.82011L6.71215 5.82066L6.76843 5.90332ZM6.62781 6.07715L6.53622 6.03698L6.53564 6.03834L6.62781 6.07715ZM6.58093 6.3291V6.4291H6.68093V6.3291H6.58093ZM6.01648 6.3291H5.91648V6.4291H6.01648V6.3291ZM6.13757 5.86426L6.2243 5.91404L6.2245 5.9137L6.13757 5.86426ZM6.47937 5.52637L6.52865 5.61338L6.52923 5.61305L6.47937 5.52637ZM7.50671 5.49707L7.46372 5.58736L7.46475 5.58784L7.50671 5.49707ZM7.81921 5.77441L7.73273 5.82463L7.73338 5.82573L7.81921 5.77441ZM7.88171 6.47949L7.97644 6.51153L7.97658 6.51111L7.88171 6.47949ZM7.75281 6.74512L7.66829 6.69167L7.66808 6.692L7.75281 6.74512ZM7.29382 7.29004L7.22254 7.21972L7.21915 7.22352L7.29382 7.29004ZM6.79968 7.84473L6.72501 7.77821L6.57667 7.94473H6.79968V7.84473ZM7.91843 7.84473V8.28418H8.11843V7.84473H7.91843ZM8.01843 8.18418H6.07312V8.38418H8.01843V8.18418ZM6.17312 8.28418V7.90918H5.97312V8.28418H6.17312ZM6.14625 7.97739L7.06617 6.99106L6.91991 6.85465L5.99999 7.84097L6.14625 7.97739ZM7.06742 6.9897C7.16161 6.8849 7.23762 6.79081 7.29436 6.70779L7.12923 6.59495C7.07919 6.66818 7.00937 6.75508 6.91867 6.85601L7.06742 6.9897ZM7.29479 6.70715C7.35081 6.6238 7.3936 6.54576 7.42066 6.47359L7.23339 6.40336C7.21358 6.4562 7.17955 6.52008 7.1288 6.59558L7.29479 6.70715ZM7.42026 6.47463C7.44862 6.40149 7.46414 6.32864 7.46414 6.25684H7.26414C7.26414 6.29961 7.25491 6.34786 7.23379 6.40232L7.42026 6.47463ZM7.46414 6.25684C7.46414 6.1601 7.44804 6.0713 7.41174 5.99374L7.2306 6.07853C7.25158 6.12336 7.26414 6.1817 7.26414 6.25684H7.46414ZM7.41207 5.99447C7.37552 5.91471 7.32001 5.8508 7.24596 5.80603L7.14247 5.97717C7.1804 6.00011 7.20952 6.03255 7.23026 6.0778L7.41207 5.99447ZM7.24685 5.80658C7.17277 5.76072 7.0857 5.74082 6.99109 5.74082V5.94082C7.05793 5.94082 7.10628 5.95478 7.14158 5.97663L7.24685 5.80658ZM6.99109 5.74082C6.88834 5.74082 6.79417 5.76598 6.71296 5.82012L6.8239 5.98653C6.8677 5.95733 6.92197 5.94082 6.99109 5.94082V5.74082ZM6.71215 5.82066C6.63398 5.87389 6.57558 5.94725 6.53623 6.03698L6.71939 6.11731C6.74514 6.05861 6.78049 6.01609 6.82471 5.98598L6.71215 5.82066ZM6.53564 6.03834C6.49844 6.12669 6.48093 6.22419 6.48093 6.3291H6.68093C6.68093 6.24652 6.69467 6.17604 6.71997 6.11595L6.53564 6.03834ZM6.58093 6.2291H6.01648V6.4291H6.58093V6.2291ZM6.11648 6.3291C6.11648 6.1765 6.15266 6.03884 6.2243 5.91404L6.05085 5.81447C5.96103 5.97093 5.91648 6.14316 5.91648 6.3291H6.11648ZM6.2245 5.9137C6.29597 5.78804 6.39664 5.68815 6.52865 5.61338L6.43009 5.43935C6.26783 5.53125 6.14063 5.65662 6.05065 5.81482L6.2245 5.9137ZM6.52923 5.61305C6.65856 5.53866 6.81517 5.49941 7.00281 5.49941V5.29941C6.7868 5.29941 6.59445 5.34481 6.42951 5.43968L6.52923 5.61305ZM7.00281 5.49941C7.19165 5.49941 7.34397 5.53033 7.46372 5.58736L7.54971 5.40678C7.39602 5.3336 7.21241 5.29941 7.00281 5.29941V5.49941ZM7.46475 5.58784C7.5858 5.6438 7.67364 5.72285 7.73274 5.82463L7.90569 5.7242C7.82417 5.58379 7.70367 5.47795 7.54867 5.4063L7.46475 5.58784ZM7.73338 5.82573C7.79407 5.92724 7.82664 6.05198 7.82664 6.2041H8.02664C8.02664 6.02289 7.98759 5.86118 7.90505 5.7231L7.73338 5.82573ZM7.82664 6.2041C7.82664 6.28699 7.81343 6.36812 7.78685 6.44787L7.97658 6.51111C8.00989 6.41118 8.02664 6.30871 8.02664 6.2041H7.82664ZM7.78699 6.44745C7.75986 6.52764 7.72054 6.60904 7.66829 6.69167L7.83733 6.79856C7.89705 6.70411 7.94367 6.60843 7.97644 6.51153L7.78699 6.44745ZM7.66808 6.692C7.61654 6.77422 7.55336 6.85861 7.47813 6.94512L7.62905 7.07636C7.71007 6.98319 7.7797 6.89049 7.83754 6.79823L7.66808 6.692ZM7.47813 6.94512C7.40155 7.03319 7.31641 7.12475 7.22263 7.21981L7.36501 7.36027C7.46134 7.26262 7.54938 7.16798 7.62905 7.07636L7.47813 6.94512ZM7.21915 7.22352L6.72501 7.77821L6.87435 7.91124L7.36849 7.35656L7.21915 7.22352ZM6.79968 7.94473H8.01843V7.74473H6.79968V7.94473ZM9.54187 7.03613V7.13613H9.57977L9.60815 7.11102L9.54187 7.03613ZM8.8114 7.03613L8.71141 7.0371L8.71237 7.13613H8.8114V7.03613ZM8.8075 6.63379V6.53379H8.70652L8.7075 6.63476L8.8075 6.63379ZM9.6864 6.59277L9.72324 6.68575L9.72474 6.68513L9.6864 6.59277ZM9.8407 6.46973L9.75658 6.41565L9.75625 6.41617L9.8407 6.46973ZM9.84265 6.05566L9.75671 6.10682L9.75762 6.1083L9.84265 6.05566ZM9.68835 5.93652L9.65461 6.03066L9.65516 6.03085L9.68835 5.93652ZM9.01453 5.89941V5.79941H8.91453V5.89941H9.01453ZM9.01453 8.28418V8.38418H9.11453V8.28418H9.01453ZM8.42859 8.28418H8.32859V8.38418H8.42859V8.28418ZM8.42859 5.44043V5.34043H8.32859V5.44043H8.42859ZM9.86414 5.4873L9.8408 5.58454L9.84102 5.5846L9.86414 5.4873ZM10.1981 5.62988L10.1408 5.71181L10.1981 5.62988ZM10.4071 5.87207L10.3174 5.91631L10.3177 5.91679L10.4071 5.87207ZM10.3993 6.54004L10.3113 6.49256L10.3108 6.49346L10.3993 6.54004ZM10.1512 6.78223L10.1029 6.69467L10.1025 6.69491L10.1512 6.78223ZM9.71179 6.88574L9.7082 6.78581L9.67237 6.7871L9.64552 6.81086L9.71179 6.88574ZM8.65125 8.28418L8.5618 8.23946L8.48944 8.38418H8.65125V8.28418ZM8.87976 7.82715V7.72715H8.81796L8.79032 7.78243L8.87976 7.82715ZM9.76843 7.77832L9.81316 7.86777L9.81457 7.86704L9.76843 7.77832ZM9.91687 7.22754L9.82556 7.26834L9.8263 7.26993L9.91687 7.22754ZM9.78406 7.08691L9.73564 7.17443L9.7371 7.1752L9.78406 7.08691ZM8.97742 7.03613L8.87742 7.03516L8.87644 7.13613H8.97742V7.03613ZM8.98132 6.63379V6.53379H8.88229L8.88133 6.63282L8.98132 6.63379ZM9.68445 6.63379L9.76057 6.56894L9.73063 6.53379H9.68445V6.63379ZM9.81921 6.79199L9.74309 6.85684L9.77363 6.89269L9.82072 6.89198L9.81921 6.79199ZM10.2372 6.88379L10.1854 6.96936L10.1867 6.97009L10.2372 6.88379ZM10.4696 7.12793L10.3795 7.17124L10.3799 7.17218L10.4696 7.12793ZM10.4247 7.91113L10.5088 7.96516L10.5091 7.96476L10.4247 7.91113ZM10.0751 8.19043L10.0374 8.0978L10.0371 8.09791L10.0751 8.19043ZM9.54187 6.93613H8.8114V7.13613H9.54187V6.93613ZM8.9114 7.03516L8.90749 6.63282L8.7075 6.63476L8.71141 7.0371L8.9114 7.03516ZM8.8075 6.73379H9.42078V6.53379H8.8075V6.73379ZM9.42078 6.73379C9.53621 6.73379 9.63845 6.71934 9.72324 6.68574L9.64956 6.49981C9.59633 6.5209 9.52149 6.53379 9.42078 6.53379V6.73379ZM9.72474 6.68513C9.8092 6.65007 9.87839 6.59702 9.92515 6.52328L9.75625 6.41617C9.7353 6.44921 9.70162 6.47818 9.64806 6.50041L9.72474 6.68513ZM9.92482 6.5238C9.97227 6.44999 9.99343 6.3639 9.99343 6.27051H9.79343C9.79343 6.33337 9.77944 6.38009 9.75658 6.41565L9.92482 6.5238ZM9.99343 6.27051C9.99343 6.17011 9.97435 6.07842 9.92768 6.00303L9.75762 6.1083C9.77867 6.14229 9.79343 6.19383 9.79343 6.27051H9.99343ZM9.92858 6.00452C9.88206 5.92636 9.80998 5.87331 9.72155 5.84219L9.65516 6.03085C9.70736 6.04922 9.73814 6.0756 9.75672 6.10681L9.92858 6.00452ZM9.7221 5.84239C9.63832 5.81236 9.53655 5.79941 9.42078 5.79941V5.99941C9.52375 5.99941 9.60036 6.01121 9.65461 6.03066L9.7221 5.84239ZM9.42078 5.79941H9.01453V5.99941H9.42078V5.79941ZM8.91453 5.89941V8.28418H9.11453V5.89941H8.91453ZM9.01453 8.18418H8.42859V8.38418H9.01453V8.18418ZM8.52859 8.28418V5.44043H8.32859V8.28418H8.52859ZM8.42859 5.54043H9.42078V5.34043H8.42859V5.54043ZM9.42078 5.54043C9.58004 5.54043 9.71977 5.5555 9.8408 5.58454L9.88747 5.39007C9.74808 5.35661 9.59224 5.34043 9.42078 5.34043V5.54043ZM9.84102 5.5846C9.96282 5.61354 10.0619 5.65661 10.1408 5.71181L10.2555 5.54796C10.152 5.47555 10.0285 5.42357 9.88725 5.39001L9.84102 5.5846ZM10.1408 5.71181C10.2185 5.76618 10.2769 5.83407 10.3174 5.91631L10.4968 5.82783C10.441 5.71475 10.3601 5.62119 10.2555 5.54796L10.1408 5.71181ZM10.3177 5.91679C10.3575 5.9964 10.3794 6.09498 10.3794 6.21582H10.5794C10.5794 6.07103 10.5531 5.94045 10.4965 5.82735L10.3177 5.91679ZM10.3794 6.21582C10.3794 6.31716 10.3565 6.40882 10.3113 6.49256L10.4873 6.58752C10.5489 6.47335 10.5794 6.34886 10.5794 6.21582H10.3794ZM10.3108 6.49346C10.2692 6.57254 10.2019 6.64009 10.1029 6.69467L10.1996 6.86978C10.3272 6.79936 10.4252 6.70545 10.4878 6.58661L10.3108 6.49346ZM10.1025 6.69491C10.0089 6.74717 9.87948 6.77965 9.7082 6.78581L9.71539 6.98568C9.90609 6.97882 10.0697 6.94228 10.2 6.86955L10.1025 6.69491ZM9.64552 6.81086L9.47559 6.96125L9.60815 7.11102L9.77807 6.96063L9.64552 6.81086ZM9.51648 8.18418H8.65125V8.38418H9.51648V8.18418ZM8.74069 8.3289L8.9692 7.87187L8.79032 7.78243L8.5618 8.23946L8.74069 8.3289ZM8.87976 7.92715H9.51648V7.72715H8.87976V7.92715ZM9.51648 7.92715C9.62886 7.92715 9.72964 7.90952 9.81315 7.86776L9.72371 7.68888C9.67702 7.71222 9.60983 7.72715 9.51648 7.72715V7.92715ZM9.81457 7.86704C9.89503 7.8252 9.95883 7.76635 10.0008 7.68949L9.82517 7.59372C9.8046 7.63144 9.77204 7.66373 9.7223 7.6896L9.81457 7.86704ZM10.0008 7.68949C10.0411 7.61559 10.0598 7.53296 10.0598 7.44434H9.85984C9.85984 7.50415 9.84737 7.55303 9.82517 7.59372L10.0008 7.68949ZM10.0598 7.44434C10.0598 7.34969 10.0436 7.26234 10.0074 7.18515L9.8263 7.26993C9.84746 7.31514 9.85984 7.37232 9.85984 7.44434H10.0598ZM10.0082 7.18675C9.97142 7.10449 9.91115 7.04125 9.83102 6.99863L9.7371 7.1752C9.77936 7.19768 9.80764 7.2282 9.82557 7.26833L10.0082 7.18675ZM9.83246 6.99941C9.75141 6.95457 9.65217 6.93613 9.54187 6.93613V7.13613C9.63209 7.13613 9.69431 7.15155 9.73565 7.17442L9.83246 6.99941ZM9.54187 6.93613H8.97742V7.13613H9.54187V6.93613ZM9.07741 7.0371L9.08132 6.63476L8.88133 6.63282L8.87742 7.03516L9.07741 7.0371ZM8.98132 6.73379H9.68445V6.53379H8.98132V6.73379ZM9.60832 6.69864L9.74309 6.85684L9.89534 6.72715L9.76057 6.56894L9.60832 6.69864ZM9.82072 6.89198C9.9824 6.88955 10.1013 6.91843 10.1854 6.96935L10.2889 6.79823C10.1622 6.72154 10.0024 6.68923 9.81771 6.692L9.82072 6.89198ZM10.1867 6.97009C10.2782 7.0237 10.3409 7.09092 10.3795 7.17124L10.5597 7.08462C10.502 6.96442 10.4097 6.86888 10.2877 6.79749L10.1867 6.97009ZM10.3799 7.17218C10.4224 7.25833 10.4438 7.35057 10.4438 7.4502H10.6438C10.6438 7.32066 10.6157 7.19805 10.5593 7.08367L10.3799 7.17218ZM10.4438 7.4502C10.4438 7.61789 10.4074 7.75188 10.3403 7.8575L10.5091 7.96476C10.6008 7.82039 10.6438 7.64709 10.6438 7.4502H10.4438ZM10.3405 7.8571C10.2736 7.96127 10.1745 8.04203 10.0374 8.0978L10.1128 8.28306C10.2829 8.21383 10.4169 8.10839 10.5088 7.96516L10.3405 7.8571ZM10.0371 8.09791C9.90013 8.15411 9.72765 8.18418 9.51648 8.18418V8.38418C9.74542 8.38418 9.94533 8.35175 10.113 8.28295L10.0371 8.09791Z" fill="#7C29E5"/>
<path d="M11.4227 2.64919C10.8485 2.07108 10.194 1.61015 9.45931 1.26691C8.68675 0.905948 7.87551 0.725391 7.02684 0.725391C6.17913 0.725391 5.38717 0.883709 4.65226 1.20036C3.91844 1.51655 3.2757 1.9472 2.72482 2.49154C2.17385 3.03597 1.73704 3.67564 1.41434 4.40938C1.09119 5.14418 0.929736 5.92973 0.929736 6.76513C0.929736 7.60054 1.09119 8.392 1.41422 9.13942C1.73685 9.88594 2.17065 10.5284 2.71539 11.067C3.25992 11.6053 3.90264 12.0355 4.64265 12.3581C5.38397 12.6812 6.179 12.8425 7.02684 12.8425C8.62185 12.8425 9.9969 12.301 11.149 11.2185C12.3012 10.136 12.9283 8.7897 13.0297 7.18266L13.033 7.12951H12.9798H12.4146H12.3688L12.3648 7.17511C12.2404 8.58218 11.6712 9.76688 10.6565 10.7315C9.64211 11.6956 8.43336 12.1775 7.02684 12.1775C5.50758 12.1775 4.22396 11.6488 3.17218 10.5912C2.12033 9.53351 1.59489 8.24661 1.59489 6.72746C1.59489 5.24637 2.12004 3.98779 3.17186 2.94881C4.22358 1.90993 5.5073 1.39046 7.02684 1.39046C7.77304 1.39046 8.48813 1.54895 9.17222 1.86613C9.82155 2.16719 10.3982 2.5716 10.9022 3.07985H9.21209H9.16209V3.12985V3.69492V3.74492H9.21209H12.0378H12.0878V3.69492V0.869569V0.819569H12.0378H11.4727H11.4227V0.869569V2.64919Z" fill="#7C29E5" stroke="#7C29E5" stroke-width="0.1"/>
</svg>
