<svg width="14" height="13" viewBox="0 0 14 13" fill="none" xmlns="http://www.w3.org/2000/svg">
<path d="M5.77466 7.55664C5.77466 7.50586 5.76685 7.46029 5.75122 7.41992C5.7369 7.37826 5.70955 7.34049 5.66919 7.30664C5.62882 7.27148 5.57218 7.23698 5.49927 7.20312C5.42635 7.16927 5.33195 7.13411 5.21606 7.09766C5.08716 7.05599 4.96476 7.00911 4.84888 6.95703C4.73429 6.90495 4.63273 6.8444 4.54419 6.77539C4.45695 6.70508 4.38794 6.6237 4.33716 6.53125C4.28768 6.4388 4.26294 6.33138 4.26294 6.20898C4.26294 6.09049 4.28898 5.98307 4.34106 5.88672C4.39315 5.78906 4.46606 5.70573 4.55981 5.63672C4.65356 5.56641 4.76424 5.51237 4.89185 5.47461C5.02075 5.43685 5.16203 5.41797 5.31567 5.41797C5.52531 5.41797 5.70825 5.45573 5.8645 5.53125C6.02075 5.60677 6.14185 5.71029 6.22778 5.8418C6.31502 5.97331 6.35864 6.1237 6.35864 6.29297H5.77661C5.77661 6.20964 5.75903 6.13672 5.72388 6.07422C5.69002 6.01042 5.63794 5.96029 5.56763 5.92383C5.49862 5.88737 5.41138 5.86914 5.30591 5.86914C5.20435 5.86914 5.11971 5.88477 5.052 5.91602C4.98429 5.94596 4.93351 5.98698 4.89966 6.03906C4.8658 6.08984 4.84888 6.14714 4.84888 6.21094C4.84888 6.25911 4.8606 6.30273 4.88403 6.3418C4.90877 6.38086 4.94523 6.41732 4.99341 6.45117C5.04159 6.48503 5.10083 6.51693 5.17114 6.54688C5.24146 6.57682 5.32284 6.60612 5.41528 6.63477C5.57023 6.68164 5.7063 6.73438 5.82349 6.79297C5.94198 6.85156 6.04093 6.91732 6.12036 6.99023C6.19979 7.06315 6.25968 7.14583 6.30005 7.23828C6.34041 7.33073 6.3606 7.43555 6.3606 7.55273C6.3606 7.67643 6.33651 7.78711 6.28833 7.88477C6.24015 7.98242 6.17049 8.0651 6.07935 8.13281C5.9882 8.20052 5.87948 8.25195 5.75317 8.28711C5.62687 8.32227 5.4856 8.33984 5.32935 8.33984C5.18872 8.33984 5.05005 8.32161 4.91333 8.28516C4.77661 8.2474 4.65226 8.19076 4.54028 8.11523C4.42961 8.03971 4.34106 7.94336 4.27466 7.82617C4.20825 7.70898 4.17505 7.57031 4.17505 7.41016H4.76294C4.76294 7.4987 4.77661 7.57357 4.80396 7.63477C4.8313 7.69596 4.86971 7.74544 4.91919 7.7832C4.96997 7.82096 5.02987 7.84831 5.09888 7.86523C5.16919 7.88216 5.24601 7.89062 5.32935 7.89062C5.43091 7.89062 5.51424 7.8763 5.57935 7.84766C5.64575 7.81901 5.69458 7.7793 5.72583 7.72852C5.75838 7.67773 5.77466 7.62044 5.77466 7.55664ZM8.66724 7.84375V8.30078H7.15356V7.84375H8.66724ZM7.34497 5.45703V8.30078H6.75903V5.45703H7.34497ZM8.46997 6.61523V7.06055H7.15356V6.61523H8.46997ZM8.66528 5.45703V5.91602H7.15356V5.45703H8.66528ZM10.8372 7.84375V8.30078H9.40552V7.84375H10.8372ZM9.59497 5.45703V8.30078H9.00903V5.45703H9.59497Z" fill="#7C29E5"/>
<path d="M5.75122 7.41992L5.65658 7.45245L5.65796 7.45602L5.75122 7.41992ZM5.66919 7.30664L5.6035 7.38206L5.60493 7.38326L5.66919 7.30664ZM5.21606 7.09766L5.18531 7.19281L5.18605 7.19305L5.21606 7.09766ZM4.84888 6.95703L4.8075 7.04807L4.80788 7.04824L4.84888 6.95703ZM4.54419 6.77539L4.48143 6.85326L4.48272 6.85426L4.54419 6.77539ZM4.33716 6.53125L4.24899 6.57844L4.24951 6.57939L4.33716 6.53125ZM4.34106 5.88672L4.42904 5.93427L4.4293 5.93378L4.34106 5.88672ZM4.55981 5.63672L4.6191 5.71726L4.61981 5.71672L4.55981 5.63672ZM4.89185 5.47461L4.86373 5.37864L4.86347 5.37872L4.89185 5.47461ZM6.22778 5.8418L6.14407 5.8965L6.14445 5.89708L6.22778 5.8418ZM6.35864 6.29297V6.39297H6.45864V6.29297H6.35864ZM5.77661 6.29297H5.67661V6.39297H5.77661V6.29297ZM5.72388 6.07422L5.63552 6.1211L5.63672 6.12324L5.72388 6.07422ZM5.56763 5.92383L5.52091 6.01225L5.5216 6.0126L5.56763 5.92383ZM5.052 5.91602L5.09246 6.00748L5.09391 6.00681L5.052 5.91602ZM4.89966 6.03906L4.98287 6.09454L4.9835 6.09356L4.89966 6.03906ZM4.88403 6.3418L4.79826 6.39326L4.79955 6.3953L4.88403 6.3418ZM4.99341 6.45117L5.0509 6.36935L4.99341 6.45117ZM5.41528 6.63477L5.38568 6.73029L5.38633 6.73048L5.41528 6.63477ZM5.82349 6.79297L5.77876 6.88241L5.77916 6.88261L5.82349 6.79297ZM6.30005 7.23828L6.2084 7.2783L6.30005 7.23828ZM6.07935 8.13281L6.01971 8.05254L6.07935 8.13281ZM4.91333 8.28516L4.88671 8.38155L4.88756 8.38178L4.91333 8.28516ZM4.54028 8.11523L4.48392 8.19784L4.48437 8.19814L4.54028 8.11523ZM4.17505 7.41016V7.31016H4.07505V7.41016H4.17505ZM4.76294 7.41016H4.86294V7.31016H4.76294V7.41016ZM4.91919 7.7832L4.85852 7.8627L4.85952 7.86345L4.91919 7.7832ZM5.09888 7.86523L5.07505 7.96236L5.07547 7.96246L5.09888 7.86523ZM5.57935 7.84766L5.53974 7.75583L5.53907 7.75612L5.57935 7.84766ZM5.72583 7.72852L5.64163 7.67454L5.64066 7.67611L5.72583 7.72852ZM5.87466 7.55664C5.87466 7.49561 5.86526 7.43751 5.84448 7.38382L5.65796 7.45602C5.66843 7.48306 5.67466 7.51611 5.67466 7.55664H5.87466ZM5.84579 7.38741C5.8245 7.32547 5.785 7.27325 5.73345 7.23002L5.60493 7.38326C5.63411 7.40774 5.6493 7.43104 5.65665 7.45243L5.84579 7.38741ZM5.73487 7.23123C5.68481 7.18763 5.61901 7.14847 5.54138 7.11242L5.45716 7.29383C5.52536 7.32549 5.57284 7.35534 5.60351 7.38205L5.73487 7.23123ZM5.54138 7.11242C5.46309 7.07608 5.36423 7.03944 5.24608 7.00227L5.18605 7.19305C5.29967 7.22879 5.38961 7.26246 5.45716 7.29383L5.54138 7.11242ZM5.24682 7.0025C5.12117 6.96189 5.00221 6.91631 4.88987 6.86582L4.80788 7.04824C4.92732 7.10192 5.05315 7.15009 5.18531 7.19281L5.24682 7.0025ZM4.89026 6.86599C4.78198 6.81678 4.68731 6.76016 4.60566 6.69652L4.48272 6.85426C4.57815 6.92865 4.68661 6.99312 4.8075 7.04807L4.89026 6.86599ZM4.60694 6.69753C4.52922 6.63489 4.46892 6.56342 4.42481 6.48311L4.24951 6.57939C4.30696 6.68398 4.38468 6.77527 4.48144 6.85325L4.60694 6.69753ZM4.42532 6.48406C4.38482 6.40838 4.36294 6.31768 4.36294 6.20898H4.16294C4.16294 6.34508 4.19054 6.46922 4.24899 6.57844L4.42532 6.48406ZM4.36294 6.20898C4.36294 6.1057 4.38548 6.01484 4.42904 5.93427L4.25309 5.83917C4.19248 5.95131 4.16294 6.07529 4.16294 6.20898H4.36294ZM4.4293 5.93378C4.47399 5.84998 4.53674 5.77788 4.6191 5.71725L4.50053 5.55619C4.39539 5.63358 4.31231 5.72814 4.25283 5.83966L4.4293 5.93378ZM4.61981 5.71672C4.70285 5.65444 4.80249 5.60534 4.92022 5.5705L4.86347 5.37872C4.72599 5.4194 4.60427 5.47837 4.49981 5.55672L4.61981 5.71672ZM4.91996 5.57058C5.03853 5.53584 5.1702 5.51797 5.31567 5.51797V5.31797C5.15385 5.31797 5.00297 5.33785 4.86373 5.37864L4.91996 5.57058ZM5.31567 5.51797C5.51333 5.51797 5.68084 5.55355 5.82099 5.62128L5.90802 5.44122C5.73567 5.35791 5.53729 5.31797 5.31567 5.31797V5.51797ZM5.82099 5.62128C5.96264 5.68975 6.06909 5.78176 6.14407 5.8965L6.31149 5.78709C6.2146 5.63881 6.07886 5.52379 5.90802 5.44122L5.82099 5.62128ZM6.14445 5.89708C6.22002 6.011 6.25864 6.14187 6.25864 6.29297H6.45864C6.45864 6.10553 6.41002 5.93562 6.31112 5.78652L6.14445 5.89708ZM6.35864 6.19297H5.77661V6.39297H6.35864V6.19297ZM5.87661 6.29297C5.87661 6.19527 5.85589 6.10493 5.81103 6.02519L5.63672 6.12324C5.66218 6.16851 5.67661 6.224 5.67661 6.29297H5.87661ZM5.81221 6.02735C5.76792 5.94387 5.70018 5.87991 5.61366 5.83505L5.5216 6.0126C5.5757 6.04066 5.61213 6.07696 5.63554 6.12109L5.81221 6.02735ZM5.61434 5.83541C5.52677 5.78915 5.42219 5.76914 5.30591 5.76914V5.96914C5.40056 5.96914 5.47046 5.98559 5.52091 6.01225L5.61434 5.83541ZM5.30591 5.76914C5.19482 5.76914 5.09479 5.78613 5.0101 5.82522L5.09391 6.00681C5.14463 5.9834 5.21387 5.96914 5.30591 5.96914V5.76914ZM5.01155 5.82456C4.92955 5.86083 4.86213 5.91331 4.81581 5.98456L4.9835 6.09356C5.0049 6.06065 5.03903 6.0311 5.09245 6.00747L5.01155 5.82456ZM4.81645 5.98359C4.77113 6.05157 4.74888 6.12834 4.74888 6.21094H4.94888C4.94888 6.16593 4.96047 6.12812 4.98286 6.09453L4.81645 5.98359ZM4.74888 6.21094C4.74888 6.27615 4.76498 6.33774 4.79828 6.39325L4.96978 6.29035C4.95621 6.26773 4.94888 6.24208 4.94888 6.21094H4.74888ZM4.79955 6.3953C4.83297 6.44808 4.87979 6.49355 4.93591 6.53299L5.0509 6.36935C5.01067 6.34108 4.98457 6.31364 4.96852 6.28829L4.79955 6.3953ZM4.93591 6.53299C4.99122 6.57186 5.05699 6.60695 5.13196 6.63888L5.21033 6.45487C5.14467 6.4269 5.09195 6.3982 5.0509 6.36935L4.93591 6.53299ZM5.13196 6.63888C5.2061 6.67046 5.2908 6.70088 5.38569 6.73029L5.44488 6.53925C5.35488 6.51136 5.27681 6.48319 5.21033 6.45487L5.13196 6.63888ZM5.38633 6.73048C5.53706 6.77608 5.66766 6.82686 5.77876 6.88241L5.86821 6.70353C5.74494 6.64189 5.6034 6.5872 5.44424 6.53905L5.38633 6.73048ZM5.77916 6.88261C5.891 6.93791 5.98164 6.99864 6.05273 7.0639L6.18799 6.91657C6.10023 6.836 5.99295 6.76521 5.86781 6.70333L5.77916 6.88261ZM6.05273 7.0639C6.12262 7.12805 6.17399 7.19948 6.2084 7.2783L6.39169 7.19827C6.34538 7.09219 6.27696 6.99825 6.18799 6.91657L6.05273 7.0639ZM6.2084 7.2783C6.24244 7.35625 6.2606 7.44711 6.2606 7.55273H6.4606C6.4606 7.42398 6.43839 7.30521 6.39169 7.19827L6.2084 7.2783ZM6.2606 7.55273C6.2606 7.66319 6.23917 7.75839 6.19865 7.84052L6.37801 7.92901C6.43385 7.81583 6.4606 7.68968 6.4606 7.55273H6.2606ZM6.19865 7.84052C6.15779 7.92334 6.09869 7.99387 6.01971 8.05254L6.13898 8.21309C6.24229 8.13634 6.32251 8.0415 6.37801 7.92901L6.19865 7.84052ZM6.01971 8.05254C5.93983 8.11188 5.84263 8.15841 5.72636 8.19077L5.77999 8.38345C5.91632 8.3455 6.03657 8.28916 6.13898 8.21309L6.01971 8.05254ZM5.72636 8.19077C5.61027 8.22309 5.47821 8.23984 5.32935 8.23984V8.43984C5.49298 8.43984 5.64347 8.42145 5.77999 8.38345L5.72636 8.19077ZM5.32935 8.23984C5.19747 8.23984 5.06746 8.22276 4.9391 8.18853L4.88756 8.38178C5.03264 8.42047 5.17997 8.43984 5.32935 8.43984V8.23984ZM4.93995 8.18877C4.81314 8.15374 4.69876 8.1015 4.5962 8.03233L4.48437 8.19814C4.60576 8.28001 4.74009 8.34105 4.88671 8.38155L4.93995 8.18877ZM4.59665 8.03263C4.49866 7.96577 4.42057 7.88084 4.36166 7.77687L4.18766 7.87547C4.26156 8.00588 4.36055 8.11366 4.48392 8.19784L4.59665 8.03263ZM4.36166 7.77687C4.30525 7.67733 4.27505 7.55631 4.27505 7.41016H4.07505C4.07505 7.58432 4.11125 7.74064 4.18766 7.87547L4.36166 7.77687ZM4.17505 7.51016H4.76294V7.31016H4.17505V7.51016ZM4.66294 7.41016C4.66294 7.50846 4.67805 7.59811 4.71265 7.67556L4.89526 7.59397C4.87517 7.54902 4.86294 7.48894 4.86294 7.41016H4.66294ZM4.71265 7.67556C4.74628 7.75081 4.79475 7.81403 4.85852 7.8627L4.97986 7.70371C4.94467 7.67686 4.91632 7.64112 4.89526 7.59397L4.71265 7.67556ZM4.85952 7.86345C4.92224 7.91009 4.99468 7.94264 5.07505 7.96236L5.1227 7.76811C5.06505 7.75397 5.0177 7.73184 4.97886 7.70296L4.85952 7.86345ZM5.07547 7.96246C5.15451 7.98148 5.2393 7.99062 5.32935 7.99062V7.79063C5.25273 7.79063 5.18387 7.78284 5.12228 7.76801L5.07547 7.96246ZM5.32935 7.99062C5.43928 7.99062 5.53761 7.97527 5.61962 7.93919L5.53907 7.75612C5.49087 7.77733 5.42253 7.79063 5.32935 7.79063V7.99062ZM5.61895 7.93948C5.70015 7.90445 5.76685 7.85266 5.811 7.78093L5.64066 7.67611C5.62231 7.70594 5.59135 7.73357 5.53974 7.75584L5.61895 7.93948ZM5.81002 7.78248C5.8535 7.71465 5.87466 7.63842 5.87466 7.55664H5.67466C5.67466 7.60247 5.66326 7.64082 5.64164 7.67455L5.81002 7.78248ZM8.66724 7.84375H8.76724V7.74375H8.66724V7.84375ZM8.66724 8.30078V8.40078H8.76724V8.30078H8.66724ZM7.15356 8.30078H7.05356V8.40078H7.15356V8.30078ZM7.15356 7.84375V7.74375H7.05356V7.84375H7.15356ZM7.34497 5.45703H7.44497V5.35703H7.34497V5.45703ZM7.34497 8.30078V8.40078H7.44497V8.30078H7.34497ZM6.75903 8.30078H6.65903V8.40078H6.75903V8.30078ZM6.75903 5.45703V5.35703H6.65903V5.45703H6.75903ZM8.46997 6.61523H8.56997V6.51523H8.46997V6.61523ZM8.46997 7.06055V7.16055H8.56997V7.06055H8.46997ZM7.15356 7.06055H7.05356V7.16055H7.15356V7.06055ZM7.15356 6.61523V6.51523H7.05356V6.61523H7.15356ZM8.66528 5.45703H8.76528V5.35703H8.66528V5.45703ZM8.66528 5.91602V6.01602H8.76528V5.91602H8.66528ZM7.15356 5.91602H7.05356V6.01602H7.15356V5.91602ZM7.15356 5.45703V5.35703H7.05356V5.45703H7.15356ZM8.56724 7.84375V8.30078H8.76724V7.84375H8.56724ZM8.66724 8.20078H7.15356V8.40078H8.66724V8.20078ZM7.25356 8.30078V7.84375H7.05356V8.30078H7.25356ZM7.15356 7.94375H8.66724V7.74375H7.15356V7.94375ZM7.24497 5.45703V8.30078H7.44497V5.45703H7.24497ZM7.34497 8.20078H6.75903V8.40078H7.34497V8.20078ZM6.85903 8.30078V5.45703H6.65903V8.30078H6.85903ZM6.75903 5.55703H7.34497V5.35703H6.75903V5.55703ZM8.36997 6.61523V7.06055H8.56997V6.61523H8.36997ZM8.46997 6.96055H7.15356V7.16055H8.46997V6.96055ZM7.25356 7.06055V6.61523H7.05356V7.06055H7.25356ZM7.15356 6.71523H8.46997V6.51523H7.15356V6.71523ZM8.56528 5.45703V5.91602H8.76528V5.45703H8.56528ZM8.66528 5.81602H7.15356V6.01602H8.66528V5.81602ZM7.25356 5.91602V5.45703H7.05356V5.91602H7.25356ZM7.15356 5.55703H8.66528V5.35703H7.15356V5.55703ZM10.8372 7.84375H10.9372V7.74375H10.8372V7.84375ZM10.8372 8.30078V8.40078H10.9372V8.30078H10.8372ZM9.40552 8.30078H9.30552V8.40078H9.40552V8.30078ZM9.40552 7.84375V7.74375H9.30552V7.84375H9.40552ZM9.59497 5.45703H9.69497V5.35703H9.59497V5.45703ZM9.59497 8.30078V8.40078H9.69497V8.30078H9.59497ZM9.00903 8.30078H8.90903V8.40078H9.00903V8.30078ZM9.00903 5.45703V5.35703H8.90903V5.45703H9.00903ZM10.7372 7.84375V8.30078H10.9372V7.84375H10.7372ZM10.8372 8.20078H9.40552V8.40078H10.8372V8.20078ZM9.50552 8.30078V7.84375H9.30552V8.30078H9.50552ZM9.40552 7.94375H10.8372V7.74375H9.40552V7.94375ZM9.49497 5.45703V8.30078H9.69497V5.45703H9.49497ZM9.59497 8.20078H9.00903V8.40078H9.59497V8.20078ZM9.10903 8.30078V5.45703H8.90903V8.30078H9.10903ZM9.00903 5.55703H9.59497V5.35703H9.00903V5.55703Z" fill="#7C29E5"/>
<path d="M11.4227 2.66579C10.8485 2.08769 10.194 1.62675 9.45931 1.28351C8.68675 0.92255 7.87551 0.741992 7.02684 0.741992C6.17913 0.741992 5.38717 0.90031 4.65226 1.21696C3.91844 1.53315 3.2757 1.9638 2.72482 2.50814C2.17385 3.05257 1.73704 3.69224 1.41434 4.42598C1.09119 5.16078 0.929736 5.94633 0.929736 6.78173C0.929736 7.61714 1.09119 8.4086 1.41422 9.15602C1.73685 9.90254 2.17065 10.545 2.71539 11.0836C3.25992 11.6219 3.90264 12.0521 4.64265 12.3747C5.38397 12.6978 6.179 12.8591 7.02684 12.8591C8.62185 12.8591 9.9969 12.3176 11.149 11.2351C12.3012 10.1526 12.9283 8.8063 13.0297 7.19926L13.033 7.14611H12.9798H12.4146H12.3688L12.3648 7.19171C12.2404 8.59878 11.6712 9.78349 10.6565 10.7481C9.64211 11.7122 8.43336 12.1941 7.02684 12.1941C5.50758 12.1941 4.22396 11.6654 3.17218 10.6078C2.12033 9.55011 1.59489 8.26321 1.59489 6.74406C1.59489 5.26298 2.12004 4.00439 3.17186 2.96541C4.22358 1.92653 5.5073 1.40706 7.02684 1.40706C7.77304 1.40706 8.48813 1.56555 9.17222 1.88273C9.82155 2.1838 10.3982 2.5882 10.9022 3.09645H9.21209H9.16209V3.14645V3.71152V3.76152H9.21209H12.0378H12.0878V3.71152V0.88617V0.83617H12.0378H11.4727H11.4227V0.88617V2.66579Z" fill="#7C29E5" stroke="#7C29E5" stroke-width="0.1"/>
</svg>
