<svg width="14" height="13" viewBox="0 0 14 13" fill="none" xmlns="http://www.w3.org/2000/svg">
<path d="M3.77625 5.47461H4.83679C5.05424 5.47461 5.24109 5.50716 5.39734 5.57227C5.55489 5.63737 5.67598 5.73372 5.76062 5.86133C5.84526 5.98893 5.88757 6.14583 5.88757 6.33203C5.88757 6.48438 5.86153 6.61523 5.80945 6.72461C5.75867 6.83268 5.6864 6.92318 5.59265 6.99609C5.5002 7.06771 5.39148 7.125 5.26648 7.16797L5.08093 7.26562H4.15906L4.15515 6.80859H4.8407C4.94356 6.80859 5.02885 6.79036 5.09656 6.75391C5.16427 6.71745 5.21505 6.66667 5.2489 6.60156C5.28406 6.53646 5.30164 6.46094 5.30164 6.375C5.30164 6.28385 5.28471 6.20508 5.25085 6.13867C5.217 6.07227 5.16557 6.02148 5.09656 5.98633C5.02755 5.95117 4.94096 5.93359 4.83679 5.93359H4.36218V8.31836H3.77625V5.47461ZM5.36609 8.31836L4.71765 7.05078L5.33679 7.04688L5.99304 8.29102V8.31836H5.36609ZM8.24695 7.86133V8.31836H6.73328V7.86133H8.24695ZM6.92468 5.47461V8.31836H6.33875V5.47461H6.92468ZM8.04968 6.63281V7.07812H6.73328V6.63281H8.04968ZM8.245 5.47461V5.93359H6.73328V5.47461H8.245ZM9.17468 5.47461V8.31836H8.58875V5.47461H9.17468ZM10.3075 6.68945V7.14648H9.01453V6.68945H10.3075ZM10.4442 5.47461V5.93359H9.01453V5.47461H10.4442Z" fill="#7C29E5"/>
<path d="M3.77625 5.47461V5.37461H3.67625V5.47461H3.77625ZM5.39734 5.57227L5.35888 5.66457L5.35915 5.66469L5.39734 5.57227ZM5.80945 6.72461L5.71916 6.68162L5.71894 6.68208L5.80945 6.72461ZM5.59265 6.99609L5.65389 7.07515L5.65405 7.07503L5.59265 6.99609ZM5.26648 7.16797L5.23397 7.0734L5.2267 7.0759L5.2199 7.07948L5.26648 7.16797ZM5.08093 7.26562V7.36562H5.10564L5.12751 7.35412L5.08093 7.26562ZM4.15906 7.26562L4.05906 7.26648L4.05991 7.36562H4.15906V7.26562ZM4.15515 6.80859V6.70859H4.05429L4.05516 6.80945L4.15515 6.80859ZM5.2489 6.60156L5.1609 6.55404L5.16018 6.55543L5.2489 6.60156ZM4.36218 5.93359V5.83359H4.26218V5.93359H4.36218ZM4.36218 8.31836V8.41836H4.46218V8.31836H4.36218ZM3.77625 8.31836H3.67625V8.41836H3.77625V8.31836ZM5.36609 8.31836L5.27706 8.3639L5.30492 8.41836H5.36609V8.31836ZM4.71765 7.05078L4.71702 6.95078L4.5547 6.95181L4.62862 7.09632L4.71765 7.05078ZM5.33679 7.04688L5.42524 7.00022L5.3969 6.94649L5.33616 6.94688L5.33679 7.04688ZM5.99304 8.29102H6.09304V8.26626L6.08149 8.24436L5.99304 8.29102ZM5.99304 8.31836V8.41836H6.09304V8.31836H5.99304ZM3.77625 5.57461H4.83679V5.37461H3.77625V5.57461ZM4.83679 5.57461C5.04464 5.57461 5.21775 5.60577 5.35888 5.66457L5.4358 5.47996C5.26443 5.40855 5.06384 5.37461 4.83679 5.37461V5.57461ZM5.35915 5.66469C5.50046 5.72308 5.60489 5.80745 5.67728 5.9166L5.84396 5.80605C5.74708 5.65999 5.60933 5.55166 5.43553 5.47985L5.35915 5.66469ZM5.67728 5.9166C5.7489 6.02458 5.78757 6.16121 5.78757 6.33203H5.98757C5.98757 6.13046 5.94161 5.95329 5.84396 5.80605L5.67728 5.9166ZM5.78757 6.33203C5.78757 6.47322 5.76342 6.58867 5.71916 6.68162L5.89973 6.7676C5.95964 6.6418 5.98757 6.49553 5.98757 6.33203H5.78757ZM5.71894 6.68208C5.67482 6.77598 5.6125 6.85397 5.53126 6.91716L5.65405 7.07503C5.7603 6.99239 5.84251 6.88939 5.89995 6.76714L5.71894 6.68208ZM5.53141 6.91704C5.44867 6.98113 5.34994 7.03354 5.23397 7.0734L5.29899 7.26254C5.43302 7.21646 5.55173 7.15429 5.65389 7.07515L5.53141 6.91704ZM5.2199 7.07948L5.03436 7.17713L5.12751 7.35412L5.31305 7.25646L5.2199 7.07948ZM5.08093 7.16562H4.15906V7.36562H5.08093V7.16562ZM4.25905 7.26477L4.25515 6.80774L4.05516 6.80945L4.05906 7.26648L4.25905 7.26477ZM4.15515 6.90859H4.8407V6.70859H4.15515V6.90859ZM4.8407 6.90859C4.95475 6.90859 5.0576 6.88846 5.14397 6.84195L5.04915 6.66586C5.0001 6.69227 4.93238 6.70859 4.8407 6.70859V6.90859ZM5.14397 6.84195C5.22844 6.79647 5.29406 6.73148 5.33762 6.6477L5.16018 6.55543C5.13604 6.60185 5.10009 6.63843 5.04915 6.66586L5.14397 6.84195ZM5.33689 6.64908C5.38112 6.56718 5.40164 6.47483 5.40164 6.375H5.20164C5.20164 6.44704 5.187 6.50574 5.16091 6.55405L5.33689 6.64908ZM5.40164 6.375C5.40164 6.27153 5.38239 6.17652 5.33995 6.09325L5.16176 6.18409C5.18702 6.23364 5.20164 6.29618 5.20164 6.375H5.40164ZM5.33995 6.09325C5.29611 6.00727 5.22899 5.94156 5.14195 5.89722L5.05117 6.07543C5.10215 6.1014 5.13789 6.13726 5.16176 6.18409L5.33995 6.09325ZM5.14195 5.89722C5.05489 5.85287 4.95154 5.83359 4.83679 5.83359V6.03359C4.93037 6.03359 5.00021 6.04947 5.05117 6.07543L5.14195 5.89722ZM4.83679 5.83359H4.36218V6.03359H4.83679V5.83359ZM4.26218 5.93359V8.31836H4.46218V5.93359H4.26218ZM4.36218 8.21836H3.77625V8.41836H4.36218V8.21836ZM3.87625 8.31836V5.47461H3.67625V8.31836H3.87625ZM5.45512 8.27282L4.80668 7.00524L4.62862 7.09632L5.27706 8.3639L5.45512 8.27282ZM4.71828 7.15078L5.33742 7.14687L5.33616 6.94688L4.71702 6.95078L4.71828 7.15078ZM5.24834 7.09353L5.90459 8.33767L6.08149 8.24436L5.42524 7.00022L5.24834 7.09353ZM5.89304 8.29102V8.31836H6.09304V8.29102H5.89304ZM5.99304 8.21836H5.36609V8.41836H5.99304V8.21836ZM8.24695 7.86133H8.34695V7.76133H8.24695V7.86133ZM8.24695 8.31836V8.41836H8.34695V8.31836H8.24695ZM6.73328 8.31836H6.63328V8.41836H6.73328V8.31836ZM6.73328 7.86133V7.76133H6.63328V7.86133H6.73328ZM6.92468 5.47461H7.02468V5.37461H6.92468V5.47461ZM6.92468 8.31836V8.41836H7.02468V8.31836H6.92468ZM6.33875 8.31836H6.23875V8.41836H6.33875V8.31836ZM6.33875 5.47461V5.37461H6.23875V5.47461H6.33875ZM8.04968 6.63281H8.14968V6.53281H8.04968V6.63281ZM8.04968 7.07812V7.17813H8.14968V7.07812H8.04968ZM6.73328 7.07812H6.63328V7.17813H6.73328V7.07812ZM6.73328 6.63281V6.53281H6.63328V6.63281H6.73328ZM8.245 5.47461H8.345V5.37461H8.245V5.47461ZM8.245 5.93359V6.03359H8.345V5.93359H8.245ZM6.73328 5.93359H6.63328V6.03359H6.73328V5.93359ZM6.73328 5.47461V5.37461H6.63328V5.47461H6.73328ZM8.14695 7.86133V8.31836H8.34695V7.86133H8.14695ZM8.24695 8.21836H6.73328V8.41836H8.24695V8.21836ZM6.83328 8.31836V7.86133H6.63328V8.31836H6.83328ZM6.73328 7.96133H8.24695V7.76133H6.73328V7.96133ZM6.82468 5.47461V8.31836H7.02468V5.47461H6.82468ZM6.92468 8.21836H6.33875V8.41836H6.92468V8.21836ZM6.43875 8.31836V5.47461H6.23875V8.31836H6.43875ZM6.33875 5.57461H6.92468V5.37461H6.33875V5.57461ZM7.94968 6.63281V7.07812H8.14968V6.63281H7.94968ZM8.04968 6.97812H6.73328V7.17813H8.04968V6.97812ZM6.83328 7.07812V6.63281H6.63328V7.07812H6.83328ZM6.73328 6.73281H8.04968V6.53281H6.73328V6.73281ZM8.145 5.47461V5.93359H8.345V5.47461H8.145ZM8.245 5.83359H6.73328V6.03359H8.245V5.83359ZM6.83328 5.93359V5.47461H6.63328V5.93359H6.83328ZM6.73328 5.57461H8.245V5.37461H6.73328V5.57461ZM9.17468 5.47461H9.27468V5.37461H9.17468V5.47461ZM9.17468 8.31836V8.41836H9.27468V8.31836H9.17468ZM8.58875 8.31836H8.48875V8.41836H8.58875V8.31836ZM8.58875 5.47461V5.37461H8.48875V5.47461H8.58875ZM10.3075 6.68945H10.4075V6.58945H10.3075V6.68945ZM10.3075 7.14648V7.24648H10.4075V7.14648H10.3075ZM9.01453 7.14648H8.91453V7.24648H9.01453V7.14648ZM9.01453 6.68945V6.58945H8.91453V6.68945H9.01453ZM10.4442 5.47461H10.5442V5.37461H10.4442V5.47461ZM10.4442 5.93359V6.03359H10.5442V5.93359H10.4442ZM9.01453 5.93359H8.91453V6.03359H9.01453V5.93359ZM9.01453 5.47461V5.37461H8.91453V5.47461H9.01453ZM9.07468 5.47461V8.31836H9.27468V5.47461H9.07468ZM9.17468 8.21836H8.58875V8.41836H9.17468V8.21836ZM8.68875 8.31836V5.47461H8.48875V8.31836H8.68875ZM8.58875 5.57461H9.17468V5.37461H8.58875V5.57461ZM10.2075 6.68945V7.14648H10.4075V6.68945H10.2075ZM10.3075 7.04648H9.01453V7.24648H10.3075V7.04648ZM9.11453 7.14648V6.68945H8.91453V7.14648H9.11453ZM9.01453 6.78945H10.3075V6.58945H9.01453V6.78945ZM10.3442 5.47461V5.93359H10.5442V5.47461H10.3442ZM10.4442 5.83359H9.01453V6.03359H10.4442V5.83359ZM9.11453 5.93359V5.47461H8.91453V5.93359H9.11453ZM9.01453 5.57461H10.4442V5.37461H9.01453V5.57461Z" fill="#7C29E5"/>
<path d="M11.4227 2.68337C10.8485 2.10526 10.194 1.64433 9.45931 1.30109C8.68675 0.940128 7.87551 0.75957 7.02684 0.75957C6.17913 0.75957 5.38717 0.917888 4.65226 1.23454C3.91844 1.55073 3.2757 1.98138 2.72482 2.52572C2.17385 3.07015 1.73704 3.70982 1.41434 4.44356C1.09119 5.17836 0.929736 5.96391 0.929736 6.79931C0.929736 7.63472 1.09119 8.42618 1.41422 9.1736C1.73685 9.92012 2.17065 10.5626 2.71539 11.1011C3.25992 11.6395 3.90264 12.0697 4.64265 12.3922C5.38397 12.7153 6.179 12.8767 7.02684 12.8767C8.62185 12.8767 9.9969 12.3351 11.149 11.2527C12.3012 10.1702 12.9283 8.82388 13.0297 7.21684L13.033 7.16369H12.9798H12.4146H12.3688L12.3648 7.20929C12.2404 8.61636 11.6712 9.80106 10.6565 10.7656C9.64211 11.7298 8.43336 12.2116 7.02684 12.2116C5.50758 12.2116 4.22396 11.683 3.17218 10.6254C2.12033 9.56769 1.59489 8.28079 1.59489 6.76164C1.59489 5.28055 2.12004 4.02197 3.17186 2.98299C4.22358 1.94411 5.5073 1.42464 7.02684 1.42464C7.77304 1.42464 8.48813 1.58313 9.17222 1.90031C9.82155 2.20137 10.3982 2.60578 10.9022 3.11403H9.21209H9.16209V3.16403V3.7291V3.7791H9.21209H12.0378H12.0878V3.7291V0.903749V0.853749H12.0378H11.4727H11.4227V0.903749V2.68337Z" fill="#7C29E5" stroke="#7C29E5" stroke-width="0.1"/>
</svg>
