<svg width="14" height="13" viewBox="0 0 14 13" fill="none" xmlns="http://www.w3.org/2000/svg">
<path d="M4.89734 5.97754L4.1239 8.33496H3.50085L4.5575 5.49121H4.95398L4.89734 5.97754ZM5.53992 8.33496L4.76453 5.97754L4.70203 5.49121H5.10242L6.16492 8.33496H5.53992ZM5.50476 7.27637V7.73535H4.00281V7.27637H5.50476ZM7.01453 5.49121V8.33496H6.42859V5.49121H7.01453ZM8.14734 6.70605V7.16309H6.85437V6.70605H8.14734ZM8.28406 5.49121V5.9502H6.85437V5.49121H8.28406ZM9.20984 5.49121V8.33496H8.6239V5.49121H9.20984ZM10.3427 6.70605V7.16309H9.04968V6.70605H10.3427ZM10.4794 5.49121V5.9502H9.04968V5.49121H10.4794Z" fill="#7C29E5"/>
<path d="M4.89734 5.97754L4.99236 6.00871L4.9955 5.99913L4.99667 5.98911L4.89734 5.97754ZM4.1239 8.33496V8.43496H4.19634L4.21892 8.36613L4.1239 8.33496ZM3.50085 8.33496L3.40712 8.30013L3.35702 8.43496H3.50085V8.33496ZM4.5575 5.49121V5.39121H4.48797L4.46376 5.45638L4.5575 5.49121ZM4.95398 5.49121L5.05331 5.50278L5.0663 5.39121H4.95398V5.49121ZM5.53992 8.33496L5.44492 8.36621L5.46754 8.43496H5.53992V8.33496ZM4.76453 5.97754L4.66534 5.99029L4.66656 5.99973L4.66953 6.00878L4.76453 5.97754ZM4.70203 5.49121V5.39121H4.58835L4.60284 5.50396L4.70203 5.49121ZM5.10242 5.49121L5.19609 5.45621L5.17181 5.39121H5.10242V5.49121ZM6.16492 8.33496V8.43496H6.30903L6.25859 8.29996L6.16492 8.33496ZM5.50476 7.27637H5.60476V7.17637H5.50476V7.27637ZM5.50476 7.73535V7.83535H5.60476V7.73535H5.50476ZM4.00281 7.73535H3.90281V7.83535H4.00281V7.73535ZM4.00281 7.27637V7.17637H3.90281V7.27637H4.00281ZM4.80232 5.94637L4.02888 8.30379L4.21892 8.36613L4.99236 6.00871L4.80232 5.94637ZM4.1239 8.23496H3.50085V8.43496H4.1239V8.23496ZM3.59459 8.36979L4.65123 5.52604L4.46376 5.45638L3.40712 8.30013L3.59459 8.36979ZM4.5575 5.59121H4.95398V5.39121H4.5575V5.59121ZM4.85465 5.47964L4.79801 5.96597L4.99667 5.98911L5.05331 5.50278L4.85465 5.47964ZM5.63491 8.30372L4.85952 5.94629L4.66953 6.00878L5.44492 8.36621L5.63491 8.30372ZM4.86371 5.96479L4.80121 5.47846L4.60284 5.50396L4.66534 5.99029L4.86371 5.96479ZM4.70203 5.59121H5.10242V5.39121H4.70203V5.59121ZM5.00874 5.52621L6.07124 8.36996L6.25859 8.29996L5.19609 5.45621L5.00874 5.52621ZM6.16492 8.23496H5.53992V8.43496H6.16492V8.23496ZM5.40476 7.27637V7.73535H5.60476V7.27637H5.40476ZM5.50476 7.63535H4.00281V7.83535H5.50476V7.63535ZM4.10281 7.73535V7.27637H3.90281V7.73535H4.10281ZM4.00281 7.37637H5.50476V7.17637H4.00281V7.37637ZM7.01453 5.49121H7.11453V5.39121H7.01453V5.49121ZM7.01453 8.33496V8.43496H7.11453V8.33496H7.01453ZM6.42859 8.33496H6.32859V8.43496H6.42859V8.33496ZM6.42859 5.49121V5.39121H6.32859V5.49121H6.42859ZM8.14734 6.70605H8.24734V6.60605H8.14734V6.70605ZM8.14734 7.16309V7.26309H8.24734V7.16309H8.14734ZM6.85437 7.16309H6.75437V7.26309H6.85437V7.16309ZM6.85437 6.70605V6.60605H6.75437V6.70605H6.85437ZM8.28406 5.49121H8.38406V5.39121H8.28406V5.49121ZM8.28406 5.9502V6.0502H8.38406V5.9502H8.28406ZM6.85437 5.9502H6.75437V6.0502H6.85437V5.9502ZM6.85437 5.49121V5.39121H6.75437V5.49121H6.85437ZM6.91453 5.49121V8.33496H7.11453V5.49121H6.91453ZM7.01453 8.23496H6.42859V8.43496H7.01453V8.23496ZM6.52859 8.33496V5.49121H6.32859V8.33496H6.52859ZM6.42859 5.59121H7.01453V5.39121H6.42859V5.59121ZM8.04734 6.70605V7.16309H8.24734V6.70605H8.04734ZM8.14734 7.06309H6.85437V7.26309H8.14734V7.06309ZM6.95437 7.16309V6.70605H6.75437V7.16309H6.95437ZM6.85437 6.80605H8.14734V6.60605H6.85437V6.80605ZM8.18406 5.49121V5.9502H8.38406V5.49121H8.18406ZM8.28406 5.8502H6.85437V6.0502H8.28406V5.8502ZM6.95437 5.9502V5.49121H6.75437V5.9502H6.95437ZM6.85437 5.59121H8.28406V5.39121H6.85437V5.59121ZM9.20984 5.49121H9.30984V5.39121H9.20984V5.49121ZM9.20984 8.33496V8.43496H9.30984V8.33496H9.20984ZM8.6239 8.33496H8.5239V8.43496H8.6239V8.33496ZM8.6239 5.49121V5.39121H8.5239V5.49121H8.6239ZM10.3427 6.70605H10.4427V6.60605H10.3427V6.70605ZM10.3427 7.16309V7.26309H10.4427V7.16309H10.3427ZM9.04968 7.16309H8.94968V7.26309H9.04968V7.16309ZM9.04968 6.70605V6.60605H8.94968V6.70605H9.04968ZM10.4794 5.49121H10.5794V5.39121H10.4794V5.49121ZM10.4794 5.9502V6.0502H10.5794V5.9502H10.4794ZM9.04968 5.9502H8.94968V6.0502H9.04968V5.9502ZM9.04968 5.49121V5.39121H8.94968V5.49121H9.04968ZM9.10984 5.49121V8.33496H9.30984V5.49121H9.10984ZM9.20984 8.23496H8.6239V8.43496H9.20984V8.23496ZM8.7239 8.33496V5.49121H8.5239V8.33496H8.7239ZM8.6239 5.59121H9.20984V5.39121H8.6239V5.59121ZM10.2427 6.70605V7.16309H10.4427V6.70605H10.2427ZM10.3427 7.06309H9.04968V7.26309H10.3427V7.06309ZM9.14968 7.16309V6.70605H8.94968V7.16309H9.14968ZM9.04968 6.80605H10.3427V6.60605H9.04968V6.80605ZM10.3794 5.49121V5.9502H10.5794V5.49121H10.3794ZM10.4794 5.8502H9.04968V6.0502H10.4794V5.8502ZM9.14968 5.9502V5.49121H8.94968V5.9502H9.14968ZM9.04968 5.59121H10.4794V5.39121H9.04968V5.59121Z" fill="#7C29E5"/>
<path d="M11.4227 2.69997C10.8485 2.12187 10.194 1.66093 9.45931 1.31769C8.68675 0.95673 7.87551 0.776172 7.02684 0.776172C6.17913 0.776172 5.38717 0.93449 4.65226 1.25114C3.91844 1.56733 3.2757 1.99798 2.72482 2.54232C2.17385 3.08675 1.73704 3.72642 1.41434 4.46016C1.09119 5.19496 0.929736 5.98051 0.929736 6.81591C0.929736 7.65132 1.09119 8.44278 1.41422 9.1902C1.73685 9.93672 2.17065 10.5792 2.71539 11.1177C3.25992 11.6561 3.90264 12.0863 4.64265 12.4088C5.38397 12.7319 6.179 12.8933 7.02684 12.8933C8.62185 12.8933 9.9969 12.3517 11.149 11.2693C12.3012 10.1868 12.9283 8.84048 13.0297 7.23344L13.033 7.18029H12.9798H12.4146H12.3688L12.3648 7.22589C12.2404 8.63296 11.6712 9.81767 10.6565 10.7822C9.64211 11.7464 8.43336 12.2283 7.02684 12.2283C5.50758 12.2283 4.22396 11.6996 3.17218 10.642C2.12033 9.58429 1.59489 8.29739 1.59489 6.77824C1.59489 5.29715 2.12004 4.03857 3.17186 2.99959C4.22358 1.96071 5.5073 1.44124 7.02684 1.44124C7.77304 1.44124 8.48813 1.59973 9.17222 1.91691C9.82155 2.21798 10.3982 2.62238 10.9022 3.13063H9.21209H9.16209V3.18063V3.7457V3.7957H9.21209H12.0378H12.0878V3.7457V0.92035V0.87035H12.0378H11.4727H11.4227V0.92035V2.69997Z" fill="#7C29E5" stroke="#7C29E5" stroke-width="0.1"/>
</svg>
