<svg width="14" height="13" viewBox="0 0 14 13" fill="none" xmlns="http://www.w3.org/2000/svg">
<path d="M4.46997 7.33887H3.74536V6.88184H4.46997C4.58195 6.88184 4.6731 6.86361 4.74341 6.82715C4.81372 6.78939 4.86515 6.7373 4.89771 6.6709C4.93026 6.60449 4.94653 6.52962 4.94653 6.44629C4.94653 6.36165 4.93026 6.28288 4.89771 6.20996C4.86515 6.13704 4.81372 6.07845 4.74341 6.03418C4.6731 5.98991 4.58195 5.96777 4.46997 5.96777H3.94849V8.35254H3.36255V5.50879H4.46997C4.69263 5.50879 4.88338 5.54915 5.04224 5.62988C5.20239 5.70931 5.32479 5.81934 5.40942 5.95996C5.49406 6.10059 5.53638 6.26139 5.53638 6.44238C5.53638 6.62598 5.49406 6.78483 5.40942 6.91895C5.32479 7.05306 5.20239 7.15658 5.04224 7.22949C4.88338 7.30241 4.69263 7.33887 4.46997 7.33887ZM5.94067 5.50879H7.00122C7.21867 5.50879 7.40552 5.54134 7.56177 5.60645C7.71932 5.67155 7.84041 5.7679 7.92505 5.89551C8.00968 6.02311 8.052 6.18001 8.052 6.36621C8.052 6.51855 8.02596 6.64941 7.97388 6.75879C7.9231 6.86686 7.85083 6.95736 7.75708 7.03027C7.66463 7.10189 7.55591 7.15918 7.43091 7.20215L7.24536 7.2998H6.32349L6.31958 6.84277H7.00513C7.10799 6.84277 7.19328 6.82454 7.26099 6.78809C7.32869 6.75163 7.37948 6.70085 7.41333 6.63574C7.44849 6.57064 7.46606 6.49512 7.46606 6.40918C7.46606 6.31803 7.44914 6.23926 7.41528 6.17285C7.38143 6.10645 7.33 6.05566 7.26099 6.02051C7.19198 5.98535 7.10539 5.96777 7.00122 5.96777H6.52661V8.35254H5.94067V5.50879ZM7.53052 8.35254L6.88208 7.08496L7.50122 7.08105L8.15747 8.3252V8.35254H7.53052ZM9.37622 8.35254H8.75708L8.76099 7.89551H9.37622C9.52987 7.89551 9.65942 7.861 9.76489 7.79199C9.87036 7.72168 9.94979 7.61947 10.0032 7.48535C10.0579 7.35124 10.0852 7.18913 10.0852 6.99902V6.86035C10.0852 6.71452 10.0696 6.58626 10.0383 6.47559C10.0084 6.36491 9.96346 6.27181 9.90356 6.19629C9.84367 6.12077 9.7701 6.06413 9.68286 6.02637C9.59562 5.9873 9.49536 5.96777 9.38208 5.96777H8.74536V5.50879H9.38208C9.57218 5.50879 9.74601 5.54134 9.90356 5.60645C10.0624 5.67025 10.1998 5.76204 10.3157 5.88184C10.4316 6.00163 10.5208 6.14486 10.5833 6.31152C10.6471 6.47689 10.679 6.66113 10.679 6.86426V6.99902C10.679 7.20085 10.6471 7.38509 10.5833 7.55176C10.5208 7.71842 10.4316 7.86165 10.3157 7.98145C10.2011 8.09993 10.0637 8.19173 9.90356 8.25684C9.74471 8.32064 9.56893 8.35254 9.37622 8.35254ZM9.08911 5.50879V8.35254H8.50317V5.50879H9.08911Z" fill="#7C29E5"/>
<path d="M3.74536 7.33887H3.64536V7.43887H3.74536V7.33887ZM3.74536 6.88184V6.78184H3.64536V6.88184H3.74536ZM4.74341 6.82715L4.78944 6.91593L4.79072 6.91525L4.74341 6.82715ZM3.94849 5.96777V5.86777H3.84849V5.96777H3.94849ZM3.94849 8.35254V8.45254H4.04849V8.35254H3.94849ZM3.36255 8.35254H3.26255V8.45254H3.36255V8.35254ZM3.36255 5.50879V5.40879H3.26255V5.50879H3.36255ZM5.04224 5.62988L4.99693 5.71904L4.99781 5.71947L5.04224 5.62988ZM5.04224 7.22949L5.0008 7.13848L5.00052 7.13861L5.04224 7.22949ZM4.46997 7.23887H3.74536V7.43887H4.46997V7.23887ZM3.84536 7.33887V6.88184H3.64536V7.33887H3.84536ZM3.74536 6.98184H4.46997V6.78184H3.74536V6.98184ZM4.46997 6.98184C4.59175 6.98184 4.70025 6.96217 4.78944 6.91592L4.69738 6.73837C4.64594 6.76504 4.57215 6.78184 4.46997 6.78184V6.98184ZM4.79072 6.91525C4.87791 6.86842 4.945 6.8016 4.9875 6.71491L4.80791 6.62688C4.7853 6.673 4.74953 6.71035 4.6961 6.73905L4.79072 6.91525ZM4.9875 6.71491C5.02757 6.63316 5.04653 6.54293 5.04653 6.44629H4.84653C4.84653 6.51631 4.83294 6.57583 4.80791 6.62688L4.9875 6.71491ZM5.04653 6.44629C5.04653 6.34846 5.02764 6.2557 4.98902 6.1692L4.80639 6.25073C4.83288 6.31006 4.84653 6.37484 4.84653 6.44629H5.04653ZM4.98902 6.1692C4.94807 6.07746 4.88302 6.00391 4.79669 5.94956L4.69013 6.1188C4.74442 6.15299 4.78224 6.19663 4.80639 6.25073L4.98902 6.1692ZM4.79669 5.94956C4.70578 5.89232 4.59444 5.86777 4.46997 5.86777V6.06777C4.56946 6.06777 4.64041 6.0875 4.69013 6.1188L4.79669 5.94956ZM4.46997 5.86777H3.94849V6.06777H4.46997V5.86777ZM3.84849 5.96777V8.35254H4.04849V5.96777H3.84849ZM3.94849 8.25254H3.36255V8.45254H3.94849V8.25254ZM3.46255 8.35254V5.50879H3.26255V8.35254H3.46255ZM3.36255 5.60879H4.46997V5.40879H3.36255V5.60879ZM4.46997 5.60879C4.68073 5.60879 4.85518 5.64699 4.99693 5.71903L5.08754 5.54073C4.91158 5.45131 4.70453 5.40879 4.46997 5.40879V5.60879ZM4.99781 5.71947C5.14245 5.79121 5.24982 5.88871 5.32374 6.01153L5.4951 5.90839C5.39975 5.74997 5.26233 5.62741 5.08667 5.54029L4.99781 5.71947ZM5.32374 6.01153C5.39807 6.13501 5.43638 6.27764 5.43638 6.44238H5.63638C5.63638 6.24515 5.59005 6.06616 5.4951 5.90839L5.32374 6.01153ZM5.43638 6.44238C5.43638 6.61013 5.3979 6.74983 5.32486 6.86558L5.49399 6.97231C5.59022 6.81984 5.63638 6.64183 5.63638 6.44238H5.43638ZM5.32486 6.86558C5.25174 6.98143 5.14524 7.07272 5.0008 7.13848L5.08367 7.3205C5.25955 7.24043 5.39783 7.12469 5.49399 6.97231L5.32486 6.86558ZM5.00052 7.13861C4.85782 7.20411 4.68203 7.23887 4.46997 7.23887V7.43887C4.70322 7.43887 4.90894 7.40071 5.08395 7.32038L5.00052 7.13861ZM5.94067 5.50879V5.40879H5.84067V5.50879H5.94067ZM7.56177 5.60645L7.52331 5.69875L7.52358 5.69887L7.56177 5.60645ZM7.97388 6.75879L7.88359 6.7158L7.88337 6.71626L7.97388 6.75879ZM7.75708 7.03027L7.81832 7.10933L7.81847 7.10921L7.75708 7.03027ZM7.43091 7.20215L7.3984 7.10758L7.39113 7.11008L7.38433 7.11366L7.43091 7.20215ZM7.24536 7.2998V7.3998H7.27007L7.29194 7.3883L7.24536 7.2998ZM6.32349 7.2998L6.22349 7.30066L6.22434 7.3998H6.32349V7.2998ZM6.31958 6.84277V6.74277H6.21872L6.21958 6.84363L6.31958 6.84277ZM7.41333 6.63574L7.32533 6.58822L7.32461 6.58961L7.41333 6.63574ZM6.52661 5.96777V5.86777H6.42661V5.96777H6.52661ZM6.52661 8.35254V8.45254H6.62661V8.35254H6.52661ZM5.94067 8.35254H5.84067V8.45254H5.94067V8.35254ZM7.53052 8.35254L7.44149 8.39808L7.46935 8.45254H7.53052V8.35254ZM6.88208 7.08496L6.88145 6.98496L6.71912 6.98599L6.79305 7.1305L6.88208 7.08496ZM7.50122 7.08105L7.58967 7.0344L7.56133 6.98067L7.50059 6.98106L7.50122 7.08105ZM8.15747 8.3252H8.25747V8.30044L8.24592 8.27854L8.15747 8.3252ZM8.15747 8.35254V8.45254H8.25747V8.35254H8.15747ZM5.94067 5.60879H7.00122V5.40879H5.94067V5.60879ZM7.00122 5.60879C7.20906 5.60879 7.38217 5.63995 7.52331 5.69875L7.60023 5.51414C7.42886 5.44273 7.22827 5.40879 7.00122 5.40879V5.60879ZM7.52358 5.69887C7.66489 5.75726 7.76932 5.84163 7.84171 5.95078L8.00838 5.84023C7.91151 5.69417 7.77375 5.58584 7.59996 5.51403L7.52358 5.69887ZM7.84171 5.95078C7.91333 6.05876 7.952 6.19538 7.952 6.36621H8.152C8.152 6.16464 8.10604 5.98747 8.00838 5.84023L7.84171 5.95078ZM7.952 6.36621C7.952 6.5074 7.92785 6.62285 7.88359 6.7158L8.06416 6.80178C8.12407 6.67598 8.152 6.52971 8.152 6.36621H7.952ZM7.88337 6.71626C7.83925 6.81015 7.77693 6.88815 7.69569 6.95134L7.81847 7.10921C7.92473 7.02656 8.00694 6.92357 8.06438 6.80132L7.88337 6.71626ZM7.69584 6.95122C7.6131 7.01531 7.51437 7.06771 7.3984 7.10758L7.46342 7.29672C7.59745 7.25064 7.71616 7.18847 7.81832 7.10933L7.69584 6.95122ZM7.38433 7.11366L7.19879 7.21131L7.29194 7.3883L7.47748 7.29064L7.38433 7.11366ZM7.24536 7.1998H6.32349V7.3998H7.24536V7.1998ZM6.42348 7.29895L6.41958 6.84192L6.21958 6.84363L6.22349 7.30066L6.42348 7.29895ZM6.31958 6.94277H7.00513V6.74277H6.31958V6.94277ZM7.00513 6.94277C7.11918 6.94277 7.22203 6.92264 7.3084 6.87613L7.21358 6.70004C7.16453 6.72645 7.09681 6.74277 7.00513 6.74277V6.94277ZM7.3084 6.87613C7.39287 6.83065 7.45848 6.76566 7.50205 6.68188L7.32461 6.58961C7.30047 6.63603 7.26452 6.67261 7.21358 6.70004L7.3084 6.87613ZM7.50132 6.68326C7.54555 6.60136 7.56606 6.50901 7.56606 6.40918H7.36606C7.36606 6.48122 7.35143 6.53992 7.32534 6.58823L7.50132 6.68326ZM7.56606 6.40918C7.56606 6.30571 7.54682 6.2107 7.50437 6.12743L7.32619 6.21827C7.35145 6.26782 7.36606 6.33036 7.36606 6.40918H7.56606ZM7.50437 6.12743C7.46054 6.04145 7.39342 5.97574 7.30638 5.9314L7.21559 6.10961C7.26658 6.13558 7.30232 6.17144 7.32619 6.21827L7.50437 6.12743ZM7.30638 5.9314C7.21931 5.88705 7.11597 5.86777 7.00122 5.86777V6.06777C7.0948 6.06777 7.16464 6.08365 7.21559 6.10961L7.30638 5.9314ZM7.00122 5.86777H6.52661V6.06777H7.00122V5.86777ZM6.42661 5.96777V8.35254H6.62661V5.96777H6.42661ZM6.52661 8.25254H5.94067V8.45254H6.52661V8.25254ZM6.04067 8.35254V5.50879H5.84067V8.35254H6.04067ZM7.61954 8.307L6.97111 7.03942L6.79305 7.1305L7.44149 8.39808L7.61954 8.307ZM6.88271 7.18496L7.50185 7.18105L7.50059 6.98106L6.88145 6.98496L6.88271 7.18496ZM7.41277 7.12771L8.06902 8.37185L8.24592 8.27854L7.58967 7.0344L7.41277 7.12771ZM8.05747 8.3252V8.35254H8.25747V8.3252H8.05747ZM8.15747 8.25254H7.53052V8.45254H8.15747V8.25254ZM8.75708 8.35254L8.65708 8.35168L8.65622 8.45254H8.75708V8.35254ZM8.76099 7.89551V7.79551H8.66184L8.66099 7.89465L8.76099 7.89551ZM9.76489 7.79199L9.81965 7.87567L9.82036 7.8752L9.76489 7.79199ZM10.0032 7.48535L9.91057 7.44759L9.91026 7.44837L10.0032 7.48535ZM10.0383 6.47559L9.9418 6.50171L9.94209 6.50276L10.0383 6.47559ZM9.68286 6.02637L9.64199 6.11764L9.64314 6.11814L9.68286 6.02637ZM8.74536 5.96777H8.64536V6.06777H8.74536V5.96777ZM8.74536 5.50879V5.40879H8.64536V5.50879H8.74536ZM9.90356 5.60645L9.86537 5.69887L9.86629 5.69924L9.90356 5.60645ZM10.3157 5.88184L10.3875 5.81231L10.3157 5.88184ZM10.5833 6.31152L10.4896 6.34664L10.49 6.34752L10.5833 6.31152ZM10.5833 7.55176L10.4899 7.51601L10.4896 7.51665L10.5833 7.55176ZM10.3157 7.98145L10.2438 7.91192L10.2438 7.91193L10.3157 7.98145ZM9.90356 8.25684L9.94083 8.34963L9.94122 8.34947L9.90356 8.25684ZM9.08911 5.50879H9.18911V5.40879H9.08911V5.50879ZM9.08911 8.35254V8.45254H9.18911V8.35254H9.08911ZM8.50317 8.35254H8.40317V8.45254H8.50317V8.35254ZM8.50317 5.50879V5.40879H8.40317V5.50879H8.50317ZM9.37622 8.25254H8.75708V8.45254H9.37622V8.25254ZM8.85708 8.35339L8.86098 7.89636L8.66099 7.89465L8.65708 8.35168L8.85708 8.35339ZM8.76099 7.99551H9.37622V7.79551H8.76099V7.99551ZM9.37622 7.99551C9.54502 7.99551 9.69465 7.95746 9.81965 7.87567L9.71014 7.70831C9.6242 7.76454 9.51471 7.79551 9.37622 7.79551V7.99551ZM9.82036 7.8752C9.94498 7.79212 10.0363 7.67259 10.0961 7.52234L9.91026 7.44837C9.8633 7.56634 9.79574 7.65124 9.70942 7.70879L9.82036 7.8752ZM10.0958 7.52311C10.1566 7.3739 10.1852 7.19823 10.1852 6.99902H9.98521C9.98521 7.18002 9.95911 7.32857 9.91058 7.44759L10.0958 7.52311ZM10.1852 6.99902V6.86035H9.98521V6.99902H10.1852ZM10.1852 6.86035C10.1852 6.70766 10.1689 6.56993 10.1346 6.44841L9.94209 6.50276C9.97028 6.6026 9.98521 6.72137 9.98521 6.86035H10.1852ZM10.1349 6.44947C10.102 6.32812 10.0517 6.22214 9.98191 6.13415L9.82521 6.25843C9.87522 6.32148 9.91474 6.4017 9.9418 6.50171L10.1349 6.44947ZM9.98191 6.13415C9.91193 6.04591 9.82516 5.97899 9.72258 5.93459L9.64314 6.11814C9.71504 6.14926 9.77541 6.19563 9.82521 6.25843L9.98191 6.13415ZM9.72373 5.9351C9.62148 5.88931 9.50687 5.86777 9.38208 5.86777V6.06777C9.48385 6.06777 9.56977 6.08529 9.64199 6.11764L9.72373 5.9351ZM9.38208 5.86777H8.74536V6.06777H9.38208V5.86777ZM8.84536 5.96777V5.50879H8.64536V5.96777H8.84536ZM8.74536 5.60879H9.38208V5.40879H8.74536V5.60879ZM9.38208 5.60879C9.56059 5.60879 9.72125 5.63931 9.86537 5.69887L9.94175 5.51403C9.77077 5.44337 9.58378 5.40879 9.38208 5.40879V5.60879ZM9.86629 5.69924C10.0125 5.75795 10.138 5.84195 10.2438 5.95137L10.3875 5.81231C10.2616 5.68214 10.1124 5.58254 9.94083 5.51365L9.86629 5.69924ZM10.2438 5.95137C10.3495 6.06064 10.4316 6.19193 10.4896 6.34664L10.6769 6.27641C10.6099 6.09779 10.5136 5.94261 10.3875 5.81231L10.2438 5.95137ZM10.49 6.34752C10.5487 6.49985 10.579 6.67167 10.579 6.86426H10.779C10.779 6.6506 10.7454 6.45392 10.6765 6.27553L10.49 6.34752ZM10.579 6.86426V6.99902H10.779V6.86426H10.579ZM10.579 6.99902C10.579 7.19021 10.5488 7.36215 10.4899 7.51601L10.6766 7.58751C10.7453 7.40804 10.779 7.21148 10.779 6.99902H10.579ZM10.4896 7.51665C10.4316 7.67135 10.3495 7.80264 10.2438 7.91192L10.3875 8.05097C10.5136 7.92067 10.6099 7.76549 10.6769 7.58687L10.4896 7.51665ZM10.2438 7.91193C10.1394 8.01993 10.0138 8.10407 9.86591 8.1642L9.94122 8.34947C10.1136 8.27939 10.2628 8.17994 10.3876 8.05096L10.2438 7.91193ZM9.86629 8.16404C9.72069 8.22252 9.55776 8.25254 9.37622 8.25254V8.45254C9.5801 8.45254 9.76873 8.41875 9.94083 8.34963L9.86629 8.16404ZM8.98911 5.50879V8.35254H9.18911V5.50879H8.98911ZM9.08911 8.25254H8.50317V8.45254H9.08911V8.25254ZM8.60317 8.35254V5.50879H8.40317V8.35254H8.60317ZM8.50317 5.60879H9.08911V5.40879H8.50317V5.60879Z" fill="#7C29E5"/>
<path d="M11.4227 2.71755C10.8485 2.13944 10.194 1.67851 9.45931 1.33527C8.68675 0.974308 7.87551 0.79375 7.02684 0.79375C6.17913 0.79375 5.38717 0.952068 4.65226 1.26872C3.91844 1.58491 3.2757 2.01556 2.72482 2.5599C2.17385 3.10432 1.73704 3.744 1.41434 4.47774C1.09119 5.21254 0.929736 5.99809 0.929736 6.83349C0.929736 7.6689 1.09119 8.46036 1.41422 9.20778C1.73685 9.9543 2.17065 10.5967 2.71539 11.1353C3.25992 11.6737 3.90264 12.1039 4.64265 12.4264C5.38397 12.7495 6.179 12.9109 7.02684 12.9109C8.62185 12.9109 9.9969 12.3693 11.149 11.2869C12.3012 10.2044 12.9283 8.85806 13.0297 7.25102L13.033 7.19787H12.9798H12.4146H12.3688L12.3648 7.24347C12.2404 8.65054 11.6712 9.83524 10.6565 10.7998C9.64211 11.764 8.43336 12.2458 7.02684 12.2458C5.50758 12.2458 4.22396 11.7171 3.17218 10.6595C2.12033 9.60187 1.59489 8.31497 1.59489 6.79582C1.59489 5.31473 2.12004 4.05615 3.17186 3.01717C4.22358 1.97829 5.5073 1.45882 7.02684 1.45882C7.77304 1.45882 8.48813 1.61731 9.17222 1.93449C9.82155 2.23555 10.3982 2.63996 10.9022 3.14821H9.21209H9.16209V3.19821V3.76328V3.81328H9.21209H12.0378H12.0878V3.76328V0.937928V0.887928H12.0378H11.4727H11.4227V0.937928V2.71755Z" fill="#7C29E5" stroke="#7C29E5" stroke-width="0.1"/>
</svg>
