<svg width="14" height="13" viewBox="0 0 14 13" fill="none" xmlns="http://www.w3.org/2000/svg">
<path d="M4.48755 7.12109H3.75708L3.75317 6.71875H4.36646C4.47453 6.71875 4.56307 6.70508 4.63208 6.67773C4.70109 6.64909 4.75252 6.60807 4.78638 6.55469C4.82153 6.5 4.83911 6.43359 4.83911 6.35547C4.83911 6.26693 4.82218 6.19531 4.78833 6.14062C4.75578 6.08594 4.70435 6.04622 4.63403 6.02148C4.56502 5.99674 4.47583 5.98438 4.36646 5.98438H3.96021V8.36914H3.37427V5.52539H4.36646C4.53182 5.52539 4.67961 5.54102 4.80981 5.57227C4.94132 5.60352 5.05265 5.65104 5.1438 5.71484C5.23494 5.77865 5.30461 5.85938 5.35278 5.95703C5.40096 6.05339 5.42505 6.16797 5.42505 6.30078C5.42505 6.41797 5.39836 6.52604 5.34497 6.625C5.29289 6.72396 5.21021 6.80469 5.09692 6.86719C4.98494 6.92969 4.83846 6.96419 4.65747 6.9707L4.48755 7.12109ZM4.46216 8.36914H3.59692L3.82544 7.91211H4.46216C4.56502 7.91211 4.64901 7.89583 4.71411 7.86328C4.77922 7.82943 4.82739 7.78385 4.85864 7.72656C4.88989 7.66927 4.90552 7.60352 4.90552 7.5293C4.90552 7.44596 4.89119 7.3737 4.86255 7.3125C4.83521 7.2513 4.79093 7.20443 4.72974 7.17188C4.66854 7.13802 4.58781 7.12109 4.48755 7.12109H3.9231L3.927 6.71875H4.63013L4.76489 6.87695C4.93807 6.87435 5.07739 6.90495 5.18286 6.96875C5.28963 7.03125 5.36711 7.11263 5.41528 7.21289C5.46476 7.31315 5.4895 7.42057 5.4895 7.53516C5.4895 7.71745 5.44979 7.87109 5.37036 7.99609C5.29093 8.11979 5.1744 8.21289 5.02075 8.27539C4.86841 8.33789 4.68221 8.36914 4.46216 8.36914ZM5.92896 5.52539H6.9895C7.20695 5.52539 7.3938 5.55794 7.55005 5.62305C7.7076 5.68815 7.82869 5.78451 7.91333 5.91211C7.99797 6.03971 8.04028 6.19661 8.04028 6.38281C8.04028 6.53516 8.01424 6.66602 7.96216 6.77539C7.91138 6.88346 7.83911 6.97396 7.74536 7.04688C7.65291 7.11849 7.54419 7.17578 7.41919 7.21875L7.23364 7.31641H6.31177L6.30786 6.85938H6.99341C7.09627 6.85938 7.18156 6.84115 7.24927 6.80469C7.31698 6.76823 7.36776 6.71745 7.40161 6.65234C7.43677 6.58724 7.45435 6.51172 7.45435 6.42578C7.45435 6.33464 7.43742 6.25586 7.40356 6.18945C7.36971 6.12305 7.31828 6.07227 7.24927 6.03711C7.18026 6.00195 7.09367 5.98438 6.9895 5.98438H6.51489V8.36914H5.92896V5.52539ZM7.5188 8.36914L6.87036 7.10156L7.4895 7.09766L8.14575 8.3418V8.36914H7.5188ZM9.3645 8.36914H8.74536L8.74927 7.91211H9.3645C9.51815 7.91211 9.64771 7.8776 9.75317 7.80859C9.85864 7.73828 9.93807 7.63607 9.99146 7.50195C10.0461 7.36784 10.0735 7.20573 10.0735 7.01562V6.87695C10.0735 6.73112 10.0579 6.60286 10.0266 6.49219C9.99666 6.38151 9.95174 6.28841 9.89185 6.21289C9.83195 6.13737 9.75838 6.08073 9.67114 6.04297C9.5839 6.00391 9.48364 5.98438 9.37036 5.98438H8.73364V5.52539H9.37036C9.56047 5.52539 9.73429 5.55794 9.89185 5.62305C10.0507 5.68685 10.1881 5.77865 10.304 5.89844C10.4198 6.01823 10.509 6.16146 10.5715 6.32812C10.6353 6.49349 10.6672 6.67773 10.6672 6.88086V7.01562C10.6672 7.21745 10.6353 7.40169 10.5715 7.56836C10.509 7.73503 10.4198 7.87826 10.304 7.99805C10.1894 8.11654 10.052 8.20833 9.89185 8.27344C9.73299 8.33724 9.55721 8.36914 9.3645 8.36914ZM9.07739 5.52539V8.36914H8.49146V5.52539H9.07739Z" fill="#7C29E5"/>
<path d="M4.48755 7.12109V7.22109H4.52545L4.55382 7.19598L4.48755 7.12109ZM3.75708 7.12109L3.65708 7.12206L3.65805 7.22109H3.75708V7.12109ZM3.75317 6.71875V6.61875H3.6522L3.65318 6.71972L3.75317 6.71875ZM4.63208 6.67773L4.66892 6.77071L4.67042 6.77009L4.63208 6.67773ZM4.78638 6.55469L4.70226 6.50061L4.70193 6.50113L4.78638 6.55469ZM4.78833 6.14062L4.70239 6.19178L4.7033 6.19326L4.78833 6.14062ZM4.63403 6.02148L4.60029 6.11562L4.60084 6.11582L4.63403 6.02148ZM3.96021 5.98438V5.88437H3.86021V5.98438H3.96021ZM3.96021 8.36914V8.46914H4.06021V8.36914H3.96021ZM3.37427 8.36914H3.27427V8.46914H3.37427V8.36914ZM3.37427 5.52539V5.42539H3.27427V5.52539H3.37427ZM4.80981 5.57227L4.78648 5.6695L4.7867 5.66956L4.80981 5.57227ZM5.1438 5.71484L5.08645 5.79677L5.1438 5.71484ZM5.35278 5.95703L5.2631 6.00127L5.26334 6.00175L5.35278 5.95703ZM5.34497 6.625L5.25696 6.57752L5.25648 6.57843L5.34497 6.625ZM5.09692 6.86719L5.04862 6.77963L5.04819 6.77987L5.09692 6.86719ZM4.65747 6.9707L4.65388 6.87077L4.61804 6.87206L4.59119 6.89582L4.65747 6.9707ZM3.59692 8.36914L3.50748 8.32442L3.43512 8.46914H3.59692V8.36914ZM3.82544 7.91211V7.81211H3.76364L3.736 7.86739L3.82544 7.91211ZM4.71411 7.86328L4.75884 7.95274L4.76025 7.952L4.71411 7.86328ZM4.86255 7.3125L4.77123 7.3533L4.77198 7.35489L4.86255 7.3125ZM4.72974 7.17188L4.68132 7.25939L4.68278 7.26016L4.72974 7.17188ZM3.9231 7.12109L3.8231 7.12012L3.82212 7.22109H3.9231V7.12109ZM3.927 6.71875V6.61875H3.82797L3.82701 6.71778L3.927 6.71875ZM4.63013 6.71875L4.70625 6.6539L4.67631 6.61875H4.63013V6.71875ZM4.76489 6.87695L4.68877 6.9418L4.71931 6.97765L4.7664 6.97694L4.76489 6.87695ZM5.18286 6.96875L5.1311 7.05432L5.13234 7.05505L5.18286 6.96875ZM5.41528 7.21289L5.32514 7.2562L5.32561 7.25715L5.41528 7.21289ZM5.37036 7.99609L5.45451 8.05013L5.45476 8.04972L5.37036 7.99609ZM5.02075 8.27539L4.98307 8.18276L4.9828 8.18287L5.02075 8.27539ZM4.48755 7.02109H3.75708V7.22109H4.48755V7.02109ZM3.85708 7.12012L3.85317 6.71778L3.65318 6.71972L3.65708 7.12206L3.85708 7.12012ZM3.75317 6.81875H4.36646V6.61875H3.75317V6.81875ZM4.36646 6.81875C4.48189 6.81875 4.58413 6.8043 4.66892 6.7707L4.59524 6.58477C4.54201 6.60586 4.46717 6.61875 4.36646 6.61875V6.81875ZM4.67042 6.77009C4.75488 6.73503 4.82407 6.68198 4.87083 6.60824L4.70193 6.50113C4.68098 6.53417 4.6473 6.56314 4.59374 6.58538L4.67042 6.77009ZM4.87049 6.60876C4.91795 6.53495 4.93911 6.44886 4.93911 6.35547H4.73911C4.73911 6.41833 4.72512 6.46505 4.70226 6.50061L4.87049 6.60876ZM4.93911 6.35547C4.93911 6.25507 4.92002 6.16338 4.87336 6.08799L4.7033 6.19326C4.72434 6.22725 4.73911 6.27879 4.73911 6.35547H4.93911ZM4.87426 6.08948C4.82774 6.01132 4.75566 5.95827 4.66722 5.92715L4.60084 6.11582C4.65303 6.13418 4.68382 6.16056 4.7024 6.19177L4.87426 6.08948ZM4.66778 5.92735C4.584 5.89732 4.48223 5.88437 4.36646 5.88437V6.08438C4.46943 6.08438 4.54604 6.09617 4.60029 6.11562L4.66778 5.92735ZM4.36646 5.88437H3.96021V6.08438H4.36646V5.88437ZM3.86021 5.98438V8.36914H4.06021V5.98438H3.86021ZM3.96021 8.26914H3.37427V8.46914H3.96021V8.26914ZM3.47427 8.36914V5.52539H3.27427V8.36914H3.47427ZM3.37427 5.62539H4.36646V5.42539H3.37427V5.62539ZM4.36646 5.62539C4.52572 5.62539 4.66545 5.64046 4.78648 5.6695L4.83315 5.47503C4.69376 5.44157 4.53792 5.42539 4.36646 5.42539V5.62539ZM4.7867 5.66956C4.9085 5.6985 5.0076 5.74157 5.08645 5.79677L5.20115 5.63292C5.0977 5.56051 4.97415 5.50853 4.83293 5.47497L4.7867 5.66956ZM5.08645 5.79677C5.16414 5.85115 5.22253 5.91903 5.2631 6.00127L5.44246 5.91279C5.38668 5.79972 5.30575 5.70615 5.20115 5.63292L5.08645 5.79677ZM5.26334 6.00175C5.30315 6.08136 5.32505 6.17995 5.32505 6.30078H5.52505C5.52505 6.15599 5.49878 6.02541 5.44223 5.91231L5.26334 6.00175ZM5.32505 6.30078C5.32505 6.40212 5.30214 6.49378 5.25696 6.57752L5.43298 6.67248C5.49457 6.55831 5.52505 6.43382 5.52505 6.30078H5.32505ZM5.25648 6.57843C5.21486 6.6575 5.14754 6.72505 5.04862 6.77963L5.14523 6.95475C5.27287 6.88432 5.37092 6.79041 5.43346 6.67157L5.25648 6.57843ZM5.04819 6.77987C4.95455 6.83213 4.82516 6.86461 4.65388 6.87077L4.66107 7.07064C4.85177 7.06378 5.01534 7.02725 5.14566 6.95451L5.04819 6.77987ZM4.59119 6.89582L4.42127 7.04621L4.55382 7.19598L4.72375 7.04559L4.59119 6.89582ZM4.46216 8.26914H3.59692V8.46914H4.46216V8.26914ZM3.68637 8.41386L3.91488 7.95683L3.736 7.86739L3.50748 8.32442L3.68637 8.41386ZM3.82544 8.01211H4.46216V7.81211H3.82544V8.01211ZM4.46216 8.01211C4.57454 8.01211 4.67532 7.99448 4.75883 7.95272L4.66939 7.77384C4.6227 7.79719 4.5555 7.81211 4.46216 7.81211V8.01211ZM4.76025 7.952C4.84071 7.91016 4.90451 7.85131 4.94643 7.77445L4.77085 7.67868C4.75028 7.7164 4.71772 7.74869 4.66798 7.77456L4.76025 7.952ZM4.94643 7.77445C4.98674 7.70055 5.00552 7.61792 5.00552 7.5293H4.80552C4.80552 7.58911 4.79305 7.63799 4.77085 7.67868L4.94643 7.77445ZM5.00552 7.5293C5.00552 7.43465 4.98925 7.3473 4.95312 7.27011L4.77198 7.35489C4.79314 7.4001 4.80552 7.45728 4.80552 7.5293H5.00552ZM4.95385 7.27171C4.9171 7.18945 4.85683 7.12621 4.7767 7.08359L4.68278 7.26016C4.72504 7.28264 4.75331 7.31316 4.77125 7.35329L4.95385 7.27171ZM4.77814 7.08437C4.69708 7.03953 4.59785 7.02109 4.48755 7.02109V7.22109C4.57777 7.22109 4.63999 7.23651 4.68133 7.25938L4.77814 7.08437ZM4.48755 7.02109H3.9231V7.22109H4.48755V7.02109ZM4.02309 7.12206L4.027 6.71972L3.82701 6.71778L3.8231 7.12012L4.02309 7.12206ZM3.927 6.81875H4.63013V6.61875H3.927V6.81875ZM4.554 6.7836L4.68877 6.9418L4.84102 6.81211L4.70625 6.6539L4.554 6.7836ZM4.7664 6.97694C4.92808 6.97451 5.04693 7.00339 5.1311 7.05431L5.23462 6.88319C5.10785 6.8065 4.94806 6.77419 4.76339 6.77696L4.7664 6.97694ZM5.13234 7.05505C5.22393 7.10866 5.28655 7.17588 5.32515 7.2562L5.50542 7.16958C5.44766 7.04938 5.35534 6.95384 5.23338 6.88245L5.13234 7.05505ZM5.32561 7.25715C5.36812 7.34329 5.3895 7.43553 5.3895 7.53516H5.5895C5.5895 7.40562 5.5614 7.28301 5.50496 7.16864L5.32561 7.25715ZM5.3895 7.53516C5.3895 7.70285 5.35307 7.83684 5.28596 7.94246L5.45476 8.04972C5.5465 7.90535 5.5895 7.73205 5.5895 7.53516H5.3895ZM5.28621 7.94206C5.21933 8.04623 5.12017 8.12699 4.98307 8.18276L5.05843 8.36802C5.22863 8.29879 5.36254 8.19335 5.45451 8.05012L5.28621 7.94206ZM4.9828 8.18287C4.84581 8.23907 4.67333 8.26914 4.46216 8.26914V8.46914C4.6911 8.46914 4.89101 8.43671 5.05871 8.36791L4.9828 8.18287ZM5.92896 5.52539V5.42539H5.82896V5.52539H5.92896ZM7.55005 5.62305L7.51159 5.71535L7.51186 5.71547L7.55005 5.62305ZM7.96216 6.77539L7.87187 6.7324L7.87165 6.73286L7.96216 6.77539ZM7.74536 7.04688L7.8066 7.12593L7.80676 7.12581L7.74536 7.04688ZM7.41919 7.21875L7.38668 7.12418L7.37941 7.12668L7.37261 7.13026L7.41919 7.21875ZM7.23364 7.31641V7.41641H7.25835L7.28022 7.4049L7.23364 7.31641ZM6.31177 7.31641L6.21177 7.31726L6.21262 7.41641H6.31177V7.31641ZM6.30786 6.85938V6.75937H6.207L6.20786 6.86023L6.30786 6.85938ZM7.40161 6.65234L7.31361 6.60482L7.31289 6.60621L7.40161 6.65234ZM6.51489 5.98438V5.88437H6.41489V5.98438H6.51489ZM6.51489 8.36914V8.46914H6.61489V8.36914H6.51489ZM5.92896 8.36914H5.82896V8.46914H5.92896V8.36914ZM7.5188 8.36914L7.42977 8.41468L7.45763 8.46914H7.5188V8.36914ZM6.87036 7.10156L6.86973 7.00156L6.70741 7.00259L6.78133 7.1471L6.87036 7.10156ZM7.4895 7.09766L7.57795 7.051L7.54961 6.99727L7.48887 6.99766L7.4895 7.09766ZM8.14575 8.3418H8.24575V8.31704L8.2342 8.29514L8.14575 8.3418ZM8.14575 8.36914V8.46914H8.24575V8.36914H8.14575ZM5.92896 5.62539H6.9895V5.42539H5.92896V5.62539ZM6.9895 5.62539C7.19735 5.62539 7.37046 5.65655 7.51159 5.71535L7.58851 5.53074C7.41714 5.45934 7.21655 5.42539 6.9895 5.42539V5.62539ZM7.51186 5.71547C7.65317 5.77386 7.7576 5.85823 7.82999 5.96738L7.99667 5.85684C7.89979 5.71078 7.76204 5.60244 7.58824 5.53063L7.51186 5.71547ZM7.82999 5.96738C7.90161 6.07536 7.94028 6.21199 7.94028 6.38281H8.14028C8.14028 6.18124 8.09432 6.00407 7.99667 5.85684L7.82999 5.96738ZM7.94028 6.38281C7.94028 6.524 7.91613 6.63945 7.87187 6.7324L8.05244 6.81838C8.11235 6.69258 8.14028 6.54631 8.14028 6.38281H7.94028ZM7.87165 6.73286C7.82753 6.82676 7.76521 6.90475 7.68397 6.96794L7.80676 7.12581C7.91301 7.04317 7.99522 6.94017 8.05266 6.81792L7.87165 6.73286ZM7.68412 6.96782C7.60138 7.03191 7.50265 7.08432 7.38668 7.12418L7.4517 7.31332C7.58573 7.26725 7.70444 7.20507 7.8066 7.12593L7.68412 6.96782ZM7.37261 7.13026L7.18707 7.22791L7.28022 7.4049L7.46576 7.30724L7.37261 7.13026ZM7.23364 7.21641H6.31177V7.41641H7.23364V7.21641ZM6.41176 7.31555L6.40786 6.85852L6.20786 6.86023L6.21177 7.31726L6.41176 7.31555ZM6.30786 6.95938H6.99341V6.75937H6.30786V6.95938ZM6.99341 6.95938C7.10746 6.95938 7.21031 6.93924 7.29668 6.89273L7.20186 6.71664C7.15281 6.74305 7.08509 6.75937 6.99341 6.75937V6.95938ZM7.29668 6.89273C7.38115 6.84725 7.44676 6.78226 7.49033 6.69848L7.31289 6.60621C7.28875 6.65263 7.2528 6.68921 7.20186 6.71664L7.29668 6.89273ZM7.4896 6.69986C7.53383 6.61796 7.55435 6.52561 7.55435 6.42578H7.35435C7.35435 6.49782 7.33971 6.55652 7.31362 6.60483L7.4896 6.69986ZM7.55435 6.42578C7.55435 6.32231 7.5351 6.2273 7.49266 6.14403L7.31447 6.23487C7.33973 6.28442 7.35435 6.34696 7.35435 6.42578H7.55435ZM7.49266 6.14403C7.44882 6.05805 7.3817 5.99235 7.29466 5.94801L7.20388 6.12621C7.25486 6.15219 7.2906 6.18804 7.31447 6.23487L7.49266 6.14403ZM7.29466 5.94801C7.2076 5.90365 7.10425 5.88437 6.9895 5.88437V6.08438C7.08309 6.08438 7.15292 6.10025 7.20388 6.12621L7.29466 5.94801ZM6.9895 5.88437H6.51489V6.08438H6.9895V5.88437ZM6.41489 5.98438V8.36914H6.61489V5.98438H6.41489ZM6.51489 8.26914H5.92896V8.46914H6.51489V8.26914ZM6.02895 8.36914V5.52539H5.82896V8.36914H6.02895ZM7.60783 8.3236L6.95939 7.05602L6.78133 7.1471L7.42977 8.41468L7.60783 8.3236ZM6.87099 7.20156L7.49013 7.19765L7.48887 6.99766L6.86973 7.00156L6.87099 7.20156ZM7.40105 7.14431L8.0573 8.38845L8.2342 8.29514L7.57795 7.051L7.40105 7.14431ZM8.04575 8.3418V8.36914H8.24575V8.3418H8.04575ZM8.14575 8.26914H7.5188V8.46914H8.14575V8.26914ZM8.74536 8.36914L8.64536 8.36829L8.6445 8.46914H8.74536V8.36914ZM8.74927 7.91211V7.81211H8.65012L8.64927 7.91125L8.74927 7.91211ZM9.75317 7.80859L9.80793 7.89228L9.80864 7.8918L9.75317 7.80859ZM9.99146 7.50195L9.89885 7.46419L9.89855 7.46497L9.99146 7.50195ZM10.0266 6.49219L9.93008 6.51831L9.93037 6.51936L10.0266 6.49219ZM9.67114 6.04297L9.63027 6.13424L9.63142 6.13474L9.67114 6.04297ZM8.73364 5.98438H8.63364V6.08438H8.73364V5.98438ZM8.73364 5.52539V5.42539H8.63364V5.52539H8.73364ZM9.89185 5.62305L9.85365 5.71547L9.85458 5.71584L9.89185 5.62305ZM10.304 5.89844L10.3758 5.82891L10.304 5.89844ZM10.5715 6.32812L10.4779 6.36324L10.4782 6.36412L10.5715 6.32812ZM10.5715 7.56836L10.4781 7.53261L10.4779 7.53325L10.5715 7.56836ZM10.304 7.99805L10.2321 7.92852L10.2321 7.92853L10.304 7.99805ZM9.89185 8.27344L9.92912 8.36623L9.9295 8.36608L9.89185 8.27344ZM9.07739 5.52539H9.17739V5.42539H9.07739V5.52539ZM9.07739 8.36914V8.46914H9.17739V8.36914H9.07739ZM8.49146 8.36914H8.39146V8.46914H8.49146V8.36914ZM8.49146 5.52539V5.42539H8.39146V5.52539H8.49146ZM9.3645 8.26914H8.74536V8.46914H9.3645V8.26914ZM8.84536 8.37L8.84926 7.91296L8.64927 7.91125L8.64536 8.36829L8.84536 8.37ZM8.74927 8.01211H9.3645V7.81211H8.74927V8.01211ZM9.3645 8.01211C9.5333 8.01211 9.68293 7.97406 9.80793 7.89227L9.69842 7.72492C9.61248 7.78115 9.50299 7.81211 9.3645 7.81211V8.01211ZM9.80864 7.8918C9.93326 7.80872 10.0246 7.68919 10.0844 7.53894L9.89855 7.46497C9.85158 7.58294 9.78402 7.66784 9.6977 7.72539L9.80864 7.8918ZM10.0841 7.53971C10.1449 7.3905 10.1735 7.21483 10.1735 7.01562H9.97349C9.97349 7.19662 9.94739 7.34518 9.89886 7.46419L10.0841 7.53971ZM10.1735 7.01562V6.87695H9.97349V7.01562H10.1735ZM10.1735 6.87695C10.1735 6.72427 10.1572 6.58653 10.1228 6.46501L9.93037 6.51936C9.95856 6.6192 9.97349 6.73797 9.97349 6.87695H10.1735ZM10.1231 6.46607C10.0903 6.34472 10.04 6.23874 9.9702 6.15075L9.8135 6.27503C9.8635 6.33809 9.90302 6.4183 9.93008 6.51831L10.1231 6.46607ZM9.9702 6.15075C9.90021 6.06251 9.81344 5.9956 9.71087 5.9512L9.63142 6.13474C9.70332 6.16586 9.76369 6.21223 9.8135 6.27503L9.9702 6.15075ZM9.71201 5.9517C9.60976 5.90592 9.49516 5.88437 9.37036 5.88437V6.08438C9.47213 6.08438 9.55805 6.1019 9.63028 6.13424L9.71201 5.9517ZM9.37036 5.88437H8.73364V6.08438H9.37036V5.88437ZM8.83364 5.98438V5.52539H8.63364V5.98438H8.83364ZM8.73364 5.62539H9.37036V5.42539H8.73364V5.62539ZM9.37036 5.62539C9.54887 5.62539 9.70953 5.65591 9.85366 5.71547L9.93004 5.53063C9.75905 5.45997 9.57206 5.42539 9.37036 5.42539V5.62539ZM9.85458 5.71584C10.0008 5.77455 10.1262 5.85855 10.2321 5.96797L10.3758 5.82891C10.2499 5.69874 10.1006 5.59915 9.92912 5.53025L9.85458 5.71584ZM10.2321 5.96797C10.3378 6.07724 10.4199 6.20853 10.4779 6.36324L10.6652 6.29301C10.5982 6.11439 10.5019 5.95922 10.3758 5.82891L10.2321 5.96797ZM10.4782 6.36412C10.537 6.51645 10.5672 6.68827 10.5672 6.88086H10.7672C10.7672 6.6672 10.7337 6.47053 10.6648 6.29213L10.4782 6.36412ZM10.5672 6.88086V7.01562H10.7672V6.88086H10.5672ZM10.5672 7.01562C10.5672 7.20681 10.537 7.37875 10.4781 7.53261L10.6649 7.60411C10.7336 7.42464 10.7672 7.22808 10.7672 7.01562H10.5672ZM10.4779 7.53325C10.4199 7.68796 10.3378 7.81924 10.2321 7.92852L10.3758 8.06758C10.5019 7.93727 10.5982 7.7821 10.6652 7.60347L10.4779 7.53325ZM10.2321 7.92853C10.1276 8.03653 10.0021 8.12068 9.85419 8.1808L9.9295 8.36608C10.1019 8.29599 10.2511 8.19655 10.3758 8.06756L10.2321 7.92853ZM9.85458 8.18064C9.70897 8.23912 9.54604 8.26914 9.3645 8.26914V8.46914C9.56838 8.46914 9.75701 8.43536 9.92912 8.36623L9.85458 8.18064ZM8.97739 5.52539V8.36914H9.17739V5.52539H8.97739ZM9.07739 8.26914H8.49146V8.46914H9.07739V8.26914ZM8.59145 8.36914V5.52539H8.39146V8.36914H8.59145ZM8.49146 5.62539H9.07739V5.42539H8.49146V5.62539Z" fill="#7C29E5"/>
<path d="M11.4227 2.73415C10.8485 2.15604 10.194 1.69511 9.45931 1.35187C8.68675 0.990909 7.87551 0.810352 7.02684 0.810352C6.17913 0.810352 5.38717 0.96867 4.65226 1.28532C3.91844 1.60151 3.2757 2.03216 2.72482 2.5765C2.17385 3.12093 1.73704 3.7606 1.41434 4.49434C1.09119 5.22914 0.929736 6.01469 0.929736 6.85009C0.929736 7.6855 1.09119 8.47696 1.41422 9.22438C1.73685 9.9709 2.17065 10.6133 2.71539 11.1519C3.25992 11.6903 3.90264 12.1205 4.64265 12.443C5.38397 12.7661 6.179 12.9275 7.02684 12.9275C8.62185 12.9275 9.9969 12.3859 11.149 11.3035C12.3012 10.221 12.9283 8.87466 13.0297 7.26762L13.033 7.21447H12.9798H12.4146H12.3688L12.3648 7.26007C12.2404 8.66714 11.6712 9.85184 10.6565 10.8164C9.64211 11.7806 8.43336 12.2624 7.02684 12.2624C5.50758 12.2624 4.22396 11.7337 3.17218 10.6761C2.12033 9.61847 1.59489 8.33157 1.59489 6.81242C1.59489 5.33133 2.12004 4.07275 3.17186 3.03377C4.22358 1.99489 5.5073 1.47542 7.02684 1.47542C7.77304 1.47542 8.48813 1.63391 9.17222 1.95109C9.82155 2.25216 10.3982 2.65656 10.9022 3.16481H9.21209H9.16209V3.21481V3.77988V3.82988H9.21209H12.0378H12.0878V3.77988V0.95453V0.90453H12.0378H11.4727H11.4227V0.95453V2.73415Z" fill="#7C29E5" stroke="#7C29E5" stroke-width="0.1"/>
</svg>
