<svg width="14" height="13" viewBox="0 0 14 13" fill="none" xmlns="http://www.w3.org/2000/svg">
<path d="M4.72798 7.0377H5.25356C5.24302 7.20996 5.19556 7.36289 5.11118 7.49648C5.02798 7.63008 4.91138 7.73438 4.76138 7.80938C4.61255 7.88438 4.43325 7.92187 4.22349 7.92187C4.05942 7.92187 3.91235 7.89375 3.78228 7.8375C3.6522 7.78008 3.54087 7.69805 3.44829 7.59141C3.35688 7.48477 3.28716 7.35586 3.23911 7.20469C3.19106 7.05352 3.16704 6.88418 3.16704 6.69668V6.51914C3.16704 6.33164 3.19165 6.1623 3.24087 6.01113C3.29126 5.85879 3.36274 5.7293 3.45532 5.62266C3.54907 5.51602 3.66099 5.43398 3.79106 5.37656C3.92114 5.31914 4.06646 5.29043 4.227 5.29043C4.44028 5.29043 4.62017 5.3291 4.76665 5.40645C4.91431 5.48379 5.02856 5.59043 5.10942 5.72637C5.19146 5.8623 5.24067 6.01699 5.25708 6.19043H4.72974C4.72388 6.0873 4.70337 6 4.66821 5.92852C4.63306 5.85586 4.57974 5.80137 4.50825 5.76504C4.43794 5.72754 4.34419 5.70879 4.227 5.70879C4.13911 5.70879 4.06235 5.7252 3.99673 5.75801C3.9311 5.79082 3.87603 5.84063 3.83149 5.90742C3.78696 5.97422 3.75356 6.05859 3.7313 6.16055C3.71021 6.26133 3.69966 6.37969 3.69966 6.51563V6.69668C3.69966 6.8291 3.70962 6.9457 3.72954 7.04648C3.74946 7.14609 3.77993 7.23047 3.82095 7.29961C3.86313 7.36758 3.91704 7.41914 3.98267 7.4543C4.04946 7.48828 4.12974 7.50527 4.22349 7.50527C4.33364 7.50527 4.42446 7.4877 4.49595 7.45254C4.56743 7.41738 4.62192 7.36523 4.65942 7.29609C4.6981 7.22695 4.72095 7.14082 4.72798 7.0377ZM6.64048 5.76504L5.94438 7.88672H5.38364L6.33462 5.32734H6.69146L6.64048 5.76504ZM7.2188 7.88672L6.52095 5.76504L6.4647 5.32734H6.82505L7.7813 7.88672H7.2188ZM7.18716 6.93398V7.34707H5.8354V6.93398H7.18716ZM8.25942 5.32734H8.70591L9.36333 7.20645L10.0208 5.32734H10.4672L9.54263 7.88672H9.18403L8.25942 5.32734ZM8.0186 5.32734H8.46333L8.54419 7.15898V7.88672H8.0186V5.32734ZM10.2633 5.32734H10.7098V7.88672H10.1825V7.15898L10.2633 5.32734Z" fill="#7C29E5"/>
<path d="M4.72798 7.0377V6.9377H4.63456L4.62821 7.03089L4.72798 7.0377ZM5.25356 7.0377L5.35338 7.04381L5.35987 6.9377H5.25356V7.0377ZM5.11118 7.49648L5.02663 7.44308L5.0263 7.44362L5.11118 7.49648ZM4.76138 7.80938L4.71666 7.71993L4.71637 7.72007L4.76138 7.80938ZM3.78228 7.8375L3.74189 7.92899L3.74258 7.92929L3.78228 7.8375ZM3.44829 7.59141L3.37236 7.65649L3.37278 7.65696L3.44829 7.59141ZM3.23911 7.20469L3.14381 7.23498L3.23911 7.20469ZM3.24087 6.01113L3.14593 5.97973L3.14578 5.98017L3.24087 6.01113ZM3.45532 5.62266L3.38022 5.55663L3.37981 5.5571L3.45532 5.62266ZM4.76665 5.40645L4.71996 5.49488L4.72025 5.49503L4.76665 5.40645ZM5.10942 5.72637L5.02348 5.77749L5.0238 5.77803L5.10942 5.72637ZM5.25708 6.19043V6.29043H5.36699L5.35664 6.18101L5.25708 6.19043ZM4.72974 6.19043L4.6299 6.1961L4.63526 6.29043H4.72974V6.19043ZM4.66821 5.92852L4.5782 5.97207L4.57848 5.97265L4.66821 5.92852ZM4.50825 5.76504L4.46118 5.85329L4.46295 5.85419L4.50825 5.76504ZM3.99673 5.75801L3.95201 5.66857L3.99673 5.75801ZM3.7313 6.16055L3.6336 6.13921L3.63342 6.14006L3.7313 6.16055ZM3.72954 7.04648L3.63144 7.06588L3.63148 7.0661L3.72954 7.04648ZM3.82095 7.29961L3.73492 7.35064L3.73598 7.35235L3.82095 7.29961ZM3.98267 7.4543L3.93543 7.54246L3.93732 7.54342L3.98267 7.4543ZM4.65942 7.29609L4.57214 7.24727L4.57152 7.24842L4.65942 7.29609ZM4.72798 7.1377H5.25356V6.9377H4.72798V7.1377ZM5.15375 7.03158C5.14414 7.18864 5.10121 7.32501 5.02663 7.44309L5.19573 7.54988C5.2899 7.40078 5.3419 7.23128 5.35338 7.04381L5.15375 7.03158ZM5.0263 7.44362C4.9535 7.56051 4.85128 7.65262 4.71666 7.71993L4.8061 7.89882C4.97148 7.81613 5.10246 7.69965 5.19606 7.54935L5.0263 7.44362ZM4.71637 7.72007C4.58464 7.78646 4.42156 7.82188 4.22349 7.82188V8.02187C4.44494 8.02187 4.64045 7.98229 4.80638 7.89868L4.71637 7.72007ZM4.22349 7.82188C4.07094 7.82188 3.93769 7.79576 3.82197 7.74571L3.74258 7.92929C3.88701 7.99174 4.04791 8.02187 4.22349 8.02187V7.82188ZM3.82266 7.74602C3.70596 7.6945 3.60666 7.62129 3.52381 7.52585L3.37278 7.65696C3.47508 7.77481 3.59843 7.86565 3.74189 7.92898L3.82266 7.74602ZM3.52422 7.52633C3.4426 7.4311 3.37892 7.31444 3.33441 7.1744L3.14381 7.23498C3.19539 7.39728 3.27117 7.53843 3.37237 7.65649L3.52422 7.52633ZM3.33441 7.1744C3.28999 7.03462 3.26704 6.87572 3.26704 6.69668H3.06704C3.06704 6.89264 3.09214 7.07242 3.14381 7.23498L3.33441 7.1744ZM3.26704 6.69668V6.51914H3.06704V6.69668H3.26704ZM3.26704 6.51914C3.26704 6.34032 3.29052 6.18166 3.33596 6.04209L3.14578 5.98017C3.09278 6.14295 3.06704 6.32296 3.06704 6.51914H3.26704ZM3.33581 6.04254C3.38261 5.90105 3.44803 5.7836 3.53084 5.68821L3.37981 5.5571C3.27746 5.675 3.19991 5.81653 3.14593 5.97973L3.33581 6.04254ZM3.53043 5.68868C3.61457 5.59296 3.71464 5.51961 3.83145 5.46805L3.75068 5.28508C3.60734 5.34836 3.48357 5.43907 3.38022 5.55663L3.53043 5.68868ZM3.83145 5.46805C3.94726 5.41692 4.07857 5.39043 4.227 5.39043V5.19043C4.05434 5.19043 3.89503 5.22136 3.75068 5.28508L3.83145 5.46805ZM4.227 5.39043C4.42856 5.39043 4.59141 5.427 4.71996 5.49488L4.81334 5.31802C4.64892 5.2312 4.45201 5.19043 4.227 5.19043V5.39043ZM4.72025 5.49503C4.85244 5.56427 4.9526 5.65833 5.02348 5.77749L5.19537 5.67524C5.10453 5.52253 4.97618 5.40331 4.81305 5.31786L4.72025 5.49503ZM5.0238 5.77803C5.09735 5.8999 5.14239 6.03989 5.15752 6.19985L5.35664 6.18101C5.33895 5.9941 5.28556 5.82471 5.19504 5.6747L5.0238 5.77803ZM5.25708 6.09043H4.72974V6.29043H5.25708V6.09043ZM4.82958 6.18476C4.82317 6.07205 4.80048 5.97087 4.75795 5.88438L4.57848 5.97265C4.60625 6.02913 4.62458 6.10256 4.6299 6.1961L4.82958 6.18476ZM4.75823 5.88496C4.71362 5.79277 4.64467 5.72219 4.55356 5.67589L4.46295 5.85419C4.51481 5.88054 4.55249 5.91895 4.5782 5.97207L4.75823 5.88496ZM4.55531 5.6768C4.4653 5.6288 4.35344 5.60879 4.227 5.60879V5.80879C4.33493 5.80879 4.41058 5.82628 4.46119 5.85327L4.55531 5.6768ZM4.227 5.60879C4.12663 5.60879 4.034 5.62757 3.95201 5.66857L4.04145 5.84745C4.0907 5.82282 4.15159 5.80879 4.227 5.80879V5.60879ZM3.95201 5.66857C3.86938 5.70988 3.80154 5.77208 3.74829 5.85195L3.9147 5.96289C3.95051 5.90917 3.99283 5.87176 4.04145 5.84745L3.95201 5.66857ZM3.74829 5.85195C3.69511 5.93172 3.65777 6.02855 3.6336 6.13921L3.829 6.18188C3.84936 6.08864 3.87882 6.01672 3.9147 5.96289L3.74829 5.85195ZM3.63342 6.14006C3.61055 6.24932 3.59966 6.37485 3.59966 6.51562H3.79966C3.79966 6.38452 3.80986 6.27333 3.82918 6.18103L3.63342 6.14006ZM3.59966 6.51562V6.69668H3.79966V6.51562H3.59966ZM3.59966 6.69668C3.59966 6.83385 3.60995 6.95719 3.63144 7.06588L3.82764 7.02709C3.80928 6.93422 3.79966 6.82435 3.79966 6.69668H3.59966ZM3.63148 7.0661C3.65306 7.17399 3.68687 7.2696 3.73494 7.35063L3.90695 7.24859C3.87299 7.19134 3.84586 7.1182 3.8276 7.02687L3.63148 7.0661ZM3.73598 7.35235C3.78671 7.43408 3.8532 7.49839 3.93544 7.54244L4.02989 7.36615C3.98088 7.3399 3.93956 7.30108 3.90591 7.24687L3.73598 7.35235ZM3.93732 7.54342C4.02125 7.58612 4.11784 7.60527 4.22349 7.60527V7.40527C4.14163 7.40527 4.07768 7.39044 4.02801 7.36517L3.93732 7.54342ZM4.22349 7.60527C4.34342 7.60527 4.45064 7.58626 4.54008 7.54227L4.45182 7.3628C4.39828 7.38913 4.32386 7.40527 4.22349 7.40527V7.60527ZM4.54008 7.54227C4.6299 7.4981 4.69981 7.43138 4.74733 7.34377L4.57152 7.24842C4.54404 7.29909 4.50496 7.33667 4.45182 7.3628L4.54008 7.54227ZM4.7467 7.34491C4.79444 7.25955 4.82 7.15806 4.82775 7.0445L4.62821 7.03089C4.62189 7.12358 4.60175 7.19435 4.57215 7.24728L4.7467 7.34491ZM6.64048 5.76504L6.7355 5.79621L6.73864 5.78663L6.73981 5.77661L6.64048 5.76504ZM5.94438 7.88672V7.98672H6.01682L6.0394 7.91789L5.94438 7.88672ZM5.38364 7.88672L5.2899 7.85189L5.23981 7.98672H5.38364V7.88672ZM6.33462 5.32734V5.22734H6.2651L6.24088 5.29251L6.33462 5.32734ZM6.69146 5.32734L6.79078 5.33891L6.80378 5.22734H6.69146V5.32734ZM7.2188 7.88672L7.12381 7.91796L7.14642 7.98672H7.2188V7.88672ZM6.52095 5.76504L6.42176 5.77779L6.42298 5.78723L6.42595 5.79628L6.52095 5.76504ZM6.4647 5.32734V5.22734H6.35102L6.36551 5.34009L6.4647 5.32734ZM6.82505 5.32734L6.91872 5.29234L6.89444 5.22734H6.82505V5.32734ZM7.7813 7.88672V7.98672H7.92541L7.87497 7.85172L7.7813 7.88672ZM7.18716 6.93398H7.28716V6.83398H7.18716V6.93398ZM7.18716 7.34707V7.44707H7.28716V7.34707H7.18716ZM5.8354 7.34707H5.7354V7.44707H5.8354V7.34707ZM5.8354 6.93398V6.83398H5.7354V6.93398H5.8354ZM6.54546 5.73387L5.84937 7.85555L6.0394 7.91789L6.7355 5.79621L6.54546 5.73387ZM5.94438 7.78672H5.38364V7.98672H5.94438V7.78672ZM5.47738 7.92155L6.42836 5.36217L6.24088 5.29251L5.2899 7.85189L5.47738 7.92155ZM6.33462 5.42734H6.69146V5.22734H6.33462V5.42734ZM6.59213 5.31578L6.54115 5.75347L6.73981 5.77661L6.79078 5.33891L6.59213 5.31578ZM7.31379 7.85547L6.61594 5.73379L6.42595 5.79628L7.12381 7.91796L7.31379 7.85547ZM6.62013 5.75229L6.56388 5.3146L6.36551 5.34009L6.42176 5.77779L6.62013 5.75229ZM6.4647 5.42734H6.82505V5.22734H6.4647V5.42734ZM6.73137 5.36234L7.68762 7.92172L7.87497 7.85172L6.91872 5.29234L6.73137 5.36234ZM7.7813 7.78672H7.2188V7.98672H7.7813V7.78672ZM7.08716 6.93398V7.34707H7.28716V6.93398H7.08716ZM7.18716 7.24707H5.8354V7.44707H7.18716V7.24707ZM5.9354 7.34707V6.93398H5.7354V7.34707H5.9354ZM5.8354 7.03398H7.18716V6.83398H5.8354V7.03398ZM8.25942 5.32734V5.22734H8.11697L8.16537 5.36132L8.25942 5.32734ZM8.70591 5.32734L8.8003 5.29432L8.77687 5.22734H8.70591V5.32734ZM9.36333 7.20645L9.26894 7.23947L9.36333 7.50926L9.45772 7.23947L9.36333 7.20645ZM10.0208 5.32734V5.22734H9.94979L9.92636 5.29432L10.0208 5.32734ZM10.4672 5.32734L10.5613 5.36132L10.6097 5.22734H10.4672V5.32734ZM9.54263 7.88672V7.98672H9.61283L9.63668 7.9207L9.54263 7.88672ZM9.18403 7.88672L9.08998 7.9207L9.11383 7.98672H9.18403V7.88672ZM8.0186 5.32734V5.22734H7.9186V5.32734H8.0186ZM8.46333 5.32734L8.56323 5.32293L8.55901 5.22734H8.46333V5.32734ZM8.54419 7.15898H8.64429L8.64409 7.15457L8.54419 7.15898ZM8.54419 7.88672V7.98672H8.64419V7.88672H8.54419ZM8.0186 7.88672H7.9186V7.98672H8.0186V7.88672ZM10.2633 5.32734V5.22734H10.1676L10.1634 5.32293L10.2633 5.32734ZM10.7098 5.32734H10.8098V5.22734H10.7098V5.32734ZM10.7098 7.88672V7.98672H10.8098V7.88672H10.7098ZM10.1825 7.88672H10.0825V7.98672H10.1825V7.88672ZM10.1825 7.15898L10.0825 7.15457V7.15898H10.1825ZM8.25942 5.42734H8.70591V5.22734H8.25942V5.42734ZM8.61152 5.36037L9.26894 7.23947L9.45772 7.17342L8.8003 5.29432L8.61152 5.36037ZM9.45772 7.23947L10.1151 5.36037L9.92636 5.29432L9.26894 7.17342L9.45772 7.23947ZM10.0208 5.42734H10.4672V5.22734H10.0208V5.42734ZM10.3732 5.29337L9.44858 7.85274L9.63668 7.9207L10.5613 5.36132L10.3732 5.29337ZM9.54263 7.78672H9.18403V7.98672H9.54263V7.78672ZM9.27808 7.85274L8.35347 5.29337L8.16537 5.36132L9.08998 7.9207L9.27808 7.85274ZM8.0186 5.42734H8.46333V5.22734H8.0186V5.42734ZM8.36343 5.33175L8.44429 7.16339L8.64409 7.15457L8.56323 5.32293L8.36343 5.33175ZM8.44419 7.15898V7.88672H8.64419V7.15898H8.44419ZM8.54419 7.78672H8.0186V7.98672H8.54419V7.78672ZM8.1186 7.88672V5.32734H7.9186V7.88672H8.1186ZM10.2633 5.42734H10.7098V5.22734H10.2633V5.42734ZM10.6098 5.32734V7.88672H10.8098V5.32734H10.6098ZM10.7098 7.78672H10.1825V7.98672H10.7098V7.78672ZM10.2825 7.88672V7.15898H10.0825V7.88672H10.2825ZM10.2824 7.16339L10.3632 5.33175L10.1634 5.32293L10.0826 7.15457L10.2824 7.16339Z" fill="#7C29E5"/>
<path d="M11.4227 2.75173C10.8485 2.17362 10.194 1.71269 9.45931 1.36945C8.68675 1.00849 7.87551 0.82793 7.02684 0.82793C6.17913 0.82793 5.38717 0.986248 4.65226 1.3029C3.91844 1.61909 3.2757 2.04974 2.72482 2.59408C2.17385 3.1385 1.73704 3.77818 1.41434 4.51192C1.09119 5.24672 0.929736 6.03227 0.929736 6.86767C0.929736 7.70307 1.09119 8.49454 1.41422 9.24196C1.73685 9.98848 2.17065 10.6309 2.71539 11.1695C3.25992 11.7079 3.90264 12.1381 4.64265 12.4606C5.38397 12.7837 6.179 12.9451 7.02684 12.9451C8.62185 12.9451 9.9969 12.4035 11.149 11.3211C12.3012 10.2386 12.9283 8.89224 13.0297 7.2852L13.033 7.23205H12.9798H12.4146H12.3688L12.3648 7.27765C12.2404 8.68471 11.6712 9.86942 10.6565 10.834C9.64211 11.7982 8.43336 12.28 7.02684 12.28C5.50758 12.28 4.22396 11.7513 3.17218 10.6937C2.12033 9.63605 1.59489 8.34915 1.59489 6.83C1.59489 5.34891 2.12004 4.09033 3.17186 3.05135C4.22358 2.01247 5.5073 1.493 7.02684 1.493C7.77304 1.493 8.48813 1.65149 9.17222 1.96867C9.82155 2.26973 10.3982 2.67414 10.9022 3.18239H9.21209H9.16209V3.23239V3.79746V3.84746H9.21209H12.0378H12.0878V3.79746V0.972108V0.922108H12.0378H11.4727H11.4227V0.972108V2.75173Z" fill="#7C29E5" stroke="#7C29E5" stroke-width="0.1"/>
</svg>
