<svg width="14" height="14" viewBox="0 0 14 14" fill="none" xmlns="http://www.w3.org/2000/svg">
<path d="M5.10142 7.90332H4.54419L4.54771 7.49199H5.10142C5.2397 7.49199 5.3563 7.46094 5.45122 7.39883C5.54614 7.33555 5.61763 7.24355 5.66567 7.12285C5.71489 7.00215 5.7395 6.85625 5.7395 6.68516V6.56035C5.7395 6.4291 5.72544 6.31367 5.69731 6.21406C5.67036 6.11445 5.62993 6.03066 5.57603 5.9627C5.52212 5.89473 5.45591 5.84375 5.37739 5.80977C5.29888 5.77461 5.20864 5.75703 5.10669 5.75703H4.53364V5.34395H5.10669C5.27778 5.34395 5.43423 5.37324 5.57603 5.43184C5.71899 5.48926 5.84263 5.57188 5.94692 5.67969C6.05122 5.7875 6.13149 5.91641 6.18774 6.06641C6.24517 6.21523 6.27388 6.38105 6.27388 6.56387V6.68516C6.27388 6.8668 6.24517 7.03262 6.18774 7.18262C6.13149 7.33262 6.05122 7.46152 5.94692 7.56934C5.8438 7.67598 5.72017 7.75859 5.57603 7.81719C5.43306 7.87461 5.27485 7.90332 5.10142 7.90332ZM4.84302 5.34395V7.90332H4.31567V5.34395H4.84302ZM8.37446 7.49199V7.90332H7.01216V7.49199H8.37446ZM7.18442 5.34395V7.90332H6.65708V5.34395H7.18442ZM8.19692 6.38633V6.78711H7.01216V6.38633H8.19692ZM8.3727 5.34395V5.75703H7.01216V5.34395H8.3727ZM9.7227 5.78164L9.02661 7.90332H8.46587L9.41685 5.34395H9.77368L9.7227 5.78164ZM10.301 7.90332L9.60317 5.78164L9.54692 5.34395H9.90728L10.8635 7.90332H10.301ZM10.2694 6.95059V7.36367H8.91763V6.95059H10.2694Z" fill="#7C29E5"/>
<path d="M4.54419 7.90332L4.44419 7.90247L4.44333 8.00332H4.54419V7.90332ZM4.54771 7.49199V7.39199H4.44856L4.44771 7.49114L4.54771 7.49199ZM5.45122 7.39883L5.50598 7.48251L5.50669 7.48203L5.45122 7.39883ZM5.66567 7.12285L5.57307 7.08509L5.57276 7.08587L5.66567 7.12285ZM5.69731 6.21406L5.60078 6.24018L5.60108 6.24124L5.69731 6.21406ZM5.57603 5.9627L5.49768 6.02483L5.57603 5.9627ZM5.37739 5.80977L5.33652 5.90104L5.33767 5.90154L5.37739 5.80977ZM4.53364 5.75703H4.43364V5.85703H4.53364V5.75703ZM4.53364 5.34395V5.24395H4.43364V5.34395H4.53364ZM5.57603 5.43184L5.53783 5.52426L5.53876 5.52463L5.57603 5.43184ZM5.94692 5.67969L6.0188 5.61016L5.94692 5.67969ZM6.18774 6.06641L6.09411 6.10152L6.09445 6.1024L6.18774 6.06641ZM6.18774 7.18262L6.09435 7.14687L6.09411 7.1475L6.18774 7.18262ZM5.94692 7.56934L5.87505 7.49981L5.87504 7.49982L5.94692 7.56934ZM5.57603 7.81719L5.6133 7.90998L5.61368 7.90983L5.57603 7.81719ZM4.84302 5.34395H4.94302V5.24395H4.84302V5.34395ZM4.84302 7.90332V8.00332H4.94302V7.90332H4.84302ZM4.31567 7.90332H4.21567V8.00332H4.31567V7.90332ZM4.31567 5.34395V5.24395H4.21567V5.34395H4.31567ZM5.10142 7.80332H4.54419V8.00332H5.10142V7.80332ZM4.64419 7.90418L4.6477 7.49285L4.44771 7.49114L4.44419 7.90247L4.64419 7.90418ZM4.54771 7.59199H5.10142V7.39199H4.54771V7.59199ZM5.10142 7.59199C5.25485 7.59199 5.39152 7.5574 5.50597 7.48251L5.39647 7.31515C5.32108 7.36448 5.22454 7.39199 5.10142 7.39199V7.59199ZM5.50669 7.48203C5.62076 7.40598 5.70411 7.29668 5.75858 7.15984L5.57276 7.08587C5.53114 7.19043 5.47152 7.26511 5.39575 7.31562L5.50669 7.48203ZM5.75827 7.16061C5.81365 7.02481 5.8395 6.86535 5.8395 6.68516H5.6395C5.6395 6.84715 5.61614 6.97949 5.57308 7.08509L5.75827 7.16061ZM5.8395 6.68516V6.56035H5.6395V6.68516H5.8395ZM5.8395 6.56035C5.8395 6.42225 5.82474 6.29734 5.79355 6.18689L5.60108 6.24124C5.62614 6.33001 5.6395 6.43596 5.6395 6.56035H5.8395ZM5.79384 6.18794C5.764 6.07766 5.71817 5.98099 5.65438 5.90056L5.49768 6.02483C5.5417 6.08034 5.57672 6.15125 5.60079 6.24018L5.79384 6.18794ZM5.65438 5.90056C5.59038 5.81987 5.51097 5.75862 5.41711 5.71799L5.33767 5.90154C5.40085 5.92888 5.45386 5.96959 5.49768 6.02483L5.65438 5.90056ZM5.41826 5.7185C5.32473 5.67662 5.22016 5.65703 5.10669 5.65703V5.85703C5.19713 5.85703 5.27302 5.8726 5.33653 5.90103L5.41826 5.7185ZM5.10669 5.65703H4.53364V5.85703H5.10669V5.65703ZM4.63364 5.75703V5.34395H4.43364V5.75703H4.63364ZM4.53364 5.44395H5.10669V5.24395H4.53364V5.44395ZM5.10669 5.44395C5.26619 5.44395 5.40947 5.47121 5.53784 5.52426L5.61422 5.33942C5.45899 5.27527 5.28938 5.24395 5.10669 5.24395V5.44395ZM5.53876 5.52463C5.66905 5.57696 5.78079 5.65178 5.87505 5.74922L6.0188 5.61016C5.90446 5.49197 5.76894 5.40155 5.6133 5.33904L5.53876 5.52463ZM5.87505 5.74922C5.96917 5.84651 6.04235 5.96348 6.09411 6.10152L6.28138 6.03129C6.22064 5.86934 6.13327 5.72849 6.0188 5.61016L5.87505 5.74922ZM6.09445 6.1024C6.14684 6.2382 6.17388 6.39159 6.17388 6.56387H6.37388C6.37388 6.37052 6.34349 6.19227 6.28104 6.03041L6.09445 6.1024ZM6.17388 6.56387V6.68516H6.37388V6.56387H6.17388ZM6.17388 6.68516C6.17388 6.85616 6.14687 7.00967 6.09435 7.14687L6.28113 7.21837C6.34346 7.05556 6.37388 6.87743 6.37388 6.68516H6.17388ZM6.09411 7.1475C6.04235 7.28555 5.96917 7.40251 5.87505 7.49981L6.0188 7.63886C6.13327 7.52054 6.22064 7.37969 6.28138 7.21773L6.09411 7.1475ZM5.87504 7.49982C5.78206 7.59597 5.67026 7.67094 5.53837 7.72455L5.61368 7.90983C5.77008 7.84625 5.90554 7.75599 6.01881 7.63885L5.87504 7.49982ZM5.53876 7.72439C5.40903 7.77649 5.26368 7.80332 5.10142 7.80332V8.00332C5.28602 8.00332 5.45708 7.97273 5.6133 7.90998L5.53876 7.72439ZM4.74302 5.34395V7.90332H4.94302V5.34395H4.74302ZM4.84302 7.80332H4.31567V8.00332H4.84302V7.80332ZM4.41567 7.90332V5.34395H4.21567V7.90332H4.41567ZM4.31567 5.44395H4.84302V5.24395H4.31567V5.44395ZM8.37446 7.49199H8.47446V7.39199H8.37446V7.49199ZM8.37446 7.90332V8.00332H8.47446V7.90332H8.37446ZM7.01216 7.90332H6.91216V8.00332H7.01216V7.90332ZM7.01216 7.49199V7.39199H6.91216V7.49199H7.01216ZM7.18442 5.34395H7.28442V5.24395H7.18442V5.34395ZM7.18442 7.90332V8.00332H7.28442V7.90332H7.18442ZM6.65708 7.90332H6.55708V8.00332H6.65708V7.90332ZM6.65708 5.34395V5.24395H6.55708V5.34395H6.65708ZM8.19692 6.38633H8.29692V6.28633H8.19692V6.38633ZM8.19692 6.78711V6.88711H8.29692V6.78711H8.19692ZM7.01216 6.78711H6.91216V6.88711H7.01216V6.78711ZM7.01216 6.38633V6.28633H6.91216V6.38633H7.01216ZM8.3727 5.34395H8.4727V5.24395H8.3727V5.34395ZM8.3727 5.75703V5.85703H8.4727V5.75703H8.3727ZM7.01216 5.75703H6.91216V5.85703H7.01216V5.75703ZM7.01216 5.34395V5.24395H6.91216V5.34395H7.01216ZM8.27446 7.49199V7.90332H8.47446V7.49199H8.27446ZM8.37446 7.80332H7.01216V8.00332H8.37446V7.80332ZM7.11216 7.90332V7.49199H6.91216V7.90332H7.11216ZM7.01216 7.59199H8.37446V7.39199H7.01216V7.59199ZM7.08442 5.34395V7.90332H7.28442V5.34395H7.08442ZM7.18442 7.80332H6.65708V8.00332H7.18442V7.80332ZM6.75708 7.90332V5.34395H6.55708V7.90332H6.75708ZM6.65708 5.44395H7.18442V5.24395H6.65708V5.44395ZM8.09692 6.38633V6.78711H8.29692V6.38633H8.09692ZM8.19692 6.68711H7.01216V6.88711H8.19692V6.68711ZM7.11216 6.78711V6.38633H6.91216V6.78711H7.11216ZM7.01216 6.48633H8.19692V6.28633H7.01216V6.48633ZM8.27271 5.34395V5.75703H8.4727V5.34395H8.27271ZM8.3727 5.65703H7.01216V5.85703H8.3727V5.65703ZM7.11216 5.75703V5.34395H6.91216V5.75703H7.11216ZM7.01216 5.44395H8.3727V5.24395H7.01216V5.44395ZM9.7227 5.78164L9.81772 5.81281L9.82087 5.80323L9.82203 5.79321L9.7227 5.78164ZM9.02661 7.90332V8.00332H9.09905L9.12163 7.93449L9.02661 7.90332ZM8.46587 7.90332L8.37213 7.86849L8.32203 8.00332H8.46587V7.90332ZM9.41685 5.34395V5.24395H9.34732L9.32311 5.30912L9.41685 5.34395ZM9.77368 5.34395L9.87301 5.35551L9.886 5.24395H9.77368V5.34395ZM10.301 7.90332L10.206 7.93457L10.2286 8.00332H10.301V7.90332ZM9.60317 5.78164L9.50399 5.79439L9.5052 5.80384L9.50818 5.81289L9.60317 5.78164ZM9.54692 5.34395V5.24395H9.43325L9.44774 5.35669L9.54692 5.34395ZM9.90728 5.34395L10.001 5.30895L9.97666 5.24395H9.90728V5.34395ZM10.8635 7.90332V8.00332H11.0076L10.9572 7.86832L10.8635 7.90332ZM10.2694 6.95059H10.3694V6.85059H10.2694V6.95059ZM10.2694 7.36367V7.46367H10.3694V7.36367H10.2694ZM8.91763 7.36367H8.81763V7.46367H8.91763V7.36367ZM8.91763 6.95059V6.85059H8.81763V6.95059H8.91763ZM9.62769 5.75047L8.93159 7.87215L9.12163 7.93449L9.81772 5.81281L9.62769 5.75047ZM9.02661 7.80332H8.46587V8.00332H9.02661V7.80332ZM8.55961 7.93815L9.51058 5.37878L9.32311 5.30912L8.37213 7.86849L8.55961 7.93815ZM9.41685 5.44395H9.77368V5.24395H9.41685V5.44395ZM9.67435 5.33238L9.62338 5.77007L9.82203 5.79321L9.87301 5.35551L9.67435 5.33238ZM10.396 7.87208L9.69817 5.7504L9.50818 5.81289L10.206 7.93457L10.396 7.87208ZM9.70236 5.76889L9.64611 5.3312L9.44774 5.35669L9.50399 5.79439L9.70236 5.76889ZM9.54692 5.44395H9.90728V5.24395H9.54692V5.44395ZM9.8136 5.37894L10.7698 7.93832L10.9572 7.86832L10.001 5.30895L9.8136 5.37894ZM10.8635 7.80332H10.301V8.00332H10.8635V7.80332ZM10.1694 6.95059V7.36367H10.3694V6.95059H10.1694ZM10.2694 7.26367H8.91763V7.46367H10.2694V7.26367ZM9.01763 7.36367V6.95059H8.81763V7.36367H9.01763ZM8.91763 7.05059H10.2694V6.85059H8.91763V7.05059Z" fill="#7C29E5"/>
<path d="M11.4227 2.76833C10.8485 2.19022 10.194 1.72929 9.45931 1.38605C8.68675 1.02509 7.87551 0.844531 7.02684 0.844531C6.17913 0.844531 5.38717 1.00285 4.65226 1.3195C3.91844 1.63569 3.2757 2.06634 2.72482 2.61068C2.17385 3.15511 1.73704 3.79478 1.41434 4.52852C1.09119 5.26332 0.929736 6.04887 0.929736 6.88427C0.929736 7.71968 1.09119 8.51114 1.41422 9.25856C1.73685 10.0051 2.17065 10.6475 2.71539 11.1861C3.25992 11.7245 3.90264 12.1547 4.64265 12.4772C5.38397 12.8003 6.179 12.9617 7.02684 12.9617C8.62185 12.9617 9.9969 12.4201 11.149 11.3377C12.3012 10.2552 12.9283 8.90884 13.0297 7.3018L13.033 7.24865H12.9798H12.4146H12.3688L12.3648 7.29425C12.2404 8.70132 11.6712 9.88602 10.6565 10.8506C9.64211 11.8148 8.43336 12.2966 7.02684 12.2966C5.50758 12.2966 4.22396 11.7679 3.17218 10.7103C2.12033 9.65265 1.59489 8.36575 1.59489 6.8466C1.59489 5.36551 2.12004 4.10693 3.17186 3.06795C4.22358 2.02907 5.5073 1.5096 7.02684 1.5096C7.77304 1.5096 8.48813 1.66809 9.17222 1.98527C9.82155 2.28633 10.3982 2.69074 10.9022 3.19899H9.21209H9.16209V3.24899V3.81406V3.86406H9.21209H12.0378H12.0878V3.81406V0.98871V0.93871H12.0378H11.4727H11.4227V0.98871V2.76833Z" fill="#7C29E5" stroke="#7C29E5" stroke-width="0.1"/>
</svg>
