<svg width="15" height="15" viewBox="0 0 15 15" fill="none" xmlns="http://www.w3.org/2000/svg">
<path d="M13.5385 7.23857H6.09806C6.04409 7.23857 5.99234 7.26001 5.95418 7.29816C5.91602 7.33632 5.89458 7.38807 5.89458 7.44203V10.047C5.89458 10.101 5.91602 10.1528 5.95418 10.1909C5.99234 10.2291 6.04409 10.2505 6.09806 10.2505H13.5385C13.5925 10.2505 13.6442 10.2291 13.6824 10.1909C13.7206 10.1528 13.742 10.101 13.742 10.047V7.44203C13.742 7.38807 13.7206 7.33632 13.6824 7.29816C13.6442 7.26001 13.5925 7.23857 13.5385 7.23857ZM13.335 9.84359H6.30153V7.64548H13.335V9.84359Z" fill="#7C29E5" stroke="#7C29E5" stroke-width="0.1"/>
<mask id="path-2-outside-1_481_2002" maskUnits="userSpaceOnUse" x="0.0686035" y="-0.862305" width="15" height="16" fill="black">
<rect fill="white" x="0.0686035" y="-0.862305" width="15" height="16"/>
<path d="M9.01036 0.157946C8.9855 0.144901 8.95751 0.138999 8.92949 0.140895C8.90148 0.142792 8.87454 0.152411 8.85166 0.168687L7.65395 1.009L6.45592 0.165618C6.43001 0.147474 6.39915 0.137742 6.36752 0.137742C6.33589 0.137742 6.30502 0.147474 6.27912 0.165618L5.0814 1.009L3.87723 0.165618C3.85139 0.147458 3.82057 0.137713 3.78898 0.137713C3.7574 0.137713 3.72658 0.147458 3.70074 0.165618L2.50332 1.00869L1.31144 0.165925C1.28847 0.149659 1.26147 0.140021 1.23339 0.138066C1.20531 0.136111 1.17723 0.141915 1.15223 0.154841C1.12723 0.167768 1.10627 0.187321 1.09163 0.21136C1.077 0.2354 1.06926 0.263 1.06925 0.291143L1.0686 3.43364C1.0686 3.82003 1.2184 4.17819 1.48698 4.43968C1.61883 4.57333 1.77598 4.67939 1.94925 4.75169C2.12253 4.82398 2.30847 4.86106 2.49623 4.86075H6.16735V5.03876H5.78059C5.50515 5.03957 5.24127 5.14955 5.04679 5.34457C4.85231 5.5396 4.7431 5.80377 4.7431 6.07917L4.74278 13.7204C4.7431 13.9954 4.85251 14.2591 5.04701 14.4535C5.24151 14.648 5.50521 14.7574 5.78027 14.7577H13.8531C14.1281 14.7574 14.3918 14.648 14.5863 14.4535C14.7808 14.2591 14.8902 13.9954 14.8905 13.7204L14.8909 6.07917C14.8909 5.80377 14.7817 5.5396 14.5872 5.34457C14.3927 5.14955 14.1288 5.03957 13.8534 5.03876H13.2456L13.2463 3.71315C13.2455 3.35228 13.1015 3.00647 12.846 2.75158C12.5905 2.4967 12.2443 2.35355 11.8834 2.35355H9.09323V0.294212C9.09324 0.266086 9.08551 0.2385 9.07089 0.214468C9.05628 0.190437 9.03533 0.170884 9.01036 0.157946ZM1.37586 3.43364L1.37651 0.587614L2.41462 1.32173C2.44042 1.34009 2.4713 1.34998 2.50297 1.35004C2.53464 1.35009 2.56555 1.34031 2.59142 1.32204L3.78945 0.478663L4.9933 1.32204C5.01915 1.3402 5.04996 1.34995 5.08155 1.34995C5.11314 1.34995 5.14396 1.3402 5.1698 1.32204L6.36752 0.478663L7.56524 1.32204C7.59108 1.3402 7.6219 1.34995 7.65349 1.34995C7.68507 1.34995 7.71589 1.3402 7.74173 1.32204L8.78628 0.589456V2.35355H5.08876C5.07833 2.35294 5.06758 2.35355 5.05715 2.35355H5.04794C5.00681 2.35355 4.96568 2.35355 4.92424 2.35693C4.19155 2.4177 3.61725 3.07018 3.61725 3.84174L3.67456 3.42236C3.67432 3.71939 3.49824 4.01545 3.28818 4.22548C3.07812 4.4355 2.79329 4.5536 2.49623 4.55385C2.34883 4.55409 2.20287 4.52492 2.06689 4.46806C1.93091 4.4112 1.80764 4.32778 1.7043 4.2227C1.5993 4.12008 1.51609 3.99733 1.45965 3.8618C1.40322 3.72627 1.37472 3.58044 1.37586 3.43364ZM3.37963 4.55385C3.4226 4.51978 3.46343 4.48326 3.50241 4.44459L3.51223 4.43354C3.5684 4.37646 3.61905 4.31415 3.66509 4.24848C3.67154 4.23927 3.6786 4.23068 3.68474 4.22116C3.73746 4.14135 3.78199 4.05642 3.81765 3.96766C3.84834 3.89277 3.8729 3.81543 3.89009 3.73471C3.89316 3.72213 4.10815 3.0669 4.11061 3.054C4.12657 2.96869 3.50659 4.35604 3.50659 4.26611L3.83862 3.82471C3.83862 3.21089 4.3748 2.71049 4.94941 2.66291C4.9801 2.66015 5.01172 2.65985 5.0418 2.66046C5.05868 2.66046 5.07618 2.66107 5.09398 2.66199C5.13402 2.66385 5.17396 2.66743 5.21369 2.67274C5.39643 2.69819 5.56934 2.77098 5.71525 2.88389C5.7573 2.91182 5.79506 2.94619 5.83956 2.991C6.00303 3.15038 6.11105 3.358 6.14774 3.58333C6.16155 3.64103 6.168 3.70363 6.168 3.78067L6.16735 4.55385H3.37963ZM13.8534 5.34567C14.0475 5.34632 14.2334 5.4239 14.3703 5.56141C14.5073 5.69891 14.5841 5.88512 14.5839 6.07917L14.5836 13.7204C14.5834 13.914 14.5064 14.0997 14.3694 14.2367C14.2325 14.3736 14.0468 14.4506 13.8531 14.4508H5.78027C5.58657 14.4506 5.40084 14.3736 5.26388 14.2367C5.12691 14.0997 5.04989 13.914 5.04973 13.7204L5.05005 6.07917C5.04989 5.88512 5.12671 5.69891 5.26366 5.56141C5.40061 5.4239 5.58651 5.34632 5.78059 5.34567H6.16735V6.35539H5.93438C5.89367 6.35539 5.85463 6.37156 5.82585 6.40033C5.79707 6.42911 5.7809 6.46814 5.7809 6.50884C5.7809 6.54954 5.79707 6.58857 5.82585 6.61735C5.85463 6.64613 5.89367 6.66229 5.93438 6.66229H13.5388C13.5795 6.66229 13.6185 6.64613 13.6473 6.61735C13.6761 6.58857 13.6922 6.54954 13.6922 6.50884C13.6922 6.46814 13.6761 6.42911 13.6473 6.40033C13.6185 6.37156 13.5795 6.35539 13.5388 6.35539H13.2456V5.34567H13.8534ZM12.9393 3.71315L12.9387 6.35539H6.4743L6.47495 3.78067C6.47495 3.67939 6.46574 3.59345 6.44825 3.52225C6.40059 3.23716 6.26304 2.97477 6.05566 2.7734C6.02178 2.73941 5.98612 2.70724 5.94884 2.67703C5.94239 2.67182 5.93687 2.66537 5.93042 2.66046H11.8834C12.163 2.6603 12.4312 2.77105 12.6291 2.96842C12.8271 3.16578 12.9387 3.43363 12.9393 3.71315Z"/>
</mask>
<path d="M9.01036 0.157946C8.9855 0.144901 8.95751 0.138999 8.92949 0.140895C8.90148 0.142792 8.87454 0.152411 8.85166 0.168687L7.65395 1.009L6.45592 0.165618C6.43001 0.147474 6.39915 0.137742 6.36752 0.137742C6.33589 0.137742 6.30502 0.147474 6.27912 0.165618L5.0814 1.009L3.87723 0.165618C3.85139 0.147458 3.82057 0.137713 3.78898 0.137713C3.7574 0.137713 3.72658 0.147458 3.70074 0.165618L2.50332 1.00869L1.31144 0.165925C1.28847 0.149659 1.26147 0.140021 1.23339 0.138066C1.20531 0.136111 1.17723 0.141915 1.15223 0.154841C1.12723 0.167768 1.10627 0.187321 1.09163 0.21136C1.077 0.2354 1.06926 0.263 1.06925 0.291143L1.0686 3.43364C1.0686 3.82003 1.2184 4.17819 1.48698 4.43968C1.61883 4.57333 1.77598 4.67939 1.94925 4.75169C2.12253 4.82398 2.30847 4.86106 2.49623 4.86075H6.16735V5.03876H5.78059C5.50515 5.03957 5.24127 5.14955 5.04679 5.34457C4.85231 5.5396 4.7431 5.80377 4.7431 6.07917L4.74278 13.7204C4.7431 13.9954 4.85251 14.2591 5.04701 14.4535C5.24151 14.648 5.50521 14.7574 5.78027 14.7577H13.8531C14.1281 14.7574 14.3918 14.648 14.5863 14.4535C14.7808 14.2591 14.8902 13.9954 14.8905 13.7204L14.8909 6.07917C14.8909 5.80377 14.7817 5.5396 14.5872 5.34457C14.3927 5.14955 14.1288 5.03957 13.8534 5.03876H13.2456L13.2463 3.71315C13.2455 3.35228 13.1015 3.00647 12.846 2.75158C12.5905 2.4967 12.2443 2.35355 11.8834 2.35355H9.09323V0.294212C9.09324 0.266086 9.08551 0.2385 9.07089 0.214468C9.05628 0.190437 9.03533 0.170884 9.01036 0.157946ZM1.37586 3.43364L1.37651 0.587614L2.41462 1.32173C2.44042 1.34009 2.4713 1.34998 2.50297 1.35004C2.53464 1.35009 2.56555 1.34031 2.59142 1.32204L3.78945 0.478663L4.9933 1.32204C5.01915 1.3402 5.04996 1.34995 5.08155 1.34995C5.11314 1.34995 5.14396 1.3402 5.1698 1.32204L6.36752 0.478663L7.56524 1.32204C7.59108 1.3402 7.6219 1.34995 7.65349 1.34995C7.68507 1.34995 7.71589 1.3402 7.74173 1.32204L8.78628 0.589456V2.35355H5.08876C5.07833 2.35294 5.06758 2.35355 5.05715 2.35355H5.04794C5.00681 2.35355 4.96568 2.35355 4.92424 2.35693C4.19155 2.4177 3.61725 3.07018 3.61725 3.84174L3.67456 3.42236C3.67432 3.71939 3.49824 4.01545 3.28818 4.22548C3.07812 4.4355 2.79329 4.5536 2.49623 4.55385C2.34883 4.55409 2.20287 4.52492 2.06689 4.46806C1.93091 4.4112 1.80764 4.32778 1.7043 4.2227C1.5993 4.12008 1.51609 3.99733 1.45965 3.8618C1.40322 3.72627 1.37472 3.58044 1.37586 3.43364ZM3.37963 4.55385C3.4226 4.51978 3.46343 4.48326 3.50241 4.44459L3.51223 4.43354C3.5684 4.37646 3.61905 4.31415 3.66509 4.24848C3.67154 4.23927 3.6786 4.23068 3.68474 4.22116C3.73746 4.14135 3.78199 4.05642 3.81765 3.96766C3.84834 3.89277 3.8729 3.81543 3.89009 3.73471C3.89316 3.72213 4.10815 3.0669 4.11061 3.054C4.12657 2.96869 3.50659 4.35604 3.50659 4.26611L3.83862 3.82471C3.83862 3.21089 4.3748 2.71049 4.94941 2.66291C4.9801 2.66015 5.01172 2.65985 5.0418 2.66046C5.05868 2.66046 5.07618 2.66107 5.09398 2.66199C5.13402 2.66385 5.17396 2.66743 5.21369 2.67274C5.39643 2.69819 5.56934 2.77098 5.71525 2.88389C5.7573 2.91182 5.79506 2.94619 5.83956 2.991C6.00303 3.15038 6.11105 3.358 6.14774 3.58333C6.16155 3.64103 6.168 3.70363 6.168 3.78067L6.16735 4.55385H3.37963ZM13.8534 5.34567C14.0475 5.34632 14.2334 5.4239 14.3703 5.56141C14.5073 5.69891 14.5841 5.88512 14.5839 6.07917L14.5836 13.7204C14.5834 13.914 14.5064 14.0997 14.3694 14.2367C14.2325 14.3736 14.0468 14.4506 13.8531 14.4508H5.78027C5.58657 14.4506 5.40084 14.3736 5.26388 14.2367C5.12691 14.0997 5.04989 13.914 5.04973 13.7204L5.05005 6.07917C5.04989 5.88512 5.12671 5.69891 5.26366 5.56141C5.40061 5.4239 5.58651 5.34632 5.78059 5.34567H6.16735V6.35539H5.93438C5.89367 6.35539 5.85463 6.37156 5.82585 6.40033C5.79707 6.42911 5.7809 6.46814 5.7809 6.50884C5.7809 6.54954 5.79707 6.58857 5.82585 6.61735C5.85463 6.64613 5.89367 6.66229 5.93438 6.66229H13.5388C13.5795 6.66229 13.6185 6.64613 13.6473 6.61735C13.6761 6.58857 13.6922 6.54954 13.6922 6.50884C13.6922 6.46814 13.6761 6.42911 13.6473 6.40033C13.6185 6.37156 13.5795 6.35539 13.5388 6.35539H13.2456V5.34567H13.8534ZM12.9393 3.71315L12.9387 6.35539H6.4743L6.47495 3.78067C6.47495 3.67939 6.46574 3.59345 6.44825 3.52225C6.40059 3.23716 6.26304 2.97477 6.05566 2.7734C6.02178 2.73941 5.98612 2.70724 5.94884 2.67703C5.94239 2.67182 5.93687 2.66537 5.93042 2.66046H11.8834C12.163 2.6603 12.4312 2.77105 12.6291 2.96842C12.8271 3.16578 12.9387 3.43363 12.9393 3.71315Z" fill="#7C29E5"/>
<path d="M9.01036 0.157946C8.9855 0.144901 8.95751 0.138999 8.92949 0.140895C8.90148 0.142792 8.87454 0.152411 8.85166 0.168687L7.65395 1.009L6.45592 0.165618C6.43001 0.147474 6.39915 0.137742 6.36752 0.137742C6.33589 0.137742 6.30502 0.147474 6.27912 0.165618L5.0814 1.009L3.87723 0.165618C3.85139 0.147458 3.82057 0.137713 3.78898 0.137713C3.7574 0.137713 3.72658 0.147458 3.70074 0.165618L2.50332 1.00869L1.31144 0.165925C1.28847 0.149659 1.26147 0.140021 1.23339 0.138066C1.20531 0.136111 1.17723 0.141915 1.15223 0.154841C1.12723 0.167768 1.10627 0.187321 1.09163 0.21136C1.077 0.2354 1.06926 0.263 1.06925 0.291143L1.0686 3.43364C1.0686 3.82003 1.2184 4.17819 1.48698 4.43968C1.61883 4.57333 1.77598 4.67939 1.94925 4.75169C2.12253 4.82398 2.30847 4.86106 2.49623 4.86075H6.16735V5.03876H5.78059C5.50515 5.03957 5.24127 5.14955 5.04679 5.34457C4.85231 5.5396 4.7431 5.80377 4.7431 6.07917L4.74278 13.7204C4.7431 13.9954 4.85251 14.2591 5.04701 14.4535C5.24151 14.648 5.50521 14.7574 5.78027 14.7577H13.8531C14.1281 14.7574 14.3918 14.648 14.5863 14.4535C14.7808 14.2591 14.8902 13.9954 14.8905 13.7204L14.8909 6.07917C14.8909 5.80377 14.7817 5.5396 14.5872 5.34457C14.3927 5.14955 14.1288 5.03957 13.8534 5.03876H13.2456L13.2463 3.71315C13.2455 3.35228 13.1015 3.00647 12.846 2.75158C12.5905 2.4967 12.2443 2.35355 11.8834 2.35355H9.09323V0.294212C9.09324 0.266086 9.08551 0.2385 9.07089 0.214468C9.05628 0.190437 9.03533 0.170884 9.01036 0.157946ZM1.37586 3.43364L1.37651 0.587614L2.41462 1.32173C2.44042 1.34009 2.4713 1.34998 2.50297 1.35004C2.53464 1.35009 2.56555 1.34031 2.59142 1.32204L3.78945 0.478663L4.9933 1.32204C5.01915 1.3402 5.04996 1.34995 5.08155 1.34995C5.11314 1.34995 5.14396 1.3402 5.1698 1.32204L6.36752 0.478663L7.56524 1.32204C7.59108 1.3402 7.6219 1.34995 7.65349 1.34995C7.68507 1.34995 7.71589 1.3402 7.74173 1.32204L8.78628 0.589456V2.35355H5.08876C5.07833 2.35294 5.06758 2.35355 5.05715 2.35355H5.04794C5.00681 2.35355 4.96568 2.35355 4.92424 2.35693C4.19155 2.4177 3.61725 3.07018 3.61725 3.84174L3.67456 3.42236C3.67432 3.71939 3.49824 4.01545 3.28818 4.22548C3.07812 4.4355 2.79329 4.5536 2.49623 4.55385C2.34883 4.55409 2.20287 4.52492 2.06689 4.46806C1.93091 4.4112 1.80764 4.32778 1.7043 4.2227C1.5993 4.12008 1.51609 3.99733 1.45965 3.8618C1.40322 3.72627 1.37472 3.58044 1.37586 3.43364ZM3.37963 4.55385C3.4226 4.51978 3.46343 4.48326 3.50241 4.44459L3.51223 4.43354C3.5684 4.37646 3.61905 4.31415 3.66509 4.24848C3.67154 4.23927 3.6786 4.23068 3.68474 4.22116C3.73746 4.14135 3.78199 4.05642 3.81765 3.96766C3.84834 3.89277 3.8729 3.81543 3.89009 3.73471C3.89316 3.72213 4.10815 3.0669 4.11061 3.054C4.12657 2.96869 3.50659 4.35604 3.50659 4.26611L3.83862 3.82471C3.83862 3.21089 4.3748 2.71049 4.94941 2.66291C4.9801 2.66015 5.01172 2.65985 5.0418 2.66046C5.05868 2.66046 5.07618 2.66107 5.09398 2.66199C5.13402 2.66385 5.17396 2.66743 5.21369 2.67274C5.39643 2.69819 5.56934 2.77098 5.71525 2.88389C5.7573 2.91182 5.79506 2.94619 5.83956 2.991C6.00303 3.15038 6.11105 3.358 6.14774 3.58333C6.16155 3.64103 6.168 3.70363 6.168 3.78067L6.16735 4.55385H3.37963ZM13.8534 5.34567C14.0475 5.34632 14.2334 5.4239 14.3703 5.56141C14.5073 5.69891 14.5841 5.88512 14.5839 6.07917L14.5836 13.7204C14.5834 13.914 14.5064 14.0997 14.3694 14.2367C14.2325 14.3736 14.0468 14.4506 13.8531 14.4508H5.78027C5.58657 14.4506 5.40084 14.3736 5.26388 14.2367C5.12691 14.0997 5.04989 13.914 5.04973 13.7204L5.05005 6.07917C5.04989 5.88512 5.12671 5.69891 5.26366 5.56141C5.40061 5.4239 5.58651 5.34632 5.78059 5.34567H6.16735V6.35539H5.93438C5.89367 6.35539 5.85463 6.37156 5.82585 6.40033C5.79707 6.42911 5.7809 6.46814 5.7809 6.50884C5.7809 6.54954 5.79707 6.58857 5.82585 6.61735C5.85463 6.64613 5.89367 6.66229 5.93438 6.66229H13.5388C13.5795 6.66229 13.6185 6.64613 13.6473 6.61735C13.6761 6.58857 13.6922 6.54954 13.6922 6.50884C13.6922 6.46814 13.6761 6.42911 13.6473 6.40033C13.6185 6.37156 13.5795 6.35539 13.5388 6.35539H13.2456V5.34567H13.8534ZM12.9393 3.71315L12.9387 6.35539H6.4743L6.47495 3.78067C6.47495 3.67939 6.46574 3.59345 6.44825 3.52225C6.40059 3.23716 6.26304 2.97477 6.05566 2.7734C6.02178 2.73941 5.98612 2.70724 5.94884 2.67703C5.94239 2.67182 5.93687 2.66537 5.93042 2.66046H11.8834C12.163 2.6603 12.4312 2.77105 12.6291 2.96842C12.8271 3.16578 12.9387 3.43363 12.9393 3.71315Z" stroke="#7C29E5" stroke-width="0.2" mask="url(#path-2-outside-1_481_2002)"/>
<mask id="path-3-outside-2_481_2002" maskUnits="userSpaceOnUse" x="5.06635" y="2.26465" width="9" height="13" fill="black">
<rect fill="white" x="5.06635" y="2.26465" width="9" height="13"/>
<path d="M10.7074 5.37923H7.74782C7.70711 5.37923 7.66808 5.3954 7.63929 5.42418C7.61051 5.45296 7.59434 5.49199 7.59434 5.53269C7.59434 5.57338 7.61051 5.61242 7.63929 5.64119C7.66808 5.66997 7.70711 5.68614 7.74782 5.68614H10.7074C10.7481 5.68614 10.7872 5.66997 10.816 5.64119C10.8447 5.61242 10.8609 5.57338 10.8609 5.53269C10.8609 5.49199 10.8447 5.45296 10.816 5.42418C10.7872 5.3954 10.7481 5.37923 10.7074 5.37923ZM11.6516 4.32225H7.74782C7.70711 4.32225 7.66808 4.33842 7.63929 4.36719C7.61051 4.39597 7.59434 4.435 7.59434 4.4757C7.59434 4.5164 7.61051 4.55543 7.63929 4.58421C7.66808 4.61299 7.70711 4.62915 7.74782 4.62915H11.6516C11.6923 4.62915 11.7313 4.61299 11.7601 4.58421C11.7889 4.55543 11.8051 4.5164 11.8051 4.4757C11.8051 4.435 11.7889 4.39597 11.7601 4.36719C11.7313 4.33842 11.6923 4.32225 11.6516 4.32225ZM8.69077 3.4181C8.69077 3.4588 8.70694 3.49783 8.73572 3.52661C8.7645 3.55539 8.80354 3.57155 8.84424 3.57155H11.6516C11.6923 3.57155 11.7313 3.55539 11.7601 3.52661C11.7889 3.49783 11.8051 3.4588 11.8051 3.4181C11.8051 3.3774 11.7889 3.33837 11.7601 3.30959C11.7313 3.28082 11.6923 3.26465 11.6516 3.26465H8.84424C8.80354 3.26465 8.7645 3.28082 8.73572 3.30959C8.70694 3.33837 8.69077 3.3774 8.69077 3.4181ZM12.171 9.20942C12.0697 9.20942 11.9868 9.13945 11.9868 9.05351H11.6798C11.6798 9.25761 11.8223 9.42948 12.0175 9.49055V9.61086H12.3244V9.49055C12.5197 9.42948 12.6621 9.25761 12.6621 9.05351C12.6621 8.79848 12.4417 8.5907 12.171 8.5907C12.0697 8.5907 11.9868 8.52073 11.9868 8.43479C11.9868 8.34886 12.0697 8.27888 12.171 8.27888C12.2723 8.27888 12.3551 8.34886 12.3551 8.43479H12.6621C12.6621 8.23039 12.5197 8.05852 12.3244 7.99745V7.87714H12.0175V7.99745C11.8223 8.05883 11.6798 8.2307 11.6798 8.43479C11.6798 8.68983 11.9002 8.89761 12.171 8.89761C12.2723 8.89761 12.3551 8.96727 12.3551 9.05351C12.3551 9.13976 12.2723 9.20942 12.171 9.20942ZM7.2966 12.4632H6.21982C6.17912 12.4632 6.14008 12.4794 6.1113 12.5082C6.08251 12.537 6.06635 12.576 6.06635 12.6167V13.6933C6.06635 13.734 6.08251 13.7731 6.1113 13.8018C6.14008 13.8306 6.17912 13.8468 6.21982 13.8468H7.2966C7.31676 13.8468 7.33671 13.8428 7.35533 13.8351C7.37395 13.8274 7.39087 13.8161 7.40512 13.8018C7.41937 13.7876 7.43068 13.7707 7.43839 13.752C7.44611 13.7334 7.45008 13.7135 7.45008 13.6933V12.6167C7.45008 12.576 7.43391 12.537 7.40512 12.5082C7.37634 12.4794 7.3373 12.4632 7.2966 12.4632ZM7.14313 13.5399H6.3733V12.7702H7.14313V13.5399ZM9.33567 12.4632H8.2592C8.21849 12.4632 8.17945 12.4794 8.15067 12.5082C8.12189 12.537 8.10572 12.576 8.10572 12.6167V13.6933C8.10572 13.734 8.12189 13.7731 8.15067 13.8018C8.17945 13.8306 8.21849 13.8468 8.2592 13.8468H9.33567C9.37637 13.8468 9.41541 13.8306 9.44419 13.8018C9.47298 13.7731 9.48914 13.734 9.48914 13.6933V12.6167C9.48914 12.576 9.47298 12.537 9.44419 12.5082C9.41541 12.4794 9.37637 12.4632 9.33567 12.4632ZM9.18219 13.5399H8.41267V12.7702H9.18219V13.5399ZM11.3754 12.4632H10.2986C10.2579 12.4632 10.2188 12.4794 10.19 12.5082C10.1613 12.537 10.1451 12.576 10.1451 12.6167V13.6933C10.1451 13.734 10.1613 13.7731 10.19 13.8018C10.2188 13.8306 10.2579 13.8468 10.2986 13.8468H11.3754C11.4161 13.8468 11.4551 13.8306 11.4839 13.8018C11.5127 13.7731 11.5288 13.734 11.5288 13.6933V12.6167C11.5288 12.576 11.5127 12.537 11.4839 12.5082C11.4551 12.4794 11.4161 12.4632 11.3754 12.4632ZM11.2219 13.5399H10.452V12.7702H11.2219V13.5399ZM13.4147 12.4632H12.3379C12.2972 12.4632 12.2582 12.4794 12.2294 12.5082C12.2006 12.537 12.1845 12.576 12.1845 12.6167V13.6933C12.1845 13.734 12.2006 13.7731 12.2294 13.8018C12.2582 13.8306 12.2972 13.8468 12.3379 13.8468H13.4147C13.4554 13.8468 13.4945 13.8306 13.5233 13.8018C13.552 13.7731 13.5682 13.734 13.5682 13.6933V12.6167C13.5682 12.576 13.552 12.537 13.5233 12.5082C13.4945 12.4794 13.4554 12.4632 13.4147 12.4632ZM13.2613 13.5399H12.4914V12.7702H13.2613V13.5399ZM7.2966 10.6537H6.21982C6.17912 10.6537 6.14008 10.6699 6.1113 10.6987C6.08251 10.7274 6.06635 10.7665 6.06635 10.8072V11.8838C6.06635 11.9245 6.08251 11.9635 6.1113 11.9923C6.14008 12.0211 6.17912 12.0373 6.21982 12.0373H7.2966C7.31676 12.0373 7.33671 12.0333 7.35533 12.0256C7.37395 12.0179 7.39087 12.0066 7.40512 11.9923C7.41937 11.9781 7.43068 11.9611 7.43839 11.9425C7.44611 11.9239 7.45008 11.904 7.45008 11.8838V10.8072C7.45008 10.7665 7.43391 10.7274 7.40512 10.6987C7.37634 10.6699 7.3373 10.6537 7.2966 10.6537ZM7.14313 11.7304H6.3733V10.9606H7.14313V11.7304ZM9.33567 10.6537H8.2592C8.21849 10.6537 8.17945 10.6699 8.15067 10.6987C8.12189 10.7274 8.10572 10.7665 8.10572 10.8072V11.8838C8.10572 11.9245 8.12189 11.9635 8.15067 11.9923C8.17945 12.0211 8.21849 12.0373 8.2592 12.0373H9.33567C9.37637 12.0373 9.41541 12.0211 9.44419 11.9923C9.47298 11.9635 9.48914 11.9245 9.48914 11.8838V10.8072C9.48914 10.7665 9.47298 10.7274 9.44419 10.6987C9.41541 10.6699 9.37637 10.6537 9.33567 10.6537ZM9.18219 11.7304H8.41267V10.9606H9.18219V11.7304ZM11.3754 10.6537H10.2986C10.2579 10.6537 10.2188 10.6699 10.19 10.6987C10.1613 10.7274 10.1451 10.7665 10.1451 10.8072V11.8838C10.1451 11.9245 10.1613 11.9635 10.19 11.9923C10.2188 12.0211 10.2579 12.0373 10.2986 12.0373H11.3754C11.4161 12.0373 11.4551 12.0211 11.4839 11.9923C11.5127 11.9635 11.5288 11.9245 11.5288 11.8838V10.8072C11.5288 10.7665 11.5127 10.7274 11.4839 10.6987C11.4551 10.6699 11.4161 10.6537 11.3754 10.6537ZM11.2219 11.7304H10.452V10.9606H11.2219V11.7304ZM13.4147 10.6537H12.3379C12.2972 10.6537 12.2582 10.6699 12.2294 10.6987C12.2006 10.7274 12.1845 10.7665 12.1845 10.8072V11.8838C12.1845 11.9245 12.2006 11.9635 12.2294 11.9923C12.2582 12.0211 12.2972 12.0373 12.3379 12.0373H13.4147C13.4554 12.0373 13.4945 12.0211 13.5233 11.9923C13.552 11.9635 13.5682 11.9245 13.5682 11.8838V10.8072C13.5682 10.7665 13.552 10.7274 13.5233 10.6987C13.4945 10.6699 13.4554 10.6537 13.4147 10.6537ZM13.2613 11.7304H12.4914V10.9606H13.2613V11.7304Z"/>
</mask>
<path d="M10.7074 5.37923H7.74782C7.70711 5.37923 7.66808 5.3954 7.63929 5.42418C7.61051 5.45296 7.59434 5.49199 7.59434 5.53269C7.59434 5.57338 7.61051 5.61242 7.63929 5.64119C7.66808 5.66997 7.70711 5.68614 7.74782 5.68614H10.7074C10.7481 5.68614 10.7872 5.66997 10.816 5.64119C10.8447 5.61242 10.8609 5.57338 10.8609 5.53269C10.8609 5.49199 10.8447 5.45296 10.816 5.42418C10.7872 5.3954 10.7481 5.37923 10.7074 5.37923ZM11.6516 4.32225H7.74782C7.70711 4.32225 7.66808 4.33842 7.63929 4.36719C7.61051 4.39597 7.59434 4.435 7.59434 4.4757C7.59434 4.5164 7.61051 4.55543 7.63929 4.58421C7.66808 4.61299 7.70711 4.62915 7.74782 4.62915H11.6516C11.6923 4.62915 11.7313 4.61299 11.7601 4.58421C11.7889 4.55543 11.8051 4.5164 11.8051 4.4757C11.8051 4.435 11.7889 4.39597 11.7601 4.36719C11.7313 4.33842 11.6923 4.32225 11.6516 4.32225ZM8.69077 3.4181C8.69077 3.4588 8.70694 3.49783 8.73572 3.52661C8.7645 3.55539 8.80354 3.57155 8.84424 3.57155H11.6516C11.6923 3.57155 11.7313 3.55539 11.7601 3.52661C11.7889 3.49783 11.8051 3.4588 11.8051 3.4181C11.8051 3.3774 11.7889 3.33837 11.7601 3.30959C11.7313 3.28082 11.6923 3.26465 11.6516 3.26465H8.84424C8.80354 3.26465 8.7645 3.28082 8.73572 3.30959C8.70694 3.33837 8.69077 3.3774 8.69077 3.4181ZM12.171 9.20942C12.0697 9.20942 11.9868 9.13945 11.9868 9.05351H11.6798C11.6798 9.25761 11.8223 9.42948 12.0175 9.49055V9.61086H12.3244V9.49055C12.5197 9.42948 12.6621 9.25761 12.6621 9.05351C12.6621 8.79848 12.4417 8.5907 12.171 8.5907C12.0697 8.5907 11.9868 8.52073 11.9868 8.43479C11.9868 8.34886 12.0697 8.27888 12.171 8.27888C12.2723 8.27888 12.3551 8.34886 12.3551 8.43479H12.6621C12.6621 8.23039 12.5197 8.05852 12.3244 7.99745V7.87714H12.0175V7.99745C11.8223 8.05883 11.6798 8.2307 11.6798 8.43479C11.6798 8.68983 11.9002 8.89761 12.171 8.89761C12.2723 8.89761 12.3551 8.96727 12.3551 9.05351C12.3551 9.13976 12.2723 9.20942 12.171 9.20942ZM7.2966 12.4632H6.21982C6.17912 12.4632 6.14008 12.4794 6.1113 12.5082C6.08251 12.537 6.06635 12.576 6.06635 12.6167V13.6933C6.06635 13.734 6.08251 13.7731 6.1113 13.8018C6.14008 13.8306 6.17912 13.8468 6.21982 13.8468H7.2966C7.31676 13.8468 7.33671 13.8428 7.35533 13.8351C7.37395 13.8274 7.39087 13.8161 7.40512 13.8018C7.41937 13.7876 7.43068 13.7707 7.43839 13.752C7.44611 13.7334 7.45008 13.7135 7.45008 13.6933V12.6167C7.45008 12.576 7.43391 12.537 7.40512 12.5082C7.37634 12.4794 7.3373 12.4632 7.2966 12.4632ZM7.14313 13.5399H6.3733V12.7702H7.14313V13.5399ZM9.33567 12.4632H8.2592C8.21849 12.4632 8.17945 12.4794 8.15067 12.5082C8.12189 12.537 8.10572 12.576 8.10572 12.6167V13.6933C8.10572 13.734 8.12189 13.7731 8.15067 13.8018C8.17945 13.8306 8.21849 13.8468 8.2592 13.8468H9.33567C9.37637 13.8468 9.41541 13.8306 9.44419 13.8018C9.47298 13.7731 9.48914 13.734 9.48914 13.6933V12.6167C9.48914 12.576 9.47298 12.537 9.44419 12.5082C9.41541 12.4794 9.37637 12.4632 9.33567 12.4632ZM9.18219 13.5399H8.41267V12.7702H9.18219V13.5399ZM11.3754 12.4632H10.2986C10.2579 12.4632 10.2188 12.4794 10.19 12.5082C10.1613 12.537 10.1451 12.576 10.1451 12.6167V13.6933C10.1451 13.734 10.1613 13.7731 10.19 13.8018C10.2188 13.8306 10.2579 13.8468 10.2986 13.8468H11.3754C11.4161 13.8468 11.4551 13.8306 11.4839 13.8018C11.5127 13.7731 11.5288 13.734 11.5288 13.6933V12.6167C11.5288 12.576 11.5127 12.537 11.4839 12.5082C11.4551 12.4794 11.4161 12.4632 11.3754 12.4632ZM11.2219 13.5399H10.452V12.7702H11.2219V13.5399ZM13.4147 12.4632H12.3379C12.2972 12.4632 12.2582 12.4794 12.2294 12.5082C12.2006 12.537 12.1845 12.576 12.1845 12.6167V13.6933C12.1845 13.734 12.2006 13.7731 12.2294 13.8018C12.2582 13.8306 12.2972 13.8468 12.3379 13.8468H13.4147C13.4554 13.8468 13.4945 13.8306 13.5233 13.8018C13.552 13.7731 13.5682 13.734 13.5682 13.6933V12.6167C13.5682 12.576 13.552 12.537 13.5233 12.5082C13.4945 12.4794 13.4554 12.4632 13.4147 12.4632ZM13.2613 13.5399H12.4914V12.7702H13.2613V13.5399ZM7.2966 10.6537H6.21982C6.17912 10.6537 6.14008 10.6699 6.1113 10.6987C6.08251 10.7274 6.06635 10.7665 6.06635 10.8072V11.8838C6.06635 11.9245 6.08251 11.9635 6.1113 11.9923C6.14008 12.0211 6.17912 12.0373 6.21982 12.0373H7.2966C7.31676 12.0373 7.33671 12.0333 7.35533 12.0256C7.37395 12.0179 7.39087 12.0066 7.40512 11.9923C7.41937 11.9781 7.43068 11.9611 7.43839 11.9425C7.44611 11.9239 7.45008 11.904 7.45008 11.8838V10.8072C7.45008 10.7665 7.43391 10.7274 7.40512 10.6987C7.37634 10.6699 7.3373 10.6537 7.2966 10.6537ZM7.14313 11.7304H6.3733V10.9606H7.14313V11.7304ZM9.33567 10.6537H8.2592C8.21849 10.6537 8.17945 10.6699 8.15067 10.6987C8.12189 10.7274 8.10572 10.7665 8.10572 10.8072V11.8838C8.10572 11.9245 8.12189 11.9635 8.15067 11.9923C8.17945 12.0211 8.21849 12.0373 8.2592 12.0373H9.33567C9.37637 12.0373 9.41541 12.0211 9.44419 11.9923C9.47298 11.9635 9.48914 11.9245 9.48914 11.8838V10.8072C9.48914 10.7665 9.47298 10.7274 9.44419 10.6987C9.41541 10.6699 9.37637 10.6537 9.33567 10.6537ZM9.18219 11.7304H8.41267V10.9606H9.18219V11.7304ZM11.3754 10.6537H10.2986C10.2579 10.6537 10.2188 10.6699 10.19 10.6987C10.1613 10.7274 10.1451 10.7665 10.1451 10.8072V11.8838C10.1451 11.9245 10.1613 11.9635 10.19 11.9923C10.2188 12.0211 10.2579 12.0373 10.2986 12.0373H11.3754C11.4161 12.0373 11.4551 12.0211 11.4839 11.9923C11.5127 11.9635 11.5288 11.9245 11.5288 11.8838V10.8072C11.5288 10.7665 11.5127 10.7274 11.4839 10.6987C11.4551 10.6699 11.4161 10.6537 11.3754 10.6537ZM11.2219 11.7304H10.452V10.9606H11.2219V11.7304ZM13.4147 10.6537H12.3379C12.2972 10.6537 12.2582 10.6699 12.2294 10.6987C12.2006 10.7274 12.1845 10.7665 12.1845 10.8072V11.8838C12.1845 11.9245 12.2006 11.9635 12.2294 11.9923C12.2582 12.0211 12.2972 12.0373 12.3379 12.0373H13.4147C13.4554 12.0373 13.4945 12.0211 13.5233 11.9923C13.552 11.9635 13.5682 11.9245 13.5682 11.8838V10.8072C13.5682 10.7665 13.552 10.7274 13.5233 10.6987C13.4945 10.6699 13.4554 10.6537 13.4147 10.6537ZM13.2613 11.7304H12.4914V10.9606H13.2613V11.7304Z" fill="#7C29E5"/>
<path d="M7.2966 14.2675H6.21982V14.2775H7.2966V14.2675ZM6.21982 14.2675C6.17779 14.2675 6.13748 14.2842 6.10776 14.3139L6.11483 14.3209C6.14268 14.2931 6.18044 14.2775 6.21982 14.2775V14.2675ZM6.10776 14.3139C6.07804 14.3436 6.06135 14.3839 6.06135 14.4259H6.07135C6.07135 14.3865 6.08699 14.3488 6.11483 14.3209L6.10776 14.3139ZM7.45508 14.4259C7.45508 14.3839 7.43838 14.3436 7.40866 14.3139L7.40159 14.3209C7.42943 14.3488 7.44508 14.3865 7.44508 14.4259H7.45508ZM7.40866 14.3139C7.37894 14.2842 7.33863 14.2675 7.2966 14.2675V14.2775C7.33598 14.2775 7.37374 14.2931 7.40159 14.3209L7.40866 14.3139ZM6.3733 14.5844H7.14313V14.5744H6.3733V14.5844ZM9.33567 14.2675H8.2592V14.2775H9.33567V14.2675ZM8.2592 14.2675C8.21717 14.2675 8.17686 14.2842 8.14714 14.3139L8.15421 14.3209C8.18205 14.2931 8.21982 14.2775 8.2592 14.2775V14.2675ZM8.14714 14.3139C8.11742 14.3436 8.10072 14.3839 8.10072 14.4259H8.11072C8.11072 14.3865 8.12636 14.3488 8.15421 14.3209L8.14714 14.3139ZM9.49414 14.4259C9.49414 14.3839 9.47745 14.3436 9.44773 14.3139L9.44066 14.3209C9.4685 14.3488 9.48414 14.3865 9.48414 14.4259H9.49414ZM9.44773 14.3139C9.41801 14.2842 9.3777 14.2675 9.33567 14.2675V14.2775C9.37505 14.2775 9.41281 14.2931 9.44066 14.3209L9.44773 14.3139ZM8.41267 14.5844H9.18219V14.5744H8.41267V14.5844ZM11.3754 14.2675H10.2986V14.2775H11.3754V14.2675ZM10.2986 14.2675C10.2565 14.2675 10.2162 14.2842 10.1865 14.3139L10.1936 14.3209C10.2214 14.2931 10.2592 14.2775 10.2986 14.2775V14.2675ZM10.1865 14.3139C10.1568 14.3436 10.1401 14.3839 10.1401 14.4259H10.1501C10.1501 14.3865 10.1657 14.3488 10.1936 14.3209L10.1865 14.3139ZM11.5338 14.4259C11.5338 14.3839 11.5171 14.3436 11.4874 14.3139L11.4803 14.3209C11.5082 14.3488 11.5238 14.3865 11.5238 14.4259H11.5338ZM11.4874 14.3139C11.4577 14.2842 11.4174 14.2675 11.3754 14.2675V14.2775C11.4147 14.2775 11.4525 14.2931 11.4803 14.3209L11.4874 14.3139ZM10.452 14.5844H11.2219V14.5744H10.452V14.5844ZM13.4147 14.2675H12.3379V14.2775H13.4147V14.2675ZM12.3379 14.2675C12.2959 14.2675 12.2556 14.2842 12.2259 14.3139L12.233 14.3209C12.2608 14.2931 12.2986 14.2775 12.3379 14.2775V14.2675ZM12.2259 14.3139C12.1962 14.3436 12.1795 14.3839 12.1795 14.4259H12.1895C12.1895 14.3865 12.2051 14.3488 12.233 14.3209L12.2259 14.3139ZM13.5732 14.4259C13.5732 14.3839 13.5565 14.3436 13.5268 14.3139L13.5197 14.3209C13.5476 14.3488 13.5632 14.3865 13.5632 14.4259H13.5732ZM13.5268 14.3139C13.4971 14.2842 13.4568 14.2675 13.4147 14.2675V14.2775C13.4541 14.2775 13.4919 14.2931 13.5197 14.3209L13.5268 14.3139ZM12.4914 14.5844H13.2613V14.5744H12.4914V14.5844ZM12.0175 9.49055H12.051L12.0205 9.48101L12.0175 9.49055ZM12.3244 9.49055L12.3144 9.45859V9.49055H12.3244ZM12.3244 7.99745H12.2909L12.3215 8.00699L12.3244 7.99745ZM12.0175 7.99745L12.0275 8.02925V7.99745H12.0175ZM10.7074 5.36923H7.74782V5.38923H10.7074V5.36923ZM7.74782 5.36923C7.70446 5.36923 7.66288 5.38645 7.63222 5.41711L7.64636 5.43125C7.67327 5.40435 7.70976 5.38923 7.74782 5.38923V5.36923ZM7.63222 5.41711C7.60157 5.44776 7.58434 5.48933 7.58434 5.53269H7.60434C7.60434 5.49464 7.61946 5.45815 7.64636 5.43125L7.63222 5.41711ZM7.58434 5.53269C7.58434 5.57604 7.60157 5.61761 7.63222 5.64827L7.64636 5.63412C7.61946 5.60722 7.60434 5.57073 7.60434 5.53269H7.58434ZM7.63222 5.64827C7.66288 5.67892 7.70446 5.69614 7.74782 5.69614V5.67614C7.70976 5.67614 7.67327 5.66103 7.64636 5.63412L7.63222 5.64827ZM7.74782 5.69614H10.7074V5.67614H7.74782V5.69614ZM10.7074 5.69614C10.7508 5.69614 10.7924 5.67892 10.823 5.64827L10.8089 5.63412C10.782 5.66103 10.7455 5.67614 10.7074 5.67614V5.69614ZM10.823 5.64827C10.8537 5.61761 10.8709 5.57604 10.8709 5.53269H10.8509C10.8509 5.57073 10.8358 5.60722 10.8089 5.63412L10.823 5.64827ZM10.8709 5.53269C10.8709 5.48933 10.8537 5.44776 10.823 5.41711L10.8089 5.43125C10.8358 5.45815 10.8509 5.49464 10.8509 5.53269H10.8709ZM10.823 5.41711C10.7924 5.38645 10.7508 5.36923 10.7074 5.36923V5.38923C10.7455 5.38923 10.782 5.40435 10.8089 5.43125L10.823 5.41711ZM11.6516 4.31225H7.74782V4.33225H11.6516V4.31225ZM7.74782 4.31225C7.70446 4.31225 7.66288 4.32947 7.63222 4.36012L7.64636 4.37426C7.67327 4.34736 7.70976 4.33225 7.74782 4.33225V4.31225ZM7.63222 4.36012C7.60157 4.39077 7.58434 4.43235 7.58434 4.4757H7.60434C7.60434 4.43766 7.61946 4.40117 7.64636 4.37426L7.63222 4.36012ZM7.58434 4.4757C7.58434 4.51905 7.60157 4.56063 7.63222 4.59128L7.64636 4.57714C7.61946 4.55023 7.60434 4.51375 7.60434 4.4757H7.58434ZM7.63222 4.59128C7.66288 4.62193 7.70446 4.63915 7.74782 4.63915V4.61915C7.70976 4.61915 7.67327 4.60404 7.64636 4.57714L7.63222 4.59128ZM7.74782 4.63915H11.6516V4.61915H7.74782V4.63915ZM11.6516 4.63915C11.695 4.63915 11.7365 4.62193 11.7672 4.59128L11.7531 4.57714C11.7262 4.60404 11.6897 4.61915 11.6516 4.61915V4.63915ZM11.7672 4.59128C11.7979 4.56063 11.8151 4.51905 11.8151 4.4757H11.7951C11.7951 4.51375 11.78 4.55023 11.7531 4.57714L11.7672 4.59128ZM11.8151 4.4757C11.8151 4.43235 11.7979 4.39077 11.7672 4.36012L11.7531 4.37426C11.78 4.40117 11.7951 4.43766 11.7951 4.4757H11.8151ZM11.7672 4.36012C11.7365 4.32947 11.695 4.31225 11.6516 4.31225V4.33225C11.6897 4.33225 11.7262 4.34736 11.7531 4.37426L11.7672 4.36012ZM8.68077 3.4181C8.68077 3.46145 8.69799 3.50303 8.72865 3.53368L8.74279 3.51954C8.71588 3.49264 8.70077 3.45615 8.70077 3.4181H8.68077ZM8.72865 3.53368C8.75931 3.56433 8.80089 3.58155 8.84424 3.58155V3.56155C8.80619 3.56155 8.7697 3.54644 8.74279 3.51954L8.72865 3.53368ZM8.84424 3.58155H11.6516V3.56155H8.84424V3.58155ZM11.6516 3.58155C11.695 3.58155 11.7365 3.56433 11.7672 3.53368L11.7531 3.51954C11.7262 3.54644 11.6897 3.56155 11.6516 3.56155V3.58155ZM11.7672 3.53368C11.7979 3.50303 11.8151 3.46145 11.8151 3.4181H11.7951C11.7951 3.45615 11.78 3.49264 11.7531 3.51954L11.7672 3.53368ZM11.8151 3.4181C11.8151 3.37475 11.7979 3.33318 11.7672 3.30252L11.7531 3.31667C11.78 3.34357 11.7951 3.38006 11.7951 3.4181H11.8151ZM11.7672 3.30252C11.7365 3.27187 11.695 3.25465 11.6516 3.25465V3.27465C11.6897 3.27465 11.7262 3.28976 11.7531 3.31667L11.7672 3.30252ZM11.6516 3.25465H8.84424V3.27465H11.6516V3.25465ZM8.84424 3.25465C8.80089 3.25465 8.75931 3.27187 8.72865 3.30252L8.74279 3.31667C8.7697 3.28976 8.80619 3.27465 8.84424 3.27465V3.25465ZM8.72865 3.30252C8.69799 3.33318 8.68077 3.37475 8.68077 3.4181H8.70077C8.70077 3.38006 8.71588 3.34357 8.74279 3.31667L8.72865 3.30252ZM12.171 9.19942C12.0736 9.19942 11.9968 9.13242 11.9968 9.05351H11.9768C11.9768 9.14648 12.0658 9.21942 12.171 9.21942V9.19942ZM11.9868 9.04351H11.6798V9.06352H11.9868V9.04351ZM11.6698 9.05351C11.6698 9.26253 11.8157 9.43788 12.0145 9.50009L12.0205 9.48101C11.8289 9.42107 11.6898 9.25269 11.6898 9.05351H11.6698ZM12.0075 9.49055V9.61086H12.0275V9.49055H12.0075ZM12.0175 9.62086H12.3244V9.60086H12.0175V9.62086ZM12.3344 9.61086V9.49055H12.3144V9.61086H12.3344ZM12.3274 9.50009C12.5263 9.43788 12.6721 9.26253 12.6721 9.05351H12.6521C12.6521 9.25269 12.513 9.42107 12.3215 9.48101L12.3274 9.50009ZM12.6721 9.05351C12.6721 8.7924 12.4467 8.5807 12.171 8.5807V8.6007C12.4367 8.6007 12.6521 8.80455 12.6521 9.05351H12.6721ZM12.171 8.5807C12.0736 8.5807 11.9968 8.5137 11.9968 8.43479H11.9768C11.9768 8.52775 12.0658 8.6007 12.171 8.6007V8.5807ZM11.9968 8.43479C11.9968 8.35589 12.0736 8.28888 12.171 8.28888V8.26888C12.0658 8.26888 11.9768 8.34183 11.9768 8.43479H11.9968ZM12.171 8.28888C12.2684 8.28888 12.3451 8.35589 12.3451 8.43479H12.3651C12.3651 8.34183 12.2761 8.26888 12.171 8.26888V8.28888ZM12.3551 8.44479H12.6621V8.42479H12.3551V8.44479ZM12.6721 8.43479C12.6721 8.22548 12.5263 8.05012 12.3274 7.98791L12.3215 8.00699C12.513 8.06693 12.6521 8.23531 12.6521 8.43479H12.6721ZM12.3344 7.99745V7.87714H12.3144V7.99745H12.3344ZM12.3244 7.86714H12.0175V7.88714H12.3244V7.86714ZM12.0075 7.87714V7.99745H12.0275V7.87714H12.0075ZM12.0145 7.98791C11.8157 8.05043 11.6698 8.22578 11.6698 8.43479H11.6898C11.6898 8.23562 11.8289 8.06724 12.0205 8.00699L12.0145 7.98791ZM11.6698 8.43479C11.6698 8.6959 11.8953 8.90761 12.171 8.90761V8.88761C11.9052 8.88761 11.6898 8.68376 11.6898 8.43479H11.6698ZM12.171 8.90761C12.2684 8.90761 12.3451 8.97431 12.3451 9.05351H12.3651C12.3651 8.96024 12.2761 8.88761 12.171 8.88761V8.90761ZM12.3451 9.05351C12.3451 9.13272 12.2684 9.19942 12.171 9.19942V9.21942C12.2761 9.21942 12.3651 9.14679 12.3651 9.05351H12.3451ZM7.2966 12.4532H6.21982V12.4732H7.2966V12.4532ZM6.21982 12.4532C6.17646 12.4532 6.13488 12.4705 6.10423 12.5011L6.11837 12.5153C6.14527 12.4884 6.18177 12.4732 6.21982 12.4732V12.4532ZM6.10423 12.5011C6.07357 12.5318 6.05635 12.5733 6.05635 12.6167H6.07635C6.07635 12.5787 6.09146 12.5422 6.11837 12.5153L6.10423 12.5011ZM6.05635 12.6167V13.6933H6.07635V12.6167H6.05635ZM6.05635 13.6933C6.05635 13.7367 6.07357 13.7783 6.10423 13.8089L6.11837 13.7948C6.09146 13.7679 6.07635 13.7314 6.07635 13.6933H6.05635ZM6.10423 13.8089C6.13488 13.8396 6.17646 13.8568 6.21982 13.8568V13.8368C6.18177 13.8368 6.14527 13.8217 6.11837 13.7948L6.10423 13.8089ZM6.21982 13.8568H7.2966V13.8368H6.21982V13.8568ZM7.2966 13.8568C7.31807 13.8568 7.33933 13.8526 7.35916 13.8443L7.35151 13.8259C7.3341 13.8331 7.31544 13.8368 7.2966 13.8368V13.8568ZM7.35916 13.8443C7.37899 13.8361 7.39701 13.8241 7.41219 13.8089L7.39805 13.7948C7.38473 13.8081 7.36891 13.8186 7.35151 13.8259L7.35916 13.8443ZM7.41219 13.8089C7.42737 13.7937 7.43942 13.7757 7.44763 13.7559L7.42915 13.7482C7.42194 13.7656 7.41138 13.7814 7.39805 13.7948L7.41219 13.8089ZM7.44763 13.7559C7.45585 13.736 7.46008 13.7148 7.46008 13.6933H7.44008C7.44008 13.7122 7.43636 13.7308 7.42915 13.7482L7.44763 13.7559ZM7.46008 13.6933V12.6167H7.44008V13.6933H7.46008ZM7.46008 12.6167C7.46008 12.5733 7.44285 12.5318 7.41219 12.5011L7.39805 12.5153C7.42496 12.5422 7.44008 12.5787 7.44008 12.6167H7.46008ZM7.41219 12.5011C7.38154 12.4705 7.33996 12.4532 7.2966 12.4532V12.4732C7.33465 12.4732 7.37115 12.4884 7.39805 12.5153L7.41219 12.5011ZM7.14313 13.5299H6.3733V13.5499H7.14313V13.5299ZM6.3833 13.5399V12.7702H6.3633V13.5399H6.3833ZM6.3733 12.7802H7.14313V12.7601H6.3733V12.7802ZM7.13313 12.7702V13.5399H7.15313V12.7702H7.13313ZM9.33567 12.4532H8.2592V12.4732H9.33567V12.4532ZM8.2592 12.4532C8.21584 12.4532 8.17426 12.4705 8.1436 12.5011L8.15774 12.5153C8.18465 12.4884 8.22114 12.4732 8.2592 12.4732V12.4532ZM8.1436 12.5011C8.11294 12.5318 8.09572 12.5733 8.09572 12.6167H8.11572C8.11572 12.5787 8.13084 12.5422 8.15774 12.5153L8.1436 12.5011ZM8.09572 12.6167V13.6933H8.11572V12.6167H8.09572ZM8.09572 13.6933C8.09572 13.7367 8.11294 13.7783 8.1436 13.8089L8.15774 13.7948C8.13084 13.7679 8.11572 13.7314 8.11572 13.6933H8.09572ZM8.1436 13.8089C8.17426 13.8396 8.21584 13.8568 8.2592 13.8568V13.8368C8.22114 13.8368 8.18465 13.8217 8.15774 13.7948L8.1436 13.8089ZM8.2592 13.8568H9.33567V13.8368H8.2592V13.8568ZM9.33567 13.8568C9.37903 13.8568 9.42061 13.8396 9.45126 13.8089L9.43712 13.7948C9.41022 13.8217 9.37372 13.8368 9.33567 13.8368V13.8568ZM9.45126 13.8089C9.48192 13.7783 9.49914 13.7367 9.49914 13.6933H9.47914C9.47914 13.7314 9.46403 13.7679 9.43712 13.7948L9.45126 13.8089ZM9.49914 13.6933V12.6167H9.47914V13.6933H9.49914ZM9.49914 12.6167C9.49914 12.5733 9.48192 12.5318 9.45126 12.5011L9.43712 12.5153C9.46403 12.5422 9.47914 12.5787 9.47914 12.6167H9.49914ZM9.45126 12.5011C9.42061 12.4705 9.37903 12.4532 9.33567 12.4532V12.4732C9.37372 12.4732 9.41022 12.4884 9.43712 12.5153L9.45126 12.5011ZM9.18219 13.5299H8.41267V13.5499H9.18219V13.5299ZM8.42267 13.5399V12.7702H8.40267V13.5399H8.42267ZM8.41267 12.7802H9.18219V12.7601H8.41267V12.7802ZM9.17219 12.7702V13.5399H9.19219V12.7702H9.17219ZM11.3754 12.4532H10.2986V12.4732H11.3754V12.4532ZM10.2986 12.4532C10.2552 12.4532 10.2136 12.4705 10.183 12.5011L10.1971 12.5153C10.224 12.4884 10.2605 12.4732 10.2986 12.4732V12.4532ZM10.183 12.5011C10.1523 12.5318 10.1351 12.5733 10.1351 12.6167H10.1551C10.1551 12.5787 10.1702 12.5422 10.1971 12.5153L10.183 12.5011ZM10.1351 12.6167V13.6933H10.1551V12.6167H10.1351ZM10.1351 13.6933C10.1351 13.7367 10.1523 13.7783 10.183 13.8089L10.1971 13.7948C10.1702 13.7679 10.1551 13.7314 10.1551 13.6933H10.1351ZM10.183 13.8089C10.2136 13.8396 10.2552 13.8568 10.2986 13.8568V13.8368C10.2605 13.8368 10.224 13.8217 10.1971 13.7948L10.183 13.8089ZM10.2986 13.8568H11.3754V13.8368H10.2986V13.8568ZM11.3754 13.8568C11.4187 13.8568 11.4603 13.8396 11.4909 13.8089L11.4768 13.7948C11.4499 13.8217 11.4134 13.8368 11.3754 13.8368V13.8568ZM11.4909 13.8089C11.5216 13.7783 11.5388 13.7367 11.5388 13.6933H11.5188C11.5188 13.7314 11.5037 13.7679 11.4768 13.7948L11.4909 13.8089ZM11.5388 13.6933V12.6167H11.5188V13.6933H11.5388ZM11.5388 12.6167C11.5388 12.5733 11.5216 12.5318 11.4909 12.5011L11.4768 12.5153C11.5037 12.5422 11.5188 12.5787 11.5188 12.6167H11.5388ZM11.4909 12.5011C11.4603 12.4705 11.4187 12.4532 11.3754 12.4532V12.4732C11.4134 12.4732 11.4499 12.4884 11.4768 12.5153L11.4909 12.5011ZM11.2219 13.5299H10.452V13.5499H11.2219V13.5299ZM10.462 13.5399V12.7702H10.442V13.5399H10.462ZM10.452 12.7802H11.2219V12.7601H10.452V12.7802ZM11.2119 12.7702V13.5399H11.2319V12.7702H11.2119ZM13.4147 12.4532H12.3379V12.4732H13.4147V12.4532ZM12.3379 12.4532C12.2946 12.4532 12.253 12.4705 12.2224 12.5011L12.2365 12.5153C12.2634 12.4884 12.2999 12.4732 12.3379 12.4732V12.4532ZM12.2224 12.5011C12.1917 12.5318 12.1745 12.5733 12.1745 12.6167H12.1945C12.1945 12.5787 12.2096 12.5422 12.2365 12.5153L12.2224 12.5011ZM12.1745 12.6167V13.6933H12.1945V12.6167H12.1745ZM12.1745 13.6933C12.1745 13.7367 12.1917 13.7783 12.2224 13.8089L12.2365 13.7948C12.2096 13.7679 12.1945 13.7314 12.1945 13.6933H12.1745ZM12.2224 13.8089C12.253 13.8396 12.2946 13.8568 12.3379 13.8568V13.8368C12.2999 13.8368 12.2634 13.8217 12.2365 13.7948L12.2224 13.8089ZM12.3379 13.8568H13.4147V13.8368H12.3379V13.8568ZM13.4147 13.8568C13.4581 13.8568 13.4997 13.8396 13.5303 13.8089L13.5162 13.7948C13.4893 13.8217 13.4528 13.8368 13.4147 13.8368V13.8568ZM13.5303 13.8089C13.561 13.7783 13.5782 13.7367 13.5782 13.6933H13.5582C13.5582 13.7314 13.5431 13.7679 13.5162 13.7948L13.5303 13.8089ZM13.5782 13.6933V12.6167H13.5582V13.6933H13.5782ZM13.5782 12.6167C13.5782 12.5733 13.561 12.5318 13.5303 12.5011L13.5162 12.5153C13.5431 12.5422 13.5582 12.5787 13.5582 12.6167H13.5782ZM13.5303 12.5011C13.4997 12.4705 13.4581 12.4532 13.4147 12.4532V12.4732C13.4528 12.4732 13.4893 12.4884 13.5162 12.5153L13.5303 12.5011ZM13.2613 13.5299H12.4914V13.5499H13.2613V13.5299ZM12.5014 13.5399V12.7702H12.4814V13.5399H12.5014ZM12.4914 12.7802H13.2613V12.7601H12.4914V12.7802ZM13.2513 12.7702V13.5399H13.2713V12.7702H13.2513ZM7.2966 10.6437H6.21982V10.6637H7.2966V10.6437ZM6.21982 10.6437C6.17646 10.6437 6.13488 10.6609 6.10423 10.6916L6.11837 10.7057C6.14527 10.6788 6.18177 10.6637 6.21982 10.6637V10.6437ZM6.10423 10.6916C6.07357 10.7223 6.05635 10.7638 6.05635 10.8072H6.07635C6.07635 10.7691 6.09146 10.7326 6.11837 10.7057L6.10423 10.6916ZM6.05635 10.8072V11.8838H6.07635V10.8072H6.05635ZM6.05635 11.8838C6.05635 11.9272 6.07357 11.9687 6.10423 11.9994L6.11837 11.9852C6.09146 11.9583 6.07635 11.9219 6.07635 11.8838H6.05635ZM6.10423 11.9994C6.13488 12.03 6.17646 12.0473 6.21982 12.0473V12.0273C6.18177 12.0273 6.14527 12.0121 6.11837 11.9852L6.10423 11.9994ZM6.21982 12.0473H7.2966V12.0273H6.21982V12.0473ZM7.2966 12.0473C7.31807 12.0473 7.33933 12.043 7.35916 12.0348L7.35151 12.0163C7.3341 12.0235 7.31544 12.0273 7.2966 12.0273V12.0473ZM7.35916 12.0348C7.37899 12.0266 7.39701 12.0146 7.41219 11.9994L7.39805 11.9852C7.38473 11.9986 7.36891 12.0091 7.35151 12.0163L7.35916 12.0348ZM7.41219 11.9994C7.42737 11.9842 7.43942 11.9662 7.44763 11.9464L7.42915 11.9387C7.42194 11.9561 7.41138 11.9719 7.39805 11.9852L7.41219 11.9994ZM7.44763 11.9464C7.45585 11.9265 7.46008 11.9053 7.46008 11.8838H7.44008C7.44008 11.9026 7.43636 11.9213 7.42915 11.9387L7.44763 11.9464ZM7.46008 11.8838V10.8072H7.44008V11.8838H7.46008ZM7.46008 10.8072C7.46008 10.7638 7.44285 10.7223 7.41219 10.6916L7.39805 10.7057C7.42496 10.7326 7.44008 10.7691 7.44008 10.8072H7.46008ZM7.41219 10.6916C7.38154 10.6609 7.33996 10.6437 7.2966 10.6437V10.6637C7.33465 10.6637 7.37115 10.6788 7.39805 10.7057L7.41219 10.6916ZM7.14313 11.7204H6.3733V11.7404H7.14313V11.7204ZM6.3833 11.7304V10.9606H6.3633V11.7304H6.3833ZM6.3733 10.9706H7.14313V10.9506H6.3733V10.9706ZM7.13313 10.9606V11.7304H7.15313V10.9606H7.13313ZM9.33567 10.6437H8.2592V10.6637H9.33567V10.6437ZM8.2592 10.6437C8.21584 10.6437 8.17426 10.6609 8.1436 10.6916L8.15774 10.7057C8.18465 10.6788 8.22114 10.6637 8.2592 10.6637V10.6437ZM8.1436 10.6916C8.11294 10.7223 8.09572 10.7638 8.09572 10.8072H8.11572C8.11572 10.7691 8.13084 10.7326 8.15774 10.7057L8.1436 10.6916ZM8.09572 10.8072V11.8838H8.11572V10.8072H8.09572ZM8.09572 11.8838C8.09572 11.9272 8.11294 11.9687 8.1436 11.9994L8.15774 11.9852C8.13084 11.9583 8.11572 11.9219 8.11572 11.8838H8.09572ZM8.1436 11.9994C8.17426 12.03 8.21584 12.0473 8.2592 12.0473V12.0273C8.22114 12.0273 8.18465 12.0121 8.15774 11.9852L8.1436 11.9994ZM8.2592 12.0473H9.33567V12.0273H8.2592V12.0473ZM9.33567 12.0473C9.37903 12.0473 9.42061 12.03 9.45126 11.9994L9.43712 11.9852C9.41022 12.0121 9.37372 12.0273 9.33567 12.0273V12.0473ZM9.45126 11.9994C9.48192 11.9687 9.49914 11.9272 9.49914 11.8838H9.47914C9.47914 11.9219 9.46403 11.9583 9.43712 11.9852L9.45126 11.9994ZM9.49914 11.8838V10.8072H9.47914V11.8838H9.49914ZM9.49914 10.8072C9.49914 10.7638 9.48192 10.7223 9.45126 10.6916L9.43712 10.7057C9.46403 10.7326 9.47914 10.7691 9.47914 10.8072H9.49914ZM9.45126 10.6916C9.42061 10.6609 9.37903 10.6437 9.33567 10.6437V10.6637C9.37372 10.6637 9.41022 10.6788 9.43712 10.7057L9.45126 10.6916ZM9.18219 11.7204H8.41267V11.7404H9.18219V11.7204ZM8.42267 11.7304V10.9606H8.40267V11.7304H8.42267ZM8.41267 10.9706H9.18219V10.9506H8.41267V10.9706ZM9.17219 10.9606V11.7304H9.19219V10.9606H9.17219ZM11.3754 10.6437H10.2986V10.6637H11.3754V10.6437ZM10.2986 10.6437C10.2552 10.6437 10.2136 10.6609 10.183 10.6916L10.1971 10.7057C10.224 10.6788 10.2605 10.6637 10.2986 10.6637V10.6437ZM10.183 10.6916C10.1523 10.7223 10.1351 10.7638 10.1351 10.8072H10.1551C10.1551 10.7691 10.1702 10.7326 10.1971 10.7057L10.183 10.6916ZM10.1351 10.8072V11.8838H10.1551V10.8072H10.1351ZM10.1351 11.8838C10.1351 11.9272 10.1523 11.9687 10.183 11.9994L10.1971 11.9852C10.1702 11.9583 10.1551 11.9219 10.1551 11.8838H10.1351ZM10.183 11.9994C10.2136 12.03 10.2552 12.0473 10.2986 12.0473V12.0273C10.2605 12.0273 10.224 12.0121 10.1971 11.9852L10.183 11.9994ZM10.2986 12.0473H11.3754V12.0273H10.2986V12.0473ZM11.3754 12.0473C11.4187 12.0473 11.4603 12.03 11.4909 11.9994L11.4768 11.9852C11.4499 12.0121 11.4134 12.0273 11.3754 12.0273V12.0473ZM11.4909 11.9994C11.5216 11.9687 11.5388 11.9272 11.5388 11.8838H11.5188C11.5188 11.9219 11.5037 11.9583 11.4768 11.9852L11.4909 11.9994ZM11.5388 11.8838V10.8072H11.5188V11.8838H11.5388ZM11.5388 10.8072C11.5388 10.7638 11.5216 10.7223 11.4909 10.6916L11.4768 10.7057C11.5037 10.7326 11.5188 10.7691 11.5188 10.8072H11.5388ZM11.4909 10.6916C11.4603 10.6609 11.4187 10.6437 11.3754 10.6437V10.6637C11.4134 10.6637 11.4499 10.6788 11.4768 10.7057L11.4909 10.6916ZM11.2219 11.7204H10.452V11.7404H11.2219V11.7204ZM10.462 11.7304V10.9606H10.442V11.7304H10.462ZM10.452 10.9706H11.2219V10.9506H10.452V10.9706ZM11.2119 10.9606V11.7304H11.2319V10.9606H11.2119ZM13.4147 10.6437H12.3379V10.6637H13.4147V10.6437ZM12.3379 10.6437C12.2946 10.6437 12.253 10.6609 12.2224 10.6916L12.2365 10.7057C12.2634 10.6788 12.2999 10.6637 12.3379 10.6637V10.6437ZM12.2224 10.6916C12.1917 10.7223 12.1745 10.7638 12.1745 10.8072H12.1945C12.1945 10.7691 12.2096 10.7326 12.2365 10.7057L12.2224 10.6916ZM12.1745 10.8072V11.8838H12.1945V10.8072H12.1745ZM12.1745 11.8838C12.1745 11.9272 12.1917 11.9687 12.2224 11.9994L12.2365 11.9852C12.2096 11.9583 12.1945 11.9219 12.1945 11.8838H12.1745ZM12.2224 11.9994C12.253 12.03 12.2946 12.0473 12.3379 12.0473V12.0273C12.2999 12.0273 12.2634 12.0121 12.2365 11.9852L12.2224 11.9994ZM12.3379 12.0473H13.4147V12.0273H12.3379V12.0473ZM13.4147 12.0473C13.4581 12.0473 13.4997 12.03 13.5303 11.9994L13.5162 11.9852C13.4893 12.0121 13.4528 12.0273 13.4147 12.0273V12.0473ZM13.5303 11.9994C13.561 11.9687 13.5782 11.9272 13.5782 11.8838H13.5582C13.5582 11.9219 13.5431 11.9583 13.5162 11.9852L13.5303 11.9994ZM13.5782 11.8838V10.8072H13.5582V11.8838H13.5782ZM13.5782 10.8072C13.5782 10.7638 13.561 10.7223 13.5303 10.6916L13.5162 10.7057C13.5431 10.7326 13.5582 10.7691 13.5582 10.8072H13.5782ZM13.5303 10.6916C13.4997 10.6609 13.4581 10.6437 13.4147 10.6437V10.6637C13.4528 10.6637 13.4893 10.6788 13.5162 10.7057L13.5303 10.6916ZM13.2613 11.7204H12.4914V11.7404H13.2613V11.7204ZM12.5014 11.7304V10.9606H12.4814V11.7304H12.5014ZM12.4914 10.9706H13.2613V10.9506H12.4914V10.9706ZM13.2513 10.9606V11.7304H13.2713V10.9606H13.2513Z" fill="#7C29E5" mask="url(#path-3-outside-2_481_2002)"/>
</svg>
