<svg width="22" height="21" viewBox="0 0 22 21" fill="none" xmlns="http://www.w3.org/2000/svg">
<g filter="url(#filter0_d_481_1977)">
<mask id="path-1-outside-1_481_1977" maskUnits="userSpaceOnUse" x="5.58606" y="1.32764" width="10" height="9" fill="black">
<rect fill="white" x="5.58606" y="1.32764" width="10" height="9"/>
<path d="M9.44952 3.16786L8.91646 3.09949L8.67069 2.60234C8.63036 2.51965 8.56753 2.45002 8.4894 2.40143C8.41127 2.35284 8.32103 2.32726 8.22902 2.32764C8.04029 2.32764 7.87096 2.43304 7.78735 2.60204L7.558 3.08784L7.00882 3.16786C6.91774 3.18072 6.83213 3.21897 6.76178 3.27822C6.69143 3.33746 6.63919 3.41532 6.61104 3.50288C6.58221 3.59023 6.5786 3.68394 6.60063 3.77325C6.62266 3.86256 6.66943 3.94385 6.73557 4.00779L7.12678 4.37595L7.03301 4.92266C7.01712 5.01328 7.02707 5.10653 7.06171 5.19176C7.09636 5.27699 7.1543 5.35074 7.22891 5.40458C7.30316 5.45884 7.39118 5.49112 7.48291 5.49772C7.57464 5.50432 7.66637 5.48497 7.74763 5.4419L8.21857 5.18362L8.70981 5.4419C8.79113 5.48493 8.88291 5.50425 8.97467 5.49765C9.06644 5.49105 9.15451 5.4588 9.22883 5.40458C9.30347 5.35076 9.36143 5.27701 9.39608 5.19178C9.43072 5.10655 9.44065 5.01328 9.42473 4.92266L9.32469 4.39506L9.72217 4.00749C9.85744 3.87552 9.90523 3.68203 9.84669 3.50258C9.81867 3.41509 9.76653 3.33728 9.69628 3.27807C9.62603 3.21887 9.5405 3.18067 9.44952 3.16786ZM9.51402 3.794L9.11684 4.18157C9.08461 4.21286 9.06047 4.25154 9.04653 4.29425C9.03259 4.33696 9.02925 4.38242 9.03681 4.42671L9.13058 4.97372C9.13704 5.00937 9.13322 5.04613 9.11958 5.0797C9.10594 5.11327 9.08303 5.14227 9.05353 5.16332C9.02441 5.18493 8.98974 5.19781 8.95357 5.20045C8.9174 5.20309 8.88123 5.19539 8.84927 5.17825L8.35773 4.91997C8.31801 4.89903 8.27378 4.88808 8.22887 4.88808C8.18396 4.88808 8.13973 4.89903 8.10001 4.91997L7.60877 5.17825C7.57681 5.19539 7.54063 5.20309 7.50447 5.20045C7.4683 5.19781 7.43363 5.18493 7.4045 5.16332C7.37484 5.14235 7.35182 5.11331 7.33816 5.07965C7.32451 5.04599 7.32079 5.00913 7.32746 4.97342L7.42123 4.42671C7.42886 4.38247 7.42562 4.33704 7.41178 4.29433C7.39794 4.25162 7.37392 4.21292 7.34179 4.18157L6.94432 3.794C6.89026 3.74145 6.87175 3.6671 6.89504 3.59544C6.91833 3.52378 6.97687 3.47451 7.05152 3.46376L7.601 3.38374C7.64542 3.37719 7.68759 3.35997 7.72389 3.33355C7.7602 3.30713 7.78955 3.27231 7.80944 3.23206L8.05492 2.73461C8.07056 2.70184 8.09528 2.67424 8.12614 2.65508C8.15699 2.63592 8.1927 2.62601 8.22902 2.62653C8.30427 2.62653 8.36937 2.66684 8.40282 2.73432L8.64829 3.23176C8.66824 3.27206 8.69764 3.30692 8.73399 3.33339C8.77034 3.35986 8.81256 3.37713 8.85704 3.38374L9.40622 3.46376C9.48087 3.47451 9.5394 3.52378 9.5627 3.59544C9.58599 3.6671 9.56807 3.74145 9.51402 3.794ZM15.2071 3.03977H11.548C11.5084 3.03977 11.4704 3.0555 11.4424 3.0835C11.4144 3.1115 11.3987 3.14947 11.3987 3.18906C11.3987 3.22866 11.4144 3.26663 11.4424 3.29463C11.4704 3.32263 11.5084 3.33836 11.548 3.33836H15.2071C15.2467 3.33836 15.2847 3.32263 15.3127 3.29463C15.3407 3.26663 15.3564 3.22866 15.3564 3.18906C15.3564 3.14947 15.3407 3.1115 15.3127 3.0835C15.2847 3.0555 15.2467 3.03977 15.2071 3.03977ZM11.548 4.7877H13.9009C13.9405 4.7877 13.9785 4.77197 14.0065 4.74397C14.0345 4.71597 14.0502 4.678 14.0502 4.6384C14.0502 4.59881 14.0345 4.56084 14.0065 4.53284C13.9785 4.50484 13.9405 4.48911 13.9009 4.48911H11.548C11.5084 4.48911 11.4704 4.50484 11.4424 4.53284C11.4144 4.56084 11.3987 4.59881 11.3987 4.6384C11.3987 4.678 11.4144 4.71597 11.4424 4.74397C11.4704 4.77197 11.5084 4.7877 11.548 4.7877ZM9.84849 7.96197C9.78876 7.78282 9.63646 7.65443 9.44832 7.62756L8.91676 7.55888L8.67189 7.06323C8.58827 6.89303 8.41805 6.78853 8.22991 6.78853C8.04178 6.78853 7.87156 6.89303 7.78794 7.06323L7.558 7.54694L7.00852 7.62756C6.82337 7.65443 6.67107 7.78282 6.61134 7.96197C6.55162 8.14411 6.5994 8.33521 6.73677 8.46957L7.12797 8.83683L7.03241 9.38325C7.00255 9.56837 7.07721 9.7535 7.22951 9.86397C7.38181 9.97744 7.58189 9.98938 7.74912 9.90279L8.21797 9.64302L8.71071 9.90279C8.78238 9.9416 8.86301 9.95952 8.94065 9.95952C9.04219 9.95952 9.14372 9.92668 9.23032 9.86397C9.38262 9.7535 9.45728 9.56837 9.42443 9.38325L9.32588 8.85475L9.72306 8.46957C9.85744 8.33521 9.90522 8.14411 9.84849 7.96197ZM9.51402 8.25459L9.11684 8.64275C9.05115 8.70546 9.02128 8.79802 9.03621 8.88759L9.13177 9.43401C9.13775 9.46992 9.13366 9.50679 9.11995 9.54052C9.10625 9.57426 9.08347 9.60353 9.05413 9.6251C8.99142 9.66691 8.91676 9.67288 8.84808 9.64003L8.35832 9.38026C8.31873 9.3593 8.27472 9.34804 8.22991 9.34742C8.18512 9.34742 8.14033 9.35936 8.1015 9.38026L7.60877 9.64003C7.54307 9.67288 7.46542 9.66691 7.4057 9.6251C7.37586 9.60399 7.35269 9.57477 7.33893 9.54091C7.32517 9.50704 7.32139 9.46995 7.32805 9.43401L7.42063 8.88759C7.42862 8.84355 7.42572 8.79821 7.41219 8.75554C7.39866 8.71287 7.3749 8.67415 7.34299 8.64275L6.94581 8.25459C6.9187 8.22987 6.89944 8.19773 6.89042 8.16217C6.8814 8.12662 6.883 8.08919 6.89504 8.05454C6.91893 7.98288 6.97866 7.9351 7.05331 7.92316L7.59981 7.84254C7.6894 7.8306 7.77002 7.77386 7.80885 7.69325L8.05671 7.19461C8.08956 7.12593 8.15526 7.08712 8.22991 7.08712C8.30457 7.08712 8.37027 7.12593 8.40312 7.19461L8.648 7.69325C8.6898 7.77386 8.76745 7.8306 8.85704 7.84254L9.40651 7.92316C9.48117 7.9351 9.5409 7.98288 9.5618 8.05454C9.58569 8.1262 9.56777 8.20084 9.51402 8.25459Z"/>
</mask>
<path d="M9.44952 3.16786L8.91646 3.09949L8.67069 2.60234C8.63036 2.51965 8.56753 2.45002 8.4894 2.40143C8.41127 2.35284 8.32103 2.32726 8.22902 2.32764C8.04029 2.32764 7.87096 2.43304 7.78735 2.60204L7.558 3.08784L7.00882 3.16786C6.91774 3.18072 6.83213 3.21897 6.76178 3.27822C6.69143 3.33746 6.63919 3.41532 6.61104 3.50288C6.58221 3.59023 6.5786 3.68394 6.60063 3.77325C6.62266 3.86256 6.66943 3.94385 6.73557 4.00779L7.12678 4.37595L7.03301 4.92266C7.01712 5.01328 7.02707 5.10653 7.06171 5.19176C7.09636 5.27699 7.1543 5.35074 7.22891 5.40458C7.30316 5.45884 7.39118 5.49112 7.48291 5.49772C7.57464 5.50432 7.66637 5.48497 7.74763 5.4419L8.21857 5.18362L8.70981 5.4419C8.79113 5.48493 8.88291 5.50425 8.97467 5.49765C9.06644 5.49105 9.15451 5.4588 9.22883 5.40458C9.30347 5.35076 9.36143 5.27701 9.39608 5.19178C9.43072 5.10655 9.44065 5.01328 9.42473 4.92266L9.32469 4.39506L9.72217 4.00749C9.85744 3.87552 9.90523 3.68203 9.84669 3.50258C9.81867 3.41509 9.76653 3.33728 9.69628 3.27807C9.62603 3.21887 9.5405 3.18067 9.44952 3.16786ZM9.51402 3.794L9.11684 4.18157C9.08461 4.21286 9.06047 4.25154 9.04653 4.29425C9.03259 4.33696 9.02925 4.38242 9.03681 4.42671L9.13058 4.97372C9.13704 5.00937 9.13322 5.04613 9.11958 5.0797C9.10594 5.11327 9.08303 5.14227 9.05353 5.16332C9.02441 5.18493 8.98974 5.19781 8.95357 5.20045C8.9174 5.20309 8.88123 5.19539 8.84927 5.17825L8.35773 4.91997C8.31801 4.89903 8.27378 4.88808 8.22887 4.88808C8.18396 4.88808 8.13973 4.89903 8.10001 4.91997L7.60877 5.17825C7.57681 5.19539 7.54063 5.20309 7.50447 5.20045C7.4683 5.19781 7.43363 5.18493 7.4045 5.16332C7.37484 5.14235 7.35182 5.11331 7.33816 5.07965C7.32451 5.04599 7.32079 5.00913 7.32746 4.97342L7.42123 4.42671C7.42886 4.38247 7.42562 4.33704 7.41178 4.29433C7.39794 4.25162 7.37392 4.21292 7.34179 4.18157L6.94432 3.794C6.89026 3.74145 6.87175 3.6671 6.89504 3.59544C6.91833 3.52378 6.97687 3.47451 7.05152 3.46376L7.601 3.38374C7.64542 3.37719 7.68759 3.35997 7.72389 3.33355C7.7602 3.30713 7.78955 3.27231 7.80944 3.23206L8.05492 2.73461C8.07056 2.70184 8.09528 2.67424 8.12614 2.65508C8.15699 2.63592 8.1927 2.62601 8.22902 2.62653C8.30427 2.62653 8.36937 2.66684 8.40282 2.73432L8.64829 3.23176C8.66824 3.27206 8.69764 3.30692 8.73399 3.33339C8.77034 3.35986 8.81256 3.37713 8.85704 3.38374L9.40622 3.46376C9.48087 3.47451 9.5394 3.52378 9.5627 3.59544C9.58599 3.6671 9.56807 3.74145 9.51402 3.794ZM15.2071 3.03977H11.548C11.5084 3.03977 11.4704 3.0555 11.4424 3.0835C11.4144 3.1115 11.3987 3.14947 11.3987 3.18906C11.3987 3.22866 11.4144 3.26663 11.4424 3.29463C11.4704 3.32263 11.5084 3.33836 11.548 3.33836H15.2071C15.2467 3.33836 15.2847 3.32263 15.3127 3.29463C15.3407 3.26663 15.3564 3.22866 15.3564 3.18906C15.3564 3.14947 15.3407 3.1115 15.3127 3.0835C15.2847 3.0555 15.2467 3.03977 15.2071 3.03977ZM11.548 4.7877H13.9009C13.9405 4.7877 13.9785 4.77197 14.0065 4.74397C14.0345 4.71597 14.0502 4.678 14.0502 4.6384C14.0502 4.59881 14.0345 4.56084 14.0065 4.53284C13.9785 4.50484 13.9405 4.48911 13.9009 4.48911H11.548C11.5084 4.48911 11.4704 4.50484 11.4424 4.53284C11.4144 4.56084 11.3987 4.59881 11.3987 4.6384C11.3987 4.678 11.4144 4.71597 11.4424 4.74397C11.4704 4.77197 11.5084 4.7877 11.548 4.7877ZM9.84849 7.96197C9.78876 7.78282 9.63646 7.65443 9.44832 7.62756L8.91676 7.55888L8.67189 7.06323C8.58827 6.89303 8.41805 6.78853 8.22991 6.78853C8.04178 6.78853 7.87156 6.89303 7.78794 7.06323L7.558 7.54694L7.00852 7.62756C6.82337 7.65443 6.67107 7.78282 6.61134 7.96197C6.55162 8.14411 6.5994 8.33521 6.73677 8.46957L7.12797 8.83683L7.03241 9.38325C7.00255 9.56837 7.07721 9.7535 7.22951 9.86397C7.38181 9.97744 7.58189 9.98938 7.74912 9.90279L8.21797 9.64302L8.71071 9.90279C8.78238 9.9416 8.86301 9.95952 8.94065 9.95952C9.04219 9.95952 9.14372 9.92668 9.23032 9.86397C9.38262 9.7535 9.45728 9.56837 9.42443 9.38325L9.32588 8.85475L9.72306 8.46957C9.85744 8.33521 9.90522 8.14411 9.84849 7.96197ZM9.51402 8.25459L9.11684 8.64275C9.05115 8.70546 9.02128 8.79802 9.03621 8.88759L9.13177 9.43401C9.13775 9.46992 9.13366 9.50679 9.11995 9.54052C9.10625 9.57426 9.08347 9.60353 9.05413 9.6251C8.99142 9.66691 8.91676 9.67288 8.84808 9.64003L8.35832 9.38026C8.31873 9.3593 8.27472 9.34804 8.22991 9.34742C8.18512 9.34742 8.14033 9.35936 8.1015 9.38026L7.60877 9.64003C7.54307 9.67288 7.46542 9.66691 7.4057 9.6251C7.37586 9.60399 7.35269 9.57477 7.33893 9.54091C7.32517 9.50704 7.32139 9.46995 7.32805 9.43401L7.42063 8.88759C7.42862 8.84355 7.42572 8.79821 7.41219 8.75554C7.39866 8.71287 7.3749 8.67415 7.34299 8.64275L6.94581 8.25459C6.9187 8.22987 6.89944 8.19773 6.89042 8.16217C6.8814 8.12662 6.883 8.08919 6.89504 8.05454C6.91893 7.98288 6.97866 7.9351 7.05331 7.92316L7.59981 7.84254C7.6894 7.8306 7.77002 7.77386 7.80885 7.69325L8.05671 7.19461C8.08956 7.12593 8.15526 7.08712 8.22991 7.08712C8.30457 7.08712 8.37027 7.12593 8.40312 7.19461L8.648 7.69325C8.6898 7.77386 8.76745 7.8306 8.85704 7.84254L9.40651 7.92316C9.48117 7.9351 9.5409 7.98288 9.5618 8.05454C9.58569 8.1262 9.56777 8.20084 9.51402 8.25459Z" fill="#7C29E5"/>
<path d="M9.44952 3.16786L8.91646 3.09949L8.67069 2.60234C8.63036 2.51965 8.56753 2.45002 8.4894 2.40143C8.41127 2.35284 8.32103 2.32726 8.22902 2.32764C8.04029 2.32764 7.87096 2.43304 7.78735 2.60204L7.558 3.08784L7.00882 3.16786C6.91774 3.18072 6.83213 3.21897 6.76178 3.27822C6.69143 3.33746 6.63919 3.41532 6.61104 3.50288C6.58221 3.59023 6.5786 3.68394 6.60063 3.77325C6.62266 3.86256 6.66943 3.94385 6.73557 4.00779L7.12678 4.37595L7.03301 4.92266C7.01712 5.01328 7.02707 5.10653 7.06171 5.19176C7.09636 5.27699 7.1543 5.35074 7.22891 5.40458C7.30316 5.45884 7.39118 5.49112 7.48291 5.49772C7.57464 5.50432 7.66637 5.48497 7.74763 5.4419L8.21857 5.18362L8.70981 5.4419C8.79113 5.48493 8.88291 5.50425 8.97467 5.49765C9.06644 5.49105 9.15451 5.4588 9.22883 5.40458C9.30347 5.35076 9.36143 5.27701 9.39608 5.19178C9.43072 5.10655 9.44065 5.01328 9.42473 4.92266L9.32469 4.39506L9.72217 4.00749C9.85744 3.87552 9.90523 3.68203 9.84669 3.50258C9.81867 3.41509 9.76653 3.33728 9.69628 3.27807C9.62603 3.21887 9.5405 3.18067 9.44952 3.16786ZM9.51402 3.794L9.11684 4.18157C9.08461 4.21286 9.06047 4.25154 9.04653 4.29425C9.03259 4.33696 9.02925 4.38242 9.03681 4.42671L9.13058 4.97372C9.13704 5.00937 9.13322 5.04613 9.11958 5.0797C9.10594 5.11327 9.08303 5.14227 9.05353 5.16332C9.02441 5.18493 8.98974 5.19781 8.95357 5.20045C8.9174 5.20309 8.88123 5.19539 8.84927 5.17825L8.35773 4.91997C8.31801 4.89903 8.27378 4.88808 8.22887 4.88808C8.18396 4.88808 8.13973 4.89903 8.10001 4.91997L7.60877 5.17825C7.57681 5.19539 7.54063 5.20309 7.50447 5.20045C7.4683 5.19781 7.43363 5.18493 7.4045 5.16332C7.37484 5.14235 7.35182 5.11331 7.33816 5.07965C7.32451 5.04599 7.32079 5.00913 7.32746 4.97342L7.42123 4.42671C7.42886 4.38247 7.42562 4.33704 7.41178 4.29433C7.39794 4.25162 7.37392 4.21292 7.34179 4.18157L6.94432 3.794C6.89026 3.74145 6.87175 3.6671 6.89504 3.59544C6.91833 3.52378 6.97687 3.47451 7.05152 3.46376L7.601 3.38374C7.64542 3.37719 7.68759 3.35997 7.72389 3.33355C7.7602 3.30713 7.78955 3.27231 7.80944 3.23206L8.05492 2.73461C8.07056 2.70184 8.09528 2.67424 8.12614 2.65508C8.15699 2.63592 8.1927 2.62601 8.22902 2.62653C8.30427 2.62653 8.36937 2.66684 8.40282 2.73432L8.64829 3.23176C8.66824 3.27206 8.69764 3.30692 8.73399 3.33339C8.77034 3.35986 8.81256 3.37713 8.85704 3.38374L9.40622 3.46376C9.48087 3.47451 9.5394 3.52378 9.5627 3.59544C9.58599 3.6671 9.56807 3.74145 9.51402 3.794ZM15.2071 3.03977H11.548C11.5084 3.03977 11.4704 3.0555 11.4424 3.0835C11.4144 3.1115 11.3987 3.14947 11.3987 3.18906C11.3987 3.22866 11.4144 3.26663 11.4424 3.29463C11.4704 3.32263 11.5084 3.33836 11.548 3.33836H15.2071C15.2467 3.33836 15.2847 3.32263 15.3127 3.29463C15.3407 3.26663 15.3564 3.22866 15.3564 3.18906C15.3564 3.14947 15.3407 3.1115 15.3127 3.0835C15.2847 3.0555 15.2467 3.03977 15.2071 3.03977ZM11.548 4.7877H13.9009C13.9405 4.7877 13.9785 4.77197 14.0065 4.74397C14.0345 4.71597 14.0502 4.678 14.0502 4.6384C14.0502 4.59881 14.0345 4.56084 14.0065 4.53284C13.9785 4.50484 13.9405 4.48911 13.9009 4.48911H11.548C11.5084 4.48911 11.4704 4.50484 11.4424 4.53284C11.4144 4.56084 11.3987 4.59881 11.3987 4.6384C11.3987 4.678 11.4144 4.71597 11.4424 4.74397C11.4704 4.77197 11.5084 4.7877 11.548 4.7877ZM9.84849 7.96197C9.78876 7.78282 9.63646 7.65443 9.44832 7.62756L8.91676 7.55888L8.67189 7.06323C8.58827 6.89303 8.41805 6.78853 8.22991 6.78853C8.04178 6.78853 7.87156 6.89303 7.78794 7.06323L7.558 7.54694L7.00852 7.62756C6.82337 7.65443 6.67107 7.78282 6.61134 7.96197C6.55162 8.14411 6.5994 8.33521 6.73677 8.46957L7.12797 8.83683L7.03241 9.38325C7.00255 9.56837 7.07721 9.7535 7.22951 9.86397C7.38181 9.97744 7.58189 9.98938 7.74912 9.90279L8.21797 9.64302L8.71071 9.90279C8.78238 9.9416 8.86301 9.95952 8.94065 9.95952C9.04219 9.95952 9.14372 9.92668 9.23032 9.86397C9.38262 9.7535 9.45728 9.56837 9.42443 9.38325L9.32588 8.85475L9.72306 8.46957C9.85744 8.33521 9.90522 8.14411 9.84849 7.96197ZM9.51402 8.25459L9.11684 8.64275C9.05115 8.70546 9.02128 8.79802 9.03621 8.88759L9.13177 9.43401C9.13775 9.46992 9.13366 9.50679 9.11995 9.54052C9.10625 9.57426 9.08347 9.60353 9.05413 9.6251C8.99142 9.66691 8.91676 9.67288 8.84808 9.64003L8.35832 9.38026C8.31873 9.3593 8.27472 9.34804 8.22991 9.34742C8.18512 9.34742 8.14033 9.35936 8.1015 9.38026L7.60877 9.64003C7.54307 9.67288 7.46542 9.66691 7.4057 9.6251C7.37586 9.60399 7.35269 9.57477 7.33893 9.54091C7.32517 9.50704 7.32139 9.46995 7.32805 9.43401L7.42063 8.88759C7.42862 8.84355 7.42572 8.79821 7.41219 8.75554C7.39866 8.71287 7.3749 8.67415 7.34299 8.64275L6.94581 8.25459C6.9187 8.22987 6.89944 8.19773 6.89042 8.16217C6.8814 8.12662 6.883 8.08919 6.89504 8.05454C6.91893 7.98288 6.97866 7.9351 7.05331 7.92316L7.59981 7.84254C7.6894 7.8306 7.77002 7.77386 7.80885 7.69325L8.05671 7.19461C8.08956 7.12593 8.15526 7.08712 8.22991 7.08712C8.30457 7.08712 8.37027 7.12593 8.40312 7.19461L8.648 7.69325C8.6898 7.77386 8.76745 7.8306 8.85704 7.84254L9.40651 7.92316C9.48117 7.9351 9.5409 7.98288 9.5618 8.05454C9.58569 8.1262 9.56777 8.20084 9.51402 8.25459Z" stroke="#7C29E5" stroke-width="0.4" mask="url(#path-1-outside-1_481_1977)"/>
<path d="M15.2072 7.4H11.5481C11.4819 7.4 11.4185 7.42626 11.3718 7.47301C11.325 7.51976 11.2987 7.58317 11.2987 7.64929C11.2987 7.71542 11.325 7.77883 11.3718 7.82558C11.4185 7.87233 11.4819 7.89859 11.5481 7.89859H15.2072C15.2733 7.89859 15.3367 7.87233 15.3835 7.82558C15.4302 7.77882 15.4565 7.71541 15.4565 7.64929C15.4565 7.58317 15.4302 7.51976 15.3835 7.47301C15.3367 7.42626 15.2733 7.4 15.2072 7.4ZM11.5481 9.34793H13.901C13.9671 9.34793 14.0305 9.32167 14.0772 9.27492C14.124 9.22817 14.1503 9.16475 14.1503 9.09863C14.1503 9.03251 14.124 8.9691 14.0772 8.92235C14.0305 8.8756 13.9671 8.84934 13.901 8.84934H11.5481C11.4819 8.84934 11.4185 8.8756 11.3718 8.92235C11.325 8.9691 11.2987 9.03251 11.2987 9.09863C11.2987 9.16476 11.325 9.22817 11.3718 9.27492C11.4185 9.32167 11.4819 9.34793 11.5481 9.34793Z" fill="#7C29E5" stroke="#7C29E5" stroke-width="0.2"/>
<path d="M15.3294 0.212012H6.62709C5.68688 0.212012 4.87974 0.826618 4.87974 1.62701V10.6489C4.87974 11.4493 5.68688 12.0639 6.62709 12.0639H15.3294C16.2725 12.0639 17.0797 11.4494 17.0797 10.6489V1.62701C17.0797 0.826517 16.2725 0.212012 15.3294 0.212012ZM16.5813 10.6489C16.5813 11.1682 16.0426 11.6261 15.3294 11.6261H6.62726C6.2893 11.6255 5.96879 11.5179 5.73548 11.3316C5.50274 11.1458 5.37817 10.8994 5.37817 10.6489V1.62701C5.37817 1.10763 5.91699 0.649805 6.62709 0.649805H15.3294C16.0426 0.649805 16.5813 1.10775 16.5813 1.62701V10.6489Z" fill="#7C29E5" stroke="#7C29E5" stroke-width="0.2"/>
</g>
<defs>
<filter id="filter0_d_481_1977" x="0.779724" y="0.111816" width="20.4" height="20.0522" filterUnits="userSpaceOnUse" color-interpolation-filters="sRGB">
<feFlood flood-opacity="0" result="BackgroundImageFix"/>
<feColorMatrix in="SourceAlpha" type="matrix" values="0 0 0 0 0 0 0 0 0 0 0 0 0 0 0 0 0 0 127 0" result="hardAlpha"/>
<feOffset dy="4"/>
<feGaussianBlur stdDeviation="2"/>
<feComposite in2="hardAlpha" operator="out"/>
<feColorMatrix type="matrix" values="0 0 0 0 0 0 0 0 0 0 0 0 0 0 0 0 0 0 0.25 0"/>
<feBlend mode="normal" in2="BackgroundImageFix" result="effect1_dropShadow_481_1977"/>
<feBlend mode="normal" in="SourceGraphic" in2="effect1_dropShadow_481_1977" result="shape"/>
</filter>
</defs>
</svg>
