<svg width="14" height="15" viewBox="0 0 14 15" fill="none" xmlns="http://www.w3.org/2000/svg">
<path d="M1.49324 5.10385C1.49324 5.10387 1.49324 5.10389 1.49324 5.10391L1.49324 12.7959H4.93296H8.37268L8.37269 5.10391L8.37268 5.10382M1.49324 5.10385L5.83624 2.51775C6.52182 2.519 7.17897 2.79186 7.66375 3.27657C8.14853 3.76129 8.42143 4.41834 8.42269 5.10382H8.37268M1.49324 5.10385C1.49449 4.43135 1.76234 3.78677 2.23808 3.31139C2.71384 2.83598 3.3587 2.56857 4.03133 2.56775H4.65042V4.04305C4.35454 4.11024 4.09166 4.28058 3.9094 4.52425C3.71886 4.77898 3.63009 5.09556 3.66043 5.41221C3.69076 5.72886 3.83802 6.02284 4.07346 6.23677C4.3089 6.4507 4.61562 6.56924 4.93375 6.56924C5.25189 6.56924 5.55861 6.4507 5.79405 6.23677C6.02949 6.02284 6.17675 5.72886 6.20708 5.41221C6.23742 5.09556 6.14865 4.77898 5.95811 4.52425C5.77585 4.28058 5.51297 4.11024 5.21709 4.04305V2.56775H5.83615M1.49324 5.10385L5.83615 2.56775M8.37268 5.10382C8.37143 4.4316 8.1038 3.78727 7.6284 3.31193C7.15297 2.83657 6.50851 2.56898 5.83615 2.56775M8.37268 5.10382L5.83615 2.56775M5.83624 2.00273H5.21709V0.347656V0.297656H5.16709H4.70042H4.65042V0.347656V2.00273L4.03127 2.00273L4.03122 2.00273C3.20892 2.00358 2.42054 2.33057 1.83908 2.91194C1.25763 3.49331 0.93059 4.28158 0.929739 5.10377V5.10382L0.929736 13.3125L0.929736 13.3625H0.979736H7.62627L10.4939 14.1862L10.54 14.1994L10.5551 14.1539L12.8711 7.17419L12.8711 7.1742L12.8716 7.17241C13.0185 6.66756 13.0637 6.13857 13.0045 5.61612C12.9454 5.0937 12.7832 4.58822 12.5272 4.12897C12.0394 3.24539 11.2352 2.57918 10.2762 2.26422C9.32552 1.95198 8.29255 2.0079 7.38153 2.42033C6.91252 2.14716 6.37936 2.003 5.83627 2.00273H5.83624ZM4.93296 4.5765C5.07343 4.5765 5.21077 4.61801 5.32773 4.69584C5.44509 4.77394 5.53664 4.8851 5.59079 5.01524C5.64494 5.14538 5.65926 5.28866 5.63194 5.42695C5.60462 5.56523 5.53688 5.6923 5.43729 5.79208C5.33771 5.89186 5.21076 5.95985 5.07251 5.98746C4.93426 6.01507 4.79092 6.00105 4.66065 5.94717C4.53037 5.89329 4.41901 5.80199 4.34065 5.68481C4.2623 5.56762 4.22048 5.42984 4.22048 5.28888C4.22048 5.19533 4.23891 5.10269 4.27471 5.01627C4.31052 4.92984 4.363 4.85131 4.42916 4.78515C4.49532 4.719 4.57386 4.66653 4.6603 4.63073C4.74629 4.59512 4.83842 4.57669 4.93149 4.5765L4.93296 4.5765ZM8.93777 5.10382V5.10377C8.93735 4.65781 8.84058 4.21721 8.65409 3.8121C8.47952 3.43288 8.23019 3.09315 7.92135 2.8131C8.49511 2.61592 9.11145 2.57427 9.70742 2.69315C10.3309 2.81753 10.9076 3.11271 11.373 3.54575C11.8385 3.97878 12.1744 4.53264 12.3433 5.14548C12.5121 5.75801 12.5074 6.40537 12.3298 7.01538L10.1559 13.5011L8.93777 13.1514L8.93777 5.10382Z" fill="#7C29E5" stroke="#7C29E5" stroke-width="0.1"/>
<path d="M6.09884 5.98926H3.76709V6.45428H6.09884V5.98926Z" fill="#7C29E5"/>
<path d="M7.14923 7.88379H2.71826V8.34881H7.14923V7.88379Z" fill="#7C29E5"/>
<path d="M6.09884 9.77881H3.76709V10.2438H6.09884V9.77881Z" fill="#7C29E5"/>
</svg>
