<svg width="15" height="15" viewBox="0 0 15 15" fill="none" xmlns="http://www.w3.org/2000/svg">
<path fill-rule="evenodd" clip-rule="evenodd" d="M11.5958 5.96338C11.5479 5.96338 11.5001 5.9825 11.4619 6.02075L10.888 6.5945C10.8115 6.671 10.8115 6.78575 10.888 6.86225C10.9645 6.93875 11.0793 6.93875 11.1558 6.86225L11.4045 6.61363V9.97962C11.4045 10.3047 11.1558 10.5534 10.8307 10.5534H10.0655C9.95078 10.5534 9.87427 10.6299 9.87427 10.7446C9.87427 10.8594 9.95078 10.9359 10.0655 10.9359H10.8307C11.3662 10.9359 11.787 10.5151 11.787 9.97962V6.61363L12.0357 6.86225C12.074 6.9005 12.1313 6.91963 12.1696 6.91963C12.2078 6.91963 12.2652 6.9005 12.3035 6.86225C12.38 6.78575 12.38 6.671 12.3035 6.5945L11.7297 6.02075C11.6914 5.9825 11.6436 5.96338 11.5958 5.96338Z" fill="#7C29E5"/>
<path d="M7.97971 14.4622C11.5695 14.4622 14.4798 11.5525 14.4798 7.96304C14.4798 4.37358 11.5695 1.46387 7.97971 1.46387C4.38991 1.46387 1.47974 4.37359 1.47974 7.96304C1.47974 11.5525 4.38992 14.4622 7.97971 14.4622Z" stroke="#7C29E5" stroke-miterlimit="1.5" stroke-linecap="round" stroke-linejoin="round"/>
<path d="M3.92029 7.11963H4.98083C5.19828 7.11963 5.38513 7.15218 5.54138 7.21729C5.69893 7.28239 5.82003 7.37874 5.90466 7.50635C5.9893 7.63395 6.03162 7.79085 6.03162 7.97705C6.03162 8.12939 6.00557 8.26025 5.95349 8.36963C5.90271 8.4777 5.83044 8.5682 5.73669 8.64111C5.64425 8.71273 5.53552 8.77002 5.41052 8.81299L5.22498 8.91064H4.3031L4.29919 8.45361H4.98474C5.08761 8.45361 5.17289 8.43538 5.2406 8.39893C5.30831 8.36247 5.35909 8.31169 5.39294 8.24658C5.4281 8.18148 5.44568 8.10596 5.44568 8.02002C5.44568 7.92887 5.42875 7.8501 5.3949 7.78369C5.36104 7.71729 5.30961 7.6665 5.2406 7.63135C5.17159 7.59619 5.085 7.57861 4.98083 7.57861H4.50623V9.96338H3.92029V7.11963ZM5.51013 9.96338L4.86169 8.6958L5.48083 8.69189L6.13708 9.93604V9.96338H5.51013ZM8.39099 9.50635V9.96338H6.87732V9.50635H8.39099ZM7.06873 7.11963V9.96338H6.48279V7.11963H7.06873ZM8.19373 8.27783V8.72314H6.87732V8.27783H8.19373ZM8.38904 7.11963V7.57861H6.87732V7.11963H8.38904ZM9.31873 7.11963V9.96338H8.73279V7.11963H9.31873ZM10.4515 8.33447V8.7915H9.15857V8.33447H10.4515ZM10.5883 7.11963V7.57861H9.15857V7.11963H10.5883Z" fill="#7C29E5"/>
<path d="M3.92029 7.11963V7.06963H3.87029V7.11963H3.92029ZM5.54138 7.21729L5.52215 7.26344L5.52229 7.2635L5.54138 7.21729ZM5.95349 8.36963L5.90835 8.34813L5.90824 8.34837L5.95349 8.36963ZM5.73669 8.64111L5.76731 8.68064L5.76739 8.68058L5.73669 8.64111ZM5.41052 8.81299L5.39408 8.76514L5.38724 8.76874L5.41052 8.81299ZM5.22498 8.91064V8.96064H5.23733L5.24826 8.95489L5.22498 8.91064ZM4.3031 8.91064L4.2531 8.91107L4.25353 8.96064H4.3031V8.91064ZM4.29919 8.45361V8.40361H4.24877L4.2492 8.45404L4.29919 8.45361ZM5.39294 8.24658L5.34894 8.22282L5.34858 8.22351L5.39294 8.24658ZM4.50623 7.57861V7.52861H4.45623V7.57861H4.50623ZM4.50623 9.96338V10.0134H4.55623V9.96338H4.50623ZM3.92029 9.96338H3.87029V10.0134H3.92029V9.96338ZM5.51013 9.96338L5.46562 9.98615L5.47955 10.0134H5.51013V9.96338ZM4.86169 8.6958L4.86138 8.6458L4.78022 8.64631L4.81718 8.71857L4.86169 8.6958ZM5.48083 8.69189L5.52506 8.66857L5.51089 8.6417L5.48052 8.6419L5.48083 8.69189ZM6.13708 9.93604H6.18708V9.92366L6.18131 9.91271L6.13708 9.93604ZM6.13708 9.96338V10.0134H6.18708V9.96338H6.13708ZM3.92029 7.16963H4.98083V7.06963H3.92029V7.16963ZM4.98083 7.16963C5.19348 7.16963 5.37346 7.20148 5.52215 7.26344L5.56061 7.17113C5.3968 7.10288 5.20309 7.06963 4.98083 7.06963V7.16963ZM5.52229 7.2635C5.67172 7.32524 5.78448 7.41561 5.863 7.53398L5.94633 7.47871C5.85557 7.34188 5.72615 7.23954 5.56048 7.17108L5.52229 7.2635ZM5.863 7.53398C5.94112 7.65177 5.98162 7.79854 5.98162 7.97705H6.08162C6.08162 7.78317 6.03748 7.61613 5.94633 7.47871L5.863 7.53398ZM5.98162 7.97705C5.98162 8.12382 5.95652 8.24697 5.90835 8.34813L5.99863 8.39113C6.05463 8.27354 6.08162 8.13497 6.08162 7.97705H5.98162ZM5.90824 8.34837C5.86079 8.44935 5.79349 8.53359 5.706 8.60165L5.76739 8.68058C5.86739 8.6028 5.94463 8.50606 5.99874 8.39089L5.90824 8.34837ZM5.70607 8.60159C5.61848 8.66944 5.51475 8.72429 5.39427 8.7657L5.42678 8.86027C5.55629 8.81575 5.67001 8.75602 5.76731 8.68064L5.70607 8.60159ZM5.38724 8.76874L5.20169 8.8664L5.24826 8.95489L5.43381 8.85723L5.38724 8.76874ZM5.22498 8.86064H4.3031V8.96064H5.22498V8.86064ZM4.3531 8.91022L4.34919 8.45319L4.2492 8.45404L4.2531 8.91107L4.3531 8.91022ZM4.29919 8.50361H4.98474V8.40361H4.29919V8.50361ZM4.98474 8.50361C5.0932 8.50361 5.18727 8.48443 5.26431 8.44295L5.2169 8.3549C5.15852 8.38634 5.08201 8.40361 4.98474 8.40361V8.50361ZM5.26431 8.44295C5.3404 8.40198 5.39859 8.34409 5.43731 8.26965L5.34858 8.22351C5.31959 8.27928 5.27622 8.32296 5.2169 8.3549L5.26431 8.44295ZM5.43694 8.27034C5.47663 8.19684 5.49568 8.11291 5.49568 8.02002H5.39568C5.39568 8.09901 5.37957 8.16612 5.34895 8.22282L5.43694 8.27034ZM5.49568 8.02002C5.49568 7.92271 5.47759 7.83582 5.43944 7.76098L5.35035 7.8064C5.37991 7.86438 5.39568 7.93503 5.39568 8.02002H5.49568ZM5.43944 7.76098C5.4006 7.68479 5.34132 7.62654 5.2633 7.5868L5.2179 7.6759C5.2779 7.70646 5.32149 7.74978 5.35035 7.8064L5.43944 7.76098ZM5.2633 7.5868C5.18526 7.54704 5.09029 7.52861 4.98083 7.52861V7.62861C5.07971 7.62861 5.15792 7.64534 5.2179 7.6759L5.2633 7.5868ZM4.98083 7.52861H4.50623V7.62861H4.98083V7.52861ZM4.45623 7.57861V9.96338H4.55623V7.57861H4.45623ZM4.50623 9.91338H3.92029V10.0134H4.50623V9.91338ZM3.97029 9.96338V7.11963H3.87029V9.96338H3.97029ZM5.55465 9.94061L4.90621 8.67303L4.81718 8.71857L5.46562 9.98615L5.55465 9.94061ZM4.86201 8.7458L5.48115 8.74189L5.48052 8.6419L4.86138 8.6458L4.86201 8.7458ZM5.43661 8.71522L6.09286 9.95936L6.18131 9.91271L5.52506 8.66857L5.43661 8.71522ZM6.08709 9.93604V9.96338H6.18708V9.93604H6.08709ZM6.13708 9.91338H5.51013V10.0134H6.13708V9.91338ZM8.39099 9.50635H8.44099V9.45635H8.39099V9.50635ZM8.39099 9.96338V10.0134H8.44099V9.96338H8.39099ZM6.87732 9.96338H6.82732V10.0134H6.87732V9.96338ZM6.87732 9.50635V9.45635H6.82732V9.50635H6.87732ZM7.06873 7.11963H7.11873V7.06963H7.06873V7.11963ZM7.06873 9.96338V10.0134H7.11873V9.96338H7.06873ZM6.48279 9.96338H6.43279V10.0134H6.48279V9.96338ZM6.48279 7.11963V7.06963H6.43279V7.11963H6.48279ZM8.19373 8.27783H8.24373V8.22783H8.19373V8.27783ZM8.19373 8.72314V8.77314H8.24373V8.72314H8.19373ZM6.87732 8.72314H6.82732V8.77314H6.87732V8.72314ZM6.87732 8.27783V8.22783H6.82732V8.27783H6.87732ZM8.38904 7.11963H8.43904V7.06963H8.38904V7.11963ZM8.38904 7.57861V7.62861H8.43904V7.57861H8.38904ZM6.87732 7.57861H6.82732V7.62861H6.87732V7.57861ZM6.87732 7.11963V7.06963H6.82732V7.11963H6.87732ZM8.34099 9.50635V9.96338H8.44099V9.50635H8.34099ZM8.39099 9.91338H6.87732V10.0134H8.39099V9.91338ZM6.92732 9.96338V9.50635H6.82732V9.96338H6.92732ZM6.87732 9.55635H8.39099V9.45635H6.87732V9.55635ZM7.01873 7.11963V9.96338H7.11873V7.11963H7.01873ZM7.06873 9.91338H6.48279V10.0134H7.06873V9.91338ZM6.53279 9.96338V7.11963H6.43279V9.96338H6.53279ZM6.48279 7.16963H7.06873V7.06963H6.48279V7.16963ZM8.14373 8.27783V8.72314H8.24373V8.27783H8.14373ZM8.19373 8.67314H6.87732V8.77314H8.19373V8.67314ZM6.92732 8.72314V8.27783H6.82732V8.72314H6.92732ZM6.87732 8.32783H8.19373V8.22783H6.87732V8.32783ZM8.33904 7.11963V7.57861H8.43904V7.11963H8.33904ZM8.38904 7.52861H6.87732V7.62861H8.38904V7.52861ZM6.92732 7.57861V7.11963H6.82732V7.57861H6.92732ZM6.87732 7.16963H8.38904V7.06963H6.87732V7.16963ZM9.31873 7.11963H9.36873V7.06963H9.31873V7.11963ZM9.31873 9.96338V10.0134H9.36873V9.96338H9.31873ZM8.73279 9.96338H8.68279V10.0134H8.73279V9.96338ZM8.73279 7.11963V7.06963H8.68279V7.11963H8.73279ZM10.4515 8.33447H10.5015V8.28447H10.4515V8.33447ZM10.4515 8.7915V8.8415H10.5015V8.7915H10.4515ZM9.15857 8.7915H9.10857V8.8415H9.15857V8.7915ZM9.15857 8.33447V8.28447H9.10857V8.33447H9.15857ZM10.5883 7.11963H10.6383V7.06963H10.5883V7.11963ZM10.5883 7.57861V7.62861H10.6383V7.57861H10.5883ZM9.15857 7.57861H9.10857V7.62861H9.15857V7.57861ZM9.15857 7.11963V7.06963H9.10857V7.11963H9.15857ZM9.26873 7.11963V9.96338H9.36873V7.11963H9.26873ZM9.31873 9.91338H8.73279V10.0134H9.31873V9.91338ZM8.78279 9.96338V7.11963H8.68279V9.96338H8.78279ZM8.73279 7.16963H9.31873V7.06963H8.73279V7.16963ZM10.4015 8.33447V8.7915H10.5015V8.33447H10.4015ZM10.4515 8.7415H9.15857V8.8415H10.4515V8.7415ZM9.20857 8.7915V8.33447H9.10857V8.7915H9.20857ZM9.15857 8.38447H10.4515V8.28447H9.15857V8.38447ZM10.5383 7.11963V7.57861H10.6383V7.11963H10.5383ZM10.5883 7.52861H9.15857V7.62861H10.5883V7.52861ZM9.20857 7.57861V7.11963H9.10857V7.57861H9.20857ZM9.15857 7.16963H10.5883V7.06963H9.15857V7.16963Z" fill="#7C29E5"/>
</svg>
