<svg width="15" height="15" viewBox="0 0 15 15" fill="none" xmlns="http://www.w3.org/2000/svg">
<path fill-rule="evenodd" clip-rule="evenodd" d="M11.5958 5.96338C11.5479 5.96338 11.5001 5.9825 11.4619 6.02075L10.888 6.5945C10.8115 6.671 10.8115 6.78575 10.888 6.86225C10.9645 6.93875 11.0793 6.93875 11.1558 6.86225L11.4045 6.61363V9.97962C11.4045 10.3047 11.1558 10.5534 10.8307 10.5534H10.0655C9.95078 10.5534 9.87427 10.6299 9.87427 10.7446C9.87427 10.8594 9.95078 10.9359 10.0655 10.9359H10.8307C11.3662 10.9359 11.787 10.5151 11.787 9.97962V6.61363L12.0357 6.86225C12.074 6.9005 12.1313 6.91963 12.1696 6.91963C12.2078 6.91963 12.2652 6.9005 12.3035 6.86225C12.38 6.78575 12.38 6.671 12.3035 6.5945L11.7297 6.02075C11.6914 5.9825 11.6436 5.96338 11.5958 5.96338Z" fill="#7C29E5"/>
<path d="M7.97971 14.4622C11.5695 14.4622 14.4798 11.5525 14.4798 7.96304C14.4798 4.37358 11.5695 1.46387 7.97971 1.46387C4.38991 1.46387 1.47974 4.37359 1.47974 7.96304C1.47974 11.5525 4.38992 14.4622 7.97971 14.4622Z" stroke="#7C29E5" stroke-miterlimit="1.5" stroke-linecap="round" stroke-linejoin="round"/>
<path d="M5.04138 7.60596L4.26794 9.96338H3.6449L4.70154 7.11963H5.09802L5.04138 7.60596ZM5.68396 9.96338L4.90857 7.60596L4.84607 7.11963H5.24646L6.30896 9.96338H5.68396ZM5.6488 8.90479V9.36377H4.14685V8.90479H5.6488ZM7.15857 7.11963V9.96338H6.57263V7.11963H7.15857ZM8.29138 8.33447V8.7915H6.99841V8.33447H8.29138ZM8.4281 7.11963V7.57861H6.99841V7.11963H8.4281ZM9.35388 7.11963V9.96338H8.76794V7.11963H9.35388ZM10.4867 8.33447V8.7915H9.19373V8.33447H10.4867ZM10.6234 7.11963V7.57861H9.19373V7.11963H10.6234Z" fill="#7C29E5"/>
<path d="M5.04138 7.60596L5.08987 7.62186L5.09105 7.61174L5.04138 7.60596ZM4.26794 9.96338V10.0134H4.30416L4.31545 9.97897L4.26794 9.96338ZM3.6449 9.96338L3.59803 9.94596L3.57298 10.0134H3.6449V9.96338ZM4.70154 7.11963V7.06963H4.66678L4.65467 7.10221L4.70154 7.11963ZM5.09802 7.11963L5.14769 7.12541L5.15418 7.06963H5.09802V7.11963ZM5.68396 9.96338L5.63646 9.979L5.64777 10.0134H5.68396V9.96338ZM4.90857 7.60596L4.85807 7.61245L4.86107 7.62158L4.90857 7.60596ZM4.84607 7.11963V7.06963H4.78923L4.79648 7.126L4.84607 7.11963ZM5.24646 7.11963L5.2933 7.10213L5.28115 7.06963H5.24646V7.11963ZM6.30896 9.96338V10.0134H6.38102L6.3558 9.94588L6.30896 9.96338ZM5.6488 8.90479H5.6988V8.85479H5.6488V8.90479ZM5.6488 9.36377V9.41377H5.6988V9.36377H5.6488ZM4.14685 9.36377H4.09685V9.41377H4.14685V9.36377ZM4.14685 8.90479V8.85479H4.09685V8.90479H4.14685ZM4.99387 7.59037L4.22044 9.94779L4.31545 9.97897L5.08889 7.62154L4.99387 7.59037ZM4.26794 9.91338H3.6449V10.0134H4.26794V9.91338ZM3.69177 9.98079L4.74841 7.13704L4.65467 7.10221L3.59803 9.94596L3.69177 9.98079ZM4.70154 7.16963H5.09802V7.06963H4.70154V7.16963ZM5.04836 7.11384L4.99172 7.60017L5.09105 7.61174L5.14769 7.12541L5.04836 7.11384ZM5.73146 9.94776L4.95607 7.59033L4.86107 7.62158L5.63646 9.979L5.73146 9.94776ZM4.95816 7.59958L4.89566 7.11326L4.79648 7.126L4.85898 7.61233L4.95816 7.59958ZM4.84607 7.16963H5.24646V7.06963H4.84607V7.16963ZM5.19962 7.13713L6.26212 9.98088L6.3558 9.94588L5.2933 7.10213L5.19962 7.13713ZM6.30896 9.91338H5.68396V10.0134H6.30896V9.91338ZM5.5988 8.90479V9.36377H5.6988V8.90479H5.5988ZM5.6488 9.31377H4.14685V9.41377H5.6488V9.31377ZM4.19685 9.36377V8.90479H4.09685V9.36377H4.19685ZM4.14685 8.95479H5.6488V8.85479H4.14685V8.95479ZM7.15857 7.11963H7.20857V7.06963H7.15857V7.11963ZM7.15857 9.96338V10.0134H7.20857V9.96338H7.15857ZM6.57263 9.96338H6.52263V10.0134H6.57263V9.96338ZM6.57263 7.11963V7.06963H6.52263V7.11963H6.57263ZM8.29138 8.33447H8.34138V8.28447H8.29138V8.33447ZM8.29138 8.7915V8.8415H8.34138V8.7915H8.29138ZM6.99841 8.7915H6.94841V8.8415H6.99841V8.7915ZM6.99841 8.33447V8.28447H6.94841V8.33447H6.99841ZM8.4281 7.11963H8.4781V7.06963H8.4281V7.11963ZM8.4281 7.57861V7.62861H8.4781V7.57861H8.4281ZM6.99841 7.57861H6.94841V7.62861H6.99841V7.57861ZM6.99841 7.11963V7.06963H6.94841V7.11963H6.99841ZM7.10857 7.11963V9.96338H7.20857V7.11963H7.10857ZM7.15857 9.91338H6.57263V10.0134H7.15857V9.91338ZM6.62263 9.96338V7.11963H6.52263V9.96338H6.62263ZM6.57263 7.16963H7.15857V7.06963H6.57263V7.16963ZM8.24138 8.33447V8.7915H8.34138V8.33447H8.24138ZM8.29138 8.7415H6.99841V8.8415H8.29138V8.7415ZM7.04841 8.7915V8.33447H6.94841V8.7915H7.04841ZM6.99841 8.38447H8.29138V8.28447H6.99841V8.38447ZM8.3781 7.11963V7.57861H8.4781V7.11963H8.3781ZM8.4281 7.52861H6.99841V7.62861H8.4281V7.52861ZM7.04841 7.57861V7.11963H6.94841V7.57861H7.04841ZM6.99841 7.16963H8.4281V7.06963H6.99841V7.16963ZM9.35388 7.11963H9.40388V7.06963H9.35388V7.11963ZM9.35388 9.96338V10.0134H9.40388V9.96338H9.35388ZM8.76794 9.96338H8.71794V10.0134H8.76794V9.96338ZM8.76794 7.11963V7.06963H8.71794V7.11963H8.76794ZM10.4867 8.33447H10.5367V8.28447H10.4867V8.33447ZM10.4867 8.7915V8.8415H10.5367V8.7915H10.4867ZM9.19373 8.7915H9.14373V8.8415H9.19373V8.7915ZM9.19373 8.33447V8.28447H9.14373V8.33447H9.19373ZM10.6234 7.11963H10.6734V7.06963H10.6234V7.11963ZM10.6234 7.57861V7.62861H10.6734V7.57861H10.6234ZM9.19373 7.57861H9.14373V7.62861H9.19373V7.57861ZM9.19373 7.11963V7.06963H9.14373V7.11963H9.19373ZM9.30388 7.11963V9.96338H9.40388V7.11963H9.30388ZM9.35388 9.91338H8.76794V10.0134H9.35388V9.91338ZM8.81794 9.96338V7.11963H8.71794V9.96338H8.81794ZM8.76794 7.16963H9.35388V7.06963H8.76794V7.16963ZM10.4367 8.33447V8.7915H10.5367V8.33447H10.4367ZM10.4867 8.7415H9.19373V8.8415H10.4867V8.7415ZM9.24373 8.7915V8.33447H9.14373V8.7915H9.24373ZM9.19373 8.38447H10.4867V8.28447H9.19373V8.38447ZM10.5734 7.11963V7.57861H10.6734V7.11963H10.5734ZM10.6234 7.52861H9.19373V7.62861H10.6234V7.52861ZM9.24373 7.57861V7.11963H9.14373V7.57861H9.24373ZM9.19373 7.16963H10.6234V7.06963H9.19373V7.16963Z" fill="#7C29E5"/>
</svg>
