<svg width="15" height="15" viewBox="0 0 15 15" fill="none" xmlns="http://www.w3.org/2000/svg">
<path fill-rule="evenodd" clip-rule="evenodd" d="M11.5958 6.39893C11.5479 6.39893 11.5001 6.41805 11.4619 6.4563L10.888 7.03005C10.8115 7.10655 10.8115 7.2213 10.888 7.2978C10.9645 7.3743 11.0793 7.3743 11.1558 7.2978L11.4045 7.04917V10.4152C11.4045 10.7403 11.1558 10.9889 10.8307 10.9889H10.0655C9.95078 10.9889 9.87427 11.0654 9.87427 11.1802C9.87427 11.2949 9.95078 11.3714 10.0655 11.3714H10.8307C11.3662 11.3714 11.787 10.9507 11.787 10.4152V7.04917L12.0357 7.2978C12.074 7.33605 12.1313 7.35517 12.1696 7.35517C12.2078 7.35517 12.2652 7.33605 12.3035 7.2978C12.38 7.2213 12.38 7.10655 12.3035 7.03005L11.7297 6.4563C11.6914 6.41805 11.6436 6.39893 11.5958 6.39893Z" fill="#7C29E5"/>
<path d="M7.97971 14.4622C11.5695 14.4622 14.4798 11.5525 14.4798 7.96304C14.4798 4.37358 11.5695 1.46387 7.97971 1.46387C4.38991 1.46387 1.47974 4.37359 1.47974 7.96304C1.47974 11.5525 4.38992 14.4622 7.97971 14.4622Z" stroke="#7C29E5" stroke-miterlimit="1.5" stroke-linecap="round" stroke-linejoin="round"/>
<path d="M5.77466 9.21875C5.77466 9.16797 5.76685 9.1224 5.75122 9.08203C5.7369 9.04036 5.70955 9.0026 5.66919 8.96875C5.62882 8.93359 5.57218 8.89909 5.49927 8.86523C5.42635 8.83138 5.33195 8.79622 5.21606 8.75977C5.08716 8.7181 4.96476 8.67122 4.84888 8.61914C4.73429 8.56706 4.63273 8.50651 4.54419 8.4375C4.45695 8.36719 4.38794 8.28581 4.33716 8.19336C4.28768 8.10091 4.26294 7.99349 4.26294 7.87109C4.26294 7.7526 4.28898 7.64518 4.34106 7.54883C4.39315 7.45117 4.46606 7.36784 4.55981 7.29883C4.65356 7.22852 4.76424 7.17448 4.89185 7.13672C5.02075 7.09896 5.16203 7.08008 5.31567 7.08008C5.52531 7.08008 5.70825 7.11784 5.8645 7.19336C6.02075 7.26888 6.14185 7.3724 6.22778 7.50391C6.31502 7.63542 6.35864 7.78581 6.35864 7.95508H5.77661C5.77661 7.87174 5.75903 7.79883 5.72388 7.73633C5.69002 7.67253 5.63794 7.6224 5.56763 7.58594C5.49862 7.54948 5.41138 7.53125 5.30591 7.53125C5.20435 7.53125 5.11971 7.54688 5.052 7.57812C4.98429 7.60807 4.93351 7.64909 4.89966 7.70117C4.8658 7.75195 4.84888 7.80924 4.84888 7.87305C4.84888 7.92122 4.8606 7.96484 4.88403 8.00391C4.90877 8.04297 4.94523 8.07943 4.99341 8.11328C5.04159 8.14714 5.10083 8.17904 5.17114 8.20898C5.24146 8.23893 5.32284 8.26823 5.41528 8.29688C5.57023 8.34375 5.7063 8.39648 5.82349 8.45508C5.94198 8.51367 6.04093 8.57943 6.12036 8.65234C6.19979 8.72526 6.25968 8.80794 6.30005 8.90039C6.34041 8.99284 6.3606 9.09766 6.3606 9.21484C6.3606 9.33854 6.33651 9.44922 6.28833 9.54688C6.24015 9.64453 6.17049 9.72721 6.07935 9.79492C5.9882 9.86263 5.87948 9.91406 5.75317 9.94922C5.62687 9.98438 5.4856 10.002 5.32935 10.002C5.18872 10.002 5.05005 9.98372 4.91333 9.94727C4.77661 9.90951 4.65226 9.85286 4.54028 9.77734C4.42961 9.70182 4.34106 9.60547 4.27466 9.48828C4.20825 9.37109 4.17505 9.23242 4.17505 9.07227H4.76294C4.76294 9.16081 4.77661 9.23568 4.80396 9.29688C4.8313 9.35807 4.86971 9.40755 4.91919 9.44531C4.96997 9.48307 5.02987 9.51042 5.09888 9.52734C5.16919 9.54427 5.24601 9.55273 5.32935 9.55273C5.43091 9.55273 5.51424 9.53841 5.57935 9.50977C5.64575 9.48112 5.69458 9.44141 5.72583 9.39062C5.75838 9.33984 5.77466 9.28255 5.77466 9.21875ZM8.66724 9.50586V9.96289H7.15356V9.50586H8.66724ZM7.34497 7.11914V9.96289H6.75903V7.11914H7.34497ZM8.46997 8.27734V8.72266H7.15356V8.27734H8.46997ZM8.66528 7.11914V7.57812H7.15356V7.11914H8.66528ZM10.8372 9.50586V9.96289H9.40552V9.50586H10.8372ZM9.59497 7.11914V9.96289H9.00903V7.11914H9.59497Z" fill="#7C29E5"/>
<path d="M5.75122 9.08203L5.7039 9.0983L5.70459 9.10008L5.75122 9.08203ZM5.66919 8.96875L5.63634 9.00646L5.63706 9.00706L5.66919 8.96875ZM5.21606 8.75977L5.20069 8.80734L5.20106 8.80746L5.21606 8.75977ZM4.84888 8.61914L4.82819 8.66466L4.82838 8.66475L4.84888 8.61914ZM4.54419 8.4375L4.51281 8.47643L4.51345 8.47694L4.54419 8.4375ZM4.33716 8.19336L4.29307 8.21695L4.29333 8.21743L4.33716 8.19336ZM4.34106 7.54883L4.38505 7.5726L4.38518 7.57236L4.34106 7.54883ZM4.55981 7.29883L4.58946 7.3391L4.58981 7.33883L4.55981 7.29883ZM4.89185 7.13672L4.87779 7.08873L4.87766 7.08877L4.89185 7.13672ZM6.22778 7.50391L6.18593 7.53126L6.18612 7.53155L6.22778 7.50391ZM6.35864 7.95508V8.00508H6.40864V7.95508H6.35864ZM5.77661 7.95508H5.72661V8.00508H5.77661V7.95508ZM5.72388 7.73633L5.6797 7.75977L5.6803 7.76084L5.72388 7.73633ZM5.56763 7.58594L5.54427 7.63015L5.54461 7.63033L5.56763 7.58594ZM5.052 7.57812L5.07223 7.62386L5.07295 7.62352L5.052 7.57812ZM4.89966 7.70117L4.94126 7.72891L4.94158 7.72842L4.89966 7.70117ZM4.88403 8.00391L4.84115 8.02964L4.84179 8.03066L4.88403 8.00391ZM4.99341 8.11328L5.02216 8.07237L4.99341 8.11328ZM5.41528 8.29688L5.40048 8.34464L5.40081 8.34473L5.41528 8.29688ZM5.82349 8.45508L5.80113 8.4998L5.80132 8.4999L5.82349 8.45508ZM6.30005 8.90039L6.25423 8.9204L6.30005 8.90039ZM6.07935 9.79492L6.04953 9.75478L6.07935 9.79492ZM4.91333 9.94727L4.90002 9.99546L4.90045 9.99558L4.91333 9.94727ZM4.54028 9.77734L4.5121 9.81865L4.51233 9.8188L4.54028 9.77734ZM4.17505 9.07227V9.02227H4.12505V9.07227H4.17505ZM4.76294 9.07227H4.81294V9.02227H4.76294V9.07227ZM4.91919 9.44531L4.88885 9.48506L4.88935 9.48544L4.91919 9.44531ZM5.09888 9.52734L5.08697 9.5759L5.08717 9.57595L5.09888 9.52734ZM5.57935 9.50977L5.55954 9.46385L5.55921 9.464L5.57935 9.50977ZM5.72583 9.39062L5.68373 9.36364L5.68325 9.36442L5.72583 9.39062ZM5.82466 9.21875C5.82466 9.16285 5.81605 9.11101 5.79785 9.06398L5.70459 9.10008C5.71764 9.13378 5.72466 9.17309 5.72466 9.21875H5.82466ZM5.79851 9.06578C5.7807 9.01397 5.74728 8.96898 5.70132 8.93044L5.63706 9.00706C5.67183 9.03622 5.6931 9.06676 5.70394 9.09829L5.79851 9.06578ZM5.70203 8.93105C5.65682 8.89167 5.5956 8.85483 5.52032 8.81988L5.47821 8.91058C5.54877 8.94334 5.60083 8.97552 5.63635 9.00645L5.70203 8.93105ZM5.52032 8.81988C5.44472 8.78478 5.34809 8.74889 5.23107 8.71207L5.20106 8.80746C5.31581 8.84356 5.40798 8.87798 5.47821 8.91058L5.52032 8.81988ZM5.23144 8.71219C5.10416 8.67105 4.98348 8.62482 4.86937 8.57353L4.82838 8.66475C4.94604 8.71763 5.07015 8.76515 5.20069 8.80734L5.23144 8.71219ZM4.86957 8.57362C4.75814 8.52297 4.66002 8.46439 4.57493 8.39806L4.51345 8.47694C4.60544 8.54863 4.71045 8.61114 4.82819 8.66466L4.86957 8.57362ZM4.57557 8.39857C4.49308 8.33209 4.42843 8.25567 4.38098 8.16929L4.29333 8.21743C4.34745 8.31595 4.42082 8.40228 4.51281 8.47643L4.57557 8.39857ZM4.38124 8.16977C4.33625 8.0857 4.31294 7.98664 4.31294 7.87109H4.21294C4.21294 8.00034 4.23911 8.11612 4.29307 8.21695L4.38124 8.16977ZM4.31294 7.87109C4.31294 7.76021 4.33723 7.66107 4.38505 7.5726L4.29708 7.52505C4.24073 7.6293 4.21294 7.745 4.21294 7.87109H4.31294ZM4.38518 7.57236C4.43357 7.48163 4.5014 7.40391 4.58946 7.33909L4.53017 7.25856C4.43073 7.33176 4.35273 7.42071 4.29695 7.5253L4.38518 7.57236ZM4.58981 7.33883C4.67821 7.27253 4.78337 7.22096 4.90603 7.18466L4.87766 7.08877C4.74512 7.128 4.62892 7.1845 4.52981 7.25883L4.58981 7.33883ZM4.9059 7.1847C5.02964 7.14846 5.16612 7.13008 5.31567 7.13008V7.03008C5.15794 7.03008 5.01186 7.04946 4.87779 7.08874L4.9059 7.1847ZM5.31567 7.13008C5.51932 7.13008 5.69454 7.16675 5.84274 7.23838L5.88626 7.14834C5.72196 7.06893 5.5313 7.03008 5.31567 7.03008V7.13008ZM5.84274 7.23838C5.9917 7.31037 6.10547 7.40813 6.18593 7.53126L6.26964 7.47655C6.17822 7.33666 6.04981 7.22739 5.88626 7.14834L5.84274 7.23838ZM6.18612 7.53155C6.26752 7.65426 6.30864 7.79489 6.30864 7.95508H6.40864C6.40864 7.77672 6.36252 7.61657 6.26945 7.47627L6.18612 7.53155ZM6.35864 7.90508H5.77661V8.00508H6.35864V7.90508ZM5.82661 7.95508C5.82661 7.86456 5.80746 7.78293 5.76746 7.71182L5.6803 7.76084C5.71061 7.81472 5.72661 7.87893 5.72661 7.95508H5.82661ZM5.76804 7.71289C5.72897 7.63925 5.66906 7.58221 5.59064 7.54155L5.54461 7.63033C5.60682 7.66258 5.65107 7.7058 5.67971 7.75976L5.76804 7.71289ZM5.59098 7.54173C5.51269 7.50037 5.41679 7.48125 5.30591 7.48125V7.58125C5.40597 7.58125 5.48454 7.59859 5.54427 7.63015L5.59098 7.54173ZM5.30591 7.48125C5.19958 7.48125 5.10725 7.49756 5.03105 7.53273L5.07295 7.62352C5.13217 7.59619 5.20911 7.58125 5.30591 7.58125V7.48125ZM5.03178 7.5324C4.95692 7.56551 4.89782 7.61226 4.85774 7.67392L4.94158 7.72842C4.9692 7.68592 5.01166 7.65064 5.07223 7.62385L5.03178 7.5324ZM4.85806 7.67344C4.81847 7.73282 4.79888 7.79985 4.79888 7.87305H4.89888C4.89888 7.81864 4.91314 7.77109 4.94126 7.72891L4.85806 7.67344ZM4.79888 7.87305C4.79888 7.92974 4.81279 7.98234 4.84116 8.02963L4.92691 7.97818C4.9084 7.94734 4.89888 7.91271 4.89888 7.87305H4.79888ZM4.84179 8.03066C4.87087 8.07658 4.91251 8.11755 4.96466 8.15419L5.02216 8.07237C4.97795 8.04131 4.94667 8.00936 4.92627 7.97715L4.84179 8.03066ZM4.96466 8.15419C5.0164 8.19055 5.07891 8.22405 5.15155 8.25499L5.19074 8.16298C5.12275 8.13403 5.06677 8.10372 5.02216 8.07237L4.96466 8.15419ZM5.15155 8.25499C5.22378 8.28575 5.30682 8.31561 5.40048 8.34463L5.43008 8.24912C5.33886 8.22085 5.25913 8.19212 5.19074 8.16298L5.15155 8.25499ZM5.40081 8.34473C5.55365 8.39097 5.68698 8.44273 5.80113 8.4998L5.84585 8.41036C5.72562 8.35024 5.58682 8.29653 5.42976 8.24902L5.40081 8.34473ZM5.80132 8.4999C5.91649 8.55685 6.01129 8.62009 6.08655 8.68918L6.15417 8.61551C6.07058 8.53877 5.96746 8.4705 5.84565 8.41026L5.80132 8.4999ZM6.08655 8.68918C6.1612 8.75771 6.21684 8.83477 6.25423 8.9204L6.34587 8.88038C6.30253 8.78112 6.23837 8.69281 6.15417 8.61551L6.08655 8.68918ZM6.25423 8.9204C6.29143 9.0056 6.3106 9.10344 6.3106 9.21484H6.4106C6.4106 9.09187 6.3894 8.98008 6.34587 8.88038L6.25423 8.9204ZM6.3106 9.21484C6.3106 9.33192 6.28784 9.43486 6.24349 9.52475L6.33317 9.569C6.38518 9.46358 6.4106 9.34517 6.4106 9.21484H6.3106ZM6.24349 9.52475C6.19897 9.61499 6.13459 9.6916 6.04953 9.75478L6.10916 9.83506C6.20639 9.76283 6.28133 9.67407 6.33317 9.569L6.24349 9.52475ZM6.04953 9.75478C5.96401 9.81831 5.86105 9.86729 5.73977 9.90105L5.76658 9.99739C5.8979 9.96084 6.01239 9.90695 6.10916 9.83506L6.04953 9.75478ZM5.73977 9.90105C5.61857 9.93478 5.4819 9.95195 5.32935 9.95195V10.052C5.48929 10.052 5.63517 10.034 5.76658 9.99739L5.73977 9.90105ZM5.32935 9.95195C5.1931 9.95195 5.05876 9.9343 4.92621 9.89895L4.90045 9.99558C5.04134 10.0331 5.18434 10.052 5.32935 10.052V9.95195ZM4.92664 9.89907C4.79487 9.86268 4.67551 9.80824 4.56824 9.73589L4.51233 9.8188C4.62901 9.89749 4.75835 9.95633 4.90002 9.99546L4.92664 9.89907ZM4.56847 9.73604C4.46413 9.66485 4.38082 9.57421 4.31816 9.46363L4.23116 9.51293C4.30131 9.63673 4.39508 9.73879 4.5121 9.81864L4.56847 9.73604ZM4.31816 9.46363C4.25675 9.35527 4.22505 9.22542 4.22505 9.07227H4.12505C4.12505 9.23943 4.15975 9.38692 4.23116 9.51293L4.31816 9.46363ZM4.17505 9.12227H4.76294V9.02227H4.17505V9.12227ZM4.71294 9.07227C4.71294 9.16569 4.72733 9.24795 4.7583 9.31727L4.84961 9.27648C4.82589 9.22341 4.81294 9.15593 4.81294 9.07227H4.71294ZM4.7583 9.31727C4.78879 9.3855 4.83223 9.44184 4.88886 9.48506L4.94952 9.40557C4.90719 9.37326 4.87381 9.33065 4.84961 9.27648L4.7583 9.31727ZM4.88935 9.48544C4.94611 9.52764 5.01227 9.55758 5.08697 9.5759L5.11079 9.47878C5.04746 9.46325 4.99383 9.43851 4.94902 9.40519L4.88935 9.48544ZM5.08717 9.57595C5.16185 9.59393 5.24265 9.60273 5.32935 9.60273V9.50273C5.24937 9.50273 5.17653 9.49461 5.11058 9.47873L5.08717 9.57595ZM5.32935 9.60273C5.4351 9.60273 5.52593 9.5879 5.59948 9.55553L5.55921 9.464C5.50256 9.48893 5.42672 9.50273 5.32935 9.50273V9.60273ZM5.59915 9.55568C5.67295 9.52384 5.73072 9.47809 5.76841 9.41683L5.68325 9.36442C5.65844 9.40473 5.61855 9.4384 5.55954 9.46386L5.59915 9.55568ZM5.76792 9.41761C5.80594 9.3583 5.82466 9.29154 5.82466 9.21875H5.72466C5.72466 9.27357 5.71082 9.32139 5.68374 9.36364L5.76792 9.41761ZM8.66724 9.50586H8.71724V9.45586H8.66724V9.50586ZM8.66724 9.96289V10.0129H8.71724V9.96289H8.66724ZM7.15356 9.96289H7.10356V10.0129H7.15356V9.96289ZM7.15356 9.50586V9.45586H7.10356V9.50586H7.15356ZM7.34497 7.11914H7.39497V7.06914H7.34497V7.11914ZM7.34497 9.96289V10.0129H7.39497V9.96289H7.34497ZM6.75903 9.96289H6.70903V10.0129H6.75903V9.96289ZM6.75903 7.11914V7.06914H6.70903V7.11914H6.75903ZM8.46997 8.27734H8.51997V8.22734H8.46997V8.27734ZM8.46997 8.72266V8.77266H8.51997V8.72266H8.46997ZM7.15356 8.72266H7.10356V8.77266H7.15356V8.72266ZM7.15356 8.27734V8.22734H7.10356V8.27734H7.15356ZM8.66528 7.11914H8.71528V7.06914H8.66528V7.11914ZM8.66528 7.57812V7.62813H8.71528V7.57812H8.66528ZM7.15356 7.57812H7.10356V7.62813H7.15356V7.57812ZM7.15356 7.11914V7.06914H7.10356V7.11914H7.15356ZM8.61724 9.50586V9.96289H8.71724V9.50586H8.61724ZM8.66724 9.91289H7.15356V10.0129H8.66724V9.91289ZM7.20356 9.96289V9.50586H7.10356V9.96289H7.20356ZM7.15356 9.55586H8.66724V9.45586H7.15356V9.55586ZM7.29497 7.11914V9.96289H7.39497V7.11914H7.29497ZM7.34497 9.91289H6.75903V10.0129H7.34497V9.91289ZM6.80903 9.96289V7.11914H6.70903V9.96289H6.80903ZM6.75903 7.16914H7.34497V7.06914H6.75903V7.16914ZM8.41997 8.27734V8.72266H8.51997V8.27734H8.41997ZM8.46997 8.67266H7.15356V8.77266H8.46997V8.67266ZM7.20356 8.72266V8.27734H7.10356V8.72266H7.20356ZM7.15356 8.32734H8.46997V8.22734H7.15356V8.32734ZM8.61528 7.11914V7.57812H8.71528V7.11914H8.61528ZM8.66528 7.52812H7.15356V7.62813H8.66528V7.52812ZM7.20356 7.57812V7.11914H7.10356V7.57812H7.20356ZM7.15356 7.16914H8.66528V7.06914H7.15356V7.16914ZM10.8372 9.50586H10.8872V9.45586H10.8372V9.50586ZM10.8372 9.96289V10.0129H10.8872V9.96289H10.8372ZM9.40552 9.96289H9.35552V10.0129H9.40552V9.96289ZM9.40552 9.50586V9.45586H9.35552V9.50586H9.40552ZM9.59497 7.11914H9.64497V7.06914H9.59497V7.11914ZM9.59497 9.96289V10.0129H9.64497V9.96289H9.59497ZM9.00903 9.96289H8.95903V10.0129H9.00903V9.96289ZM9.00903 7.11914V7.06914H8.95903V7.11914H9.00903ZM10.7872 9.50586V9.96289H10.8872V9.50586H10.7872ZM10.8372 9.91289H9.40552V10.0129H10.8372V9.91289ZM9.45552 9.96289V9.50586H9.35552V9.96289H9.45552ZM9.40552 9.55586H10.8372V9.45586H9.40552V9.55586ZM9.54497 7.11914V9.96289H9.64497V7.11914H9.54497ZM9.59497 9.91289H9.00903V10.0129H9.59497V9.91289ZM9.05903 9.96289V7.11914H8.95903V9.96289H9.05903ZM9.00903 7.16914H9.59497V7.06914H9.00903V7.16914Z" fill="#7C29E5"/>
</svg>
