<svg width="15" height="15" viewBox="0 0 15 15" fill="none" xmlns="http://www.w3.org/2000/svg">
<path d="M12.649 9.62004V7.57481C12.649 7.40217 12.5804 7.2366 12.4583 7.11453C12.3363 6.99246 12.1707 6.92388 11.9981 6.92388H8.09246V5.52958C8.70607 5.37114 9.24083 4.99436 9.59651 4.46985C9.95219 3.94534 10.1044 3.30912 10.0245 2.68044C9.94466 2.05176 9.63826 1.47378 9.16275 1.05485C8.68724 0.635914 8.07526 0.404785 7.44153 0.404785C6.8078 0.404785 6.19582 0.635914 5.72031 1.05485C5.2448 1.47378 4.9384 2.05176 4.85855 2.68044C4.77869 3.30912 4.93087 3.94534 5.28655 4.46985C5.64222 4.99436 6.17699 5.37114 6.79059 5.52958V6.92388H2.88499C2.71235 6.92388 2.54679 6.99246 2.42471 7.11453C2.30264 7.2366 2.23406 7.40217 2.23406 7.57481V9.62004C1.62045 9.77848 1.08569 10.1553 0.730009 10.6798C0.374331 11.2043 0.222156 11.8405 0.302009 12.4692C0.381862 13.0979 0.68826 13.6758 1.16377 14.0948C1.63928 14.5137 2.25126 14.7448 2.88499 14.7448C3.51872 14.7448 4.1307 14.5137 4.60621 14.0948C5.08172 13.6758 5.38812 13.0979 5.46797 12.4692C5.54783 11.8405 5.39565 11.2043 5.03997 10.6798C4.6843 10.1553 4.14953 9.77848 3.53593 9.62004V8.22574H11.3471V9.62004C10.7335 9.77848 10.1988 10.1553 9.84308 10.6798C9.4874 11.2043 9.33523 11.8405 9.41508 12.4692C9.49494 13.0979 9.80133 13.6758 10.2768 14.0948C10.7524 14.5137 11.3643 14.7448 11.9981 14.7448C12.6318 14.7448 13.2438 14.5137 13.7193 14.0948C14.1948 13.6758 14.5012 13.0979 14.581 12.4692C14.6609 11.8405 14.5087 11.2043 14.153 10.6798C13.7974 10.1553 13.2626 9.77848 12.649 9.62004ZM4.18686 12.1313C4.18686 12.3888 4.11051 12.6405 3.96745 12.8546C3.8244 13.0687 3.62108 13.2356 3.38319 13.3341C3.14531 13.4327 2.88355 13.4584 2.63101 13.4082C2.37847 13.358 2.1465 13.234 1.96443 13.0519C1.78236 12.8698 1.65837 12.6379 1.60814 12.3853C1.55791 12.1328 1.58369 11.871 1.68222 11.6331C1.78076 11.3953 1.94762 11.1919 2.16171 11.0489C2.3758 10.9058 2.62751 10.8295 2.88499 10.8295C3.23027 10.8295 3.5614 10.9666 3.80555 11.2108C4.0497 11.4549 4.18686 11.7861 4.18686 12.1313ZM6.13966 3.01827C6.13966 2.76079 6.21601 2.50909 6.35906 2.29499C6.50212 2.0809 6.70544 1.91404 6.94333 1.8155C7.18121 1.71697 7.44297 1.69119 7.69551 1.74142C7.94805 1.79165 8.18002 1.91564 8.36209 2.09771C8.54416 2.27978 8.66815 2.51175 8.71838 2.76429C8.76861 3.01683 8.74283 3.27859 8.6443 3.51648C8.54576 3.75436 8.3789 3.95769 8.16481 4.10074C7.95072 4.24379 7.69901 4.32014 7.44153 4.32014C7.09625 4.32014 6.76512 4.18298 6.52097 3.93883C6.27682 3.69469 6.13966 3.36355 6.13966 3.01827ZM11.9981 13.4332C11.7406 13.4332 11.4889 13.3569 11.2748 13.2138C11.0607 13.0708 10.8938 12.8674 10.7953 12.6296C10.6968 12.3917 10.671 12.1299 10.7212 11.8774C10.7714 11.6248 10.8954 11.3929 11.0775 11.2108C11.2596 11.0287 11.4915 10.9047 11.7441 10.8545C11.9966 10.8043 12.2584 10.83 12.4963 10.9286C12.7342 11.0271 12.9375 11.194 13.0805 11.4081C13.2236 11.6222 13.2999 11.8739 13.2999 12.1313C13.2999 12.4766 13.1628 12.8078 12.9186 13.0519C12.6745 13.2961 12.3433 13.4332 11.9981 13.4332Z" fill="white"/>
</svg>
