<svg width="16" height="12" viewBox="0 0 16 12" fill="none" xmlns="http://www.w3.org/2000/svg">
<path d="M2.59961 10.2783H3.46665V2.10791H2.59961V10.2783ZM4.30709 10.2783H4.8071V2.10791H4.30709V10.2783ZM5.63158 10.2783H7.04652V2.10791H5.63158V10.2783ZM7.56781 10.2783H8.46676V2.10791H7.56781V10.2783ZM9.00401 10.2783H10.4083V2.10791H9.00401V10.2783ZM10.8392 10.2783H11.9403V2.10791H10.8392V10.2783ZM12.2168 10.2783H12.9296V2.10791H12.2168V10.2783Z" fill="black"/>
<path d="M0.977276 0.39502H0.26709V4.11812H0.977276V0.39502Z" fill="#080605"/>
<path d="M0.26709 0.394794L0.26709 1.10498L3.99019 1.10498V0.394794L0.26709 0.394794Z" fill="#080605"/>
<path d="M14.5515 0.39502H15.2617V4.11812H14.5515V0.39502Z" fill="#080605"/>
<path d="M15.2617 0.394794V1.10498L11.5386 1.10498V0.394794L15.2617 0.394794Z" fill="#080605"/>
<path d="M0.26709 11.2805L0.26709 11.9907H3.99019V11.2805H0.26709Z" fill="#080605"/>
<path d="M0.266864 11.9907H0.977051L0.977051 8.26762H0.266864L0.266864 11.9907Z" fill="#080605"/>
<path d="M15.2617 11.2805V11.9907H11.5386V11.2805H15.2617Z" fill="#080605"/>
<path d="M15.2615 11.9907H14.5513V8.26762H15.2615V11.9907Z" fill="#080605"/>
</svg>
