<svg width="16" height="15" viewBox="0 0 16 15" fill="none" xmlns="http://www.w3.org/2000/svg">
<path d="M1.72161 3.58574H9.4359C9.5559 3.58574 9.65018 3.49146 9.65018 3.37148C9.65018 3.2515 9.5559 3.15723 9.4359 3.15723H1.72161C1.60161 3.15723 1.50732 3.2515 1.50732 3.37148C1.50732 3.49146 1.60161 3.58574 1.72161 3.58574ZM1.72161 5.72829H6.00732C6.12732 5.72829 6.22161 5.63402 6.22161 5.51403C6.22161 5.39405 6.12732 5.29978 6.00732 5.29978H1.72161C1.60161 5.29978 1.50732 5.39405 1.50732 5.51403C1.50732 5.63402 1.60161 5.72829 1.72161 5.72829ZM1.72161 7.87084H4.72161C4.84161 7.87084 4.9359 7.77657 4.9359 7.65659C4.9359 7.5366 4.84161 7.44233 4.72161 7.44233H1.72161C1.60161 7.44233 1.50732 7.5366 1.50732 7.65659C1.50732 7.77657 1.60161 7.87084 1.72161 7.87084ZM1.72161 10.0134C7.01447 10.022 5.18875 10.0177 5.58733 10.0177C5.70732 10.0177 5.80161 9.92341 5.80161 9.80342C5.80161 9.68344 5.70732 9.58917 5.58733 9.58917C0.294467 9.5806 2.12018 9.58488 1.72161 9.58488C1.60161 9.58488 1.50732 9.67916 1.50732 9.79914C1.50732 9.91912 1.60161 10.0134 1.72161 10.0134ZM1.72161 12.1559H6.4359C6.5559 12.1559 6.65018 12.0617 6.65018 11.9417C6.65018 11.8217 6.5559 11.7274 6.4359 11.7274H1.72161C1.60161 11.7274 1.50732 11.8217 1.50732 11.9417C1.50732 12.0617 1.60161 12.1559 1.72161 12.1559ZM12.4359 4.87127C12.483 4.87127 12.4573 4.87127 12.9459 4.71272C13.0573 4.67415 13.1173 4.55417 13.083 4.44276C13.0645 4.38946 13.026 4.34543 12.9756 4.31987C12.9253 4.29431 12.867 4.28921 12.813 4.30563L12.3716 4.45133C12.1402 4.52846 12.1959 4.86698 12.4402 4.86698L12.4359 4.87127Z" fill="white"/>
<path d="M14.6986 4.22419C14.6033 4.15365 14.572 4.1644 14.1289 4.31616C14.0337 4.34878 13.9194 4.38792 13.7814 4.43416C13.67 4.46844 13.55 4.40845 13.5114 4.29704C13.495 4.24304 13.5001 4.18478 13.5257 4.13446C13.5512 4.08414 13.5953 4.04566 13.6486 4.02708L14.6986 4.22419ZM14.6986 4.22419C14.7118 4.23388 14.7232 4.23723 14.7331 4.24316C14.8196 4.29493 14.7886 4.5431 14.7886 10.9218C14.7886 11.0675 14.6472 11.1703 14.5057 11.1232L14.6986 4.22419ZM11.4698 4.64782L11.0357 4.7925V2.51443C11.0357 1.63217 10.3181 0.914648 9.43572 0.914648H1.72144C0.839078 0.914648 0.121436 1.63217 0.121435 2.51443L0.121436 2.51468L0.130916 6.31032C0.12472 6.33517 0.121436 6.36124 0.121436 6.38817V12.7987C0.121436 13.681 0.839078 14.3985 1.72144 14.3985H9.43572C10.3181 14.3985 11.0357 13.681 11.0357 12.7987V10.5206C11.7644 10.7635 12.3362 10.9546 12.7859 11.105C13.4346 11.3218 13.8294 11.4537 14.0745 11.5338C14.2857 11.6027 14.3902 11.6347 14.4514 11.6489C14.5086 11.6623 14.5369 11.6614 14.5619 11.6606C14.5675 11.6605 14.573 11.6603 14.5786 11.6603C14.9641 11.6603 15.3214 11.3494 15.3214 10.9175V4.3956C15.3214 3.89064 14.8263 3.52907 14.3412 3.69227C14.3411 3.69229 14.341 3.69232 14.341 3.69234L13.6171 3.93215L13.6171 3.93214L13.6157 3.93265C13.538 3.95974 13.4738 4.01582 13.4365 4.08917C13.3993 4.16252 13.3918 4.24744 13.4158 4.32615L13.4157 4.32617L13.4169 4.32975C13.4732 4.49235 13.6482 4.57978 13.8108 4.52974L13.8109 4.52977L13.8132 4.52898C13.9559 4.48114 14.0723 4.4413 14.1679 4.40852C14.3374 4.35045 14.4421 4.31458 14.5143 4.29579C14.5699 4.28131 14.5913 4.28142 14.6007 4.28289C14.6064 4.28377 14.6133 4.28544 14.6391 4.30455L14.6394 4.30484C14.6498 4.31239 14.6595 4.31795 14.6671 4.32189C14.6676 4.32401 14.6681 4.32645 14.6686 4.32924C14.681 4.39526 14.6885 4.55219 14.6918 4.94331C14.6952 5.35395 14.6941 6.01147 14.6923 7.07C14.6907 8.00537 14.6886 9.25385 14.6886 10.9218C14.6886 10.9987 14.6145 11.0541 14.5373 11.0283L10.1743 9.57279V5.74041L11.6658 5.24467L11.6658 5.24468L11.667 5.24427C11.8296 5.188 11.9171 5.01306 11.867 4.8504L11.8671 4.85038L11.8659 4.84688C11.8388 4.7692 11.7827 4.70501 11.7093 4.66776C11.636 4.63051 11.551 4.62308 11.4723 4.64702L11.4723 4.64698L11.4698 4.64782ZM0.750007 12.7987V10.1508C0.762186 10.1171 0.76881 10.0805 0.76881 10.0423L0.76881 10.042L0.750007 2.51443C0.750007 2.5144 0.750007 2.51437 0.750007 2.51433C0.750035 2.25677 0.852375 2.00977 1.03453 1.82764C1.2167 1.64549 1.46379 1.54316 1.72144 1.54316H9.43572C9.69337 1.54316 9.94045 1.64549 10.1226 1.82764C10.3048 2.00979 10.4071 2.25684 10.4071 2.51443V5.00071L9.81368 5.19975H7.29286C6.88193 5.19975 6.55001 5.53161 6.55001 5.94252V6.05677H6.43572C6.12504 6.05677 5.82709 6.18017 5.6074 6.39983C5.38771 6.61948 5.26429 6.9174 5.26429 7.22805V8.08507C5.26429 8.39572 5.38771 8.69364 5.6074 8.91329C5.82709 9.13295 6.12504 9.25635 6.43572 9.25635H6.55001V9.3706C6.55001 9.70718 6.77302 9.9874 7.07477 10.0806L7.35665 12.0452C7.35666 12.0453 7.35667 12.0454 7.35669 12.0455C7.40652 12.4081 7.72338 12.6844 8.09429 12.6844H8.57858C8.98951 12.6844 9.32144 12.3526 9.32144 11.9417V10.1134H9.81369L10.4071 10.3124V12.7987C10.4071 13.0563 10.3048 13.3033 10.1226 13.4855C9.94045 13.6676 9.69337 13.77 9.43572 13.77H1.72144C1.46379 13.77 1.2167 13.6676 1.03453 13.4855C0.85235 13.3033 0.750007 13.0563 0.750007 12.7987ZM6.43572 8.62784C6.13522 8.62784 5.89286 8.38549 5.89286 8.08507V7.22805C5.89286 6.92763 6.13522 6.68528 6.43572 6.68528H6.55001V8.62784H6.43572ZM7.17858 9.3706V5.94252C7.17858 5.87778 7.22808 5.82826 7.29286 5.82826H9.55001V9.48486H7.29286C7.22808 9.48486 7.17858 9.43534 7.17858 9.3706ZM8.69286 11.9417C8.69286 12.0064 8.64336 12.0559 8.57858 12.0559H8.09429C8.03895 12.0559 7.98877 12.0129 7.97882 11.9562L7.71667 10.1134H8.69286V11.9417Z" fill="white" stroke="white" stroke-width="0.2"/>
</svg>
