<svg width="17" height="17" viewBox="0 0 17 17" fill="none" xmlns="http://www.w3.org/2000/svg">
<path fill-rule="evenodd" clip-rule="evenodd" d="M10.8677 1.24023H13.5404C14.6462 1.24023 15.5432 2.14493 15.5432 3.261V5.95565C15.5432 7.07088 14.6462 7.97642 13.5404 7.97642H10.8677C9.7611 7.97642 8.86406 7.07088 8.86406 5.95565V3.261C8.86406 2.14493 9.7611 1.24023 10.8677 1.24023ZM2.54688 1.24023H5.21871C6.32533 1.24023 7.22237 2.14493 7.22237 3.261V5.95565C7.22237 7.07088 6.32533 7.97642 5.21871 7.97642H2.54688C1.44025 7.97642 0.543213 7.07088 0.543213 5.95565V3.261C0.543213 2.14493 1.44025 1.24023 2.54688 1.24023ZM2.54688 9.50192H5.21871C6.32533 9.50192 7.22237 10.4066 7.22237 11.5235V14.2173C7.22237 15.3334 6.32533 16.2381 5.21871 16.2381H2.54688C1.44025 16.2381 0.543213 15.3334 0.543213 14.2173V11.5235C0.543213 10.4066 1.44025 9.50192 2.54688 9.50192ZM10.8677 9.50192H13.5404C14.6462 9.50192 15.5432 10.4066 15.5432 11.5235V14.2173C15.5432 15.3334 14.6462 16.2381 13.5404 16.2381H10.8677C9.7611 16.2381 8.86406 15.3334 8.86406 14.2173V11.5235C8.86406 10.4066 9.7611 9.50192 10.8677 9.50192Z" stroke="white" stroke-linecap="round" stroke-linejoin="round"/>
</svg>
