<svg width="19" height="19" viewBox="0 0 19 19" fill="none" xmlns="http://www.w3.org/2000/svg">
<path d="M5.2406 13.8733L5.2406 10.4138" stroke="#601AB9" stroke-width="1.2" stroke-linecap="round"/>
<path d="M9.56494 13.8732L9.56494 5.22461" stroke="#601AB9" stroke-width="1.2" stroke-linecap="round"/>
<path d="M13.8893 13.8733L13.8893 8.68408" stroke="#601AB9" stroke-width="1.2" stroke-linecap="round"/>
<path d="M2.12772 16.9862C2.8594 17.7178 3.79207 18.05 4.9773 18.2094C6.13592 18.3652 7.62136 18.3651 9.51896 18.3651H9.56494H9.61092C11.5085 18.3651 12.994 18.3652 14.1526 18.2094C15.3378 18.05 16.2705 17.7178 17.0022 16.9862C17.7338 16.2545 18.066 15.3218 18.2254 14.1366C18.3811 12.978 18.3811 11.4925 18.3811 9.59493V9.54895V9.50297C18.3811 7.60536 18.3811 6.11993 18.2254 4.96131C18.066 3.77608 17.7338 2.84341 17.0022 2.11173C16.2705 1.38005 15.3378 1.04787 14.1526 0.888518C12.994 0.732746 11.5085 0.732753 9.61093 0.732764L9.56494 0.732764L9.51896 0.732764C7.62135 0.732753 6.13592 0.732745 4.9773 0.888518C3.79207 1.04787 2.8594 1.38005 2.12772 2.11173C1.39605 2.84341 1.06386 3.77608 0.904509 4.96131C0.748737 6.11993 0.748745 7.60536 0.748755 9.50296L0.748755 9.54895L0.748755 9.59494C0.748745 11.4925 0.748737 12.978 0.904509 14.1366C1.06386 15.3218 1.39605 16.2545 2.12772 16.9862Z" stroke="#601AB9" stroke-width="1.2" stroke-linejoin="round"/>
</svg>
