<svg width="13" height="11" viewBox="0 0 13 11" fill="none" xmlns="http://www.w3.org/2000/svg">
<path d="M10.8342 3.34963C10.8342 3.27607 10.8635 3.20552 10.9155 3.1535C10.9675 3.10149 11.0381 3.07227 11.1116 3.07227C11.4257 3.07227 11.7268 3.197 11.9489 3.41902C12.171 3.64104 12.2957 3.94217 12.2957 4.25616V9.07146C12.2957 9.38545 12.171 9.68657 11.9489 9.9086C11.7268 10.1306 11.4257 10.2553 11.1116 10.2553H3.6892C3.37521 10.2553 3.0741 10.1305 2.85209 9.90851C2.63009 9.6865 2.50537 9.38541 2.50537 9.07146C2.50537 8.9979 2.5346 8.92735 2.58662 8.87533C2.63864 8.82332 2.7092 8.79409 2.78278 8.79409C2.85635 8.79409 2.92691 8.82332 2.97893 8.87533C3.03096 8.92735 3.06018 8.9979 3.06018 9.07146C3.06018 9.23828 3.12645 9.39828 3.2444 9.51626C3.36236 9.63424 3.52235 9.70055 3.6892 9.70062H11.1116C11.2785 9.70062 11.4386 9.63433 11.5566 9.51634C11.6746 9.39835 11.7409 9.23832 11.7409 9.07146V4.25616C11.7409 4.08929 11.6746 3.92926 11.5566 3.81127C11.4386 3.69328 11.2785 3.627 11.1116 3.627C11.0381 3.627 10.9675 3.59778 10.9155 3.54576C10.8635 3.49374 10.8342 3.42319 10.8342 3.34963Z" fill="#7C29E5"/>
<path d="M0.29541 1.94606C0.29541 1.62729 0.422059 1.32158 0.647494 1.09617C0.87293 0.870771 1.17869 0.744141 1.4975 0.744141H8.95277C9.27158 0.744141 9.57734 0.870771 9.80278 1.09617C10.0282 1.32158 10.1549 1.62729 10.1549 1.94606V7.0311C10.1549 7.18894 10.1238 7.34523 10.0634 7.49105C10.0029 7.63688 9.9144 7.76938 9.80278 7.88099C9.69115 7.99259 9.55863 8.08113 9.41279 8.14153C9.26695 8.20193 9.11063 8.23302 8.95277 8.23302H1.4975C1.33964 8.23302 1.18332 8.20193 1.03748 8.14153C0.891636 8.08113 0.759119 7.99259 0.647494 7.88099C0.53587 7.76938 0.447324 7.63688 0.386914 7.49105C0.326503 7.34523 0.29541 7.18894 0.29541 7.0311V1.94606ZM1.4975 1.29887C1.32583 1.29887 1.16119 1.36706 1.0398 1.48843C0.918416 1.6098 0.850221 1.77441 0.850221 1.94606V7.0311C0.850221 7.20275 0.918416 7.36736 1.0398 7.48873C1.16119 7.6101 1.32583 7.67829 1.4975 7.67829H8.95277C9.12444 7.67829 9.28908 7.6101 9.41047 7.48873C9.53185 7.36736 9.60005 7.20275 9.60005 7.0311V1.94606C9.60005 1.77441 9.53185 1.6098 9.41047 1.48843C9.28908 1.36706 9.12444 1.29887 8.95277 1.29887H1.4975Z" fill="#7C29E5"/>
<path d="M0.465332 2.49319C0.465332 2.41962 0.494559 2.34908 0.546582 2.29706C0.598606 2.24504 0.669165 2.21582 0.742737 2.21582H8.50523C8.54166 2.21582 8.57773 2.22299 8.61139 2.23693C8.64505 2.25087 8.67563 2.2713 8.70139 2.29706C8.72715 2.32281 8.74758 2.35339 8.76152 2.38704C8.77546 2.42069 8.78264 2.45676 8.78264 2.49319C8.78264 2.52961 8.77546 2.56568 8.76152 2.59933C8.74758 2.63298 8.72715 2.66356 8.70139 2.68931C8.67563 2.71507 8.64505 2.7355 8.61139 2.74944C8.57773 2.76338 8.54166 2.77055 8.50523 2.77055H0.742737C0.669165 2.77055 0.598606 2.74133 0.546582 2.68931C0.494559 2.6373 0.465332 2.56675 0.465332 2.49319ZM2.44855 3.99443C2.44855 3.92087 2.47778 3.85032 2.5298 3.7983C2.58182 3.74629 2.65238 3.71706 2.72595 3.71706H9.66664C9.74021 3.71706 9.81077 3.74629 9.86279 3.7983C9.91482 3.85032 9.94404 3.92087 9.94404 3.99443C9.94404 4.06799 9.91482 4.13854 9.86279 4.19056C9.81077 4.24257 9.74021 4.2718 9.66664 4.2718H2.72595C2.65238 4.2718 2.58182 4.24257 2.5298 4.19056C2.47778 4.13854 2.44855 4.06799 2.44855 3.99443ZM6.48873 5.3452C6.51191 5.29952 6.54729 5.26115 6.59095 5.23434C6.63461 5.20754 6.68485 5.19335 6.73608 5.19334H8.43265C8.48007 5.19335 8.5267 5.20551 8.56808 5.22866C8.60947 5.25182 8.64422 5.28519 8.66903 5.3256C8.69384 5.36601 8.70788 5.4121 8.7098 5.45948C8.71172 5.50686 8.70146 5.55393 8.68 5.59622L8.12265 6.69412C8.09946 6.73981 8.06408 6.77818 8.02042 6.80498C7.97676 6.83179 7.92653 6.84598 7.87529 6.84598H6.17873C6.1313 6.84598 6.08468 6.83382 6.04329 6.81066C6.00191 6.78751 5.96715 6.75413 5.94234 6.71373C5.91753 6.67332 5.9035 6.62722 5.90158 6.57985C5.89966 6.53247 5.90992 6.48539 5.93137 6.44311L6.48873 5.3452ZM6.90645 5.74808L6.63067 6.29125H7.70492L7.98071 5.74808H6.90645Z" fill="#7C29E5"/>
</svg>
