<svg width="16" height="19" viewBox="0 0 16 19" fill="none" xmlns="http://www.w3.org/2000/svg">
<mask id="path-1-outside-1_1002_4009" maskUnits="userSpaceOnUse" x="-0.393799" y="-0.509766" width="17" height="20" fill="black">
<rect fill="white" x="-0.393799" y="-0.509766" width="17" height="20"/>
<path d="M14.9996 6.32561C14.8173 6.06969 14.642 5.82428 14.5648 5.58589C14.4842 5.33347 14.4772 5.02496 14.4737 4.69541C14.4667 4.19759 14.4596 3.68223 14.1651 3.27906C13.8671 2.87239 13.3797 2.70411 12.9028 2.54635C12.5943 2.44117 12.3068 2.34301 12.0929 2.18875C11.886 2.038 11.7037 1.7961 11.5143 1.53667C11.2128 1.13351 10.9042 0.712808 10.4169 0.555046C9.95052 0.404296 9.46314 0.555046 8.9933 0.698785C8.67773 0.796947 8.37619 0.888098 8.1027 0.888098C7.8292 0.888098 7.52766 0.796947 7.21209 0.698785C6.73874 0.55154 6.25136 0.40079 5.78853 0.555046C5.30115 0.712808 4.9926 1.13 4.69105 1.53667C4.49821 1.7926 4.31939 2.038 4.11251 2.18875C3.90213 2.34301 3.61111 2.44117 3.30255 2.54635C2.8292 2.70761 2.33832 2.87239 2.04028 3.27906C1.74575 3.68223 1.73874 4.19759 1.73173 4.69541C1.72822 5.02145 1.72121 5.32996 1.64056 5.58589C1.56342 5.82428 1.39161 6.06618 1.20578 6.32561C0.91125 6.7393 0.606201 7.16701 0.606201 7.68587C0.606201 8.20473 0.91125 8.63244 1.20578 9.04612C1.38811 9.30205 1.56342 9.54745 1.64056 9.78585C1.72121 10.0383 1.72822 10.3468 1.73173 10.6763C1.73874 11.1742 1.74575 11.6895 2.04028 12.0927C2.33832 12.4993 2.8257 12.6676 3.30255 12.8254C3.61111 12.9306 3.89863 13.0287 4.11251 13.183C4.31939 13.3337 4.50171 13.5756 4.69105 13.8351C4.81378 13.9998 4.9365 14.1646 5.07324 14.3154V17.439C5.07324 17.7861 5.25206 18.0981 5.55361 18.2734C5.85515 18.4487 6.21279 18.4487 6.51434 18.2769L7.88881 17.4951C8.02205 17.418 8.19035 17.418 8.32359 17.4951L9.69807 18.2769C9.84884 18.3611 10.0101 18.4031 10.1749 18.4031C10.3432 18.4031 10.508 18.3576 10.6588 18.2699C10.9603 18.0946 11.1392 17.7826 11.1392 17.4355V14.3119C11.2759 14.1611 11.3986 13.9963 11.5213 13.8316C11.7142 13.5756 11.893 13.3302 12.0999 13.1795C12.3103 13.0252 12.6013 12.9271 12.9098 12.8219C13.3832 12.6606 13.8741 12.4958 14.1721 12.0892C14.4666 11.686 14.4737 11.1706 14.4807 10.6728C14.4842 10.3468 14.4912 10.0383 14.5718 9.78234C14.649 9.54395 14.8208 9.30205 15.0066 9.04262C15.3012 8.62893 15.6062 8.20122 15.6062 7.68236C15.5992 7.16701 15.2941 6.7393 14.9996 6.32561ZM10.6097 17.439C10.6097 17.5968 10.5291 17.737 10.3923 17.8177C10.2556 17.8983 10.0908 17.8983 9.95403 17.8212L8.57955 17.0394C8.28502 16.8711 7.92037 16.8711 7.62584 17.0394L6.25136 17.8212C6.11462 17.8983 5.94982 17.8983 5.81307 17.8177C5.67633 17.737 5.59568 17.5968 5.59568 17.439V14.7396C5.65529 14.7711 5.7184 14.7957 5.78502 14.8202C5.92177 14.8658 6.06202 14.8833 6.20227 14.8833C6.53888 14.8833 6.87899 14.7781 7.21209 14.6765C7.52766 14.5783 7.8292 14.4871 8.1027 14.4871C8.37619 14.4871 8.67773 14.5783 8.9933 14.6765C9.46665 14.8237 9.95403 14.9745 10.4169 14.8202C10.4835 14.7992 10.5466 14.7711 10.6062 14.7396V17.439H10.6097ZM14.5718 8.74462C14.372 9.02158 14.1686 9.31257 14.0669 9.62458C13.9617 9.95413 13.9547 10.3187 13.9512 10.6693C13.9442 11.104 13.9407 11.5177 13.7444 11.7842C13.5445 12.0576 13.1553 12.1908 12.738 12.3311C12.4084 12.4433 12.0648 12.5589 11.7878 12.7588C11.5143 12.9586 11.3005 13.2461 11.0971 13.523C10.8341 13.8771 10.5852 14.2102 10.2591 14.3189C9.95052 14.417 9.56483 14.2978 9.15108 14.1716C8.81097 14.0664 8.45683 13.9578 8.1027 13.9578C7.74856 13.9578 7.39793 14.0664 7.05431 14.1716C6.64407 14.2978 6.25487 14.4205 5.94631 14.3189C5.62023 14.2137 5.37128 13.8771 5.10831 13.523C4.90143 13.2461 4.68755 12.9586 4.41756 12.7588C4.14056 12.5589 3.80045 12.4433 3.46735 12.3311C3.05361 12.1908 2.6609 12.0576 2.46104 11.7842C2.26469 11.5177 2.26118 11.104 2.25417 10.6693C2.25066 10.3187 2.24365 9.95413 2.13846 9.62458C2.03678 9.30906 1.8299 9.02158 1.63355 8.74462C1.37408 8.38352 1.13215 8.03996 1.13215 7.68587C1.13215 7.33178 1.37408 6.99172 1.63355 6.62711C1.83341 6.35015 2.03678 6.05917 2.13846 5.74715C2.24365 5.41761 2.25066 5.053 2.25417 4.70242C2.26118 4.2677 2.26469 3.85402 2.46104 3.58757C2.6609 3.31412 3.0501 3.1809 3.46735 3.04067C3.79694 2.92848 4.14056 2.81279 4.41756 2.61296C4.69105 2.41313 4.90494 2.12565 5.10831 1.84869C5.37128 1.4946 5.62023 1.16155 5.94631 1.05287C6.02696 1.02833 6.11111 1.01431 6.19877 1.01431C6.45473 1.01431 6.74575 1.10546 7.0508 1.20012C7.39091 1.30529 7.74505 1.41397 8.09919 1.41397C8.45333 1.41397 8.80396 1.30529 9.14758 1.20012C9.55781 1.07391 9.94701 0.951203 10.2556 1.05287C10.5817 1.15805 10.8306 1.4946 11.0936 1.84869C11.3005 2.12565 11.5143 2.41313 11.7843 2.61296C12.0613 2.81279 12.4014 2.92848 12.7345 3.04067C13.1483 3.1809 13.541 3.31412 13.7408 3.58757C13.9372 3.85402 13.9407 4.2677 13.9477 4.70242C13.9512 5.053 13.9582 5.41761 14.0634 5.74715C14.1651 6.06268 14.372 6.35015 14.5683 6.62711C14.8278 6.98821 15.0697 7.33178 15.0697 7.68587C15.0732 8.03996 14.8313 8.38352 14.5718 8.74462ZM8.1027 2.22381C5.09077 2.22381 2.63986 4.67438 2.63986 7.68587C2.63986 10.6974 5.09077 13.1479 8.1027 13.1479C11.1146 13.1479 13.5655 10.6974 13.5655 7.68587C13.5655 4.67438 11.1146 2.22381 8.1027 2.22381ZM8.1027 12.6221C5.3818 12.6221 3.16581 10.4064 3.16581 7.68587C3.16581 4.96536 5.3818 2.74968 8.1027 2.74968C10.8236 2.74968 13.0396 4.96536 13.0396 7.68587C13.0396 10.4064 10.8236 12.6221 8.1027 12.6221ZM9.86987 5.55083L6.17422 9.24245C6.07254 9.34412 6.07254 9.5124 6.17422 9.61407C6.22682 9.66665 6.29344 9.69119 6.36006 9.69119C6.42668 9.69119 6.4933 9.66665 6.54589 9.61407L10.2415 5.92244C10.3432 5.82078 10.3432 5.6525 10.2415 5.55083C10.1364 5.44916 9.97156 5.44916 9.86987 5.55083ZM8.61111 8.19421C8.42177 8.38352 8.32009 8.63244 8.32009 8.90238C8.32009 9.17233 8.42528 9.42125 8.61111 9.61056C8.80045 9.79987 9.0494 9.90154 9.31939 9.90154C9.58937 9.90154 9.83832 9.79637 10.0277 9.61056C10.217 9.42125 10.3187 9.17233 10.3187 8.90238C10.3187 8.63244 10.2135 8.38352 10.0277 8.19421C9.63495 7.80507 9.00031 7.80507 8.61111 8.19421ZM9.65248 9.23544C9.56132 9.32659 9.44561 9.37567 9.31939 9.37567C9.19316 9.37567 9.07394 9.32659 8.98629 9.23544C8.89863 9.14429 8.84603 9.02859 8.84603 8.90238C8.84603 8.77618 8.89512 8.65698 8.98629 8.56933C9.07745 8.47818 9.20017 8.43261 9.31939 8.43261C9.4386 8.43261 9.56132 8.47818 9.65248 8.56933C9.74365 8.66048 9.79274 8.77618 9.79274 8.90238C9.79274 9.02859 9.74365 9.14779 9.65248 9.23544ZM6.88601 7.47201C7.15248 7.47201 7.40494 7.36684 7.59428 7.18103C7.78362 6.99172 7.8853 6.74281 7.8853 6.47286C7.8853 6.20291 7.78011 5.954 7.59428 5.76468C7.40494 5.57537 7.15599 5.4737 6.88601 5.4737C6.61602 5.4737 6.36707 5.57887 6.17773 5.76468C5.78853 6.15383 5.78853 6.78838 6.17773 7.17753C6.37058 7.36684 6.61953 7.47201 6.88601 7.47201ZM6.55291 6.1363C6.64407 6.04515 6.75978 5.99607 6.88601 5.99607C7.01223 5.99607 7.13145 6.04515 7.2191 6.1363C7.31027 6.22745 7.35936 6.34314 7.35936 6.46935C7.35936 6.59556 7.31027 6.71476 7.2191 6.8024C7.12794 6.89355 7.01223 6.94264 6.88601 6.94264C6.75978 6.94264 6.64056 6.89355 6.55291 6.8024C6.36707 6.62361 6.36707 6.32211 6.55291 6.1363Z"/>
</mask>
<path d="M14.9996 6.32561C14.8173 6.06969 14.642 5.82428 14.5648 5.58589C14.4842 5.33347 14.4772 5.02496 14.4737 4.69541C14.4667 4.19759 14.4596 3.68223 14.1651 3.27906C13.8671 2.87239 13.3797 2.70411 12.9028 2.54635C12.5943 2.44117 12.3068 2.34301 12.0929 2.18875C11.886 2.038 11.7037 1.7961 11.5143 1.53667C11.2128 1.13351 10.9042 0.712808 10.4169 0.555046C9.95052 0.404296 9.46314 0.555046 8.9933 0.698785C8.67773 0.796947 8.37619 0.888098 8.1027 0.888098C7.8292 0.888098 7.52766 0.796947 7.21209 0.698785C6.73874 0.55154 6.25136 0.40079 5.78853 0.555046C5.30115 0.712808 4.9926 1.13 4.69105 1.53667C4.49821 1.7926 4.31939 2.038 4.11251 2.18875C3.90213 2.34301 3.61111 2.44117 3.30255 2.54635C2.8292 2.70761 2.33832 2.87239 2.04028 3.27906C1.74575 3.68223 1.73874 4.19759 1.73173 4.69541C1.72822 5.02145 1.72121 5.32996 1.64056 5.58589C1.56342 5.82428 1.39161 6.06618 1.20578 6.32561C0.91125 6.7393 0.606201 7.16701 0.606201 7.68587C0.606201 8.20473 0.91125 8.63244 1.20578 9.04612C1.38811 9.30205 1.56342 9.54745 1.64056 9.78585C1.72121 10.0383 1.72822 10.3468 1.73173 10.6763C1.73874 11.1742 1.74575 11.6895 2.04028 12.0927C2.33832 12.4993 2.8257 12.6676 3.30255 12.8254C3.61111 12.9306 3.89863 13.0287 4.11251 13.183C4.31939 13.3337 4.50171 13.5756 4.69105 13.8351C4.81378 13.9998 4.9365 14.1646 5.07324 14.3154V17.439C5.07324 17.7861 5.25206 18.0981 5.55361 18.2734C5.85515 18.4487 6.21279 18.4487 6.51434 18.2769L7.88881 17.4951C8.02205 17.418 8.19035 17.418 8.32359 17.4951L9.69807 18.2769C9.84884 18.3611 10.0101 18.4031 10.1749 18.4031C10.3432 18.4031 10.508 18.3576 10.6588 18.2699C10.9603 18.0946 11.1392 17.7826 11.1392 17.4355V14.3119C11.2759 14.1611 11.3986 13.9963 11.5213 13.8316C11.7142 13.5756 11.893 13.3302 12.0999 13.1795C12.3103 13.0252 12.6013 12.9271 12.9098 12.8219C13.3832 12.6606 13.8741 12.4958 14.1721 12.0892C14.4666 11.686 14.4737 11.1706 14.4807 10.6728C14.4842 10.3468 14.4912 10.0383 14.5718 9.78234C14.649 9.54395 14.8208 9.30205 15.0066 9.04262C15.3012 8.62893 15.6062 8.20122 15.6062 7.68236C15.5992 7.16701 15.2941 6.7393 14.9996 6.32561ZM10.6097 17.439C10.6097 17.5968 10.5291 17.737 10.3923 17.8177C10.2556 17.8983 10.0908 17.8983 9.95403 17.8212L8.57955 17.0394C8.28502 16.8711 7.92037 16.8711 7.62584 17.0394L6.25136 17.8212C6.11462 17.8983 5.94982 17.8983 5.81307 17.8177C5.67633 17.737 5.59568 17.5968 5.59568 17.439V14.7396C5.65529 14.7711 5.7184 14.7957 5.78502 14.8202C5.92177 14.8658 6.06202 14.8833 6.20227 14.8833C6.53888 14.8833 6.87899 14.7781 7.21209 14.6765C7.52766 14.5783 7.8292 14.4871 8.1027 14.4871C8.37619 14.4871 8.67773 14.5783 8.9933 14.6765C9.46665 14.8237 9.95403 14.9745 10.4169 14.8202C10.4835 14.7992 10.5466 14.7711 10.6062 14.7396V17.439H10.6097ZM14.5718 8.74462C14.372 9.02158 14.1686 9.31257 14.0669 9.62458C13.9617 9.95413 13.9547 10.3187 13.9512 10.6693C13.9442 11.104 13.9407 11.5177 13.7444 11.7842C13.5445 12.0576 13.1553 12.1908 12.738 12.3311C12.4084 12.4433 12.0648 12.5589 11.7878 12.7588C11.5143 12.9586 11.3005 13.2461 11.0971 13.523C10.8341 13.8771 10.5852 14.2102 10.2591 14.3189C9.95052 14.417 9.56483 14.2978 9.15108 14.1716C8.81097 14.0664 8.45683 13.9578 8.1027 13.9578C7.74856 13.9578 7.39793 14.0664 7.05431 14.1716C6.64407 14.2978 6.25487 14.4205 5.94631 14.3189C5.62023 14.2137 5.37128 13.8771 5.10831 13.523C4.90143 13.2461 4.68755 12.9586 4.41756 12.7588C4.14056 12.5589 3.80045 12.4433 3.46735 12.3311C3.05361 12.1908 2.6609 12.0576 2.46104 11.7842C2.26469 11.5177 2.26118 11.104 2.25417 10.6693C2.25066 10.3187 2.24365 9.95413 2.13846 9.62458C2.03678 9.30906 1.8299 9.02158 1.63355 8.74462C1.37408 8.38352 1.13215 8.03996 1.13215 7.68587C1.13215 7.33178 1.37408 6.99172 1.63355 6.62711C1.83341 6.35015 2.03678 6.05917 2.13846 5.74715C2.24365 5.41761 2.25066 5.053 2.25417 4.70242C2.26118 4.2677 2.26469 3.85402 2.46104 3.58757C2.6609 3.31412 3.0501 3.1809 3.46735 3.04067C3.79694 2.92848 4.14056 2.81279 4.41756 2.61296C4.69105 2.41313 4.90494 2.12565 5.10831 1.84869C5.37128 1.4946 5.62023 1.16155 5.94631 1.05287C6.02696 1.02833 6.11111 1.01431 6.19877 1.01431C6.45473 1.01431 6.74575 1.10546 7.0508 1.20012C7.39091 1.30529 7.74505 1.41397 8.09919 1.41397C8.45333 1.41397 8.80396 1.30529 9.14758 1.20012C9.55781 1.07391 9.94701 0.951203 10.2556 1.05287C10.5817 1.15805 10.8306 1.4946 11.0936 1.84869C11.3005 2.12565 11.5143 2.41313 11.7843 2.61296C12.0613 2.81279 12.4014 2.92848 12.7345 3.04067C13.1483 3.1809 13.541 3.31412 13.7408 3.58757C13.9372 3.85402 13.9407 4.2677 13.9477 4.70242C13.9512 5.053 13.9582 5.41761 14.0634 5.74715C14.1651 6.06268 14.372 6.35015 14.5683 6.62711C14.8278 6.98821 15.0697 7.33178 15.0697 7.68587C15.0732 8.03996 14.8313 8.38352 14.5718 8.74462ZM8.1027 2.22381C5.09077 2.22381 2.63986 4.67438 2.63986 7.68587C2.63986 10.6974 5.09077 13.1479 8.1027 13.1479C11.1146 13.1479 13.5655 10.6974 13.5655 7.68587C13.5655 4.67438 11.1146 2.22381 8.1027 2.22381ZM8.1027 12.6221C5.3818 12.6221 3.16581 10.4064 3.16581 7.68587C3.16581 4.96536 5.3818 2.74968 8.1027 2.74968C10.8236 2.74968 13.0396 4.96536 13.0396 7.68587C13.0396 10.4064 10.8236 12.6221 8.1027 12.6221ZM9.86987 5.55083L6.17422 9.24245C6.07254 9.34412 6.07254 9.5124 6.17422 9.61407C6.22682 9.66665 6.29344 9.69119 6.36006 9.69119C6.42668 9.69119 6.4933 9.66665 6.54589 9.61407L10.2415 5.92244C10.3432 5.82078 10.3432 5.6525 10.2415 5.55083C10.1364 5.44916 9.97156 5.44916 9.86987 5.55083ZM8.61111 8.19421C8.42177 8.38352 8.32009 8.63244 8.32009 8.90238C8.32009 9.17233 8.42528 9.42125 8.61111 9.61056C8.80045 9.79987 9.0494 9.90154 9.31939 9.90154C9.58937 9.90154 9.83832 9.79637 10.0277 9.61056C10.217 9.42125 10.3187 9.17233 10.3187 8.90238C10.3187 8.63244 10.2135 8.38352 10.0277 8.19421C9.63495 7.80507 9.00031 7.80507 8.61111 8.19421ZM9.65248 9.23544C9.56132 9.32659 9.44561 9.37567 9.31939 9.37567C9.19316 9.37567 9.07394 9.32659 8.98629 9.23544C8.89863 9.14429 8.84603 9.02859 8.84603 8.90238C8.84603 8.77618 8.89512 8.65698 8.98629 8.56933C9.07745 8.47818 9.20017 8.43261 9.31939 8.43261C9.4386 8.43261 9.56132 8.47818 9.65248 8.56933C9.74365 8.66048 9.79274 8.77618 9.79274 8.90238C9.79274 9.02859 9.74365 9.14779 9.65248 9.23544ZM6.88601 7.47201C7.15248 7.47201 7.40494 7.36684 7.59428 7.18103C7.78362 6.99172 7.8853 6.74281 7.8853 6.47286C7.8853 6.20291 7.78011 5.954 7.59428 5.76468C7.40494 5.57537 7.15599 5.4737 6.88601 5.4737C6.61602 5.4737 6.36707 5.57887 6.17773 5.76468C5.78853 6.15383 5.78853 6.78838 6.17773 7.17753C6.37058 7.36684 6.61953 7.47201 6.88601 7.47201ZM6.55291 6.1363C6.64407 6.04515 6.75978 5.99607 6.88601 5.99607C7.01223 5.99607 7.13145 6.04515 7.2191 6.1363C7.31027 6.22745 7.35936 6.34314 7.35936 6.46935C7.35936 6.59556 7.31027 6.71476 7.2191 6.8024C7.12794 6.89355 7.01223 6.94264 6.88601 6.94264C6.75978 6.94264 6.64056 6.89355 6.55291 6.8024C6.36707 6.62361 6.36707 6.32211 6.55291 6.1363Z" fill="white"/>
<path d="M14.9996 6.32561C14.8173 6.06969 14.642 5.82428 14.5648 5.58589C14.4842 5.33347 14.4772 5.02496 14.4737 4.69541C14.4667 4.19759 14.4596 3.68223 14.1651 3.27906C13.8671 2.87239 13.3797 2.70411 12.9028 2.54635C12.5943 2.44117 12.3068 2.34301 12.0929 2.18875C11.886 2.038 11.7037 1.7961 11.5143 1.53667C11.2128 1.13351 10.9042 0.712808 10.4169 0.555046C9.95052 0.404296 9.46314 0.555046 8.9933 0.698785C8.67773 0.796947 8.37619 0.888098 8.1027 0.888098C7.8292 0.888098 7.52766 0.796947 7.21209 0.698785C6.73874 0.55154 6.25136 0.40079 5.78853 0.555046C5.30115 0.712808 4.9926 1.13 4.69105 1.53667C4.49821 1.7926 4.31939 2.038 4.11251 2.18875C3.90213 2.34301 3.61111 2.44117 3.30255 2.54635C2.8292 2.70761 2.33832 2.87239 2.04028 3.27906C1.74575 3.68223 1.73874 4.19759 1.73173 4.69541C1.72822 5.02145 1.72121 5.32996 1.64056 5.58589C1.56342 5.82428 1.39161 6.06618 1.20578 6.32561C0.91125 6.7393 0.606201 7.16701 0.606201 7.68587C0.606201 8.20473 0.91125 8.63244 1.20578 9.04612C1.38811 9.30205 1.56342 9.54745 1.64056 9.78585C1.72121 10.0383 1.72822 10.3468 1.73173 10.6763C1.73874 11.1742 1.74575 11.6895 2.04028 12.0927C2.33832 12.4993 2.8257 12.6676 3.30255 12.8254C3.61111 12.9306 3.89863 13.0287 4.11251 13.183C4.31939 13.3337 4.50171 13.5756 4.69105 13.8351C4.81378 13.9998 4.9365 14.1646 5.07324 14.3154V17.439C5.07324 17.7861 5.25206 18.0981 5.55361 18.2734C5.85515 18.4487 6.21279 18.4487 6.51434 18.2769L7.88881 17.4951C8.02205 17.418 8.19035 17.418 8.32359 17.4951L9.69807 18.2769C9.84884 18.3611 10.0101 18.4031 10.1749 18.4031C10.3432 18.4031 10.508 18.3576 10.6588 18.2699C10.9603 18.0946 11.1392 17.7826 11.1392 17.4355V14.3119C11.2759 14.1611 11.3986 13.9963 11.5213 13.8316C11.7142 13.5756 11.893 13.3302 12.0999 13.1795C12.3103 13.0252 12.6013 12.9271 12.9098 12.8219C13.3832 12.6606 13.8741 12.4958 14.1721 12.0892C14.4666 11.686 14.4737 11.1706 14.4807 10.6728C14.4842 10.3468 14.4912 10.0383 14.5718 9.78234C14.649 9.54395 14.8208 9.30205 15.0066 9.04262C15.3012 8.62893 15.6062 8.20122 15.6062 7.68236C15.5992 7.16701 15.2941 6.7393 14.9996 6.32561ZM10.6097 17.439C10.6097 17.5968 10.5291 17.737 10.3923 17.8177C10.2556 17.8983 10.0908 17.8983 9.95403 17.8212L8.57955 17.0394C8.28502 16.8711 7.92037 16.8711 7.62584 17.0394L6.25136 17.8212C6.11462 17.8983 5.94982 17.8983 5.81307 17.8177C5.67633 17.737 5.59568 17.5968 5.59568 17.439V14.7396C5.65529 14.7711 5.7184 14.7957 5.78502 14.8202C5.92177 14.8658 6.06202 14.8833 6.20227 14.8833C6.53888 14.8833 6.87899 14.7781 7.21209 14.6765C7.52766 14.5783 7.8292 14.4871 8.1027 14.4871C8.37619 14.4871 8.67773 14.5783 8.9933 14.6765C9.46665 14.8237 9.95403 14.9745 10.4169 14.8202C10.4835 14.7992 10.5466 14.7711 10.6062 14.7396V17.439H10.6097ZM14.5718 8.74462C14.372 9.02158 14.1686 9.31257 14.0669 9.62458C13.9617 9.95413 13.9547 10.3187 13.9512 10.6693C13.9442 11.104 13.9407 11.5177 13.7444 11.7842C13.5445 12.0576 13.1553 12.1908 12.738 12.3311C12.4084 12.4433 12.0648 12.5589 11.7878 12.7588C11.5143 12.9586 11.3005 13.2461 11.0971 13.523C10.8341 13.8771 10.5852 14.2102 10.2591 14.3189C9.95052 14.417 9.56483 14.2978 9.15108 14.1716C8.81097 14.0664 8.45683 13.9578 8.1027 13.9578C7.74856 13.9578 7.39793 14.0664 7.05431 14.1716C6.64407 14.2978 6.25487 14.4205 5.94631 14.3189C5.62023 14.2137 5.37128 13.8771 5.10831 13.523C4.90143 13.2461 4.68755 12.9586 4.41756 12.7588C4.14056 12.5589 3.80045 12.4433 3.46735 12.3311C3.05361 12.1908 2.6609 12.0576 2.46104 11.7842C2.26469 11.5177 2.26118 11.104 2.25417 10.6693C2.25066 10.3187 2.24365 9.95413 2.13846 9.62458C2.03678 9.30906 1.8299 9.02158 1.63355 8.74462C1.37408 8.38352 1.13215 8.03996 1.13215 7.68587C1.13215 7.33178 1.37408 6.99172 1.63355 6.62711C1.83341 6.35015 2.03678 6.05917 2.13846 5.74715C2.24365 5.41761 2.25066 5.053 2.25417 4.70242C2.26118 4.2677 2.26469 3.85402 2.46104 3.58757C2.6609 3.31412 3.0501 3.1809 3.46735 3.04067C3.79694 2.92848 4.14056 2.81279 4.41756 2.61296C4.69105 2.41313 4.90494 2.12565 5.10831 1.84869C5.37128 1.4946 5.62023 1.16155 5.94631 1.05287C6.02696 1.02833 6.11111 1.01431 6.19877 1.01431C6.45473 1.01431 6.74575 1.10546 7.0508 1.20012C7.39091 1.30529 7.74505 1.41397 8.09919 1.41397C8.45333 1.41397 8.80396 1.30529 9.14758 1.20012C9.55781 1.07391 9.94701 0.951203 10.2556 1.05287C10.5817 1.15805 10.8306 1.4946 11.0936 1.84869C11.3005 2.12565 11.5143 2.41313 11.7843 2.61296C12.0613 2.81279 12.4014 2.92848 12.7345 3.04067C13.1483 3.1809 13.541 3.31412 13.7408 3.58757C13.9372 3.85402 13.9407 4.2677 13.9477 4.70242C13.9512 5.053 13.9582 5.41761 14.0634 5.74715C14.1651 6.06268 14.372 6.35015 14.5683 6.62711C14.8278 6.98821 15.0697 7.33178 15.0697 7.68587C15.0732 8.03996 14.8313 8.38352 14.5718 8.74462ZM8.1027 2.22381C5.09077 2.22381 2.63986 4.67438 2.63986 7.68587C2.63986 10.6974 5.09077 13.1479 8.1027 13.1479C11.1146 13.1479 13.5655 10.6974 13.5655 7.68587C13.5655 4.67438 11.1146 2.22381 8.1027 2.22381ZM8.1027 12.6221C5.3818 12.6221 3.16581 10.4064 3.16581 7.68587C3.16581 4.96536 5.3818 2.74968 8.1027 2.74968C10.8236 2.74968 13.0396 4.96536 13.0396 7.68587C13.0396 10.4064 10.8236 12.6221 8.1027 12.6221ZM9.86987 5.55083L6.17422 9.24245C6.07254 9.34412 6.07254 9.5124 6.17422 9.61407C6.22682 9.66665 6.29344 9.69119 6.36006 9.69119C6.42668 9.69119 6.4933 9.66665 6.54589 9.61407L10.2415 5.92244C10.3432 5.82078 10.3432 5.6525 10.2415 5.55083C10.1364 5.44916 9.97156 5.44916 9.86987 5.55083ZM8.61111 8.19421C8.42177 8.38352 8.32009 8.63244 8.32009 8.90238C8.32009 9.17233 8.42528 9.42125 8.61111 9.61056C8.80045 9.79987 9.0494 9.90154 9.31939 9.90154C9.58937 9.90154 9.83832 9.79637 10.0277 9.61056C10.217 9.42125 10.3187 9.17233 10.3187 8.90238C10.3187 8.63244 10.2135 8.38352 10.0277 8.19421C9.63495 7.80507 9.00031 7.80507 8.61111 8.19421ZM9.65248 9.23544C9.56132 9.32659 9.44561 9.37567 9.31939 9.37567C9.19316 9.37567 9.07394 9.32659 8.98629 9.23544C8.89863 9.14429 8.84603 9.02859 8.84603 8.90238C8.84603 8.77618 8.89512 8.65698 8.98629 8.56933C9.07745 8.47818 9.20017 8.43261 9.31939 8.43261C9.4386 8.43261 9.56132 8.47818 9.65248 8.56933C9.74365 8.66048 9.79274 8.77618 9.79274 8.90238C9.79274 9.02859 9.74365 9.14779 9.65248 9.23544ZM6.88601 7.47201C7.15248 7.47201 7.40494 7.36684 7.59428 7.18103C7.78362 6.99172 7.8853 6.74281 7.8853 6.47286C7.8853 6.20291 7.78011 5.954 7.59428 5.76468C7.40494 5.57537 7.15599 5.4737 6.88601 5.4737C6.61602 5.4737 6.36707 5.57887 6.17773 5.76468C5.78853 6.15383 5.78853 6.78838 6.17773 7.17753C6.37058 7.36684 6.61953 7.47201 6.88601 7.47201ZM6.55291 6.1363C6.64407 6.04515 6.75978 5.99607 6.88601 5.99607C7.01223 5.99607 7.13145 6.04515 7.2191 6.1363C7.31027 6.22745 7.35936 6.34314 7.35936 6.46935C7.35936 6.59556 7.31027 6.71476 7.2191 6.8024C7.12794 6.89355 7.01223 6.94264 6.88601 6.94264C6.75978 6.94264 6.64056 6.89355 6.55291 6.8024C6.36707 6.62361 6.36707 6.32211 6.55291 6.1363Z" stroke="white" stroke-width="0.2" mask="url(#path-1-outside-1_1002_4009)"/>
</svg>
