<svg width="16" height="14" viewBox="0 0 16 14" fill="none" xmlns="http://www.w3.org/2000/svg">
<path d="M5.65128 13.3062C5.86802 13.3065 6.08268 13.264 6.28295 13.1812C6.48322 13.0983 6.66515 12.9767 6.8183 12.8234L12.6143 7.02819L12.6143 7.02818C12.8967 6.74557 13.0671 6.37019 13.0939 5.97159L13.2499 3.6384L13.25 3.63833C13.281 3.16412 13.1062 2.69914 12.7697 2.36277L11.7814 1.37462L11.7813 1.37448C11.6146 1.20913 11.4147 1.08094 11.1949 0.998324C10.9751 0.915705 10.7403 0.880528 10.5059 0.895104L10.5057 0.895119L8.17215 1.05054L8.17211 1.05054C7.7735 1.07743 7.39812 1.24776 7.1154 1.53001L7.11538 1.53004L1.31936 7.32587C1.00805 7.63714 0.836475 8.05151 0.836475 8.492C0.836475 8.93244 1.00738 9.34685 1.3194 9.65817L4.48506 12.824L4.48511 12.8241C4.807 13.1453 5.22922 13.3062 5.65128 13.3062ZM5.65128 13.3062L5.65135 13.2562V13.3062C5.65133 13.3062 5.6513 13.3062 5.65128 13.3062ZM10.5512 1.58394L8.21705 1.74L10.5512 1.58394ZM10.5512 1.58394C10.6877 1.57404 10.8247 1.59384 10.9528 1.64198C11.0809 1.69012 11.197 1.76546 11.2932 1.8628L10.5512 1.58394ZM11.2576 1.89794L11.2579 1.89816L12.2461 2.88628C12.3378 2.97805 12.4088 3.08831 12.4545 3.2097C12.5002 3.33109 12.5195 3.46082 12.5111 3.59025L12.3551 5.92323C12.3551 5.92324 12.3551 5.92325 12.3551 5.92326C12.3399 6.14348 12.2465 6.35019 12.0907 6.50594L6.29472 12.3011C6.12397 12.4715 5.89259 12.5672 5.65135 12.5672C5.41011 12.5672 5.17873 12.4715 5.00798 12.3011L1.84173 9.13594C1.67001 8.96363 1.5755 8.73582 1.5755 8.49264C1.5755 8.24941 1.67004 8.02101 1.84167 7.84941L7.63769 2.05421C7.79348 1.89845 8.00054 1.80452 8.22038 1.78989L8.22039 1.78989L10.5545 1.63383L10.5548 1.63381C10.6841 1.62443 10.8139 1.64319 10.9352 1.68879C11.0565 1.73438 11.1665 1.80574 11.2576 1.89794Z" fill="white" stroke="white" stroke-width="0.1"/>
<path d="M10.43 4.69459C10.2974 4.69484 10.1661 4.66894 10.0435 4.61836C9.92098 4.56776 9.80961 4.49348 9.71581 4.39976C9.62202 4.30604 9.54765 4.19473 9.49696 4.07222C9.44629 3.94972 9.42029 3.81844 9.42046 3.68588M10.43 4.69459C10.5624 4.69486 10.6936 4.66896 10.816 4.61838C10.9385 4.56779 11.0497 4.49351 11.1434 4.3998L11.108 4.36446L11.1433 4.39989C11.2611 4.28259 11.3482 4.138 11.3967 3.97898C11.4453 3.81995 11.4538 3.6514 11.4216 3.48829C11.3893 3.32517 11.3173 3.17254 11.2119 3.04394C11.1065 2.91533 10.971 2.81474 10.8174 2.75108C10.6637 2.68742 10.4968 2.66267 10.3313 2.67901C10.1658 2.69536 10.0069 2.7523 9.86872 2.84479C9.73053 2.93727 9.61731 3.06244 9.53911 3.20918C9.46093 3.35589 9.42017 3.51964 9.42046 3.68588M10.43 4.69459C10.4299 4.69459 10.4299 4.69459 10.4299 4.69459L10.43 4.64459L10.4301 4.69459C10.43 4.69459 10.43 4.69459 10.43 4.69459ZM9.42046 3.68588C9.42046 3.68591 9.42046 3.68593 9.42046 3.68596L9.47046 3.68587L9.42046 3.6858C9.42046 3.68583 9.42046 3.68585 9.42046 3.68588ZM10.4295 3.41608L10.4296 3.41608C10.4828 3.41645 10.5347 3.43249 10.5788 3.4622C10.6229 3.49191 10.6573 3.53396 10.6776 3.5831C10.698 3.63223 10.7034 3.68627 10.6932 3.73846C10.6829 3.7906 10.6576 3.83857 10.6203 3.87639C10.5697 3.9269 10.5011 3.95527 10.4296 3.95527C10.3581 3.95527 10.2895 3.92685 10.2389 3.87627L10.2386 3.87599C10.2004 3.83846 10.1744 3.79039 10.1637 3.73795C10.1531 3.68551 10.1584 3.63108 10.1789 3.58166C10.1994 3.53223 10.2342 3.49006 10.2789 3.46056C10.3235 3.43106 10.376 3.41557 10.4295 3.41608Z" fill="white" stroke="white" stroke-width="0.1"/>
<path d="M12.7424 5.98544L12.742 6.03544C12.7716 6.03565 12.801 6.03217 12.8297 6.02508C13.5012 5.86208 14.1769 5.46544 14.7326 4.9092C15.3729 4.26894 15.7703 3.52094 15.8944 2.81792C16.0186 2.11477 15.8695 1.45288 15.4112 0.994651L15.4112 0.994626C14.952 0.53611 14.2895 0.387257 13.5862 0.511563C12.883 0.635839 12.1353 1.03326 11.4956 1.67314C11.0863 2.07768 10.761 2.5591 10.5384 3.08974C10.5176 3.13489 10.5061 3.18377 10.5046 3.23346C10.5031 3.28348 10.5118 3.33327 10.5301 3.37984C10.5484 3.4264 10.576 3.46877 10.6112 3.50437C10.6463 3.53997 10.6884 3.56806 10.7347 3.58694C10.781 3.60583 10.8307 3.61511 10.8808 3.61423C10.9308 3.61336 10.9801 3.60234 11.0258 3.58184C11.0714 3.56134 11.1124 3.53179 11.1463 3.49498C11.1799 3.45855 11.2058 3.41576 11.2225 3.36914C11.4079 2.92966 11.6783 2.53113 12.0182 2.1964L12.0182 2.1964L12.0184 2.19615C12.5032 1.71173 13.0771 1.39409 13.6028 1.27276C14.1298 1.15113 14.5989 1.22819 14.8883 1.51755C15.1777 1.8069 15.2548 2.27593 15.1331 2.80278C15.0118 3.32832 14.6941 3.90191 14.2096 4.38632C13.7461 4.84978 13.1936 5.17571 12.6551 5.30623C12.5671 5.3275 12.49 5.38031 12.4383 5.45465C12.3867 5.52899 12.3641 5.61971 12.3748 5.7096C12.3856 5.79949 12.429 5.88231 12.4967 5.94236C12.5645 6.00242 12.6519 6.03553 12.7424 6.03544L12.7424 5.98544ZM12.7424 5.98544C12.6641 5.98552 12.5885 5.95688 12.5299 5.90494C12.4713 5.85301 12.4338 5.78139 12.4245 5.70365C12.4152 5.62592 12.4347 5.54747 12.4794 5.48318C12.5241 5.41889 12.5908 5.37322 12.6669 5.35482L14.6972 4.87386C14.1471 5.42453 13.4793 5.81595 12.8179 5.97649C12.7932 5.98261 12.7678 5.98562 12.7424 5.98544Z" fill="white" stroke="white" stroke-width="0.1"/>
<path d="M3.80633 8.00503L3.80638 8.00498L6.97274 4.83908L6.97335 4.83846L6.97335 4.83847C7.04311 4.77111 7.13653 4.73384 7.23349 4.73468C7.33046 4.73552 7.42322 4.77441 7.49179 4.84297C7.56036 4.91153 7.59926 5.00428 7.6001 5.10124C7.60094 5.1982 7.56366 5.29161 7.49629 5.36135L7.49569 5.36198L7.49568 5.36197L4.32935 8.52786C4.32934 8.52786 4.32934 8.52787 4.32933 8.52787C4.29505 8.56218 4.25432 8.58938 4.2095 8.60792L3.80633 8.00503ZM3.80633 8.00503C3.75473 8.05679 3.71962 8.12267 3.70544 8.19437C3.69126 8.26606 3.69864 8.34035 3.72666 8.40785C3.75468 8.47535 3.80207 8.53304 3.86285 8.57362C3.92362 8.6142 3.99504 8.63587 4.06811 8.63589L3.80633 8.00503ZM5.61531 9.81375L5.61536 9.8137L8.78171 6.6478L8.78233 6.64718L8.78233 6.64719C8.85208 6.57983 8.9455 6.54256 9.04247 6.5434C9.13944 6.54424 9.2322 6.58313 9.30077 6.65169C9.36934 6.72025 9.40823 6.813 9.40908 6.90996C9.40992 7.00692 9.37264 7.10033 9.30527 7.17007L9.30467 7.1707L9.30466 7.17069L6.13833 10.3366L6.13831 10.3366L6.10296 10.3012C6.07332 10.3309 6.03812 10.3544 5.99937 10.3704L5.61531 9.81375ZM5.61531 9.81375C5.5637 9.86551 5.5286 9.9314 5.51442 10.0031C5.50024 10.0748 5.50762 10.1491 5.53564 10.2166C5.56366 10.2841 5.61105 10.3418 5.67183 10.3823C5.73261 10.4229 5.80406 10.4446 5.87715 10.4446L5.61531 9.81375Z" fill="white" stroke="white" stroke-width="0.1"/>
</svg>
