<svg width="13" height="14" viewBox="0 0 13 14" fill="none" xmlns="http://www.w3.org/2000/svg">
<path fill-rule="evenodd" clip-rule="evenodd" d="M10.444 6.9134L10.119 3.3719C10.104 3.21292 9.97095 3.09094 9.80995 3.09094H7.91895V2.37104C7.91895 1.2512 7.00795 0.340332 5.88795 0.340332C4.76795 0.340332 3.85695 1.2512 3.85695 2.37104V3.08994H1.96595C1.80595 3.08994 1.67195 3.21192 1.65695 3.3719L0.983954 10.6919C0.957954 10.9748 1.04595 11.2358 1.23795 11.4458C1.42895 11.6557 1.68095 11.7667 1.96595 11.7667H6.92995C7.50095 12.7136 8.53895 13.3475 9.72195 13.3475C11.518 13.3475 12.98 11.8857 12.98 10.0899C12.98 8.54216 11.894 7.24235 10.444 6.9134ZM4.47695 2.37104C4.47695 1.59315 5.10995 0.959244 5.88795 0.959244C6.66595 0.959244 7.29995 1.59315 7.29995 2.37104V3.08994H4.47695V2.37104ZM1.96595 11.1478C1.85595 11.1478 1.76995 11.1098 1.69495 11.0288C1.62095 10.9468 1.59095 10.8578 1.60095 10.7488L2.24795 3.70985H3.85695V4.27477C3.85695 4.44575 3.99595 4.58373 4.16695 4.58373C4.33795 4.58373 4.47695 4.44575 4.47695 4.27477V3.70985H7.29995V4.27477C7.29995 4.44575 7.43795 4.58373 7.60895 4.58373C7.77995 4.58373 7.91895 4.44575 7.91895 4.27477V3.70985H9.52796L9.81495 6.83341C9.78395 6.83241 9.75295 6.83241 9.72195 6.83241C7.92495 6.83241 6.46395 8.2932 6.46395 10.0899C6.46395 10.4599 6.52595 10.8158 6.63995 11.1478H1.96595ZM9.72195 12.7276C8.26695 12.7276 7.08295 11.5447 7.08295 10.0899C7.08295 8.63515 8.26695 7.45132 9.72195 7.45132C11.177 7.45132 12.36 8.63515 12.36 10.0899C12.36 11.5447 11.177 12.7276 9.72195 12.7276Z" fill="#7C29E5"/>
<path d="M10.108 9.97493L10.6756 10.5989C10.7396 10.6705 10.7716 10.7279 10.7716 10.7712C10.7716 10.8258 10.7349 10.886 10.6614 10.9519C10.5899 11.0178 10.5278 11.0507 10.4751 11.0507C10.428 11.0507 10.3716 11.013 10.3057 10.9378L9.76921 10.3222L9.23274 10.9378C9.16497 11.013 9.1085 11.0507 9.06333 11.0507C9.0125 11.0507 8.95039 11.0178 8.87697 10.9519C8.80168 10.8841 8.76403 10.8229 8.76403 10.7683C8.76403 10.7288 8.79697 10.6723 8.86286 10.5989L9.43039 9.97493L8.86286 9.35093C8.79697 9.28129 8.76403 9.22481 8.76403 9.18152C8.76403 9.12693 8.80168 9.06576 8.87697 8.99799C8.9485 8.93211 9.01062 8.89917 9.06333 8.89917C9.11039 8.89917 9.16686 8.93681 9.23274 9.01211L9.76921 9.62764L10.3057 9.01211C10.3734 8.93681 10.4299 8.89917 10.4751 8.89917C10.5259 8.89917 10.588 8.93211 10.6614 8.99799C10.7349 9.06387 10.7716 9.12505 10.7716 9.18152C10.7716 9.2267 10.7396 9.28317 10.6756 9.35093L10.108 9.97493Z" fill="#7C29E5"/>
</svg>
