<svg width="17" height="14" viewBox="0 0 17 14" fill="none" xmlns="http://www.w3.org/2000/svg">
<circle cx="12.4419" cy="11.5269" r="1.5" stroke="white" stroke-width="0.7"/>
<circle cx="4.94189" cy="11.5269" r="1.5" stroke="white" stroke-width="0.7"/>
<path d="M3.44189 11.5062C2.61935 11.4652 2.10622 11.3428 1.74107 10.9777C1.37592 10.6125 1.25356 10.0994 1.21256 9.27686M6.44189 11.5269H10.9419M13.9419 11.5062C14.7644 11.4652 15.2776 11.3428 15.6427 10.9777C16.1919 10.4285 16.1919 9.54462 16.1919 7.77686V6.27686H12.6669C12.1085 6.27686 11.8293 6.27686 11.6034 6.20344C11.1467 6.05506 10.7887 5.69704 10.6403 5.24038C10.5669 5.01443 10.5669 4.73524 10.5669 4.17686C10.5669 3.33928 10.5669 2.92049 10.4568 2.58157C10.2342 1.89658 9.69717 1.35954 9.01218 1.13698C8.67326 1.02686 8.25447 1.02686 7.41689 1.02686H1.19189" stroke="white" stroke-width="0.7" stroke-linecap="round" stroke-linejoin="round"/>
<path d="M1.19189 4.02686H5.69189" stroke="white" stroke-width="0.7" stroke-linecap="round" stroke-linejoin="round"/>
<path d="M1.19189 6.27686H4.19189" stroke="white" stroke-width="0.7" stroke-linecap="round" stroke-linejoin="round"/>
<path d="M10.5669 2.52686H11.9328C13.0243 2.52686 13.5701 2.52686 14.0142 2.79214C14.4584 3.05742 14.7171 3.53794 15.2346 4.49898L16.1919 6.27686" stroke="white" stroke-width="0.7" stroke-linecap="round" stroke-linejoin="round"/>
</svg>
