<svg width="16" height="13" viewBox="0 0 16 13" fill="none" xmlns="http://www.w3.org/2000/svg">
<path d="M7.82338 2.54437L7.94053 2.66151H8.1062H14.1062C14.7103 2.66151 15.2062 3.15738 15.2062 3.76129V11.2602C15.2062 11.8641 14.7103 12.36 14.1062 12.36H2.1062C1.50211 12.36 1.00628 11.8642 1.0062 11.2604C1.0062 11.2603 1.0062 11.2603 1.0062 11.2602L1.0137 2.26184V2.26151C1.0137 1.65498 1.50467 1.16172 2.1062 1.16172H5.9837C6.27499 1.16172 6.5558 1.27696 6.76588 1.48702L7.82338 2.54437ZM8.87401 8.74685L6.85455 6.14798L6.85461 6.14794L6.84986 6.14206C6.52714 5.74256 5.9268 5.7604 5.62167 6.15701L5.62164 6.15699L5.61872 6.16089L2.98738 9.66885C2.98716 9.66915 2.98693 9.66944 2.98671 9.66974C2.60159 10.1794 2.96763 10.9142 3.61033 10.9028H12.5987C13.2365 10.9028 13.6086 10.1613 13.2063 9.649C13.206 9.64861 13.2057 9.64823 13.2054 9.64785L11.3394 7.25009L11.3394 7.25007L11.336 7.24586C11.036 6.87086 10.4489 6.83952 10.129 7.23505L8.87401 8.74685Z" stroke="white" stroke-width="0.8"/>
</svg>
