<svg width="21" height="19" viewBox="0 0 21 19" fill="none" xmlns="http://www.w3.org/2000/svg">
<path d="M19.6956 1.64147C19.8191 1.62063 19.946 1.64427 20.0536 1.70819C20.1496 1.74887 20.2316 1.81679 20.2895 1.90355C20.3473 1.9903 20.3785 2.0921 20.3791 2.19637L20.4719 15.0241C20.4772 15.1213 20.4559 15.2181 20.4103 15.3042C20.3647 15.3902 20.2966 15.4621 20.2131 15.5123L14.9749 18.6285C14.881 18.6984 14.7666 18.7356 14.6495 18.7343C14.6208 18.7368 14.5919 18.7368 14.5632 18.7343L0.978825 17.216C0.842956 17.209 0.714907 17.1503 0.620844 17.052C0.526782 16.9537 0.473807 16.8232 0.472745 16.6872V3.63324C0.470802 3.52677 0.500756 3.42214 0.558753 3.33283C0.616751 3.24351 0.70014 3.17359 0.798198 3.13204L7.61482 0.132991C7.70321 0.0920718 7.80133 0.0768463 7.89796 0.0890553L19.6956 1.63659V1.64147ZM13.6325 1.9181L9.61798 4.19628L14.5616 4.82766L18.223 2.52019L13.6325 1.9181ZM8.91338 5.17264L8.73112 10.6045L6.69378 9.21639L4.65807 10.3685L5.06977 4.68771L1.5386 4.23696V16.2071L14.1223 17.6066V5.84307L8.915 5.17752L8.91338 5.17264ZM5.70766 3.69345L9.60496 1.39087L7.90935 1.16631L2.9527 3.34359L5.71092 3.69671L5.70766 3.69345ZM15.1897 5.68848V17.2616L19.4044 14.7491L19.3197 3.08485L15.1897 5.68848Z" fill="#530CAD"/>
</svg>
