<svg width="15" height="18" viewBox="0 0 15 18" fill="none" xmlns="http://www.w3.org/2000/svg">
<path d="M10.8422 0.995361H4.24956C2.93222 0.995361 1.82898 1.99353 1.69814 3.30427L0.558883 14.6965C0.407886 16.2061 1.59307 17.5159 3.11031 17.5159H11.9815C13.4987 17.5159 14.6839 16.2061 14.5329 14.6965L13.3937 3.30427C13.2628 1.99353 12.1596 0.995361 10.8422 0.995361ZM10.8422 2.64741C11.3127 2.64741 11.703 3.00062 11.7499 3.46881L12.8891 14.861C12.9241 15.2113 12.7593 15.4515 12.6578 15.5638C12.5564 15.6758 12.3337 15.8638 11.9815 15.8638H3.11031C2.75809 15.8638 2.5354 15.6758 2.43396 15.5638C2.33252 15.4515 2.16765 15.2113 2.20267 14.861L3.34193 3.46881C3.38851 3.00062 3.77906 2.64741 4.24956 2.64741H10.8422Z" fill="white"/>
<path d="M9.88067 3.96899C9.53407 3.96899 9.22051 4.18442 9.10652 4.51186C8.88184 5.15748 8.26761 5.62104 7.54599 5.62104C6.82405 5.62104 6.20981 5.15748 5.98513 4.51186C5.87114 4.18442 5.55791 3.96899 5.21098 3.96899C4.63343 3.96899 4.24057 4.54457 4.43617 5.08776C4.89511 6.36149 6.11466 7.27309 7.54599 7.27309C8.977 7.27309 10.1969 6.36149 10.6555 5.08776C10.8514 4.54457 10.4582 3.96899 9.88067 3.96899Z" fill="white"/>
</svg>
