<svg width="16" height="16" viewBox="0 0 16 16" fill="none" xmlns="http://www.w3.org/2000/svg">
<g clip-path="url(#clip0_481_1929)">
<path d="M2.39326 10.1472L2.62154 8.85254C2.89133 7.32239 3.02623 6.55732 3.56045 6.10434C4.09467 5.65137 4.86205 5.65137 6.39683 5.65137H9.56265C11.0974 5.65137 11.8648 5.65137 12.399 6.10434C12.9332 6.55732 13.0681 7.32239 13.3379 8.85254L13.5662 10.1472C13.9396 12.2646 14.1262 13.3232 13.5514 14.0186C12.9766 14.7139 11.9147 14.7139 9.79092 14.7139H6.16855C4.04477 14.7139 2.98288 14.7139 2.40807 14.0186C1.83325 13.3232 2.01992 12.2646 2.39326 10.1472Z" stroke="#7C29E5" stroke-width="0.7"/>
<path d="M5.16724 5.65137L5.27212 4.39273C5.38947 2.98453 6.56666 1.90137 7.97974 1.90137C9.39282 1.90137 10.57 2.98453 10.6874 4.39273L10.7922 5.65137" stroke="#7C29E5" stroke-width="0.7"/>
<path d="M9.85474 7.52637C9.77347 8.40954 8.95828 9.08887 7.97974 9.08887C7.00119 9.08887 6.186 8.40954 6.10474 7.52637" stroke="#7C29E5" stroke-width="0.7" stroke-linecap="round"/>
</g>
<defs>
<clipPath id="clip0_481_1929">
<rect width="15" height="15" fill="white" transform="translate(0.479736 0.651367)"/>
</clipPath>
</defs>
</svg>
