<svg width="17" height="17" viewBox="0 0 17 17" fill="none" xmlns="http://www.w3.org/2000/svg">
<path d="M8.56934 13.2103C7.56993 13.6989 6.25714 13.9953 4.81934 13.9953C4.01989 13.9953 3.2591 13.9037 2.56934 13.7383C2.12593 13.632 1.90423 13.5788 1.63857 13.3588C1.48706 13.2333 1.29796 12.9849 1.21492 12.8023C1.06934 12.4821 1.06934 12.1716 1.06934 11.5507V3.09405C1.06934 2.3209 1.84936 1.78988 2.56934 1.9625C3.2591 2.12787 4.01989 2.21952 4.81934 2.21952C6.25714 2.21952 7.56993 1.92306 8.56934 1.43447C9.56874 0.945879 10.8815 0.649414 12.3193 0.649414C13.1188 0.649414 13.8796 0.741067 14.5693 0.906438C15.0127 1.01274 15.2344 1.0659 15.5001 1.28592C15.6516 1.41142 15.8407 1.65982 15.9237 1.84243C16.0693 2.16261 16.0693 2.47309 16.0693 3.09405V11.5507C16.0693 12.3238 15.2893 12.8548 14.5693 12.6822C13.8796 12.5169 13.1188 12.4252 12.3193 12.4252C10.8815 12.4252 9.56874 12.7217 8.56934 13.2103Z" fill="white" stroke="#7C29E5" stroke-width="0.8"/>
<path d="M1.06934 15.5655C2.06874 16.0541 3.38153 16.3506 4.81934 16.3506C6.25714 16.3506 7.56993 16.0541 8.56934 15.5655C9.56874 15.0769 10.8815 14.7805 12.3193 14.7805C13.7571 14.7805 15.0699 15.0769 16.0693 15.5655" stroke="#7C29E5" stroke-width="0.8" stroke-linecap="round"/>
<path d="M10.4443 7.3225C10.4443 8.40643 9.60487 9.28513 8.56934 9.28513C7.5338 9.28513 6.69434 8.40643 6.69434 7.3225C6.69434 6.23856 7.5338 5.35986 8.56934 5.35986C9.60487 5.35986 10.4443 6.23856 10.4443 7.3225Z" fill="#7C29E5" stroke="white" stroke-width="0.8"/>
<path fill-rule="evenodd" clip-rule="evenodd" d="M3.69434 8.10742L3.69434 8.11416L3.69434 8.10742Z" fill="#7C29E5"/>
<path d="M3.69434 8.10742L3.69434 8.11416" stroke="#7C29E5" stroke-width="0.8" stroke-linecap="round" stroke-linejoin="round"/>
<path fill-rule="evenodd" clip-rule="evenodd" d="M13.4443 6.53125L13.4443 6.53799L13.4443 6.53125Z" fill="#7C29E5"/>
<path d="M13.4443 6.53125L13.4443 6.53799" stroke="#7C29E5" stroke-width="0.8" stroke-linecap="round" stroke-linejoin="round"/>
</svg>
