<svg width="17" height="17" viewBox="0 0 17 17" fill="none" xmlns="http://www.w3.org/2000/svg">
<path d="M6.38318 11.5485L6.41853 11.5131L6.38318 11.5485C6.42379 11.5891 6.47887 11.6119 6.5363 11.6119H14.6107C14.6682 11.6119 14.7233 11.5891 14.7639 11.5485C14.8045 11.5079 14.8273 11.4528 14.8273 11.3954V8.56838C14.8273 8.51095 14.8045 8.45588 14.7639 8.41527L14.7639 8.41527C14.7233 8.37467 14.6682 8.35186 14.6107 8.35186H6.5363C6.47887 8.35186 6.42379 8.37467 6.38318 8.41527C6.34257 8.45588 6.31975 8.51095 6.31975 8.56838V11.3954C6.31975 11.4528 6.34257 11.5079 6.38318 11.5485ZM14.3942 11.1788H6.75285V8.78491H14.3942V11.1788Z" fill="white" stroke="white" stroke-width="0.1"/>
<mask id="path-2-outside-1_1002_4099" maskUnits="userSpaceOnUse" x="0.0788574" y="-0.358398" width="17" height="17" fill="black">
<rect fill="white" x="0.0788574" y="-0.358398" width="17" height="17"/>
<path d="M9.69729 0.663577C9.67031 0.649421 9.63994 0.643017 9.60954 0.645074C9.57914 0.647132 9.5499 0.657572 9.52508 0.675234L8.22531 1.58714L6.9252 0.671904C6.89709 0.652214 6.86359 0.641652 6.82927 0.641652C6.79494 0.641652 6.76145 0.652214 6.73333 0.671904L5.43356 1.58714L4.1268 0.671904C4.09875 0.652196 4.06531 0.641621 4.03103 0.641621C3.99675 0.641621 3.96331 0.652196 3.93526 0.671904L2.63582 1.58681L1.34238 0.672237C1.31746 0.654584 1.28816 0.644125 1.25768 0.642004C1.22721 0.639882 1.19674 0.64618 1.16961 0.660209C1.14248 0.674237 1.11973 0.695455 1.10385 0.721543C1.08797 0.747631 1.07956 0.777583 1.07956 0.808124L1.07886 4.21838C1.07886 4.6377 1.24141 5.02637 1.53288 5.31014C1.67597 5.45518 1.8465 5.57028 2.03454 5.64873C2.22259 5.72718 2.42437 5.76742 2.62812 5.76709H6.61205V5.96026H6.19233C5.89342 5.96115 5.60706 6.08049 5.39601 6.29213C5.18496 6.50378 5.06644 6.79046 5.06644 7.08933L5.06609 15.3816C5.06644 15.68 5.18518 15.9662 5.39625 16.1772C5.60732 16.3883 5.89348 16.507 6.19198 16.5073H14.9526C15.2511 16.507 15.5373 16.3883 15.7483 16.1772C15.9594 15.9662 16.0782 15.68 16.0785 15.3816L16.0789 7.08933C16.0789 6.79046 15.9603 6.50378 15.7493 6.29213C15.5382 6.08049 15.2519 5.96115 14.953 5.96026H14.2934L14.2941 4.5217C14.2932 4.13009 14.137 3.75481 13.8598 3.47821C13.5825 3.2016 13.2068 3.04626 12.8151 3.04626H9.78723V0.811454C9.78723 0.780932 9.77885 0.750995 9.76298 0.724916C9.74712 0.698837 9.7244 0.677618 9.69729 0.663577ZM1.41229 4.21838L1.413 1.12986L2.53956 1.92653C2.56756 1.94645 2.60107 1.95718 2.63544 1.95724C2.66981 1.9573 2.70335 1.94669 2.73143 1.92686L4.03153 1.01162L5.33796 1.92686C5.36601 1.94657 5.39945 1.95714 5.43373 1.95714C5.46801 1.95714 5.50145 1.94657 5.5295 1.92686L6.82927 1.01162L8.12904 1.92686C8.15708 1.94657 8.19053 1.95714 8.22481 1.95714C8.25909 1.95714 8.29253 1.94657 8.32057 1.92686L9.45413 1.13185V3.04626H5.44156C5.43023 3.0456 5.41857 3.04626 5.40725 3.04626H5.39726C5.35262 3.04626 5.30798 3.04626 5.26301 3.04993C4.4679 3.11587 3.84466 3.82395 3.84466 4.66125L3.90686 4.20614C3.90659 4.52847 3.71551 4.84976 3.48755 5.07768C3.2596 5.30561 2.9505 5.43377 2.62812 5.43403C2.46817 5.43429 2.30977 5.40264 2.1622 5.34094C2.01463 5.27923 1.88086 5.18871 1.76872 5.07467C1.65477 4.96331 1.56447 4.8301 1.50322 4.68302C1.44198 4.53594 1.41105 4.37769 1.41229 4.21838ZM3.5868 5.43403C3.63343 5.39707 3.67773 5.35743 3.72004 5.31547L3.7307 5.30348C3.79166 5.24153 3.84662 5.17392 3.89658 5.10264C3.90358 5.09265 3.91124 5.08333 3.9179 5.073C3.97512 4.98639 4.02344 4.89422 4.06214 4.7979C4.09545 4.71663 4.12209 4.6327 4.14075 4.54511C4.14408 4.53145 4.37739 3.82039 4.38006 3.8064C4.39738 3.71381 3.72458 5.21937 3.72458 5.12178L4.0849 4.64277C4.0849 3.97665 4.66676 3.43361 5.29033 3.38198C5.32364 3.37899 5.35795 3.37865 5.39059 3.37932C5.40891 3.37932 5.4279 3.37999 5.44722 3.38098C5.49067 3.383 5.53402 3.38689 5.57713 3.39264C5.77544 3.42027 5.96308 3.49926 6.12142 3.62178C6.16706 3.65209 6.20803 3.68939 6.25633 3.73802C6.43373 3.91099 6.55095 4.13629 6.59077 4.38082C6.60576 4.44343 6.61275 4.51138 6.61275 4.59498L6.61205 5.43403H3.5868ZM14.953 6.29332C15.1636 6.29403 15.3653 6.37822 15.5139 6.52745C15.6626 6.67667 15.7459 6.87873 15.7458 7.08933L15.7454 15.3816C15.7452 15.5918 15.6616 15.7933 15.513 15.9419C15.3644 16.0905 15.1628 16.1741 14.9526 16.1743H6.19198C5.98178 16.1741 5.78023 16.0905 5.63159 15.9419C5.48295 15.7933 5.39937 15.5918 5.39919 15.3816L5.39955 7.08933C5.39937 6.87873 5.48273 6.67667 5.63135 6.52745C5.77997 6.37822 5.98171 6.29403 6.19233 6.29332H6.61205V7.38908H6.35922C6.31505 7.38908 6.27268 7.40662 6.24145 7.43785C6.21022 7.46908 6.19267 7.51144 6.19267 7.5556C6.19267 7.59977 6.21022 7.64213 6.24145 7.67336C6.27268 7.70459 6.31505 7.72213 6.35922 7.72213H14.6115C14.6557 7.72213 14.6981 7.70459 14.7293 7.67336C14.7605 7.64213 14.7781 7.59977 14.7781 7.5556C14.7781 7.51144 14.7605 7.46908 14.7293 7.43785C14.6981 7.40662 14.6557 7.38908 14.6115 7.38908H14.2934V6.29332H14.953ZM13.961 4.5217L13.9603 7.38908H6.94515L6.94585 4.59498C6.94585 4.48507 6.93586 4.39181 6.91687 4.31454C6.86516 4.00516 6.71588 3.72042 6.49083 3.50188C6.45407 3.465 6.41538 3.43009 6.37492 3.3973C6.36792 3.39164 6.36192 3.38465 6.35493 3.37932H12.8151C13.1185 3.37914 13.4096 3.49934 13.6244 3.71352C13.8393 3.9277 13.9603 4.21836 13.961 4.5217Z"/>
</mask>
<path d="M9.69729 0.663577C9.67031 0.649421 9.63994 0.643017 9.60954 0.645074C9.57914 0.647132 9.5499 0.657572 9.52508 0.675234L8.22531 1.58714L6.9252 0.671904C6.89709 0.652214 6.86359 0.641652 6.82927 0.641652C6.79494 0.641652 6.76145 0.652214 6.73333 0.671904L5.43356 1.58714L4.1268 0.671904C4.09875 0.652196 4.06531 0.641621 4.03103 0.641621C3.99675 0.641621 3.96331 0.652196 3.93526 0.671904L2.63582 1.58681L1.34238 0.672237C1.31746 0.654584 1.28816 0.644125 1.25768 0.642004C1.22721 0.639882 1.19674 0.64618 1.16961 0.660209C1.14248 0.674237 1.11973 0.695455 1.10385 0.721543C1.08797 0.747631 1.07956 0.777583 1.07956 0.808124L1.07886 4.21838C1.07886 4.6377 1.24141 5.02637 1.53288 5.31014C1.67597 5.45518 1.8465 5.57028 2.03454 5.64873C2.22259 5.72718 2.42437 5.76742 2.62812 5.76709H6.61205V5.96026H6.19233C5.89342 5.96115 5.60706 6.08049 5.39601 6.29213C5.18496 6.50378 5.06644 6.79046 5.06644 7.08933L5.06609 15.3816C5.06644 15.68 5.18518 15.9662 5.39625 16.1772C5.60732 16.3883 5.89348 16.507 6.19198 16.5073H14.9526C15.2511 16.507 15.5373 16.3883 15.7483 16.1772C15.9594 15.9662 16.0782 15.68 16.0785 15.3816L16.0789 7.08933C16.0789 6.79046 15.9603 6.50378 15.7493 6.29213C15.5382 6.08049 15.2519 5.96115 14.953 5.96026H14.2934L14.2941 4.5217C14.2932 4.13009 14.137 3.75481 13.8598 3.47821C13.5825 3.2016 13.2068 3.04626 12.8151 3.04626H9.78723V0.811454C9.78723 0.780932 9.77885 0.750995 9.76298 0.724916C9.74712 0.698837 9.7244 0.677618 9.69729 0.663577ZM1.41229 4.21838L1.413 1.12986L2.53956 1.92653C2.56756 1.94645 2.60107 1.95718 2.63544 1.95724C2.66981 1.9573 2.70335 1.94669 2.73143 1.92686L4.03153 1.01162L5.33796 1.92686C5.36601 1.94657 5.39945 1.95714 5.43373 1.95714C5.46801 1.95714 5.50145 1.94657 5.5295 1.92686L6.82927 1.01162L8.12904 1.92686C8.15708 1.94657 8.19053 1.95714 8.22481 1.95714C8.25909 1.95714 8.29253 1.94657 8.32057 1.92686L9.45413 1.13185V3.04626H5.44156C5.43023 3.0456 5.41857 3.04626 5.40725 3.04626H5.39726C5.35262 3.04626 5.30798 3.04626 5.26301 3.04993C4.4679 3.11587 3.84466 3.82395 3.84466 4.66125L3.90686 4.20614C3.90659 4.52847 3.71551 4.84976 3.48755 5.07768C3.2596 5.30561 2.9505 5.43377 2.62812 5.43403C2.46817 5.43429 2.30977 5.40264 2.1622 5.34094C2.01463 5.27923 1.88086 5.18871 1.76872 5.07467C1.65477 4.96331 1.56447 4.8301 1.50322 4.68302C1.44198 4.53594 1.41105 4.37769 1.41229 4.21838ZM3.5868 5.43403C3.63343 5.39707 3.67773 5.35743 3.72004 5.31547L3.7307 5.30348C3.79166 5.24153 3.84662 5.17392 3.89658 5.10264C3.90358 5.09265 3.91124 5.08333 3.9179 5.073C3.97512 4.98639 4.02344 4.89422 4.06214 4.7979C4.09545 4.71663 4.12209 4.6327 4.14075 4.54511C4.14408 4.53145 4.37739 3.82039 4.38006 3.8064C4.39738 3.71381 3.72458 5.21937 3.72458 5.12178L4.0849 4.64277C4.0849 3.97665 4.66676 3.43361 5.29033 3.38198C5.32364 3.37899 5.35795 3.37865 5.39059 3.37932C5.40891 3.37932 5.4279 3.37999 5.44722 3.38098C5.49067 3.383 5.53402 3.38689 5.57713 3.39264C5.77544 3.42027 5.96308 3.49926 6.12142 3.62178C6.16706 3.65209 6.20803 3.68939 6.25633 3.73802C6.43373 3.91099 6.55095 4.13629 6.59077 4.38082C6.60576 4.44343 6.61275 4.51138 6.61275 4.59498L6.61205 5.43403H3.5868ZM14.953 6.29332C15.1636 6.29403 15.3653 6.37822 15.5139 6.52745C15.6626 6.67667 15.7459 6.87873 15.7458 7.08933L15.7454 15.3816C15.7452 15.5918 15.6616 15.7933 15.513 15.9419C15.3644 16.0905 15.1628 16.1741 14.9526 16.1743H6.19198C5.98178 16.1741 5.78023 16.0905 5.63159 15.9419C5.48295 15.7933 5.39937 15.5918 5.39919 15.3816L5.39955 7.08933C5.39937 6.87873 5.48273 6.67667 5.63135 6.52745C5.77997 6.37822 5.98171 6.29403 6.19233 6.29332H6.61205V7.38908H6.35922C6.31505 7.38908 6.27268 7.40662 6.24145 7.43785C6.21022 7.46908 6.19267 7.51144 6.19267 7.5556C6.19267 7.59977 6.21022 7.64213 6.24145 7.67336C6.27268 7.70459 6.31505 7.72213 6.35922 7.72213H14.6115C14.6557 7.72213 14.6981 7.70459 14.7293 7.67336C14.7605 7.64213 14.7781 7.59977 14.7781 7.5556C14.7781 7.51144 14.7605 7.46908 14.7293 7.43785C14.6981 7.40662 14.6557 7.38908 14.6115 7.38908H14.2934V6.29332H14.953ZM13.961 4.5217L13.9603 7.38908H6.94515L6.94585 4.59498C6.94585 4.48507 6.93586 4.39181 6.91687 4.31454C6.86516 4.00516 6.71588 3.72042 6.49083 3.50188C6.45407 3.465 6.41538 3.43009 6.37492 3.3973C6.36792 3.39164 6.36192 3.38465 6.35493 3.37932H12.8151C13.1185 3.37914 13.4096 3.49934 13.6244 3.71352C13.8393 3.9277 13.9603 4.21836 13.961 4.5217Z" fill="white"/>
<path d="M9.69729 0.663577C9.67031 0.649421 9.63994 0.643017 9.60954 0.645074C9.57914 0.647132 9.5499 0.657572 9.52508 0.675234L8.22531 1.58714L6.9252 0.671904C6.89709 0.652214 6.86359 0.641652 6.82927 0.641652C6.79494 0.641652 6.76145 0.652214 6.73333 0.671904L5.43356 1.58714L4.1268 0.671904C4.09875 0.652196 4.06531 0.641621 4.03103 0.641621C3.99675 0.641621 3.96331 0.652196 3.93526 0.671904L2.63582 1.58681L1.34238 0.672237C1.31746 0.654584 1.28816 0.644125 1.25768 0.642004C1.22721 0.639882 1.19674 0.64618 1.16961 0.660209C1.14248 0.674237 1.11973 0.695455 1.10385 0.721543C1.08797 0.747631 1.07956 0.777583 1.07956 0.808124L1.07886 4.21838C1.07886 4.6377 1.24141 5.02637 1.53288 5.31014C1.67597 5.45518 1.8465 5.57028 2.03454 5.64873C2.22259 5.72718 2.42437 5.76742 2.62812 5.76709H6.61205V5.96026H6.19233C5.89342 5.96115 5.60706 6.08049 5.39601 6.29213C5.18496 6.50378 5.06644 6.79046 5.06644 7.08933L5.06609 15.3816C5.06644 15.68 5.18518 15.9662 5.39625 16.1772C5.60732 16.3883 5.89348 16.507 6.19198 16.5073H14.9526C15.2511 16.507 15.5373 16.3883 15.7483 16.1772C15.9594 15.9662 16.0782 15.68 16.0785 15.3816L16.0789 7.08933C16.0789 6.79046 15.9603 6.50378 15.7493 6.29213C15.5382 6.08049 15.2519 5.96115 14.953 5.96026H14.2934L14.2941 4.5217C14.2932 4.13009 14.137 3.75481 13.8598 3.47821C13.5825 3.2016 13.2068 3.04626 12.8151 3.04626H9.78723V0.811454C9.78723 0.780932 9.77885 0.750995 9.76298 0.724916C9.74712 0.698837 9.7244 0.677618 9.69729 0.663577ZM1.41229 4.21838L1.413 1.12986L2.53956 1.92653C2.56756 1.94645 2.60107 1.95718 2.63544 1.95724C2.66981 1.9573 2.70335 1.94669 2.73143 1.92686L4.03153 1.01162L5.33796 1.92686C5.36601 1.94657 5.39945 1.95714 5.43373 1.95714C5.46801 1.95714 5.50145 1.94657 5.5295 1.92686L6.82927 1.01162L8.12904 1.92686C8.15708 1.94657 8.19053 1.95714 8.22481 1.95714C8.25909 1.95714 8.29253 1.94657 8.32057 1.92686L9.45413 1.13185V3.04626H5.44156C5.43023 3.0456 5.41857 3.04626 5.40725 3.04626H5.39726C5.35262 3.04626 5.30798 3.04626 5.26301 3.04993C4.4679 3.11587 3.84466 3.82395 3.84466 4.66125L3.90686 4.20614C3.90659 4.52847 3.71551 4.84976 3.48755 5.07768C3.2596 5.30561 2.9505 5.43377 2.62812 5.43403C2.46817 5.43429 2.30977 5.40264 2.1622 5.34094C2.01463 5.27923 1.88086 5.18871 1.76872 5.07467C1.65477 4.96331 1.56447 4.8301 1.50322 4.68302C1.44198 4.53594 1.41105 4.37769 1.41229 4.21838ZM3.5868 5.43403C3.63343 5.39707 3.67773 5.35743 3.72004 5.31547L3.7307 5.30348C3.79166 5.24153 3.84662 5.17392 3.89658 5.10264C3.90358 5.09265 3.91124 5.08333 3.9179 5.073C3.97512 4.98639 4.02344 4.89422 4.06214 4.7979C4.09545 4.71663 4.12209 4.6327 4.14075 4.54511C4.14408 4.53145 4.37739 3.82039 4.38006 3.8064C4.39738 3.71381 3.72458 5.21937 3.72458 5.12178L4.0849 4.64277C4.0849 3.97665 4.66676 3.43361 5.29033 3.38198C5.32364 3.37899 5.35795 3.37865 5.39059 3.37932C5.40891 3.37932 5.4279 3.37999 5.44722 3.38098C5.49067 3.383 5.53402 3.38689 5.57713 3.39264C5.77544 3.42027 5.96308 3.49926 6.12142 3.62178C6.16706 3.65209 6.20803 3.68939 6.25633 3.73802C6.43373 3.91099 6.55095 4.13629 6.59077 4.38082C6.60576 4.44343 6.61275 4.51138 6.61275 4.59498L6.61205 5.43403H3.5868ZM14.953 6.29332C15.1636 6.29403 15.3653 6.37822 15.5139 6.52745C15.6626 6.67667 15.7459 6.87873 15.7458 7.08933L15.7454 15.3816C15.7452 15.5918 15.6616 15.7933 15.513 15.9419C15.3644 16.0905 15.1628 16.1741 14.9526 16.1743H6.19198C5.98178 16.1741 5.78023 16.0905 5.63159 15.9419C5.48295 15.7933 5.39937 15.5918 5.39919 15.3816L5.39955 7.08933C5.39937 6.87873 5.48273 6.67667 5.63135 6.52745C5.77997 6.37822 5.98171 6.29403 6.19233 6.29332H6.61205V7.38908H6.35922C6.31505 7.38908 6.27268 7.40662 6.24145 7.43785C6.21022 7.46908 6.19267 7.51144 6.19267 7.5556C6.19267 7.59977 6.21022 7.64213 6.24145 7.67336C6.27268 7.70459 6.31505 7.72213 6.35922 7.72213H14.6115C14.6557 7.72213 14.6981 7.70459 14.7293 7.67336C14.7605 7.64213 14.7781 7.59977 14.7781 7.5556C14.7781 7.51144 14.7605 7.46908 14.7293 7.43785C14.6981 7.40662 14.6557 7.38908 14.6115 7.38908H14.2934V6.29332H14.953ZM13.961 4.5217L13.9603 7.38908H6.94515L6.94585 4.59498C6.94585 4.48507 6.93586 4.39181 6.91687 4.31454C6.86516 4.00516 6.71588 3.72042 6.49083 3.50188C6.45407 3.465 6.41538 3.43009 6.37492 3.3973C6.36792 3.39164 6.36192 3.38465 6.35493 3.37932H12.8151C13.1185 3.37914 13.4096 3.49934 13.6244 3.71352C13.8393 3.9277 13.9603 4.21836 13.961 4.5217Z" stroke="white" stroke-width="0.2" mask="url(#path-2-outside-1_1002_4099)"/>
<mask id="path-3-outside-2_1002_4099" maskUnits="userSpaceOnUse" x="5.50171" y="3.03516" width="10" height="14" fill="black">
<rect fill="white" x="5.50171" y="3.03516" width="10" height="14"/>
<path d="M11.5382 6.32992H8.32645C8.28228 6.32992 8.23992 6.34746 8.20868 6.37869C8.17745 6.40992 8.1599 6.45228 8.1599 6.49644C8.1599 6.54061 8.17745 6.58297 8.20868 6.6142C8.23992 6.64543 8.28228 6.66297 8.32645 6.66297H11.5382C11.5824 6.66297 11.6248 6.64543 11.656 6.6142C11.6872 6.58297 11.7048 6.54061 11.7048 6.49644C11.7048 6.45228 11.6872 6.40992 11.656 6.37869C11.6248 6.34746 11.5824 6.32992 11.5382 6.32992ZM12.5629 5.18287H8.32645C8.28228 5.18287 8.23992 5.20041 8.20868 5.23164C8.17745 5.26287 8.1599 5.30523 8.1599 5.3494C8.1599 5.39356 8.17745 5.43592 8.20868 5.46715C8.23992 5.49838 8.28228 5.51593 8.32645 5.51593H12.5629C12.607 5.51593 12.6494 5.49838 12.6806 5.46715C12.7119 5.43592 12.7294 5.39356 12.7294 5.3494C12.7294 5.30523 12.7119 5.26287 12.6806 5.23164C12.6494 5.20041 12.607 5.18287 12.5629 5.18287ZM9.34975 4.20168C9.34975 4.24585 9.36729 4.28821 9.39853 4.31944C9.42976 4.35067 9.47213 4.36821 9.5163 4.36821H12.5629C12.607 4.36821 12.6494 4.35067 12.6806 4.31944C12.7119 4.28821 12.7294 4.24585 12.7294 4.20168C12.7294 4.15752 12.7119 4.11516 12.6806 4.08393C12.6494 4.0527 12.607 4.03516 12.5629 4.03516H9.5163C9.47213 4.03516 9.42976 4.0527 9.39853 4.08393C9.36729 4.11516 9.34975 4.15752 9.34975 4.20168ZM13.1265 10.4865C13.0166 10.4865 12.9266 10.4105 12.9266 10.3173H12.5935C12.5935 10.5387 12.7481 10.7253 12.9599 10.7915V10.9221H13.293V10.7915C13.5049 10.7253 13.6594 10.5387 13.6594 10.3173C13.6594 10.0405 13.4203 9.81502 13.1265 9.81502C13.0166 9.81502 12.9266 9.73908 12.9266 9.64583C12.9266 9.55257 13.0166 9.47663 13.1265 9.47663C13.2364 9.47663 13.3263 9.55257 13.3263 9.64583H13.6594C13.6594 9.42401 13.5049 9.2375 13.293 9.17122V9.04066H12.9599V9.17122C12.7481 9.23783 12.5935 9.42434 12.5935 9.64583C12.5935 9.9226 12.8327 10.1481 13.1265 10.1481C13.2364 10.1481 13.3263 10.2237 13.3263 10.3173C13.3263 10.4109 13.2364 10.4865 13.1265 10.4865ZM7.83679 14.0175H6.66826C6.62409 14.0175 6.58173 14.0351 6.55049 14.0663C6.51926 14.0975 6.50171 14.1399 6.50171 14.1841V15.3524C6.50171 15.3966 6.51926 15.4389 6.55049 15.4702C6.58173 15.5014 6.62409 15.5189 6.66826 15.5189H7.83679C7.85866 15.5189 7.88032 15.5146 7.90053 15.5063C7.92073 15.4979 7.93909 15.4856 7.95456 15.4702C7.97002 15.4547 7.98229 15.4363 7.99066 15.4161C7.99903 15.3959 8.00334 15.3743 8.00334 15.3524V14.1841C8.00334 14.1399 7.98579 14.0975 7.95456 14.0663C7.92332 14.0351 7.88096 14.0175 7.83679 14.0175ZM7.67024 15.1859H6.83481V14.3506H7.67024V15.1859ZM10.0496 14.0175H8.8814C8.83723 14.0175 8.79487 14.0351 8.76363 14.0663C8.7324 14.0975 8.71485 14.1399 8.71485 14.1841V15.3524C8.71485 15.3966 8.7324 15.4389 8.76363 15.4702C8.79487 15.5014 8.83723 15.5189 8.8814 15.5189H10.0496C10.0938 15.5189 10.1361 15.5014 10.1674 15.4702C10.1986 15.4389 10.2161 15.3966 10.2161 15.3524V14.1841C10.2161 14.1399 10.1986 14.0975 10.1674 14.0663C10.1361 14.0351 10.0938 14.0175 10.0496 14.0175ZM9.88305 15.1859H9.04795V14.3506H9.88305V15.1859ZM12.2631 14.0175H11.0945C11.0504 14.0175 11.008 14.0351 10.9768 14.0663C10.9455 14.0975 10.928 14.1399 10.928 14.1841V15.3524C10.928 15.3966 10.9455 15.4389 10.9768 15.4702C11.008 15.5014 11.0504 15.5189 11.0945 15.5189H12.2631C12.3072 15.5189 12.3496 15.5014 12.3808 15.4702C12.4121 15.4389 12.4296 15.3966 12.4296 15.3524V14.1841C12.4296 14.1399 12.4121 14.0975 12.3808 14.0663C12.3496 14.0351 12.3072 14.0175 12.2631 14.0175ZM12.0965 15.1859H11.2611V14.3506H12.0965V15.1859ZM14.4762 14.0175H13.3077C13.2635 14.0175 13.2212 14.0351 13.1899 14.0663C13.1587 14.0975 13.1411 14.1399 13.1411 14.1841V15.3524C13.1411 15.3966 13.1587 15.4389 13.1899 15.4702C13.2212 15.5014 13.2635 15.5189 13.3077 15.5189H14.4762C14.5204 15.5189 14.5628 15.5014 14.594 15.4702C14.6252 15.4389 14.6428 15.3966 14.6428 15.3524V14.1841C14.6428 14.1399 14.6252 14.0975 14.594 14.0663C14.5628 14.0351 14.5204 14.0175 14.4762 14.0175ZM14.3097 15.1859H13.4742V14.3506H14.3097V15.1859ZM7.83679 12.0538H6.66826C6.62409 12.0538 6.58173 12.0714 6.55049 12.1026C6.51926 12.1338 6.50171 12.1762 6.50171 12.2204V13.3887C6.50171 13.4329 6.51926 13.4752 6.55049 13.5065C6.58173 13.5377 6.62409 13.5552 6.66826 13.5552H7.83679C7.85866 13.5552 7.88032 13.5509 7.90053 13.5426C7.92073 13.5342 7.93909 13.5219 7.95456 13.5065C7.97002 13.491 7.98229 13.4726 7.99066 13.4524C7.99903 13.4322 8.00334 13.4106 8.00334 13.3887V12.2204C8.00334 12.1762 7.98579 12.1338 7.95456 12.1026C7.92332 12.0714 7.88096 12.0538 7.83679 12.0538ZM7.67024 13.2222H6.83481V12.3869H7.67024V13.2222ZM10.0496 12.0538H8.8814C8.83723 12.0538 8.79487 12.0714 8.76363 12.1026C8.7324 12.1338 8.71485 12.1762 8.71485 12.2204V13.3887C8.71485 13.4329 8.7324 13.4752 8.76363 13.5065C8.79487 13.5377 8.83723 13.5552 8.8814 13.5552H10.0496C10.0938 13.5552 10.1361 13.5377 10.1674 13.5065C10.1986 13.4752 10.2161 13.4329 10.2161 13.3887V12.2204C10.2161 12.1762 10.1986 12.1338 10.1674 12.1026C10.1361 12.0714 10.0938 12.0538 10.0496 12.0538ZM9.88305 13.2222H9.04795V12.3869H9.88305V13.2222ZM12.2631 12.0538H11.0945C11.0504 12.0538 11.008 12.0714 10.9768 12.1026C10.9455 12.1338 10.928 12.1762 10.928 12.2204V13.3887C10.928 13.4329 10.9455 13.4752 10.9768 13.5065C11.008 13.5377 11.0504 13.5552 11.0945 13.5552H12.2631C12.3072 13.5552 12.3496 13.5377 12.3808 13.5065C12.4121 13.4752 12.4296 13.4329 12.4296 13.3887V12.2204C12.4296 12.1762 12.4121 12.1338 12.3808 12.1026C12.3496 12.0714 12.3072 12.0538 12.2631 12.0538ZM12.0965 13.2222H11.2611V12.3869H12.0965V13.2222ZM14.4762 12.0538H13.3077C13.2635 12.0538 13.2212 12.0714 13.1899 12.1026C13.1587 12.1338 13.1411 12.1762 13.1411 12.2204V13.3887C13.1411 13.4329 13.1587 13.4752 13.1899 13.5065C13.2212 13.5377 13.2635 13.5552 13.3077 13.5552H14.4762C14.5204 13.5552 14.5628 13.5377 14.594 13.5065C14.6252 13.4752 14.6428 13.4329 14.6428 13.3887V12.2204C14.6428 12.1762 14.6252 12.1338 14.594 12.1026C14.5628 12.0714 14.5204 12.0538 14.4762 12.0538ZM14.3097 13.2222H13.4742V12.3869H14.3097V13.2222Z"/>
</mask>
<path d="M11.5382 6.32992H8.32645C8.28228 6.32992 8.23992 6.34746 8.20868 6.37869C8.17745 6.40992 8.1599 6.45228 8.1599 6.49644C8.1599 6.54061 8.17745 6.58297 8.20868 6.6142C8.23992 6.64543 8.28228 6.66297 8.32645 6.66297H11.5382C11.5824 6.66297 11.6248 6.64543 11.656 6.6142C11.6872 6.58297 11.7048 6.54061 11.7048 6.49644C11.7048 6.45228 11.6872 6.40992 11.656 6.37869C11.6248 6.34746 11.5824 6.32992 11.5382 6.32992ZM12.5629 5.18287H8.32645C8.28228 5.18287 8.23992 5.20041 8.20868 5.23164C8.17745 5.26287 8.1599 5.30523 8.1599 5.3494C8.1599 5.39356 8.17745 5.43592 8.20868 5.46715C8.23992 5.49838 8.28228 5.51593 8.32645 5.51593H12.5629C12.607 5.51593 12.6494 5.49838 12.6806 5.46715C12.7119 5.43592 12.7294 5.39356 12.7294 5.3494C12.7294 5.30523 12.7119 5.26287 12.6806 5.23164C12.6494 5.20041 12.607 5.18287 12.5629 5.18287ZM9.34975 4.20168C9.34975 4.24585 9.36729 4.28821 9.39853 4.31944C9.42976 4.35067 9.47213 4.36821 9.5163 4.36821H12.5629C12.607 4.36821 12.6494 4.35067 12.6806 4.31944C12.7119 4.28821 12.7294 4.24585 12.7294 4.20168C12.7294 4.15752 12.7119 4.11516 12.6806 4.08393C12.6494 4.0527 12.607 4.03516 12.5629 4.03516H9.5163C9.47213 4.03516 9.42976 4.0527 9.39853 4.08393C9.36729 4.11516 9.34975 4.15752 9.34975 4.20168ZM13.1265 10.4865C13.0166 10.4865 12.9266 10.4105 12.9266 10.3173H12.5935C12.5935 10.5387 12.7481 10.7253 12.9599 10.7915V10.9221H13.293V10.7915C13.5049 10.7253 13.6594 10.5387 13.6594 10.3173C13.6594 10.0405 13.4203 9.81502 13.1265 9.81502C13.0166 9.81502 12.9266 9.73908 12.9266 9.64583C12.9266 9.55257 13.0166 9.47663 13.1265 9.47663C13.2364 9.47663 13.3263 9.55257 13.3263 9.64583H13.6594C13.6594 9.42401 13.5049 9.2375 13.293 9.17122V9.04066H12.9599V9.17122C12.7481 9.23783 12.5935 9.42434 12.5935 9.64583C12.5935 9.9226 12.8327 10.1481 13.1265 10.1481C13.2364 10.1481 13.3263 10.2237 13.3263 10.3173C13.3263 10.4109 13.2364 10.4865 13.1265 10.4865ZM7.83679 14.0175H6.66826C6.62409 14.0175 6.58173 14.0351 6.55049 14.0663C6.51926 14.0975 6.50171 14.1399 6.50171 14.1841V15.3524C6.50171 15.3966 6.51926 15.4389 6.55049 15.4702C6.58173 15.5014 6.62409 15.5189 6.66826 15.5189H7.83679C7.85866 15.5189 7.88032 15.5146 7.90053 15.5063C7.92073 15.4979 7.93909 15.4856 7.95456 15.4702C7.97002 15.4547 7.98229 15.4363 7.99066 15.4161C7.99903 15.3959 8.00334 15.3743 8.00334 15.3524V14.1841C8.00334 14.1399 7.98579 14.0975 7.95456 14.0663C7.92332 14.0351 7.88096 14.0175 7.83679 14.0175ZM7.67024 15.1859H6.83481V14.3506H7.67024V15.1859ZM10.0496 14.0175H8.8814C8.83723 14.0175 8.79487 14.0351 8.76363 14.0663C8.7324 14.0975 8.71485 14.1399 8.71485 14.1841V15.3524C8.71485 15.3966 8.7324 15.4389 8.76363 15.4702C8.79487 15.5014 8.83723 15.5189 8.8814 15.5189H10.0496C10.0938 15.5189 10.1361 15.5014 10.1674 15.4702C10.1986 15.4389 10.2161 15.3966 10.2161 15.3524V14.1841C10.2161 14.1399 10.1986 14.0975 10.1674 14.0663C10.1361 14.0351 10.0938 14.0175 10.0496 14.0175ZM9.88305 15.1859H9.04795V14.3506H9.88305V15.1859ZM12.2631 14.0175H11.0945C11.0504 14.0175 11.008 14.0351 10.9768 14.0663C10.9455 14.0975 10.928 14.1399 10.928 14.1841V15.3524C10.928 15.3966 10.9455 15.4389 10.9768 15.4702C11.008 15.5014 11.0504 15.5189 11.0945 15.5189H12.2631C12.3072 15.5189 12.3496 15.5014 12.3808 15.4702C12.4121 15.4389 12.4296 15.3966 12.4296 15.3524V14.1841C12.4296 14.1399 12.4121 14.0975 12.3808 14.0663C12.3496 14.0351 12.3072 14.0175 12.2631 14.0175ZM12.0965 15.1859H11.2611V14.3506H12.0965V15.1859ZM14.4762 14.0175H13.3077C13.2635 14.0175 13.2212 14.0351 13.1899 14.0663C13.1587 14.0975 13.1411 14.1399 13.1411 14.1841V15.3524C13.1411 15.3966 13.1587 15.4389 13.1899 15.4702C13.2212 15.5014 13.2635 15.5189 13.3077 15.5189H14.4762C14.5204 15.5189 14.5628 15.5014 14.594 15.4702C14.6252 15.4389 14.6428 15.3966 14.6428 15.3524V14.1841C14.6428 14.1399 14.6252 14.0975 14.594 14.0663C14.5628 14.0351 14.5204 14.0175 14.4762 14.0175ZM14.3097 15.1859H13.4742V14.3506H14.3097V15.1859ZM7.83679 12.0538H6.66826C6.62409 12.0538 6.58173 12.0714 6.55049 12.1026C6.51926 12.1338 6.50171 12.1762 6.50171 12.2204V13.3887C6.50171 13.4329 6.51926 13.4752 6.55049 13.5065C6.58173 13.5377 6.62409 13.5552 6.66826 13.5552H7.83679C7.85866 13.5552 7.88032 13.5509 7.90053 13.5426C7.92073 13.5342 7.93909 13.5219 7.95456 13.5065C7.97002 13.491 7.98229 13.4726 7.99066 13.4524C7.99903 13.4322 8.00334 13.4106 8.00334 13.3887V12.2204C8.00334 12.1762 7.98579 12.1338 7.95456 12.1026C7.92332 12.0714 7.88096 12.0538 7.83679 12.0538ZM7.67024 13.2222H6.83481V12.3869H7.67024V13.2222ZM10.0496 12.0538H8.8814C8.83723 12.0538 8.79487 12.0714 8.76363 12.1026C8.7324 12.1338 8.71485 12.1762 8.71485 12.2204V13.3887C8.71485 13.4329 8.7324 13.4752 8.76363 13.5065C8.79487 13.5377 8.83723 13.5552 8.8814 13.5552H10.0496C10.0938 13.5552 10.1361 13.5377 10.1674 13.5065C10.1986 13.4752 10.2161 13.4329 10.2161 13.3887V12.2204C10.2161 12.1762 10.1986 12.1338 10.1674 12.1026C10.1361 12.0714 10.0938 12.0538 10.0496 12.0538ZM9.88305 13.2222H9.04795V12.3869H9.88305V13.2222ZM12.2631 12.0538H11.0945C11.0504 12.0538 11.008 12.0714 10.9768 12.1026C10.9455 12.1338 10.928 12.1762 10.928 12.2204V13.3887C10.928 13.4329 10.9455 13.4752 10.9768 13.5065C11.008 13.5377 11.0504 13.5552 11.0945 13.5552H12.2631C12.3072 13.5552 12.3496 13.5377 12.3808 13.5065C12.4121 13.4752 12.4296 13.4329 12.4296 13.3887V12.2204C12.4296 12.1762 12.4121 12.1338 12.3808 12.1026C12.3496 12.0714 12.3072 12.0538 12.2631 12.0538ZM12.0965 13.2222H11.2611V12.3869H12.0965V13.2222ZM14.4762 12.0538H13.3077C13.2635 12.0538 13.2212 12.0714 13.1899 12.1026C13.1587 12.1338 13.1411 12.1762 13.1411 12.2204V13.3887C13.1411 13.4329 13.1587 13.4752 13.1899 13.5065C13.2212 13.5377 13.2635 13.5552 13.3077 13.5552H14.4762C14.5204 13.5552 14.5628 13.5377 14.594 13.5065C14.6252 13.4752 14.6428 13.4329 14.6428 13.3887V12.2204C14.6428 12.1762 14.6252 12.1338 14.594 12.1026C14.5628 12.0714 14.5204 12.0538 14.4762 12.0538ZM14.3097 13.2222H13.4742V12.3869H14.3097V13.2222Z" fill="white"/>
<path d="M7.83679 15.9309H6.66826V16.0309H7.83679V15.9309ZM6.66826 15.9309C6.61083 15.9309 6.55575 15.9537 6.51514 15.9943L6.58584 16.065C6.6077 16.0432 6.63735 16.0309 6.66826 16.0309V15.9309ZM6.51514 15.9943C6.47453 16.0349 6.45171 16.09 6.45171 16.1474H6.55171C6.55171 16.1165 6.56399 16.0869 6.58584 16.065L6.51514 15.9943ZM8.05334 16.1474C8.05334 16.09 8.03052 16.0349 7.98991 15.9943L7.91921 16.065C7.94106 16.0869 7.95334 16.1165 7.95334 16.1474H8.05334ZM7.98991 15.9943C7.9493 15.9537 7.89422 15.9309 7.83679 15.9309V16.0309C7.8677 16.0309 7.89735 16.0432 7.91921 16.065L7.98991 15.9943ZM6.83481 16.3639H7.67024V16.2639H6.83481V16.3639ZM10.0496 15.9309H8.8814V16.0309H10.0496V15.9309ZM8.8814 15.9309C8.82397 15.9309 8.76889 15.9537 8.72828 15.9943L8.79899 16.065C8.82084 16.0432 8.85049 16.0309 8.8814 16.0309V15.9309ZM8.72828 15.9943C8.68767 16.0349 8.66485 16.09 8.66485 16.1474H8.76485C8.76485 16.1165 8.77713 16.0869 8.79899 16.065L8.72828 15.9943ZM10.2661 16.1474C10.2661 16.09 10.2433 16.0349 10.2027 15.9943L10.132 16.065C10.1539 16.0869 10.1661 16.1165 10.1661 16.1474H10.2661ZM10.2027 15.9943C10.1621 15.9537 10.107 15.9309 10.0496 15.9309V16.0309C10.0805 16.0309 10.1102 16.0432 10.132 16.065L10.2027 15.9943ZM9.04795 16.3639H9.88305V16.2639H9.04795V16.3639ZM12.2631 15.9309H11.0945V16.0309H12.2631V15.9309ZM11.0945 15.9309C11.0371 15.9309 10.982 15.9537 10.9414 15.9943L11.0121 16.065C11.034 16.0432 11.0636 16.0309 11.0945 16.0309V15.9309ZM10.9414 15.9943C10.9008 16.0349 10.878 16.09 10.878 16.1474H10.978C10.978 16.1165 10.9903 16.0869 11.0121 16.065L10.9414 15.9943ZM12.4796 16.1474C12.4796 16.09 12.4568 16.0349 12.4162 15.9943L12.3455 16.065C12.3673 16.0869 12.3796 16.1165 12.3796 16.1474H12.4796ZM12.4162 15.9943C12.3756 15.9537 12.3205 15.9309 12.2631 15.9309V16.0309C12.294 16.0309 12.3236 16.0432 12.3455 16.065L12.4162 15.9943ZM11.2611 16.3639H12.0965V16.2639H11.2611V16.3639ZM14.4762 15.9309H13.3077V16.0309H14.4762V15.9309ZM13.3077 15.9309C13.2503 15.9309 13.1952 15.9537 13.1546 15.9943L13.2253 16.065C13.2471 16.0432 13.2768 16.0309 13.3077 16.0309V15.9309ZM13.1546 15.9943C13.114 16.0349 13.0911 16.09 13.0911 16.1474H13.1911C13.1911 16.1165 13.2034 16.0869 13.2253 16.065L13.1546 15.9943ZM14.6928 16.1474C14.6928 16.09 14.67 16.0349 14.6293 15.9943L14.5586 16.065C14.5805 16.0869 14.5928 16.1165 14.5928 16.1474H14.6928ZM14.6293 15.9943C14.5887 15.9537 14.5336 15.9309 14.4762 15.9309V16.0309C14.5071 16.0309 14.5368 16.0432 14.5586 16.065L14.6293 15.9943ZM13.4742 16.3639H14.3097V16.2639H13.4742V16.3639ZM12.9266 10.3173H13.0266V10.2173H12.9266V10.3173ZM12.5935 10.3173V10.2173H12.4935V10.3173H12.5935ZM12.9599 10.7915H13.0599V10.718L12.9898 10.6961L12.9599 10.7915ZM12.9599 10.9221H12.8599V11.0221H12.9599V10.9221ZM13.293 10.9221V11.0221H13.393V10.9221H13.293ZM13.293 10.7915L13.2632 10.6961L13.193 10.718V10.7915H13.293ZM13.3263 9.64583H13.2263V9.74583H13.3263V9.64583ZM13.6594 9.64583V9.74583H13.7594V9.64583H13.6594ZM13.293 9.17122H13.193V9.24471L13.2632 9.26666L13.293 9.17122ZM13.293 9.04066H13.393V8.94066H13.293V9.04066ZM12.9599 9.04066V8.94066H12.8599V9.04066H12.9599ZM12.9599 9.17122L12.9899 9.26662L13.0599 9.2446V9.17122H12.9599ZM7.67024 15.1859V15.2859H7.77024V15.1859H7.67024ZM6.83481 15.1859H6.73481V15.2859H6.83481V15.1859ZM6.83481 14.3506V14.2506H6.73481V14.3506H6.83481ZM7.67024 14.3506H7.77024V14.2506H7.67024V14.3506ZM9.88305 15.1859V15.2859H9.98305V15.1859H9.88305ZM9.04795 15.1859H8.94795V15.2859H9.04795V15.1859ZM9.04795 14.3506V14.2506H8.94795V14.3506H9.04795ZM9.88305 14.3506H9.98305V14.2506H9.88305V14.3506ZM12.0965 15.1859V15.2859H12.1965V15.1859H12.0965ZM11.2611 15.1859H11.1611V15.2859H11.2611V15.1859ZM11.2611 14.3506V14.2506H11.1611V14.3506H11.2611ZM12.0965 14.3506H12.1965V14.2506H12.0965V14.3506ZM14.3097 15.1859V15.2859H14.4097V15.1859H14.3097ZM13.4742 15.1859H13.3742V15.2859H13.4742V15.1859ZM13.4742 14.3506V14.2506H13.3742V14.3506H13.4742ZM14.3097 14.3506H14.4097V14.2506H14.3097V14.3506ZM7.67024 13.2222V13.3222H7.77024V13.2222H7.67024ZM6.83481 13.2222H6.73481V13.3222H6.83481V13.2222ZM6.83481 12.3869V12.2869H6.73481V12.3869H6.83481ZM7.67024 12.3869H7.77024V12.2869H7.67024V12.3869ZM9.88305 13.2222V13.3222H9.98305V13.2222H9.88305ZM9.04795 13.2222H8.94795V13.3222H9.04795V13.2222ZM9.04795 12.3869V12.2869H8.94795V12.3869H9.04795ZM9.88305 12.3869H9.98305V12.2869H9.88305V12.3869ZM12.0965 13.2222V13.3222H12.1965V13.2222H12.0965ZM11.2611 13.2222H11.1611V13.3222H11.2611V13.2222ZM11.2611 12.3869V12.2869H11.1611V12.3869H11.2611ZM12.0965 12.3869H12.1965V12.2869H12.0965V12.3869ZM14.3097 13.2222V13.3222H14.4097V13.2222H14.3097ZM13.4742 13.2222H13.3742V13.3222H13.4742V13.2222ZM13.4742 12.3869V12.2869H13.3742V12.3869H13.4742ZM14.3097 12.3869H14.4097V12.2869H14.3097V12.3869ZM11.5382 6.22992H8.32645V6.42991H11.5382V6.22992ZM8.32645 6.22992C8.25576 6.22992 8.18796 6.25799 8.13798 6.30797L8.27939 6.44941C8.29187 6.43693 8.3088 6.42991 8.32645 6.42991V6.22992ZM8.13798 6.30797C8.08799 6.35796 8.0599 6.42575 8.0599 6.49644H8.2599C8.2599 6.4788 8.26691 6.46188 8.27939 6.44941L8.13798 6.30797ZM8.0599 6.49644C8.0599 6.56714 8.08799 6.63493 8.13798 6.68491L8.27939 6.54348C8.26691 6.531 8.2599 6.51408 8.2599 6.49644H8.0599ZM8.13798 6.68491C8.18797 6.7349 8.25576 6.76297 8.32645 6.76297V6.56297C8.3088 6.56297 8.29187 6.55596 8.27939 6.54348L8.13798 6.68491ZM8.32645 6.76297H11.5382V6.56297H8.32645V6.76297ZM11.5382 6.76297C11.6089 6.76297 11.6767 6.73489 11.7267 6.68491L11.5853 6.54348C11.5728 6.55596 11.5559 6.56297 11.5382 6.56297V6.76297ZM11.7267 6.68491C11.7767 6.63493 11.8048 6.56714 11.8048 6.49644H11.6048C11.6048 6.51408 11.5978 6.531 11.5853 6.54348L11.7267 6.68491ZM11.8048 6.49644C11.8048 6.42575 11.7767 6.35796 11.7267 6.30797L11.5853 6.44941C11.5978 6.46189 11.6048 6.47881 11.6048 6.49644H11.8048ZM11.7267 6.30797C11.6767 6.25799 11.6089 6.22992 11.5382 6.22992V6.42991C11.5559 6.42991 11.5728 6.43693 11.5853 6.44941L11.7267 6.30797ZM12.5629 5.08287H8.32645V5.28287H12.5629V5.08287ZM8.32645 5.08287C8.25576 5.08287 8.18797 5.11095 8.13798 5.16093L8.27939 5.30236C8.29187 5.28988 8.3088 5.28287 8.32645 5.28287V5.08287ZM8.13798 5.16093C8.08799 5.21091 8.0599 5.27871 8.0599 5.3494H8.2599C8.2599 5.33176 8.26691 5.31484 8.27939 5.30236L8.13798 5.16093ZM8.0599 5.3494C8.0599 5.42009 8.08799 5.48788 8.13798 5.53787L8.27939 5.39643C8.26691 5.38396 8.2599 5.36704 8.2599 5.3494H8.0599ZM8.13798 5.53787C8.18796 5.58785 8.25576 5.61593 8.32645 5.61593V5.41593C8.3088 5.41593 8.29187 5.40891 8.27939 5.39643L8.13798 5.53787ZM8.32645 5.61593H12.5629V5.41593H8.32645V5.61593ZM12.5629 5.61593C12.6336 5.61593 12.7014 5.58785 12.7513 5.53787L12.6099 5.39643C12.5974 5.40891 12.5805 5.41593 12.5629 5.41593V5.61593ZM12.7513 5.53787C12.8013 5.48788 12.8294 5.42009 12.8294 5.3494H12.6294C12.6294 5.36704 12.6224 5.38396 12.6099 5.39643L12.7513 5.53787ZM12.8294 5.3494C12.8294 5.2787 12.8013 5.21091 12.7513 5.16093L12.6099 5.30236C12.6224 5.31484 12.6294 5.33176 12.6294 5.3494H12.8294ZM12.7513 5.16093C12.7014 5.11095 12.6336 5.08287 12.5629 5.08287V5.28287C12.5805 5.28287 12.5975 5.28988 12.6099 5.30236L12.7513 5.16093ZM9.24975 4.20168C9.24975 4.27238 9.27783 4.34017 9.32782 4.39015L9.46923 4.24872C9.45676 4.23624 9.44975 4.21932 9.44975 4.20168H9.24975ZM9.32782 4.39015C9.37781 4.44014 9.44561 4.46821 9.5163 4.46821V4.26821C9.49864 4.26821 9.48171 4.2612 9.46923 4.24872L9.32782 4.39015ZM9.5163 4.46821H12.5629V4.26821H9.5163V4.46821ZM12.5629 4.46821C12.6336 4.46821 12.7014 4.44014 12.7513 4.39015L12.6099 4.24872C12.5975 4.2612 12.5805 4.26821 12.5629 4.26821V4.46821ZM12.7513 4.39015C12.8013 4.34017 12.8294 4.27238 12.8294 4.20168H12.6294C12.6294 4.21932 12.6224 4.23624 12.6099 4.24872L12.7513 4.39015ZM12.8294 4.20168C12.8294 4.13099 12.8013 4.0632 12.7513 4.01322L12.6099 4.15465C12.6224 4.16713 12.6294 4.18405 12.6294 4.20168H12.8294ZM12.7513 4.01322C12.7014 3.96323 12.6336 3.93516 12.5629 3.93516V4.13516C12.5805 4.13516 12.5975 4.14217 12.6099 4.15465L12.7513 4.01322ZM12.5629 3.93516H9.5163V4.13516H12.5629V3.93516ZM9.5163 3.93516C9.44561 3.93516 9.37781 3.96323 9.32782 4.01322L9.46923 4.15465C9.48171 4.14217 9.49864 4.13516 9.5163 4.13516V3.93516ZM9.32782 4.01322C9.27783 4.0632 9.24975 4.13099 9.24975 4.20168H9.44975C9.44975 4.18405 9.45676 4.16712 9.46923 4.15465L9.32782 4.01322ZM13.1265 10.3865C13.0554 10.3865 13.0266 10.3403 13.0266 10.3173H12.8266C12.8266 10.4808 12.9777 10.5865 13.1265 10.5865V10.3865ZM12.9266 10.2173H12.5935V10.4173H12.9266V10.2173ZM12.4935 10.3173C12.4935 10.5879 12.6819 10.8094 12.9301 10.887L12.9898 10.6961C12.8142 10.6412 12.6935 10.4896 12.6935 10.3173H12.4935ZM12.8599 10.7915V10.9221H13.0599V10.7915H12.8599ZM12.9599 11.0221H13.293V10.8221H12.9599V11.0221ZM13.393 10.9221V10.7915H13.193V10.9221H13.393ZM13.3229 10.887C13.571 10.8094 13.7594 10.5879 13.7594 10.3173H13.5594C13.5594 10.4896 13.4388 10.6412 13.2632 10.6961L13.3229 10.887ZM13.7594 10.3173C13.7594 9.97977 13.4698 9.71502 13.1265 9.71502V9.91502C13.3707 9.91502 13.5594 10.1012 13.5594 10.3173H13.7594ZM13.1265 9.71502C13.0554 9.71502 13.0266 9.66882 13.0266 9.64583H12.8266C12.8266 9.80935 12.9777 9.91502 13.1265 9.91502V9.71502ZM13.0266 9.64583C13.0266 9.62284 13.0554 9.57663 13.1265 9.57663V9.37663C12.9777 9.37663 12.8266 9.4823 12.8266 9.64583H13.0266ZM13.1265 9.57663C13.1975 9.57663 13.2263 9.62284 13.2263 9.64583H13.4263C13.4263 9.4823 13.2753 9.37663 13.1265 9.37663V9.57663ZM13.3263 9.74583H13.6594V9.54583H13.3263V9.74583ZM13.7594 9.64583C13.7594 9.37485 13.571 9.15342 13.3229 9.07578L13.2632 9.26666C13.4387 9.32158 13.5594 9.47317 13.5594 9.64583H13.7594ZM13.393 9.17122V9.04066H13.193V9.17122H13.393ZM13.293 8.94066H12.9599V9.14066H13.293V8.94066ZM12.8599 9.04066V9.17122H13.0599V9.04066H12.8599ZM12.9299 9.07582C12.682 9.15379 12.4935 9.37513 12.4935 9.64583H12.6935C12.6935 9.47356 12.8142 9.32187 12.9899 9.26662L12.9299 9.07582ZM12.4935 9.64583C12.4935 9.98332 12.7831 10.2481 13.1265 10.2481V10.0481C12.8822 10.0481 12.6935 9.86187 12.6935 9.64583H12.4935ZM13.1265 10.2481C13.1977 10.2481 13.2263 10.2941 13.2263 10.3173H13.4263C13.4263 10.1533 13.2751 10.0481 13.1265 10.0481V10.2481ZM13.2263 10.3173C13.2263 10.3405 13.1977 10.3865 13.1265 10.3865V10.5865C13.2751 10.5865 13.4263 10.4812 13.4263 10.3173H13.2263ZM7.83679 13.9175H6.66826V14.1175H7.83679V13.9175ZM6.66826 13.9175C6.59757 13.9175 6.52977 13.9456 6.47979 13.9956L6.6212 14.137C6.63368 14.1245 6.65061 14.1175 6.66826 14.1175V13.9175ZM6.47979 13.9956C6.4298 14.0456 6.40171 14.1134 6.40171 14.1841H6.60171C6.60171 14.1664 6.60872 14.1495 6.6212 14.137L6.47979 13.9956ZM6.40171 14.1841V15.3524H6.60171V14.1841H6.40171ZM6.40171 15.3524C6.40171 15.4231 6.4298 15.4909 6.47979 15.5409L6.6212 15.3995C6.60872 15.387 6.60171 15.3701 6.60171 15.3524H6.40171ZM6.47979 15.5409C6.52978 15.5909 6.59757 15.6189 6.66826 15.6189V15.4189C6.6506 15.4189 6.63368 15.4119 6.6212 15.3995L6.47979 15.5409ZM6.66826 15.6189H7.83679V15.4189H6.66826V15.6189ZM7.83679 15.6189C7.87179 15.6189 7.90645 15.6121 7.93879 15.5987L7.86226 15.4139C7.85419 15.4172 7.84553 15.4189 7.83679 15.4189V15.6189ZM7.93879 15.5987C7.97113 15.5853 8.00051 15.5656 8.02526 15.5409L7.88385 15.3995C7.87767 15.4056 7.87034 15.4105 7.86226 15.4139L7.93879 15.5987ZM8.02526 15.5409C8.05002 15.5161 8.06965 15.4868 8.08305 15.4544L7.89828 15.3779C7.89493 15.3859 7.89003 15.3933 7.88385 15.3995L8.02526 15.5409ZM8.08305 15.4544C8.09645 15.4221 8.10334 15.3874 8.10334 15.3524H7.90334C7.90334 15.3611 7.90162 15.3698 7.89828 15.3779L8.08305 15.4544ZM8.10334 15.3524V14.1841H7.90334V15.3524H8.10334ZM8.10334 14.1841C8.10334 14.1134 8.07525 14.0456 8.02526 13.9956L7.88385 14.137C7.89633 14.1495 7.90334 14.1664 7.90334 14.1841H8.10334ZM8.02526 13.9956C7.97528 13.9456 7.90748 13.9175 7.83679 13.9175V14.1175C7.85444 14.1175 7.87137 14.1245 7.88385 14.137L8.02526 13.9956ZM7.67024 15.0859H6.83481V15.2859H7.67024V15.0859ZM6.93481 15.1859V14.3506H6.73481V15.1859H6.93481ZM6.83481 14.4506H7.67024V14.2506H6.83481V14.4506ZM7.57024 14.3506V15.1859H7.77024V14.3506H7.57024ZM10.0496 13.9175H8.8814V14.1175H10.0496V13.9175ZM8.8814 13.9175C8.81071 13.9175 8.74292 13.9456 8.69293 13.9956L8.83434 14.137C8.84682 14.1245 8.86375 14.1175 8.8814 14.1175V13.9175ZM8.69293 13.9956C8.64294 14.0456 8.61485 14.1134 8.61485 14.1841H8.81485C8.81485 14.1664 8.82186 14.1495 8.83434 14.137L8.69293 13.9956ZM8.61485 14.1841V15.3524H8.81485V14.1841H8.61485ZM8.61485 15.3524C8.61485 15.4231 8.64294 15.4909 8.69293 15.5409L8.83434 15.3995C8.82186 15.387 8.81485 15.3701 8.81485 15.3524H8.61485ZM8.69293 15.5409C8.74292 15.5909 8.81071 15.6189 8.8814 15.6189V15.4189C8.86375 15.4189 8.84682 15.4119 8.83434 15.3995L8.69293 15.5409ZM8.8814 15.6189H10.0496V15.4189H8.8814V15.6189ZM10.0496 15.6189C10.1203 15.6189 10.1881 15.5909 10.2381 15.5409L10.0967 15.3995C10.0842 15.4119 10.0673 15.4189 10.0496 15.4189V15.6189ZM10.2381 15.5409C10.2881 15.4909 10.3161 15.4231 10.3161 15.3524H10.1161C10.1161 15.3701 10.1091 15.387 10.0967 15.3995L10.2381 15.5409ZM10.3161 15.3524V14.1841H10.1161V15.3524H10.3161ZM10.3161 14.1841C10.3161 14.1134 10.2881 14.0456 10.2381 13.9956L10.0967 14.137C10.1091 14.1495 10.1161 14.1664 10.1161 14.1841H10.3161ZM10.2381 13.9956C10.1881 13.9456 10.1203 13.9175 10.0496 13.9175V14.1175C10.0673 14.1175 10.0842 14.1245 10.0967 14.137L10.2381 13.9956ZM9.88305 15.0859H9.04795V15.2859H9.88305V15.0859ZM9.14795 15.1859V14.3506H8.94795V15.1859H9.14795ZM9.04795 14.4506H9.88305V14.2506H9.04795V14.4506ZM9.78305 14.3506V15.1859H9.98305V14.3506H9.78305ZM12.2631 13.9175H11.0945V14.1175H12.2631V13.9175ZM11.0945 13.9175C11.0239 13.9175 10.9561 13.9456 10.9061 13.9956L11.0475 14.137C11.06 14.1245 11.0769 14.1175 11.0945 14.1175V13.9175ZM10.9061 13.9956C10.8561 14.0456 10.828 14.1134 10.828 14.1841H11.028C11.028 14.1664 11.035 14.1495 11.0475 14.137L10.9061 13.9956ZM10.828 14.1841V15.3524H11.028V14.1841H10.828ZM10.828 15.3524C10.828 15.4231 10.8561 15.4909 10.9061 15.5409L11.0475 15.3995C11.035 15.387 11.028 15.3701 11.028 15.3524H10.828ZM10.9061 15.5409C10.9561 15.5909 11.0239 15.6189 11.0945 15.6189V15.4189C11.0769 15.4189 11.06 15.4119 11.0475 15.3995L10.9061 15.5409ZM11.0945 15.6189H12.2631V15.4189H11.0945V15.6189ZM12.2631 15.6189C12.3338 15.6189 12.4016 15.5909 12.4515 15.5409L12.3101 15.3995C12.2977 15.4119 12.2807 15.4189 12.2631 15.4189V15.6189ZM12.4515 15.5409C12.5015 15.4909 12.5296 15.4231 12.5296 15.3524H12.3296C12.3296 15.3701 12.3226 15.387 12.3101 15.3995L12.4515 15.5409ZM12.5296 15.3524V14.1841H12.3296V15.3524H12.5296ZM12.5296 14.1841C12.5296 14.1134 12.5015 14.0456 12.4515 13.9956L12.3101 14.137C12.3226 14.1495 12.3296 14.1664 12.3296 14.1841H12.5296ZM12.4515 13.9956C12.4016 13.9456 12.3338 13.9175 12.2631 13.9175V14.1175C12.2807 14.1175 12.2977 14.1245 12.3101 14.137L12.4515 13.9956ZM12.0965 15.0859H11.2611V15.2859H12.0965V15.0859ZM11.3611 15.1859V14.3506H11.1611V15.1859H11.3611ZM11.2611 14.4506H12.0965V14.2506H11.2611V14.4506ZM11.9965 14.3506V15.1859H12.1965V14.3506H11.9965ZM14.4762 13.9175H13.3077V14.1175H14.4762V13.9175ZM13.3077 13.9175C13.237 13.9175 13.1692 13.9456 13.1192 13.9956L13.2606 14.137C13.2731 14.1245 13.29 14.1175 13.3077 14.1175V13.9175ZM13.1192 13.9956C13.0692 14.0456 13.0411 14.1134 13.0411 14.1841H13.2411C13.2411 14.1664 13.2481 14.1495 13.2606 14.137L13.1192 13.9956ZM13.0411 14.1841V15.3524H13.2411V14.1841H13.0411ZM13.0411 15.3524C13.0411 15.4231 13.0692 15.4909 13.1192 15.5409L13.2606 15.3995C13.2481 15.387 13.2411 15.3701 13.2411 15.3524H13.0411ZM13.1192 15.5409C13.1692 15.5909 13.237 15.6189 13.3077 15.6189V15.4189C13.29 15.4189 13.2731 15.4119 13.2606 15.3995L13.1192 15.5409ZM13.3077 15.6189H14.4762V15.4189H13.3077V15.6189ZM14.4762 15.6189C14.5469 15.6189 14.6147 15.5909 14.6647 15.5409L14.5233 15.3995C14.5108 15.4119 14.4939 15.4189 14.4762 15.4189V15.6189ZM14.6647 15.5409C14.7147 15.4909 14.7428 15.4231 14.7428 15.3524H14.5428C14.5428 15.3701 14.5358 15.387 14.5233 15.3995L14.6647 15.5409ZM14.7428 15.3524V14.1841H14.5428V15.3524H14.7428ZM14.7428 14.1841C14.7428 14.1134 14.7147 14.0456 14.6647 13.9956L14.5233 14.137C14.5358 14.1495 14.5428 14.1664 14.5428 14.1841H14.7428ZM14.6647 13.9956C14.6147 13.9456 14.5469 13.9175 14.4762 13.9175V14.1175C14.4939 14.1175 14.5108 14.1245 14.5233 14.137L14.6647 13.9956ZM14.3097 15.0859H13.4742V15.2859H14.3097V15.0859ZM13.5742 15.1859V14.3506H13.3742V15.1859H13.5742ZM13.4742 14.4506H14.3097V14.2506H13.4742V14.4506ZM14.2097 14.3506V15.1859H14.4097V14.3506H14.2097ZM7.83679 11.9538H6.66826V12.1538H7.83679V11.9538ZM6.66826 11.9538C6.59757 11.9538 6.52977 11.9819 6.47979 12.0319L6.6212 12.1733C6.63368 12.1608 6.65061 12.1538 6.66826 12.1538V11.9538ZM6.47979 12.0319C6.4298 12.0819 6.40171 12.1497 6.40171 12.2204H6.60171C6.60171 12.2027 6.60872 12.1858 6.6212 12.1733L6.47979 12.0319ZM6.40171 12.2204V13.3887H6.60171V12.2204H6.40171ZM6.40171 13.3887C6.40171 13.4594 6.4298 13.5272 6.47979 13.5772L6.6212 13.4358C6.60872 13.4233 6.60171 13.4064 6.60171 13.3887H6.40171ZM6.47979 13.5772C6.52977 13.6272 6.59757 13.6552 6.66826 13.6552V13.4552C6.65061 13.4552 6.63368 13.4482 6.6212 13.4358L6.47979 13.5772ZM6.66826 13.6552H7.83679V13.4552H6.66826V13.6552ZM7.83679 13.6552C7.87179 13.6552 7.90645 13.6483 7.93879 13.635L7.86226 13.4502C7.85419 13.4535 7.84553 13.4552 7.83679 13.4552V13.6552ZM7.93879 13.635C7.97113 13.6216 8.00051 13.6019 8.02526 13.5772L7.88385 13.4358C7.87767 13.4419 7.87034 13.4468 7.86226 13.4502L7.93879 13.635ZM8.02526 13.5772C8.05002 13.5524 8.06965 13.5231 8.08305 13.4907L7.89828 13.4142C7.89493 13.4222 7.89003 13.4296 7.88385 13.4358L8.02526 13.5772ZM8.08305 13.4907C8.09645 13.4584 8.10334 13.4237 8.10334 13.3887H7.90334C7.90334 13.3974 7.90162 13.4061 7.89828 13.4142L8.08305 13.4907ZM8.10334 13.3887V12.2204H7.90334V13.3887H8.10334ZM8.10334 12.2204C8.10334 12.1497 8.07525 12.0819 8.02526 12.0319L7.88385 12.1733C7.89633 12.1858 7.90334 12.2027 7.90334 12.2204H8.10334ZM8.02526 12.0319C7.97528 11.9819 7.90748 11.9538 7.83679 11.9538V12.1538C7.85444 12.1538 7.87137 12.1608 7.88385 12.1733L8.02526 12.0319ZM7.67024 13.1222H6.83481V13.3222H7.67024V13.1222ZM6.93481 13.2222V12.3869H6.73481V13.2222H6.93481ZM6.83481 12.4869H7.67024V12.2869H6.83481V12.4869ZM7.57024 12.3869V13.2222H7.77024V12.3869H7.57024ZM10.0496 11.9538H8.8814V12.1538H10.0496V11.9538ZM8.8814 11.9538C8.81071 11.9538 8.74292 11.9819 8.69293 12.0319L8.83434 12.1733C8.84682 12.1608 8.86375 12.1538 8.8814 12.1538V11.9538ZM8.69293 12.0319C8.64294 12.0819 8.61485 12.1497 8.61485 12.2204H8.81485C8.81485 12.2027 8.82186 12.1858 8.83434 12.1733L8.69293 12.0319ZM8.61485 12.2204V13.3887H8.81485V12.2204H8.61485ZM8.61485 13.3887C8.61485 13.4594 8.64294 13.5272 8.69293 13.5772L8.83434 13.4358C8.82186 13.4233 8.81485 13.4064 8.81485 13.3887H8.61485ZM8.69293 13.5772C8.74292 13.6272 8.81071 13.6552 8.8814 13.6552V13.4552C8.86375 13.4552 8.84682 13.4482 8.83434 13.4358L8.69293 13.5772ZM8.8814 13.6552H10.0496V13.4552H8.8814V13.6552ZM10.0496 13.6552C10.1203 13.6552 10.1881 13.6272 10.2381 13.5772L10.0967 13.4358C10.0842 13.4482 10.0673 13.4552 10.0496 13.4552V13.6552ZM10.2381 13.5772C10.2881 13.5272 10.3161 13.4594 10.3161 13.3887H10.1161C10.1161 13.4064 10.1091 13.4233 10.0967 13.4358L10.2381 13.5772ZM10.3161 13.3887V12.2204H10.1161V13.3887H10.3161ZM10.3161 12.2204C10.3161 12.1497 10.2881 12.0819 10.2381 12.0319L10.0967 12.1733C10.1091 12.1858 10.1161 12.2027 10.1161 12.2204H10.3161ZM10.2381 12.0319C10.1881 11.9819 10.1203 11.9538 10.0496 11.9538V12.1538C10.0673 12.1538 10.0842 12.1608 10.0967 12.1733L10.2381 12.0319ZM9.88305 13.1222H9.04795V13.3222H9.88305V13.1222ZM9.14795 13.2222V12.3869H8.94795V13.2222H9.14795ZM9.04795 12.4869H9.88305V12.2869H9.04795V12.4869ZM9.78305 12.3869V13.2222H9.98305V12.3869H9.78305ZM12.2631 11.9538H11.0945V12.1538H12.2631V11.9538ZM11.0945 11.9538C11.0239 11.9538 10.9561 11.9819 10.9061 12.0319L11.0475 12.1733C11.06 12.1608 11.0769 12.1538 11.0945 12.1538V11.9538ZM10.9061 12.0319C10.8561 12.0819 10.828 12.1497 10.828 12.2204H11.028C11.028 12.2027 11.035 12.1858 11.0475 12.1733L10.9061 12.0319ZM10.828 12.2204V13.3887H11.028V12.2204H10.828ZM10.828 13.3887C10.828 13.4594 10.8561 13.5272 10.9061 13.5772L11.0475 13.4358C11.035 13.4233 11.028 13.4064 11.028 13.3887H10.828ZM10.9061 13.5772C10.9561 13.6272 11.0239 13.6552 11.0945 13.6552V13.4552C11.0769 13.4552 11.06 13.4482 11.0475 13.4358L10.9061 13.5772ZM11.0945 13.6552H12.2631V13.4552H11.0945V13.6552ZM12.2631 13.6552C12.3338 13.6552 12.4016 13.6272 12.4515 13.5772L12.3101 13.4358C12.2977 13.4482 12.2807 13.4552 12.2631 13.4552V13.6552ZM12.4515 13.5772C12.5015 13.5272 12.5296 13.4594 12.5296 13.3887H12.3296C12.3296 13.4064 12.3226 13.4233 12.3101 13.4358L12.4515 13.5772ZM12.5296 13.3887V12.2204H12.3296V13.3887H12.5296ZM12.5296 12.2204C12.5296 12.1497 12.5015 12.0819 12.4515 12.0319L12.3101 12.1733C12.3226 12.1858 12.3296 12.2027 12.3296 12.2204H12.5296ZM12.4515 12.0319C12.4016 11.9819 12.3338 11.9538 12.2631 11.9538V12.1538C12.2807 12.1538 12.2977 12.1608 12.3101 12.1733L12.4515 12.0319ZM12.0965 13.1222H11.2611V13.3222H12.0965V13.1222ZM11.3611 13.2222V12.3869H11.1611V13.2222H11.3611ZM11.2611 12.4869H12.0965V12.2869H11.2611V12.4869ZM11.9965 12.3869V13.2222H12.1965V12.3869H11.9965ZM14.4762 11.9538H13.3077V12.1538H14.4762V11.9538ZM13.3077 11.9538C13.237 11.9538 13.1692 11.9819 13.1192 12.0319L13.2606 12.1733C13.2731 12.1608 13.29 12.1538 13.3077 12.1538V11.9538ZM13.1192 12.0319C13.0692 12.0819 13.0411 12.1497 13.0411 12.2204H13.2411C13.2411 12.2027 13.2481 12.1858 13.2606 12.1733L13.1192 12.0319ZM13.0411 12.2204V13.3887H13.2411V12.2204H13.0411ZM13.0411 13.3887C13.0411 13.4594 13.0692 13.5272 13.1192 13.5772L13.2606 13.4358C13.2481 13.4233 13.2411 13.4064 13.2411 13.3887H13.0411ZM13.1192 13.5772C13.1692 13.6272 13.237 13.6552 13.3077 13.6552V13.4552C13.29 13.4552 13.2731 13.4482 13.2606 13.4358L13.1192 13.5772ZM13.3077 13.6552H14.4762V13.4552H13.3077V13.6552ZM14.4762 13.6552C14.5469 13.6552 14.6147 13.6272 14.6647 13.5772L14.5233 13.4358C14.5108 13.4482 14.4939 13.4552 14.4762 13.4552V13.6552ZM14.6647 13.5772C14.7147 13.5272 14.7428 13.4594 14.7428 13.3887H14.5428C14.5428 13.4064 14.5358 13.4233 14.5233 13.4358L14.6647 13.5772ZM14.7428 13.3887V12.2204H14.5428V13.3887H14.7428ZM14.7428 12.2204C14.7428 12.1497 14.7147 12.0819 14.6647 12.0319L14.5233 12.1733C14.5358 12.1858 14.5428 12.2027 14.5428 12.2204H14.7428ZM14.6647 12.0319C14.6147 11.9819 14.5469 11.9538 14.4762 11.9538V12.1538C14.4939 12.1538 14.5108 12.1608 14.5233 12.1733L14.6647 12.0319ZM14.3097 13.1222H13.4742V13.3222H14.3097V13.1222ZM13.5742 13.2222V12.3869H13.3742V13.2222H13.5742ZM13.4742 12.4869H14.3097V12.2869H13.4742V12.4869ZM14.2097 12.3869V13.2222H14.4097V12.3869H14.2097Z" fill="white" mask="url(#path-3-outside-2_1002_4099)"/>
</svg>
