<svg width="14" height="13" viewBox="0 0 14 13" fill="none" xmlns="http://www.w3.org/2000/svg">
<path d="M12.6241 3.07725L11.5132 0.939846C11.2386 0.413044 10.5586 0.000488281 9.965 0.000488281H3.13452C2.54178 0.000488281 1.85937 0.410664 1.58242 0.933524L0.472306 3.02729C0.232684 3.48031 0.0454102 4.23562 0.0454102 4.74736V11.7808C0.0454102 12.4528 0.591343 12.9994 1.26421 12.9994H11.8266C12.4987 12.9994 13.0454 12.4528 13.0454 11.7808V4.79735C13.0454 4.28639 12.8605 3.53027 12.6241 3.07725ZM1.19123 3.40731L2.30056 1.31434C2.43943 1.05252 2.83696 0.812913 3.13452 0.812913H9.96501C10.261 0.812913 10.6554 1.0525 10.7927 1.31513L11.9036 3.45171C11.956 3.55327 12.0051 3.68342 12.0504 3.82304H1.02856C1.07777 3.66674 1.13173 3.51916 1.19123 3.40731ZM12.2329 11.7808C12.2329 12.0045 12.0512 12.187 11.8266 12.187H1.26423C1.03967 12.187 0.857965 12.0045 0.857965 11.7808V4.74734C0.857965 4.71481 0.864317 4.67196 0.867471 4.63549H12.2193C12.2241 4.68944 12.2328 4.74972 12.2328 4.79733V11.7808H12.2329Z" fill="#7C29E5"/>
<path d="M9.96121 6.87276L7.91474 9.05855L7.08872 8.23423C6.93001 8.07554 6.67293 8.07554 6.51421 8.23423C6.35552 8.39289 6.35552 8.64995 6.51421 8.80863L7.6283 9.9194C7.70767 9.99873 7.81082 10.0384 7.91476 10.0384C7.97111 10.0384 8.02664 10.0241 8.07983 10.0003C8.13932 9.97967 8.19487 9.94795 8.2409 9.89953L10.5547 7.42815C10.7079 7.26472 10.6992 7.00767 10.5357 6.85374C10.3722 6.7014 10.1151 6.70934 9.9612 6.87278L9.96121 6.87276ZM5.33425 7.46622H2.89583C2.67205 7.46622 2.48955 7.64791 2.48955 7.87244C2.48955 8.09696 2.67207 8.27865 2.89583 8.27865H5.33427C5.55882 8.27865 5.74055 8.09696 5.74055 7.87244C5.74055 7.64791 5.55882 7.46622 5.33425 7.46622ZM4.10115 9.199H2.88234C2.65778 9.199 2.47607 9.38148 2.47607 9.60519C2.47607 9.83052 2.65778 10.0114 2.88234 10.0114H4.10115C4.32574 10.0114 4.50743 9.83052 4.50743 9.60519C4.50743 9.38148 4.32572 9.199 4.10115 9.199Z" fill="#7C29E5"/>
</svg>
