<svg width="17" height="11" viewBox="0 0 17 11" fill="none" xmlns="http://www.w3.org/2000/svg">
<path d="M3.90001 5.48146L3.88166 5.49982M13.2567 5.48142L13.2383 5.49977M2.47559 10.1875H14.6631C15.4397 10.1875 16.0693 9.5579 16.0693 8.78125V2.21875C16.0693 1.4421 15.4397 0.8125 14.6631 0.8125H2.47559C1.69894 0.8125 1.06934 1.4421 1.06934 2.21875V8.78125C1.06934 9.5579 1.69894 10.1875 2.47559 10.1875ZM10.4443 5.5C10.4443 6.53554 9.60487 7.375 8.56934 7.375C7.5338 7.375 6.69434 6.53554 6.69434 5.5C6.69434 4.46447 7.5338 3.625 8.56934 3.625C9.60487 3.625 10.4443 4.46447 10.4443 5.5Z" stroke="#7C29E5" stroke-linecap="round" stroke-linejoin="round"/>
</svg>
