<svg width="16" height="16" viewBox="0 0 16 16" fill="none" xmlns="http://www.w3.org/2000/svg">
<mask id="path-1-outside-1_1002_4030" maskUnits="userSpaceOnUse" x="1.22974" y="2.60254" width="13" height="11" fill="black">
<rect fill="white" x="1.22974" y="2.60254" width="13" height="11"/>
<path d="M5.80906 4.65282L5.14274 4.56735L4.83553 3.94592C4.78511 3.84256 4.70657 3.75552 4.60891 3.69478C4.51125 3.63404 4.39844 3.60207 4.28344 3.60254C4.04752 3.60254 3.83586 3.7343 3.73134 3.94555L3.44466 4.5528L2.75819 4.65282C2.64434 4.6689 2.53732 4.7167 2.44939 4.79076C2.36145 4.86482 2.29615 4.96215 2.26097 5.07159C2.22493 5.18078 2.22042 5.29792 2.24795 5.40956C2.27548 5.5212 2.33395 5.62281 2.41663 5.70273L2.90563 6.16293L2.78842 6.84632C2.76856 6.95959 2.781 7.07616 2.8243 7.18269C2.86761 7.28923 2.94004 7.38142 3.0333 7.44872C3.12611 7.51654 3.23613 7.55689 3.3508 7.56514C3.46546 7.57339 3.58013 7.54921 3.6817 7.49537L4.27037 7.17252L4.88443 7.49537C4.98607 7.54916 5.10079 7.5733 5.2155 7.56505C5.33021 7.5568 5.44029 7.51649 5.5332 7.44872C5.62649 7.38145 5.69895 7.28926 5.74226 7.18272C5.78557 7.07617 5.79798 6.95959 5.77808 6.84632L5.65302 6.18681L6.14987 5.70236C6.31897 5.53739 6.37869 5.29553 6.30553 5.07122C6.2705 4.96186 6.20533 4.86459 6.11751 4.79058C6.0297 4.71658 5.92279 4.66883 5.80906 4.65282ZM5.88969 5.43549L5.39322 5.91995C5.35292 5.95907 5.32276 6.00742 5.30533 6.0608C5.2879 6.11419 5.28373 6.17102 5.29318 6.22638L5.41039 6.91014C5.41846 6.95471 5.41369 7.00066 5.39664 7.04262C5.37959 7.08458 5.35095 7.12083 5.31408 7.14714C5.27768 7.17415 5.23434 7.19025 5.18913 7.19356C5.14391 7.19686 5.0987 7.18724 5.05875 7.1658L4.44432 6.84296C4.39467 6.81678 4.33938 6.80309 4.28325 6.80309C4.22712 6.80309 4.17183 6.81678 4.12218 6.84296L3.50812 7.1658C3.46817 7.18724 3.42295 7.19686 3.37774 7.19356C3.33253 7.19025 3.28919 7.17415 3.25279 7.14714C3.21571 7.12093 3.18693 7.08463 3.16986 7.04256C3.15279 7.00049 3.14815 6.9544 3.15648 6.90977L3.27369 6.22638C3.28324 6.17108 3.27918 6.11429 3.26189 6.06091C3.24459 6.00752 3.21456 5.95915 3.1744 5.91995L2.67756 5.43549C2.60999 5.3698 2.58685 5.27687 2.61596 5.18729C2.64508 5.09772 2.71824 5.03613 2.81157 5.0227L3.49841 4.92267C3.55394 4.91448 3.60665 4.89295 3.65203 4.85993C3.69741 4.82691 3.7341 4.78338 3.75897 4.73307L4.06581 4.11126C4.08537 4.07029 4.11626 4.03579 4.15483 4.01184C4.1934 3.98789 4.23804 3.97551 4.28344 3.97615C4.3775 3.97615 4.45888 4.02654 4.50069 4.11089L4.80753 4.7327C4.83246 4.78306 4.86922 4.82665 4.91465 4.85973C4.96009 4.89281 5.01286 4.91441 5.06846 4.92267L5.75493 5.0227C5.84825 5.03613 5.92142 5.09772 5.95053 5.18729C5.97965 5.27687 5.95725 5.3698 5.88969 5.43549ZM13.006 4.49271H8.43214C8.38264 4.49271 8.33517 4.51237 8.30017 4.54736C8.26516 4.58236 8.2455 4.62983 8.2455 4.67932C8.2455 4.72882 8.26516 4.77628 8.30017 4.81128C8.33517 4.84628 8.38264 4.86594 8.43214 4.86594H13.006C13.0555 4.86594 13.103 4.84628 13.138 4.81128C13.173 4.77628 13.1927 4.72882 13.1927 4.67932C13.1927 4.62983 13.173 4.58236 13.138 4.54736C13.103 4.51237 13.0555 4.49271 13.006 4.49271ZM8.43214 6.67762H11.3733C11.4228 6.67762 11.4702 6.65795 11.5052 6.62296C11.5402 6.58796 11.5599 6.54049 11.5599 6.491C11.5599 6.4415 11.5402 6.39404 11.5052 6.35904C11.4702 6.32404 11.4228 6.30438 11.3733 6.30438H8.43214C8.38264 6.30438 8.33517 6.32404 8.30017 6.35904C8.26516 6.39404 8.2455 6.4415 8.2455 6.491C8.2455 6.54049 8.26516 6.58796 8.30017 6.62296C8.33517 6.65795 8.38264 6.67762 8.43214 6.67762ZM6.30777 10.6455C6.23311 10.4215 6.04274 10.261 5.80756 10.2274L5.14311 10.1416L4.83702 9.52203C4.7325 9.30928 4.51973 9.17865 4.28456 9.17865C4.04938 9.17865 3.83661 9.30928 3.73209 9.52203L3.44466 10.1267L2.75781 10.2274C2.52637 10.261 2.336 10.4215 2.26134 10.6455C2.18668 10.8731 2.24641 11.112 2.41812 11.28L2.90713 11.739L2.78768 12.4221C2.75035 12.6535 2.84367 12.8849 3.03404 13.023C3.22442 13.1648 3.47452 13.1797 3.68356 13.0715L4.26962 12.7468L4.88555 13.0715C4.97514 13.12 5.07592 13.1424 5.17298 13.1424C5.29989 13.1424 5.42681 13.1013 5.53507 13.023C5.72544 12.8849 5.81876 12.6535 5.7777 12.4221L5.65452 11.7614L6.15099 11.28C6.31897 11.112 6.37869 10.8731 6.30777 10.6455ZM5.88969 11.0112L5.39322 11.4964C5.31109 11.5748 5.27376 11.6905 5.29243 11.8025L5.41188 12.4855C5.41935 12.5304 5.41424 12.5765 5.39711 12.6186C5.37997 12.6608 5.35149 12.6974 5.31483 12.7244C5.23644 12.7766 5.14311 12.7841 5.05726 12.743L4.44507 12.4183C4.39557 12.3921 4.34056 12.378 4.28456 12.3773C4.22856 12.3773 4.17257 12.3922 4.12404 12.4183L3.50812 12.743C3.426 12.7841 3.32894 12.7766 3.25428 12.7244C3.21698 12.698 3.18802 12.6615 3.17082 12.6191C3.15362 12.5768 3.14891 12.5304 3.15723 12.4855L3.27295 11.8025C3.28294 11.7474 3.27932 11.6908 3.2624 11.6374C3.24548 11.5841 3.21579 11.5357 3.17589 11.4964L2.67942 11.0112C2.64554 10.9803 2.62147 10.9402 2.61019 10.8957C2.59891 10.8513 2.60092 10.8045 2.61596 10.7612C2.64583 10.6716 2.72048 10.6119 2.81381 10.5969L3.49692 10.4962C3.60891 10.4812 3.70969 10.4103 3.75822 10.3095L4.06805 9.68625C4.10911 9.60041 4.19123 9.55189 4.28456 9.55189C4.37788 9.55189 4.46 9.60041 4.50106 9.68625L4.80716 10.3095C4.85942 10.4103 4.95647 10.4812 5.06846 10.4962L5.7553 10.5969C5.84863 10.6119 5.92328 10.6716 5.94941 10.7612C5.97928 10.8507 5.95688 10.944 5.88969 11.0112Z"/>
</mask>
<path d="M5.80906 4.65282L5.14274 4.56735L4.83553 3.94592C4.78511 3.84256 4.70657 3.75552 4.60891 3.69478C4.51125 3.63404 4.39844 3.60207 4.28344 3.60254C4.04752 3.60254 3.83586 3.7343 3.73134 3.94555L3.44466 4.5528L2.75819 4.65282C2.64434 4.6689 2.53732 4.7167 2.44939 4.79076C2.36145 4.86482 2.29615 4.96215 2.26097 5.07159C2.22493 5.18078 2.22042 5.29792 2.24795 5.40956C2.27548 5.5212 2.33395 5.62281 2.41663 5.70273L2.90563 6.16293L2.78842 6.84632C2.76856 6.95959 2.781 7.07616 2.8243 7.18269C2.86761 7.28923 2.94004 7.38142 3.0333 7.44872C3.12611 7.51654 3.23613 7.55689 3.3508 7.56514C3.46546 7.57339 3.58013 7.54921 3.6817 7.49537L4.27037 7.17252L4.88443 7.49537C4.98607 7.54916 5.10079 7.5733 5.2155 7.56505C5.33021 7.5568 5.44029 7.51649 5.5332 7.44872C5.62649 7.38145 5.69895 7.28926 5.74226 7.18272C5.78557 7.07617 5.79798 6.95959 5.77808 6.84632L5.65302 6.18681L6.14987 5.70236C6.31897 5.53739 6.37869 5.29553 6.30553 5.07122C6.2705 4.96186 6.20533 4.86459 6.11751 4.79058C6.0297 4.71658 5.92279 4.66883 5.80906 4.65282ZM5.88969 5.43549L5.39322 5.91995C5.35292 5.95907 5.32276 6.00742 5.30533 6.0608C5.2879 6.11419 5.28373 6.17102 5.29318 6.22638L5.41039 6.91014C5.41846 6.95471 5.41369 7.00066 5.39664 7.04262C5.37959 7.08458 5.35095 7.12083 5.31408 7.14714C5.27768 7.17415 5.23434 7.19025 5.18913 7.19356C5.14391 7.19686 5.0987 7.18724 5.05875 7.1658L4.44432 6.84296C4.39467 6.81678 4.33938 6.80309 4.28325 6.80309C4.22712 6.80309 4.17183 6.81678 4.12218 6.84296L3.50812 7.1658C3.46817 7.18724 3.42295 7.19686 3.37774 7.19356C3.33253 7.19025 3.28919 7.17415 3.25279 7.14714C3.21571 7.12093 3.18693 7.08463 3.16986 7.04256C3.15279 7.00049 3.14815 6.9544 3.15648 6.90977L3.27369 6.22638C3.28324 6.17108 3.27918 6.11429 3.26189 6.06091C3.24459 6.00752 3.21456 5.95915 3.1744 5.91995L2.67756 5.43549C2.60999 5.3698 2.58685 5.27687 2.61596 5.18729C2.64508 5.09772 2.71824 5.03613 2.81157 5.0227L3.49841 4.92267C3.55394 4.91448 3.60665 4.89295 3.65203 4.85993C3.69741 4.82691 3.7341 4.78338 3.75897 4.73307L4.06581 4.11126C4.08537 4.07029 4.11626 4.03579 4.15483 4.01184C4.1934 3.98789 4.23804 3.97551 4.28344 3.97615C4.3775 3.97615 4.45888 4.02654 4.50069 4.11089L4.80753 4.7327C4.83246 4.78306 4.86922 4.82665 4.91465 4.85973C4.96009 4.89281 5.01286 4.91441 5.06846 4.92267L5.75493 5.0227C5.84825 5.03613 5.92142 5.09772 5.95053 5.18729C5.97965 5.27687 5.95725 5.3698 5.88969 5.43549ZM13.006 4.49271H8.43214C8.38264 4.49271 8.33517 4.51237 8.30017 4.54736C8.26516 4.58236 8.2455 4.62983 8.2455 4.67932C8.2455 4.72882 8.26516 4.77628 8.30017 4.81128C8.33517 4.84628 8.38264 4.86594 8.43214 4.86594H13.006C13.0555 4.86594 13.103 4.84628 13.138 4.81128C13.173 4.77628 13.1927 4.72882 13.1927 4.67932C13.1927 4.62983 13.173 4.58236 13.138 4.54736C13.103 4.51237 13.0555 4.49271 13.006 4.49271ZM8.43214 6.67762H11.3733C11.4228 6.67762 11.4702 6.65795 11.5052 6.62296C11.5402 6.58796 11.5599 6.54049 11.5599 6.491C11.5599 6.4415 11.5402 6.39404 11.5052 6.35904C11.4702 6.32404 11.4228 6.30438 11.3733 6.30438H8.43214C8.38264 6.30438 8.33517 6.32404 8.30017 6.35904C8.26516 6.39404 8.2455 6.4415 8.2455 6.491C8.2455 6.54049 8.26516 6.58796 8.30017 6.62296C8.33517 6.65795 8.38264 6.67762 8.43214 6.67762ZM6.30777 10.6455C6.23311 10.4215 6.04274 10.261 5.80756 10.2274L5.14311 10.1416L4.83702 9.52203C4.7325 9.30928 4.51973 9.17865 4.28456 9.17865C4.04938 9.17865 3.83661 9.30928 3.73209 9.52203L3.44466 10.1267L2.75781 10.2274C2.52637 10.261 2.336 10.4215 2.26134 10.6455C2.18668 10.8731 2.24641 11.112 2.41812 11.28L2.90713 11.739L2.78768 12.4221C2.75035 12.6535 2.84367 12.8849 3.03404 13.023C3.22442 13.1648 3.47452 13.1797 3.68356 13.0715L4.26962 12.7468L4.88555 13.0715C4.97514 13.12 5.07592 13.1424 5.17298 13.1424C5.29989 13.1424 5.42681 13.1013 5.53507 13.023C5.72544 12.8849 5.81876 12.6535 5.7777 12.4221L5.65452 11.7614L6.15099 11.28C6.31897 11.112 6.37869 10.8731 6.30777 10.6455ZM5.88969 11.0112L5.39322 11.4964C5.31109 11.5748 5.27376 11.6905 5.29243 11.8025L5.41188 12.4855C5.41935 12.5304 5.41424 12.5765 5.39711 12.6186C5.37997 12.6608 5.35149 12.6974 5.31483 12.7244C5.23644 12.7766 5.14311 12.7841 5.05726 12.743L4.44507 12.4183C4.39557 12.3921 4.34056 12.378 4.28456 12.3773C4.22856 12.3773 4.17257 12.3922 4.12404 12.4183L3.50812 12.743C3.426 12.7841 3.32894 12.7766 3.25428 12.7244C3.21698 12.698 3.18802 12.6615 3.17082 12.6191C3.15362 12.5768 3.14891 12.5304 3.15723 12.4855L3.27295 11.8025C3.28294 11.7474 3.27932 11.6908 3.2624 11.6374C3.24548 11.5841 3.21579 11.5357 3.17589 11.4964L2.67942 11.0112C2.64554 10.9803 2.62147 10.9402 2.61019 10.8957C2.59891 10.8513 2.60092 10.8045 2.61596 10.7612C2.64583 10.6716 2.72048 10.6119 2.81381 10.5969L3.49692 10.4962C3.60891 10.4812 3.70969 10.4103 3.75822 10.3095L4.06805 9.68625C4.10911 9.60041 4.19123 9.55189 4.28456 9.55189C4.37788 9.55189 4.46 9.60041 4.50106 9.68625L4.80716 10.3095C4.85942 10.4103 4.95647 10.4812 5.06846 10.4962L5.7553 10.5969C5.84863 10.6119 5.92328 10.6716 5.94941 10.7612C5.97928 10.8507 5.95688 10.944 5.88969 11.0112Z" fill="white"/>
<path d="M5.80906 4.65282L5.14274 4.56735L4.83553 3.94592C4.78511 3.84256 4.70657 3.75552 4.60891 3.69478C4.51125 3.63404 4.39844 3.60207 4.28344 3.60254C4.04752 3.60254 3.83586 3.7343 3.73134 3.94555L3.44466 4.5528L2.75819 4.65282C2.64434 4.6689 2.53732 4.7167 2.44939 4.79076C2.36145 4.86482 2.29615 4.96215 2.26097 5.07159C2.22493 5.18078 2.22042 5.29792 2.24795 5.40956C2.27548 5.5212 2.33395 5.62281 2.41663 5.70273L2.90563 6.16293L2.78842 6.84632C2.76856 6.95959 2.781 7.07616 2.8243 7.18269C2.86761 7.28923 2.94004 7.38142 3.0333 7.44872C3.12611 7.51654 3.23613 7.55689 3.3508 7.56514C3.46546 7.57339 3.58013 7.54921 3.6817 7.49537L4.27037 7.17252L4.88443 7.49537C4.98607 7.54916 5.10079 7.5733 5.2155 7.56505C5.33021 7.5568 5.44029 7.51649 5.5332 7.44872C5.62649 7.38145 5.69895 7.28926 5.74226 7.18272C5.78557 7.07617 5.79798 6.95959 5.77808 6.84632L5.65302 6.18681L6.14987 5.70236C6.31897 5.53739 6.37869 5.29553 6.30553 5.07122C6.2705 4.96186 6.20533 4.86459 6.11751 4.79058C6.0297 4.71658 5.92279 4.66883 5.80906 4.65282ZM5.88969 5.43549L5.39322 5.91995C5.35292 5.95907 5.32276 6.00742 5.30533 6.0608C5.2879 6.11419 5.28373 6.17102 5.29318 6.22638L5.41039 6.91014C5.41846 6.95471 5.41369 7.00066 5.39664 7.04262C5.37959 7.08458 5.35095 7.12083 5.31408 7.14714C5.27768 7.17415 5.23434 7.19025 5.18913 7.19356C5.14391 7.19686 5.0987 7.18724 5.05875 7.1658L4.44432 6.84296C4.39467 6.81678 4.33938 6.80309 4.28325 6.80309C4.22712 6.80309 4.17183 6.81678 4.12218 6.84296L3.50812 7.1658C3.46817 7.18724 3.42295 7.19686 3.37774 7.19356C3.33253 7.19025 3.28919 7.17415 3.25279 7.14714C3.21571 7.12093 3.18693 7.08463 3.16986 7.04256C3.15279 7.00049 3.14815 6.9544 3.15648 6.90977L3.27369 6.22638C3.28324 6.17108 3.27918 6.11429 3.26189 6.06091C3.24459 6.00752 3.21456 5.95915 3.1744 5.91995L2.67756 5.43549C2.60999 5.3698 2.58685 5.27687 2.61596 5.18729C2.64508 5.09772 2.71824 5.03613 2.81157 5.0227L3.49841 4.92267C3.55394 4.91448 3.60665 4.89295 3.65203 4.85993C3.69741 4.82691 3.7341 4.78338 3.75897 4.73307L4.06581 4.11126C4.08537 4.07029 4.11626 4.03579 4.15483 4.01184C4.1934 3.98789 4.23804 3.97551 4.28344 3.97615C4.3775 3.97615 4.45888 4.02654 4.50069 4.11089L4.80753 4.7327C4.83246 4.78306 4.86922 4.82665 4.91465 4.85973C4.96009 4.89281 5.01286 4.91441 5.06846 4.92267L5.75493 5.0227C5.84825 5.03613 5.92142 5.09772 5.95053 5.18729C5.97965 5.27687 5.95725 5.3698 5.88969 5.43549ZM13.006 4.49271H8.43214C8.38264 4.49271 8.33517 4.51237 8.30017 4.54736C8.26516 4.58236 8.2455 4.62983 8.2455 4.67932C8.2455 4.72882 8.26516 4.77628 8.30017 4.81128C8.33517 4.84628 8.38264 4.86594 8.43214 4.86594H13.006C13.0555 4.86594 13.103 4.84628 13.138 4.81128C13.173 4.77628 13.1927 4.72882 13.1927 4.67932C13.1927 4.62983 13.173 4.58236 13.138 4.54736C13.103 4.51237 13.0555 4.49271 13.006 4.49271ZM8.43214 6.67762H11.3733C11.4228 6.67762 11.4702 6.65795 11.5052 6.62296C11.5402 6.58796 11.5599 6.54049 11.5599 6.491C11.5599 6.4415 11.5402 6.39404 11.5052 6.35904C11.4702 6.32404 11.4228 6.30438 11.3733 6.30438H8.43214C8.38264 6.30438 8.33517 6.32404 8.30017 6.35904C8.26516 6.39404 8.2455 6.4415 8.2455 6.491C8.2455 6.54049 8.26516 6.58796 8.30017 6.62296C8.33517 6.65795 8.38264 6.67762 8.43214 6.67762ZM6.30777 10.6455C6.23311 10.4215 6.04274 10.261 5.80756 10.2274L5.14311 10.1416L4.83702 9.52203C4.7325 9.30928 4.51973 9.17865 4.28456 9.17865C4.04938 9.17865 3.83661 9.30928 3.73209 9.52203L3.44466 10.1267L2.75781 10.2274C2.52637 10.261 2.336 10.4215 2.26134 10.6455C2.18668 10.8731 2.24641 11.112 2.41812 11.28L2.90713 11.739L2.78768 12.4221C2.75035 12.6535 2.84367 12.8849 3.03404 13.023C3.22442 13.1648 3.47452 13.1797 3.68356 13.0715L4.26962 12.7468L4.88555 13.0715C4.97514 13.12 5.07592 13.1424 5.17298 13.1424C5.29989 13.1424 5.42681 13.1013 5.53507 13.023C5.72544 12.8849 5.81876 12.6535 5.7777 12.4221L5.65452 11.7614L6.15099 11.28C6.31897 11.112 6.37869 10.8731 6.30777 10.6455ZM5.88969 11.0112L5.39322 11.4964C5.31109 11.5748 5.27376 11.6905 5.29243 11.8025L5.41188 12.4855C5.41935 12.5304 5.41424 12.5765 5.39711 12.6186C5.37997 12.6608 5.35149 12.6974 5.31483 12.7244C5.23644 12.7766 5.14311 12.7841 5.05726 12.743L4.44507 12.4183C4.39557 12.3921 4.34056 12.378 4.28456 12.3773C4.22856 12.3773 4.17257 12.3922 4.12404 12.4183L3.50812 12.743C3.426 12.7841 3.32894 12.7766 3.25428 12.7244C3.21698 12.698 3.18802 12.6615 3.17082 12.6191C3.15362 12.5768 3.14891 12.5304 3.15723 12.4855L3.27295 11.8025C3.28294 11.7474 3.27932 11.6908 3.2624 11.6374C3.24548 11.5841 3.21579 11.5357 3.17589 11.4964L2.67942 11.0112C2.64554 10.9803 2.62147 10.9402 2.61019 10.8957C2.59891 10.8513 2.60092 10.8045 2.61596 10.7612C2.64583 10.6716 2.72048 10.6119 2.81381 10.5969L3.49692 10.4962C3.60891 10.4812 3.70969 10.4103 3.75822 10.3095L4.06805 9.68625C4.10911 9.60041 4.19123 9.55189 4.28456 9.55189C4.37788 9.55189 4.46 9.60041 4.50106 9.68625L4.80716 10.3095C4.85942 10.4103 4.95647 10.4812 5.06846 10.4962L5.7553 10.5969C5.84863 10.6119 5.92328 10.6716 5.94941 10.7612C5.97928 10.8507 5.95688 10.944 5.88969 11.0112Z" stroke="white" stroke-width="0.2" mask="url(#path-1-outside-1_1002_4030)"/>
<path d="M13.0058 10.0184H8.43188C8.36912 10.0184 8.30893 10.0433 8.26455 10.0877C8.22017 10.132 8.19524 10.1922 8.19524 10.255C8.19524 10.3177 8.22017 10.3779 8.26455 10.4223C8.30893 10.4667 8.36912 10.4916 8.43188 10.4916H13.0058C13.0685 10.4916 13.1287 10.4667 13.1731 10.4223C13.2175 10.3779 13.2424 10.3177 13.2424 10.255C13.2424 10.1922 13.2175 10.132 13.1731 10.0877C13.1287 10.0433 13.0685 10.0184 13.0058 10.0184ZM8.26455 11.8993L8.29953 11.9343L8.26455 11.8993C8.22017 11.9437 8.19524 12.0039 8.19524 12.0667C8.19524 12.1294 8.22017 12.1896 8.26455 12.234C8.30893 12.2783 8.36912 12.3033 8.43188 12.3033H11.373C11.4358 12.3033 11.496 12.2783 11.5403 12.234C11.5847 12.1896 11.6097 12.1294 11.6097 12.0667C11.6097 12.0039 11.5847 11.9437 11.5403 11.8993C11.496 11.855 11.4358 11.83 11.373 11.83H8.43188C8.36912 11.83 8.30893 11.855 8.26455 11.8993Z" fill="white" stroke="white" stroke-width="0.1"/>
<path d="M13.1585 1.03301H2.28062C1.13009 1.03301 0.171436 1.78261 0.171436 2.72676V14.0041C0.171436 14.9483 1.13009 15.6979 2.28062 15.6979H13.1585C14.3127 15.6979 15.2714 14.9483 15.2714 14.0041V2.72676C15.2714 1.78256 14.3127 1.03301 13.1585 1.03301ZM14.7984 14.0041C14.7984 14.7096 14.0747 15.3006 13.1585 15.3006H2.28071C1.84321 15.2999 1.42563 15.1607 1.11931 14.9161C0.81328 14.6717 0.644476 14.3433 0.644477 14.0041V2.72676C0.644477 2.0212 1.36825 1.43025 2.28062 1.43025H13.1585C14.0747 1.43025 14.7984 2.02126 14.7984 2.72676V14.0041Z" fill="white" stroke="white" stroke-width="0.1"/>
</svg>
