<svg width="11" height="13" viewBox="0 0 11 13" fill="none" xmlns="http://www.w3.org/2000/svg">
<path d="M8.77449 5.68146H2.15186C2.00282 5.68146 1.88147 5.54652 1.88147 5.38077C1.88147 5.21502 2.00282 5.08008 2.15186 5.08008H8.77449C8.92354 5.08008 9.04488 5.21502 9.04488 5.38077C9.04488 5.54652 8.92354 5.68146 8.77449 5.68146ZM7.21809 7.9183H3.70827C3.55922 7.9183 3.43787 7.78336 3.43787 7.61761C3.43787 7.45187 3.55922 7.31692 3.70827 7.31692H7.21941C7.36845 7.31692 7.4898 7.45187 7.4898 7.61761C7.4898 7.78336 7.36845 7.9183 7.21809 7.9183ZM8.77449 10.1537H2.15186C2.00282 10.1537 1.88147 10.0187 1.88147 9.85299C1.88147 9.68725 2.00282 9.5523 2.15186 9.5523H8.77449C8.92354 9.5523 9.04488 9.68725 9.04488 9.85299C9.04488 10.0187 8.92354 10.1537 8.77449 10.1537Z" fill="#7C29E5"/>
<path d="M9.6542 12.5461H1.3314C0.6508 12.5461 0.0981445 11.9124 0.0981445 11.1335V3.16744C0.0981445 2.37097 0.66399 1.72266 1.36041 1.72266H3.46552C3.68974 1.72266 3.87045 1.92507 3.87045 2.17296C3.87045 2.42085 3.68842 2.62326 3.46552 2.62326H1.36041C1.11113 2.62326 0.909321 2.86675 0.909321 3.16744V11.135C0.909321 11.4166 1.09925 11.6454 1.3314 11.6454H9.6542C9.88766 11.6454 10.0763 11.4166 10.0763 11.135V3.1337C10.0763 2.85208 9.88634 2.62326 9.6542 2.62326H7.76409C7.53986 2.62326 7.35916 2.42085 7.35916 2.17296C7.35916 1.92507 7.54118 1.72266 7.76409 1.72266H9.6542C10.3348 1.72266 10.8875 2.35631 10.8875 3.13517V11.135C10.8875 11.9124 10.3348 12.5461 9.6542 12.5461Z" fill="#7C29E5"/>
<path d="M6.99377 2.87429H3.99703C3.7517 2.87429 3.58155 2.73495 3.47735 2.44893C3.46548 2.41666 3.46021 2.38146 3.46021 2.34772V2.06023C3.46021 1.6774 3.74379 1.36497 4.09332 1.36497H4.93879C4.96121 1.36497 4.97836 1.34737 4.97836 1.32684V1.12736C4.97836 0.756259 5.25403 0.454102 5.59169 0.454102C5.92803 0.454102 6.20238 0.754792 6.20238 1.12442V1.35177C6.20238 1.35764 6.20897 1.36497 6.21952 1.36497H7.08874C7.43827 1.36497 7.72185 1.6774 7.72185 2.06023V2.34772C7.72185 2.37999 7.71657 2.41079 7.70734 2.44013C7.56621 2.87429 7.2879 2.87429 6.99377 2.87429ZM3.97197 2.32865C3.97593 2.32865 3.98384 2.33012 3.99703 2.33012H6.99377C7.05576 2.33012 7.18238 2.33012 7.22327 2.31692C7.22591 2.31252 7.22855 2.30518 7.23382 2.29492V2.05876C7.23382 1.97516 7.16919 1.90768 7.09005 1.90768H6.22084C5.94122 1.90768 5.71435 1.65833 5.71435 1.35031V1.12295C5.71435 1.05402 5.66027 0.996812 5.59301 0.996812C5.52574 0.996812 5.46902 1.05548 5.46902 1.12589V1.32537C5.46902 1.6466 5.2316 1.90768 4.94011 1.90768H4.09464C4.0155 1.90768 3.95087 1.97516 3.95087 2.05876V2.28905C3.9601 2.31252 3.96801 2.32425 3.97197 2.32865Z" fill="#7C29E5"/>
</svg>
