<svg width="16" height="18" viewBox="0 0 16 18" fill="none" xmlns="http://www.w3.org/2000/svg">
<path d="M14.9666 4.87425C14.3584 3.77256 13.3556 2.94189 12.1599 2.54918C10.9725 2.15918 9.68209 2.22983 8.54473 2.74649C7.95902 2.40404 7.29268 2.22327 6.61387 2.22294H6.61384H5.8274V0.141602V0.0916016H5.7774H5.19407H5.14407V0.141602V2.22294H4.35763H4.35757C3.33301 2.224 2.35071 2.63142 1.62623 3.35579C0.901756 4.08017 0.494277 5.06233 0.493216 6.08675V6.0868L0.493213 16.3476L0.493213 16.3976H0.543213H8.85312M14.9666 4.87425C14.9666 4.8743 14.9666 4.87434 14.9667 4.87439L14.9229 4.89856L14.9666 4.87421C14.9666 4.87422 14.9666 4.87424 14.9666 4.87425ZM14.9666 4.87425C15.2858 5.44689 15.4881 6.07718 15.5618 6.72858C15.6355 7.38 15.5792 8.03957 15.396 8.66905L15.3955 8.67084L15.3955 8.67083L12.5006 17.3954L12.4854 17.441L12.4393 17.4277L8.85312 16.3976M8.85312 16.3976H8.86017V16.3476L8.84636 16.3957L8.85312 16.3976ZM5.48475 5.41516C5.66279 5.41516 5.83688 5.46778 5.98512 5.56642C6.13389 5.66542 6.24993 5.80631 6.31857 5.97128C6.38721 6.13624 6.40536 6.31786 6.37073 6.49314C6.3361 6.66842 6.25023 6.82949 6.124 6.95596C5.99778 7.08243 5.83686 7.16862 5.66163 7.20361C5.48639 7.2386 5.30471 7.22083 5.13957 7.15254C4.97444 7.08425 4.83329 6.96852 4.73397 6.81998C4.63465 6.67145 4.58164 6.4968 4.58164 6.31813C4.58164 6.19955 4.605 6.08213 4.65038 5.97258C4.69577 5.86302 4.76229 5.76348 4.84615 5.67963C4.93001 5.59578 5.02957 5.52927 5.13914 5.48389C5.24813 5.43875 5.36491 5.4154 5.48287 5.41516L5.48475 5.41516ZM10.4783 6.0868V6.08676C10.4777 5.53111 10.3572 4.98213 10.1248 4.47739C9.90435 3.99849 9.5882 3.57013 9.19614 3.21852C9.92111 2.96538 10.7012 2.91079 11.4553 3.06121C12.2369 3.21713 12.9598 3.58718 13.5433 4.13006C14.1268 4.67294 14.5479 5.36727 14.7597 6.13556C14.9713 6.90353 14.9654 7.71519 14.7427 8.47999L12.0215 16.5987L10.4783 16.1557L10.4783 6.0868ZM1.17259 6.0869C1.17414 5.24294 1.51027 4.43401 2.10731 3.83742C2.70435 3.24083 3.5136 2.90524 4.35769 2.90421H5.14407V4.77085C4.77314 4.85264 4.44335 5.06495 4.2153 5.36982C3.97899 5.68575 3.8689 6.07839 3.90652 6.4711C3.94414 6.86381 4.12678 7.22841 4.41877 7.49374C4.71077 7.75907 5.09117 7.90607 5.48573 7.90607C5.88029 7.90607 6.2607 7.75907 6.55269 7.49374C6.84469 7.22841 7.02733 6.86381 7.06495 6.4711C7.10257 6.07839 6.99248 5.68575 6.75617 5.36982C6.52812 5.06495 6.19833 4.85264 5.8274 4.77085V2.90421H6.61375C7.4575 2.90576 8.26625 3.24157 8.86287 3.83811C9.45949 4.43464 9.79535 5.24327 9.7969 6.0869L9.79689 15.7144H5.48474H1.17259L1.17259 6.0869Z" fill="white" stroke="white" stroke-width="0.1"/>
<path d="M6.94155 7.19336H4.02686V7.77463H6.94155V7.19336Z" fill="white"/>
<path d="M8.25538 9.5625H2.71667V10.1438H8.25538V9.5625Z" fill="white"/>
<path d="M6.94155 11.9307H4.02686V12.5119H6.94155V11.9307Z" fill="white"/>
</svg>
