<svg width="20" height="20" viewBox="0 0 20 20" fill="none" xmlns="http://www.w3.org/2000/svg">
<path d="M1.70117 10.2955C1.70117 6.1617 1.70117 4.09479 2.98538 2.81058C4.26959 1.52637 6.3365 1.52637 10.4703 1.52637C14.6041 1.52637 16.671 1.52637 17.9552 2.81058C19.2395 4.09479 19.2395 6.1617 19.2395 10.2955C19.2395 14.4293 19.2395 16.4962 17.9552 17.7804C16.671 19.0647 14.6041 19.0647 10.4703 19.0647C6.3365 19.0647 4.26959 19.0647 2.98538 17.7804C1.70117 16.4962 1.70117 14.4293 1.70117 10.2955Z" stroke="white" stroke-width="1.5"/>
<circle cx="14.6234" cy="6.14193" r="1.3846" stroke="white" stroke-width="1.5"/>
<path d="M1.23926 12.2666C1.85461 12.1836 2.47672 12.1426 3.09988 12.1441C5.7361 12.0923 8.30775 12.8551 10.356 14.2962C12.2556 15.6328 13.5903 17.4722 14.1622 19.5261" stroke="white" stroke-width="1.5" stroke-linejoin="round"/>
<path d="M11.3931 15.8339C12.9637 14.6093 14.6556 13.9811 16.3649 13.9878C17.3341 13.9868 18.2988 14.1924 19.2391 14.5986" stroke="white" stroke-width="1.5" stroke-linejoin="round"/>
</svg>
