<svg width="18" height="19" viewBox="0 0 18 19" fill="none" xmlns="http://www.w3.org/2000/svg">
<path d="M12.368 6.02375L12.368 6.02373C12.5128 5.87895 12.7484 5.878 12.8998 6.02403C13.0447 6.16926 13.0446 6.41002 12.8995 6.55513C12.8995 6.55513 12.8995 6.55514 12.8995 6.55514L6.91147 12.5366L6.91146 12.5366C6.83611 12.612 6.74111 12.647 6.64571 12.647C6.55031 12.647 6.4553 12.612 6.37995 12.5366C6.23473 12.3914 6.23473 12.1504 6.37994 12.0052C6.37994 12.0052 6.37995 12.0052 6.37995 12.0052L12.368 6.02375ZM1.4201 9.44775C1.4201 13.8834 5.03304 17.4958 9.46928 17.4958C13.9055 17.4958 17.5184 13.8834 17.5184 9.44775C17.5184 5.01212 13.9055 1.39972 9.46928 1.39972C5.03304 1.39972 1.4201 5.01212 1.4201 9.44775ZM9.87152 11.4189C9.87152 10.9945 10.0312 10.604 10.3284 10.3068C10.9393 9.69593 11.9359 9.69563 12.5529 10.3067C12.8448 10.6043 13.0098 10.995 13.0098 11.4189C13.0098 11.8431 12.8502 12.2336 12.5531 12.5308C12.2555 12.8228 11.8646 12.9878 11.4407 12.9878C11.0163 12.9878 10.6258 12.8282 10.3286 12.5311C10.0365 12.2335 9.87152 11.8428 9.87152 11.4189ZM11.4407 12.2357C11.6588 12.2357 11.8587 12.1507 12.0154 11.9942C12.173 11.8425 12.2576 11.6364 12.2576 11.4189C12.2576 11.2006 12.1725 11.0006 12.0157 10.8439C11.858 10.6862 11.6462 10.6077 11.4407 10.6077C11.2353 10.6077 11.0236 10.6861 10.8659 10.8435C10.7083 10.9952 10.6237 11.2014 10.6237 11.4189C10.6237 11.6379 10.7151 11.8374 10.8649 11.9932C11.0167 12.151 11.223 12.2357 11.4407 12.2357ZM8.6103 8.59426C8.31272 8.8862 7.91626 9.05125 7.49789 9.05125C7.07982 9.05125 6.68895 8.88641 6.38547 8.58856C5.7746 7.9776 5.7746 6.98135 6.38548 6.37039C6.68312 6.07839 7.07393 5.91341 7.49789 5.91341C7.92225 5.91341 8.31275 6.07298 8.60997 6.37006C8.90203 6.66767 9.06704 7.05843 9.06704 7.48233C9.06704 7.90663 8.90744 8.29708 8.6103 8.59426ZM7.49789 6.65979C7.27964 6.65979 7.07957 6.74492 6.92282 6.90165C6.6028 7.22162 6.60157 7.74182 6.92281 8.05165C7.07451 8.209 7.28053 8.2935 7.49789 8.2935C7.71598 8.2935 7.91591 8.2085 8.07261 8.05199C8.23022 7.90028 8.31486 7.69414 8.31486 7.47665C8.31486 7.25858 8.22984 7.05867 8.07331 6.902C7.92158 6.74441 7.71541 6.65979 7.49789 6.65979Z" fill="white" stroke="white" stroke-width="0.1"/>
</svg>
