<svg width="16" height="16" viewBox="0 0 16 16" fill="none" xmlns="http://www.w3.org/2000/svg">
<path d="M14.1176 5.96251L14.1177 5.96256C14.7446 4.75473 15.0283 3.86597 15.0426 3.16789C15.0563 2.50575 14.8285 1.97633 14.3129 1.46083L14.1176 5.96251ZM14.1176 5.96251L14.1129 5.9721M14.1176 5.96251L14.1129 5.9721M14.1129 5.9721L12.196 9.86674M14.1129 5.9721L12.196 9.86674M12.196 9.86674L10.2791 5.9721L10.2792 5.97205L10.2743 5.96256C9.64737 4.75473 9.36372 3.86597 9.34936 3.16789C9.33574 2.50582 9.56348 1.97643 10.0789 1.46098L12.196 9.86674ZM7.19238 2.76988L6.72438 2.29863L6.36961 1.94139L6.01483 2.29863L5.54683 2.76988L5.42915 2.65221L5.90036 2.18438L6.25775 1.82955L5.90036 1.47473L5.42915 1.0069L5.54683 0.889227L6.01483 1.36048L6.36961 1.71772L6.72438 1.36048L7.19238 0.889227L7.31007 1.0069L6.83885 1.47473L6.48146 1.82955L6.83885 2.18438L7.31007 2.65221L7.19238 2.76988ZM10.0791 1.46076C10.6408 0.899964 11.4022 0.584961 12.196 0.584961C12.9898 0.584961 13.7512 0.899964 14.3129 1.46076L10.0791 1.46076ZM10.6058 1.40461L10.9472 1.746L10.6058 1.40462C10.2645 1.74585 10.0421 2.18787 9.97156 2.66529C9.90098 3.14271 9.98595 3.63016 10.2139 4.05554C10.4419 4.48092 10.8007 4.82164 11.2373 5.02731C11.6739 5.23297 12.1651 5.29267 12.6383 5.19758C13.0726 5.11029 13.4715 4.8966 13.7848 4.58335C14.0981 4.2701 14.3118 3.87126 14.3992 3.43692C14.4943 2.96378 14.4346 2.47259 14.2288 2.03601C14.0231 1.59944 13.6824 1.24067 13.2569 1.01277C12.8315 0.784858 12.344 0.699908 11.8666 0.770474C11.3892 0.84104 10.9471 1.06338 10.6058 1.40461ZM12.1134 14.5632V14.0632V13.3981H12.2786V14.7283H9.7828V14.5632H11.6134H12.1134ZM1.20849 14.0632V14.5632H1.70849H1.79113V14.7283H1.04321V12.233H1.20849V14.0632ZM1.70849 1.91211H1.20849V2.41211V4.24234H1.04321V1.747H2.95641V1.91211H1.70849ZM12.2786 2.99467C12.2786 3.01098 12.2738 3.02693 12.2647 3.04051C12.2557 3.05408 12.2428 3.06467 12.2276 3.07093C12.2125 3.07719 12.1959 3.07883 12.1799 3.07563C12.1638 3.07244 12.1491 3.06457 12.1375 3.05302L11.784 3.4066L12.1375 3.05302C12.126 3.04147 12.1181 3.02676 12.1149 3.01076C12.1118 2.99476 12.1134 2.97817 12.1196 2.9631C12.1259 2.94802 12.1365 2.93512 12.1501 2.92604C12.1637 2.91696 12.1796 2.91211 12.196 2.91211C12.2179 2.91211 12.239 2.92083 12.2545 2.93631L12.608 2.58274L12.2545 2.93632C12.2699 2.9518 12.2786 2.97279 12.2786 2.99467ZM7.61752 14.7283H3.95641V14.5632H7.61752V14.7283ZM1.04321 6.40745H1.20849V10.0679H1.04321V6.40745Z" stroke="white"/>
</svg>
