<svg width="23" height="19" viewBox="0 0 23 19" fill="none" xmlns="http://www.w3.org/2000/svg">
<path d="M1.66895 8.52637C1.66895 5.22654 1.66895 3.57662 2.69407 2.55149C3.7192 1.52637 5.36911 1.52637 8.66895 1.52637H9.66895C12.9688 1.52637 14.6187 1.52637 15.6438 2.55149C16.6689 3.57662 16.6689 5.22654 16.6689 8.52637V10.5264C16.6689 13.8262 16.6689 15.4761 15.6438 16.5012C14.6187 17.5264 12.9688 17.5264 9.66895 17.5264H8.66894C5.36911 17.5264 3.7192 17.5264 2.69407 16.5012C1.66895 15.4761 1.66895 13.8262 1.66895 10.5264V8.52637Z" stroke="white" stroke-width="1.5"/>
<path d="M16.6689 6.43222L16.7949 6.32833C18.9106 4.5826 19.9685 3.70973 20.8187 4.13119C21.6689 4.55265 21.6689 5.94992 21.6689 8.74445V10.3083C21.6689 13.1028 21.6689 14.5001 20.8187 14.9215C19.9685 15.343 18.9106 14.4701 16.7949 12.7244L16.6689 12.6205" stroke="white" stroke-width="1.5" stroke-linecap="round"/>
<circle cx="11.1689" cy="7.02637" r="1.5" stroke="white" stroke-width="1.5"/>
</svg>
