<svg width="19" height="22" viewBox="0 0 19 22" fill="none" xmlns="http://www.w3.org/2000/svg">
<path d="M1.30558 5.1258H5.10335V4.35136C5.12634 3.21199 5.5951 2.12704 6.40901 1.32939C7.22292 0.531735 8.3171 0.0849609 9.45671 0.0849609C10.5963 0.0849609 11.6905 0.531735 12.5044 1.32939C13.3183 2.12704 13.7871 3.21199 13.8101 4.35136V5.1258H17.638C17.7476 5.12573 17.8561 5.14729 17.9574 5.18926C18.0587 5.23123 18.1507 5.29277 18.2281 5.37036C18.3834 5.52697 18.4712 5.73817 18.4727 5.95872V18.784C18.4703 19.5766 18.1544 20.3362 17.5939 20.8967C17.0334 21.4571 16.2739 21.7731 15.4812 21.7754H3.46409C2.67143 21.7731 1.91191 21.4571 1.35141 20.8967C0.790912 20.3362 0.474994 19.5766 0.472656 18.784L0.472656 5.95872C0.473124 5.73796 0.561029 5.52638 0.717131 5.37028C0.873233 5.21417 1.08482 5.12627 1.30558 5.1258ZM4.08258 11.3178H5.7502C5.80756 11.3187 5.86228 11.342 5.90268 11.3828C5.94308 11.4235 5.96595 11.4784 5.9664 11.5358V13.2034C5.9664 13.2612 5.94344 13.3166 5.90256 13.3575C5.86168 13.3984 5.80624 13.4214 5.74843 13.4214H4.08258C4.02477 13.4214 3.96933 13.3984 3.92845 13.3575C3.88757 13.3166 3.8646 13.2612 3.8646 13.2034V11.5358C3.86507 11.4781 3.88818 11.4229 3.92896 11.3821C3.96974 11.3414 4.02491 11.3183 4.08258 11.3178ZM8.3358 13.0333C8.02745 13.0333 7.77934 12.7373 7.77934 12.3705C7.77934 12.0036 8.02745 11.7059 8.3358 11.7059H14.8929C15.2012 11.7059 15.4511 12.0036 15.4511 12.3705C15.4639 12.5321 15.4125 12.6924 15.308 12.8164C15.2035 12.9405 15.0544 13.0184 14.8929 13.0333H8.3358ZM3.78131 17.2245C3.74958 17.1867 3.72607 17.1428 3.71229 17.0955C3.6985 17.0481 3.69474 16.9984 3.70124 16.9496C3.70775 16.9007 3.72438 16.8537 3.75006 16.8117C3.77575 16.7696 3.80993 16.7333 3.85043 16.7052C3.92396 16.6335 4.02167 16.5919 4.12433 16.5886C4.22699 16.5854 4.32715 16.6206 4.40512 16.6875L4.79322 17.0862L5.76438 16.092C5.80123 16.0593 5.84451 16.0346 5.89146 16.0195C5.9384 16.0044 5.98798 15.9993 6.03702 16.0045C6.08605 16.0096 6.13347 16.025 6.17624 16.0495C6.21901 16.0741 6.25619 16.1072 6.2854 16.147C6.35929 16.2184 6.40387 16.3149 6.41042 16.4175C6.41698 16.52 6.38503 16.6214 6.32084 16.7017L5.03424 18.0219C4.99739 18.0547 4.9541 18.0794 4.90716 18.0945C4.86021 18.1096 4.81064 18.1147 4.7616 18.1095C4.71256 18.1043 4.66514 18.089 4.62238 18.0644C4.57961 18.0399 4.54243 18.0067 4.51322 17.967L4.48309 17.9316C4.46207 17.9176 4.44248 17.9015 4.42461 17.8837L3.78131 17.2245ZM8.28973 17.7207C7.98314 17.7207 7.73858 17.4229 7.73858 17.0579C7.73858 16.6928 7.98846 16.3933 8.29504 16.3933H14.8521C15.1587 16.3933 15.4086 16.691 15.4086 17.0579C15.4086 17.4247 15.1587 17.7207 14.8521 17.7207H8.28973ZM6.16312 5.1258H12.7485V4.35136C12.7286 3.49154 12.373 2.67365 11.7578 2.0726C11.1427 1.47155 10.3168 1.13504 9.45671 1.13504C8.59665 1.13504 7.77074 1.47155 7.15558 2.0726C6.54041 2.67365 6.18484 3.49154 6.16489 4.35136V5.1258H6.16312ZM5.09981 7.1833V6.18556H1.53596V18.784C1.53783 19.2952 1.74176 19.785 2.10328 20.1465C2.4648 20.5081 2.9546 20.712 3.46586 20.7139H15.4812C15.9915 20.7088 16.4794 20.5038 16.8403 20.143C17.2011 19.7822 17.406 19.2942 17.4111 18.784V6.18556H13.8101V7.19393C14.0543 7.31824 14.2492 7.52164 14.363 7.77096C14.4768 8.02027 14.5027 8.30079 14.4366 8.56675C14.3705 8.83271 14.2162 9.06841 13.9989 9.2354C13.7816 9.40238 13.5141 9.49081 13.2401 9.48624C12.966 9.48167 12.7016 9.38439 12.49 9.21025C12.2784 9.03611 12.132 8.7954 12.0748 8.52739C12.0176 8.25937 12.0529 7.97988 12.1749 7.73449C12.2969 7.4891 12.4985 7.29231 12.7468 7.17621V6.18556H6.16489V7.18684C6.41118 7.30705 6.60948 7.50717 6.72742 7.75455C6.84536 8.00194 6.87599 8.28199 6.8143 8.54903C6.75262 8.81606 6.60226 9.05431 6.38777 9.2249C6.17327 9.3955 5.9073 9.48837 5.63324 9.48837C5.35917 9.48837 5.0932 9.3955 4.8787 9.2249C4.66421 9.05431 4.51385 8.81606 4.45217 8.54903C4.39048 8.28199 4.42111 8.00194 4.53905 7.75455C4.65699 7.50717 4.85529 7.30705 5.10158 7.18684L5.09981 7.1833Z" fill="#530CAD"/>
</svg>
