<svg width="13" height="11" viewBox="0 0 13 11" fill="none" xmlns="http://www.w3.org/2000/svg">
<path d="M6.29541 10.9183L6.15741 10.8523C5.92341 10.7263 0.29541 7.84069 0.29541 3.68329C0.29541 2.05752 1.05141 0.833692 2.36541 0.317766C3.67341 -0.192162 5.21541 0.14379 6.29541 1.14565C7.37541 0.14379 8.92341 -0.192162 10.2254 0.317766C11.5394 0.833692 12.2954 2.05752 12.2954 3.68329C12.2954 7.84069 6.66741 10.7323 6.43341 10.8523L6.29541 10.9183ZM3.63741 0.677714C3.27741 0.677714 2.91741 0.743705 2.58141 0.875686C1.50741 1.29563 0.89541 2.31548 0.89541 3.68329C0.89541 7.1328 5.44341 9.77842 6.29541 10.2404C7.14741 9.77842 11.6954 7.1328 11.6954 3.68329C11.6954 2.32148 11.0834 1.29563 10.0094 0.875686C8.83941 0.419751 7.43541 0.7797 6.51741 1.77556L6.29541 2.01552L6.07341 1.77556C5.41941 1.06766 4.52541 0.677714 3.63741 0.677714Z" fill="#7C29E5"/>
</svg>
