<svg width="13" height="10" viewBox="0 0 13 10" fill="none" xmlns="http://www.w3.org/2000/svg">
<path d="M0.980306 0.76719C1.06173 0.522779 1.22556 0.433313 1.46169 0.438175C1.918 0.4479 2.37495 0.440444 2.83191 0.441417C3.11169 0.442065 3.26183 0.598955 3.26183 0.899444C3.26248 3.60223 3.26248 6.30501 3.26183 9.00812C3.26183 9.30926 3.11266 9.46809 2.83419 9.46874C2.37723 9.47004 1.9206 9.46226 1.46397 9.47198C1.22882 9.47717 1.06401 9.38867 0.97998 9.14588V0.76719H0.980306Z" fill="#7C29E5"/>
<path d="M9.74163 5.16803C9.74163 6.42055 9.74293 7.6734 9.73935 8.92625C9.73903 9.04198 9.71851 9.16159 9.68691 9.27245C9.64848 9.40535 9.55305 9.47083 9.41789 9.47018C8.93357 9.46791 8.44926 9.47148 7.96527 9.46824C7.69363 9.46662 7.45685 9.20729 7.45685 8.91718C7.45652 6.41148 7.45652 3.90643 7.45685 1.40073C7.45685 1.23055 7.5057 1.14983 7.65781 1.10445C7.75454 1.0756 7.85778 1.06069 7.95777 1.05972C8.44567 1.05518 8.93422 1.05648 9.42212 1.05842C9.68919 1.05907 9.74163 1.11839 9.74196 1.4098V5.16835L9.74163 5.16803Z" fill="#7C29E5"/>
<path d="M6.50317 6.30906C6.50317 7.2154 6.50349 8.12173 6.50317 9.02806C6.50284 9.4219 6.45887 9.4689 6.09344 9.4689C5.67198 9.4689 5.24987 9.47701 4.82907 9.46372C4.70172 9.4595 4.56916 9.41283 4.45158 9.35577C4.28711 9.27636 4.21252 9.13989 4.21382 8.924C4.22229 7.14927 4.21871 5.37421 4.21871 3.59947C4.21871 3.41957 4.24476 3.3797 4.41283 3.34858C4.51966 3.32881 4.62974 3.31941 4.7382 3.31876C5.24922 3.31584 5.76057 3.31714 6.27225 3.31746C6.4973 3.31779 6.50317 3.32524 6.50317 3.56382V6.30906Z" fill="#7C29E5"/>
<path d="M12.9784 7.74033C12.9784 8.20841 12.9784 8.67616 12.9781 9.14424C12.9778 9.35526 12.883 9.46644 12.6853 9.46774C12.1817 9.47163 11.6782 9.47066 11.1747 9.46709C11.106 9.46677 11.035 9.44732 10.9692 9.42366C10.7282 9.33711 10.6969 9.28751 10.6969 9.01847V6.36204C10.6969 6.18797 10.7002 6.18343 10.8588 6.18343C11.5303 6.1831 12.2013 6.18472 12.8729 6.18213C12.956 6.18181 12.98 6.21098 12.9797 6.2985C12.9765 6.77922 12.9784 7.25994 12.9784 7.74066V7.74033Z" fill="#7C29E5"/>
</svg>
