<svg width="12" height="14" viewBox="0 0 12 14" fill="none" xmlns="http://www.w3.org/2000/svg">
<path d="M9.26125 6.19025H2.63862C2.48957 6.19025 2.36823 6.0553 2.36823 5.88956C2.36823 5.72381 2.48957 5.58887 2.63862 5.58887H9.26125C9.41029 5.58887 9.53164 5.72381 9.53164 5.88956C9.53164 6.0553 9.41029 6.19025 9.26125 6.19025ZM7.70484 8.42709H4.19502C4.04598 8.42709 3.92463 8.29215 3.92463 8.1264C3.92463 7.96066 4.04598 7.82571 4.19502 7.82571H7.70616C7.85521 7.82571 7.97655 7.96066 7.97655 8.1264C7.97655 8.29215 7.85521 8.42709 7.70484 8.42709ZM9.26125 10.6625H2.63862C2.48957 10.6625 2.36823 10.5275 2.36823 10.3618C2.36823 10.196 2.48957 10.0611 2.63862 10.0611H9.26125C9.41029 10.0611 9.53164 10.196 9.53164 10.3618C9.53164 10.5275 9.41029 10.6625 9.26125 10.6625Z" fill="#7C29E5"/>
<path d="M10.141 13.0548H1.81821C1.13762 13.0548 0.584961 12.4212 0.584961 11.6423V3.67623C0.584961 2.87976 1.15081 2.23145 1.84723 2.23145H3.95233C4.17656 2.23145 4.35726 2.43386 4.35726 2.68175C4.35726 2.92963 4.17524 3.13205 3.95233 3.13205H1.84723C1.59794 3.13205 1.39614 3.37554 1.39614 3.67623V11.6438C1.39614 11.9254 1.58607 12.1542 1.81821 12.1542H10.141C10.3745 12.1542 10.5631 11.9254 10.5631 11.6438V3.64249C10.5631 3.36087 10.3732 3.13205 10.141 3.13205H8.25091C8.02668 3.13205 7.84598 2.92963 7.84598 2.68175C7.84598 2.43386 8.028 2.23145 8.25091 2.23145H10.141C10.8216 2.23145 11.3743 2.8651 11.3743 3.64396V11.6438C11.3743 12.4212 10.8216 13.0548 10.141 13.0548Z" fill="#7C29E5"/>
<path d="M7.48052 3.38308H4.48379C4.23846 3.38308 4.06831 3.24374 3.96411 2.95772C3.95224 2.92545 3.94696 2.89024 3.94696 2.85651V2.56902C3.94696 2.18619 4.23054 1.87376 4.58007 1.87376H5.42554C5.44797 1.87376 5.46511 1.85616 5.46511 1.83563V1.63614C5.46511 1.26505 5.74078 0.962891 6.07844 0.962891C6.41478 0.962891 6.68913 1.26358 6.68913 1.63321V1.86056C6.68913 1.86643 6.69573 1.87376 6.70628 1.87376H7.57549C7.92502 1.87376 8.2086 2.18619 8.2086 2.56902V2.85651C8.2086 2.88878 8.20333 2.91958 8.1941 2.94892C8.05296 3.38308 7.77466 3.38308 7.48052 3.38308ZM4.45873 2.83744C4.46268 2.83744 4.4706 2.83891 4.48379 2.83891H7.48052C7.54252 2.83891 7.66914 2.83891 7.71003 2.82571C7.71267 2.82131 7.7153 2.81397 7.72058 2.8037V2.56755C7.72058 2.48395 7.65595 2.41647 7.57681 2.41647H6.7076C6.42797 2.41647 6.20111 2.16712 6.20111 1.8591V1.63174C6.20111 1.56281 6.14703 1.5056 6.07976 1.5056C6.01249 1.5056 5.95578 1.56427 5.95578 1.63468V1.83416C5.95578 2.15539 5.71836 2.41647 5.42686 2.41647H4.58139C4.50225 2.41647 4.43762 2.48395 4.43762 2.56755V2.79784C4.44686 2.82131 4.45477 2.83304 4.45873 2.83744Z" fill="#7C29E5"/>
</svg>
