<svg width="14" height="10" viewBox="0 0 14 10" fill="none" xmlns="http://www.w3.org/2000/svg">
<path d="M4.37327 9.86101H4.37328H11.7957C12.123 9.86101 12.4369 9.73102 12.6683 9.49962C12.8998 9.26822 13.0298 8.95437 13.0298 8.62712V3.81182C13.0298 3.48457 12.8998 3.17072 12.6683 2.93933C12.4369 2.70793 12.123 2.57793 11.7957 2.57793C11.7089 2.57793 11.6256 2.61242 11.5642 2.67381C11.5028 2.7352 11.4683 2.81847 11.4683 2.9053C11.4683 2.99212 11.5028 3.07539 11.5642 3.13678C11.6256 3.19817 11.7089 3.23266 11.7957 3.23266C11.9494 3.23266 12.0967 3.29368 12.2053 3.4023C12.3139 3.51091 12.375 3.65822 12.375 3.81182V8.62712C12.375 8.78072 12.3139 8.92803 12.2053 9.03665C12.0967 9.14526 11.9494 9.20628 11.7957 9.20628H4.3733C4.37329 9.20628 4.37329 9.20628 4.37328 9.20628C4.2197 9.20622 4.07242 9.14517 3.96384 9.03657C3.85526 8.92796 3.79426 8.78069 3.79426 8.62712C3.79426 8.5403 3.75977 8.45703 3.69837 8.39564C3.63697 8.33425 3.55369 8.29976 3.46686 8.29976C3.38003 8.29976 3.29675 8.33425 3.23535 8.39564C3.17395 8.45703 3.13945 8.5403 3.13945 8.62712C3.13945 8.95433 3.26944 9.26814 3.50082 9.49953C3.7322 9.73092 4.04602 9.86095 4.37327 9.86101Z" fill="#7C29E5" stroke="#7C29E5" stroke-width="0.1"/>
<path d="M1.29647 0.616481C1.06165 0.85126 0.929736 1.16969 0.929736 1.50172V6.58676C0.929736 6.75117 0.962123 6.91396 1.02505 7.06586C1.08797 7.21775 1.1802 7.35576 1.29647 7.47201C1.41274 7.58826 1.55076 7.68047 1.70267 7.74339C1.85458 7.8063 2.0174 7.83868 2.18183 7.83868H9.6371C9.80152 7.83868 9.96434 7.8063 10.1162 7.74339C10.2682 7.68047 10.4062 7.58826 10.5225 7.47201C10.6387 7.35576 10.731 7.21775 10.7939 7.06586C10.8568 6.91397 10.8892 6.75117 10.8892 6.58676V1.50172C10.8892 1.16969 10.7573 0.85126 10.5225 0.616481C10.2876 0.381701 9.96917 0.249805 9.6371 0.249805H2.18183C1.84975 0.249805 1.53128 0.381701 1.29647 0.616481ZM1.75948 1.07945C1.87149 0.967456 2.02342 0.904536 2.18183 0.904536H9.6371C9.79551 0.904536 9.94743 0.967456 10.0594 1.07945C10.1715 1.19145 10.2344 1.34334 10.2344 1.50172V6.58676C10.2344 6.74515 10.1715 6.89704 10.0594 7.00904C9.94743 7.12103 9.79551 7.18395 9.6371 7.18395H2.18183C2.02342 7.18395 1.87149 7.12103 1.75948 7.00904C1.64747 6.89704 1.58455 6.74515 1.58455 6.58676V1.50172C1.58455 1.34334 1.64747 1.19145 1.75948 1.07945Z" fill="#7C29E5" stroke="#7C29E5" stroke-width="0.1"/>
<path d="M6.57112 5.97614L6.57111 5.97614C6.54579 6.02605 6.53368 6.08162 6.53594 6.13754C6.53821 6.19345 6.55478 6.24786 6.58406 6.29555C6.61334 6.34324 6.65436 6.38263 6.7032 6.40996C6.75205 6.43729 6.80708 6.45164 6.86305 6.45165H8.55962C8.62009 6.45164 8.67937 6.43489 8.7309 6.40326C8.78243 6.37162 8.82419 6.32634 8.85156 6.27242C8.85156 6.27242 8.85156 6.27242 8.85156 6.27242L9.40891 5.17451L9.36432 5.15188L9.40891 5.17451C9.43424 5.1246 9.44635 5.06904 9.44408 5.01312C9.44182 4.9572 9.42525 4.9028 9.39597 4.8551C9.36668 4.80741 9.32566 4.76802 9.27682 4.74069C9.22798 4.71336 9.17295 4.69901 9.11698 4.69901H7.42041C7.35993 4.69901 7.30065 4.71576 7.24912 4.7474C7.19759 4.77903 7.15583 4.82432 7.12847 4.87823C7.12847 4.87823 7.12847 4.87824 7.12847 4.87824L6.57112 5.97614ZM1.19556 1.81737C1.13415 1.87876 1.09966 1.96203 1.09966 2.04885C1.09966 2.13568 1.13415 2.21894 1.19556 2.28034C1.25696 2.34173 1.34023 2.37622 1.42706 2.37622H9.18956C9.23255 2.37622 9.27513 2.36775 9.31485 2.3513C9.35457 2.33485 9.39067 2.31073 9.42107 2.28034C9.45147 2.24994 9.47559 2.21385 9.49204 2.17413C9.5085 2.13441 9.51696 2.09184 9.51696 2.04885C9.51696 2.00586 9.5085 1.96329 9.49204 1.92357C9.47559 1.88385 9.45147 1.84776 9.42107 1.81737C9.39067 1.78697 9.35457 1.76285 9.31485 1.7464C9.27513 1.72995 9.23255 1.72148 9.18956 1.72148H1.42706C1.34023 1.72148 1.25696 1.75597 1.19556 1.81737ZM3.17877 3.31861C3.11737 3.38 3.08288 3.46327 3.08288 3.55009C3.08288 3.63692 3.11737 3.72019 3.17877 3.78158C3.24017 3.84297 3.32345 3.87746 3.41028 3.87746H10.351C10.4378 3.87746 10.5211 3.84297 10.5825 3.78158C10.6439 3.72019 10.6784 3.63692 10.6784 3.55009C10.6784 3.46327 10.6439 3.38 10.5825 3.31861C10.5211 3.25722 10.4378 3.22273 10.351 3.22273H3.41028C3.32345 3.22273 3.24017 3.25722 3.17877 3.31861ZM8.58357 5.35374L8.35856 5.79691H7.39646L7.62147 5.35374H8.58357Z" fill="#7C29E5" stroke="#7C29E5" stroke-width="0.1"/>
</svg>
