<svg width="14" height="12" viewBox="0 0 14 12" fill="none" xmlns="http://www.w3.org/2000/svg">
<path d="M6.93659 11.5636L6.97974 11.5843L7.02288 11.5636L7.16088 11.4977L7.16089 11.4977L7.16336 11.4964C7.28294 11.4351 8.75695 10.6778 10.2024 9.41222C11.6441 8.14981 13.0797 6.36212 13.0797 4.23846C13.0797 2.57931 12.3053 1.31346 10.9463 0.779859L10.9462 0.779828C9.63255 0.265335 8.08174 0.588193 6.97974 1.56581C5.87795 0.588172 4.33284 0.265388 3.01341 0.779771L3.01319 0.779859C1.65418 1.31346 0.879736 2.57931 0.879736 4.23846C0.879736 6.36215 2.31536 8.14834 3.75713 9.40999C5.13896 10.6192 6.54714 11.3646 6.77105 11.4831C6.78136 11.4886 6.78916 11.4927 6.79433 11.4955L6.79428 11.4956L6.7986 11.4977L6.93659 11.5636ZM3.30215 1.524L3.3023 1.52394C3.62629 1.39667 3.97386 1.33289 4.32174 1.33289C5.18073 1.33289 6.04845 1.71035 6.68428 2.39859L6.68433 2.39864L6.90633 2.63861L6.97974 2.71795L7.05314 2.63861L7.27514 2.39864L7.27526 2.39851C8.16808 1.42997 9.52933 1.08449 10.6573 1.524C11.6845 1.92562 12.2797 2.9079 12.2797 4.23846C12.2797 5.91993 11.1694 7.41859 9.93133 8.56393C8.73974 9.66624 7.44844 10.424 6.97973 10.6816C6.51103 10.424 5.21973 9.66624 4.02814 8.56393C2.79005 7.41859 1.67974 5.91993 1.67974 4.23846C1.67974 2.90202 2.27489 1.92566 3.30215 1.524Z" fill="#7C29E5" stroke="#7C29E5" stroke-width="0.2"/>
</svg>
