<svg width="14" height="15" viewBox="0 0 14 15" fill="none" xmlns="http://www.w3.org/2000/svg">
<path d="M11.9918 1.97143L11.9918 1.97147L13.1027 4.1088C13.1027 4.10881 13.1027 4.10883 13.1027 4.10885L13.1028 4.10888L13.0584 4.13193L11.9918 1.97143ZM11.9918 1.97143C11.8495 1.69832 11.6036 1.45725 11.319 1.28456M11.9918 1.97143L11.319 1.28456M11.319 1.28456C11.0343 1.11186 10.7071 1.00518 10.3993 1.00518M11.319 1.28456L10.3993 1.00518M10.3993 1.00518H3.56885M10.3993 1.00518H3.56885M3.56885 1.00518C3.26158 1.00518 2.93399 1.11122 2.64861 1.28277M3.56885 1.00518L2.64861 1.28277M2.64861 1.28277C2.36325 1.45431 2.11617 1.69371 1.97258 1.96479M2.64861 1.28277L1.97258 1.96479M1.97258 1.96479C1.97257 1.9648 1.97257 1.9648 1.97257 1.96481L1.97258 1.96479ZM1.6697 4.48548L1.66974 4.48542L2.77906 2.39246C2.77906 2.39245 2.77906 2.39245 2.77907 2.39244C2.84291 2.27208 2.96911 2.15265 3.11814 2.06297C3.26717 1.9733 3.43201 1.9176 3.56885 1.9176H10.3993C10.5353 1.9176 10.6989 1.97324 10.8467 2.06296C10.9945 2.15268 11.1196 2.27225 11.1827 2.39298L12.2935 4.52931C12.2935 4.52934 12.2935 4.52936 12.2935 4.52938C12.336 4.61174 12.3768 4.71469 12.4154 4.82772H1.53152C1.57455 4.69729 1.62049 4.57798 1.6697 4.48548ZM12.6172 12.8355V12.8388C12.6154 13.0334 12.4567 13.1917 12.2609 13.1917H1.69855C1.50167 13.1917 1.34229 13.0316 1.34229 12.8355V5.80203C1.34229 5.7837 1.34445 5.76304 1.34694 5.74018H12.6084C12.6088 5.74343 12.6091 5.74667 12.6094 5.74989C12.6135 5.78718 12.6172 5.82175 12.6172 5.85202V12.8355Z" fill="#7C29E5" stroke="#7C29E5" stroke-width="0.1"/>
<path d="M10.3956 7.92745L8.34913 10.1132L7.52311 9.28891C7.3644 9.13022 7.10731 9.13022 6.9486 9.28891C6.7899 9.44757 6.7899 9.70464 6.9486 9.86331L8.06269 10.9741C8.14206 11.0534 8.2452 11.0931 8.34914 11.0931C8.40549 11.0931 8.46103 11.0788 8.51422 11.055C8.57371 11.0344 8.62926 11.0026 8.67528 10.9542L10.9891 8.48284C11.1423 8.31941 11.1336 8.06236 10.9701 7.90843C10.8066 7.75609 10.5495 7.76403 10.3956 7.92747L10.3956 7.92745ZM5.76864 8.5209H3.33022C3.10644 8.5209 2.92394 8.7026 2.92394 8.92712C2.92394 9.15164 3.10645 9.33334 3.33022 9.33334H5.76866C5.99321 9.33334 6.17493 9.15164 6.17493 8.92712C6.17493 8.7026 5.99321 8.5209 5.76864 8.5209ZM4.53554 10.2537H3.31672C3.09217 10.2537 2.91046 10.4362 2.91046 10.6599C2.91046 10.8852 3.09217 11.0661 3.31672 11.0661H4.53554C4.76012 11.0661 4.94182 10.8852 4.94182 10.6599C4.94182 10.4362 4.76011 10.2537 4.53554 10.2537Z" fill="#7C29E5"/>
</svg>
