<svg width="12" height="12" viewBox="0 0 12 12" fill="none" xmlns="http://www.w3.org/2000/svg">
<path d="M10.8653 11.2534C11.0844 11.0279 11.0847 10.6644 10.8652 10.4384L10.8652 10.4383L9.44763 8.98046C10.2256 8.0737 10.6646 6.91219 10.6646 5.6822C10.6646 2.92755 8.4834 0.682422 5.7971 0.682422C3.11079 0.682422 0.929736 2.92756 0.929736 5.6822C0.929736 8.43684 3.11093 10.682 5.79724 10.682C6.8149 10.682 7.78621 10.3549 8.60267 9.75966L10.0553 11.2536C10.0553 11.2537 10.0554 11.2537 10.0554 11.2537C10.1616 11.3638 10.3075 11.4262 10.4601 11.4262C10.6128 11.4262 10.7587 11.3638 10.8653 11.2534ZM10.8653 11.2534C10.8653 11.2534 10.8653 11.2534 10.8653 11.2534L10.8293 11.2187L10.8652 11.2535C10.8652 11.2535 10.8652 11.2535 10.8653 11.2534ZM5.79724 9.52273C3.74397 9.52273 2.06862 7.80192 2.06862 5.6822C2.06862 3.56261 3.74384 1.8418 5.7971 1.8418C7.85036 1.8418 9.52571 3.56248 9.52571 5.6822C9.52571 7.80192 7.85049 9.52273 5.79724 9.52273Z" fill="#7C29E5" stroke="#7C29E5" stroke-width="0.1"/>
</svg>
