<svg width="14" height="12" viewBox="0 0 14 12" fill="none" xmlns="http://www.w3.org/2000/svg">
<path d="M1.45474 2.97878H12.5047V2.65383C12.5047 2.22291 12.3335 1.80965 12.0288 1.50494C11.724 1.20024 11.3107 1.02906 10.8797 1.02906H3.07974C2.64876 1.02906 2.23543 1.20024 1.93069 1.50494C1.62594 1.80965 1.45474 2.22291 1.45474 2.65383V2.97878ZM12.5047 3.95364H1.45474V9.1529C1.45474 9.58382 1.62594 9.99708 1.93069 10.3018C2.23543 10.6065 2.64876 10.7777 3.07974 10.7777H10.8797C11.3107 10.7777 11.724 10.6065 12.0288 10.3018C12.3335 9.99708 12.5047 9.58382 12.5047 9.1529V3.95364ZM3.07974 6.71575C2.95044 6.71575 2.82645 6.6644 2.73502 6.57299C2.6436 6.48157 2.59224 6.35759 2.59224 6.22832C2.59224 6.09904 2.6436 5.97507 2.73502 5.88365C2.82645 5.79224 2.95044 5.74089 3.07974 5.74089H5.35474C5.48403 5.74089 5.60803 5.79224 5.69945 5.88365C5.79087 5.97507 5.84224 6.09904 5.84224 6.22832C5.84224 6.35759 5.79087 6.48157 5.69945 6.57299C5.60803 6.6644 5.48403 6.71575 5.35474 6.71575H3.07974ZM3.07974 8.99043C2.95044 8.99043 2.82645 8.93907 2.73502 8.84766C2.6436 8.75625 2.59224 8.63227 2.59224 8.503C2.59224 8.37372 2.6436 8.24974 2.73502 8.15833C2.82645 8.06692 2.95044 8.01557 3.07974 8.01557H6.65474C6.78403 8.01557 6.90803 8.06692 6.99945 8.15833C7.09087 8.24974 7.14224 8.37372 7.14224 8.503C7.14224 8.63227 7.09087 8.75625 6.99945 8.84766C6.90803 8.93907 6.78403 8.99043 6.65474 8.99043H3.07974ZM3.07974 0.0541992H10.8797C11.5693 0.0541992 12.2306 0.328088 12.7182 0.815613C13.2058 1.30314 13.4797 1.96436 13.4797 2.65383V9.1529C13.4797 9.84237 13.2058 10.5036 12.7182 10.9911C12.2306 11.4786 11.5693 11.7525 10.8797 11.7525H3.07974C2.39017 11.7525 1.72885 11.4786 1.24126 10.9911C0.753664 10.5036 0.479736 9.84237 0.479736 9.1529V2.65383C0.479736 1.96436 0.753664 1.30314 1.24126 0.815613C1.72885 0.328088 2.39017 0.0541992 3.07974 0.0541992Z" fill="#7C29E5"/>
</svg>
