<svg width="16" height="16" viewBox="0 0 16 16" fill="none" xmlns="http://www.w3.org/2000/svg">
<path d="M14.9476 8.9632L14.9477 8.96274C15.5953 5.74108 13.8104 2.49059 10.7026 1.22874C7.59495 -0.033067 3.96689 1.03895 2.0732 3.78442L2.07314 3.7845C0.236094 6.45333 0.553847 10.0118 2.79223 12.3331C2.57575 13.2247 2.21722 13.8137 1.76177 14.0991C1.61597 14.1836 1.53422 14.3677 1.57625 14.5357C1.61446 14.6886 1.74456 14.8284 1.90798 14.857C1.91553 14.8599 1.92298 14.862 1.92919 14.8636C1.94245 14.8671 1.9583 14.8701 1.97538 14.8729C2.01001 14.8786 2.05688 14.8842 2.11372 14.8891C2.22776 14.8991 2.38625 14.907 2.57554 14.907C3.29093 14.907 4.45829 14.7695 5.46806 14.0787C6.27253 14.3666 7.10788 14.5182 7.97368 14.5182C11.3482 14.5182 14.2843 12.1847 14.9476 8.9632ZM10.378 1.98938L10.3789 1.98975C13.1355 3.09221 14.7107 5.96977 14.145 8.7987C13.5637 11.6277 10.9772 13.696 7.98923 13.696C7.14717 13.696 6.33525 13.5276 5.56843 13.221L5.56862 13.2205L5.55876 13.2177C5.42277 13.1788 5.28339 13.1981 5.1647 13.2773L5.16452 13.277L5.15825 13.2819C4.45248 13.8383 3.59645 14.0184 2.96342 14.0602C3.27088 13.6014 3.4999 13.0181 3.65344 12.2924L3.65353 12.2924L3.65425 12.2881C3.6751 12.163 3.63364 12.0216 3.53297 11.921L3.53193 11.9199C1.41979 9.86932 1.09908 6.6416 2.73566 4.25571C3.94515 2.51076 5.93608 1.53027 7.98923 1.53027C8.78663 1.53027 9.59801 1.66825 10.378 1.98938ZM5.51574 5.63883C5.2894 5.63883 5.10461 5.82358 5.10461 6.04992C5.10461 6.27626 5.2894 6.46101 5.51574 6.46101H9.03153C9.25786 6.46101 9.44266 6.27626 9.44266 6.04992C9.44266 5.82358 9.25786 5.63883 9.03153 5.63883H5.51574ZM11.1472 8.45417H5.51574C5.2894 8.45417 5.10461 8.63892 5.10461 8.86526C5.10461 9.0916 5.2894 9.27635 5.51574 9.27635H11.1472C11.3736 9.27635 11.5584 9.0916 11.5584 8.86526C11.5584 8.63892 11.3736 8.45417 11.1472 8.45417Z" fill="#7C29E5" stroke="#7C29E5" stroke-width="0.2"/>
</svg>
