<svg width="14" height="14" viewBox="0 0 14 14" fill="none" xmlns="http://www.w3.org/2000/svg">
<path d="M10.3779 9.03733L10.3777 9.03699C9.60389 7.98697 8.37492 7.48462 6.59825 7.48452C5.02024 7.51816 3.85125 7.87898 3.06689 8.72122C2.28165 9.5644 1.8724 10.9001 1.83873 12.9061C1.83872 12.9062 1.83872 12.9064 1.83872 12.9065L1.78873 12.9056L10.3779 9.03733ZM10.3779 9.03733C10.5295 9.23933 10.807 9.2766 11.0081 9.13841L11.0081 9.13844M10.3779 9.03733L11.0081 9.13844M11.0081 9.13844L11.0097 9.1372M11.0081 9.13844L11.0097 9.1372M11.0097 9.1372C11.2118 8.9857 11.249 8.70817 11.1108 8.50715L11.1109 8.50714M11.0097 9.1372L11.1109 8.50714M11.1109 8.50714L11.1099 8.50581M11.1109 8.50714L11.1099 8.50581M11.1099 8.50581C10.1198 7.16312 8.52877 6.5756 6.59749 6.58688M11.1099 8.50581L6.59749 6.58688M6.59749 6.58688C6.59751 6.58688 6.59753 6.58688 6.59756 6.58688L6.59772 6.63688L6.59749 6.58688Z" fill="#7C29E5" stroke="#7C29E5" stroke-width="0.1"/>
<path d="M8.15783 9.92675L8.15781 9.92673L8.15668 9.92794L7.01061 11.1525L6.93184 11.2367H7.04712H12.5415C12.7938 11.2367 12.996 11.0345 12.996 10.7822C12.996 10.5299 12.7938 10.3278 12.5415 10.3278H8.93161C8.95828 10.1819 8.90994 10.0279 8.79039 9.91553C8.62192 9.73573 8.33157 9.75304 8.15783 9.92675Z" fill="#7C29E5" stroke="#7C29E5" stroke-width="0.1"/>
<path d="M11.0096 12.8545C10.9849 12.9959 11.0268 13.147 11.1353 13.2555C11.3122 13.4323 11.6022 13.4323 11.7791 13.2555L13.015 12.0197L13.1004 11.9344H12.9797H7.13698C6.88465 11.9344 6.68248 12.1365 6.68248 12.3888C6.68248 12.6515 6.88376 12.8545 7.13698 12.8545H11.0096Z" fill="#7C29E5" stroke="#7C29E5" stroke-width="0.1"/>
<path d="M6.61515 0.531954C4.97001 0.558791 3.63762 1.90751 3.63762 3.55865L3.63762 3.559C3.64905 5.2265 4.99703 6.57452 6.66515 6.57452C8.33321 6.57452 9.69268 5.21526 9.69268 3.54742C9.69268 1.8797 8.34457 0.520312 6.66515 0.520312H6.61515V0.531954ZM4.55785 3.55865C4.55785 2.3956 5.50163 1.45153 6.66538 1.44042C7.82851 1.44055 8.77246 2.38411 8.77246 3.55865C8.77246 4.7217 7.82868 5.66577 6.66493 5.67688C5.5018 5.67676 4.55785 4.7332 4.55785 3.55865Z" fill="#7C29E5" stroke="#7C29E5" stroke-width="0.1"/>
</svg>
