<svg width="14" height="14" viewBox="0 0 14 14" fill="none" xmlns="http://www.w3.org/2000/svg">
<path d="M9.62215 2.52921L9.48447 2.56363L9.5632 2.6817C9.65919 2.82566 9.74462 2.95516 9.78749 3.1266L9.81772 3.24753L9.92922 3.19179C10.0004 3.1562 10.0725 3.15474 10.1702 3.15474C11.1626 3.15474 11.975 3.967 11.975 4.95923C11.975 5.95145 11.1626 6.76372 10.1702 6.76372C9.89407 6.76372 9.62871 6.71744 9.41213 6.58752L9.34519 6.54735L9.28998 6.60255C9.25757 6.63496 9.22266 6.67534 9.18908 6.71417C9.17134 6.73468 9.15398 6.75476 9.13756 6.77301C9.08604 6.83023 9.03305 6.88258 8.97189 6.92335L8.84299 7.00926L8.97436 7.09136C9.37271 7.34029 9.77237 7.43984 10.2178 7.43984C11.6064 7.43984 12.6988 6.34761 12.6988 4.95923C12.6988 3.57084 11.6064 2.47861 10.2178 2.47861L10.2127 2.47861C10.0255 2.47861 9.82461 2.4786 9.62215 2.52921ZM9.21783 8.39208H9.52713L9.27637 8.21101C8.40161 7.57933 7.33336 7.23984 6.21783 7.23984C3.25785 7.23984 0.879736 9.6176 0.879736 12.5772C0.879736 12.9191 0.928533 13.2591 0.976335 13.5459L0.990264 13.6294H1.07497H1.55116H1.66921L1.6498 13.513C1.60237 13.2284 1.55593 12.9018 1.55593 12.5772C1.55593 10.0138 3.654 7.91596 6.21783 7.91596C6.96191 7.91596 7.6148 8.10166 8.27368 8.384L8.29255 8.39208H8.31307H9.21783ZM12.8639 9.17122L12.2229 9.7694L11.7401 9.24956L12.3335 8.69865L12.4571 8.58385L12.2971 8.5305C12.1388 8.47775 12.0299 8.47776 11.8876 8.47776H11.8845C11.2194 8.47776 10.6893 8.94227 10.6893 9.57762C10.6893 9.7545 10.7271 9.89704 10.8019 10.0321L10.6507 10.1581L9.84164 9.39176V9.10149V9.04487L9.79309 9.01574L9.0788 8.58723L9.00815 8.54485L8.95303 8.60608L8.52446 9.0822L8.48017 9.13141L8.50817 9.1914L8.8415 9.90558L8.86526 9.95648L8.92108 9.96268L9.34965 10.0103L9.39741 10.0156L9.4103 10.0027L10.1162 10.6693L8.48592 12.0729L8.45672 12.098L8.45194 12.1363L8.55117 12.1487L8.45193 12.1363L8.45193 12.1364L8.45191 12.1365L8.45186 12.1369L8.45173 12.138L8.45128 12.1419L8.44985 12.1558C8.44873 12.1676 8.44733 12.1842 8.44613 12.2046C8.44375 12.245 8.44213 12.301 8.44535 12.3622C8.44855 12.4231 8.45667 12.492 8.47496 12.5573C8.49297 12.6216 8.52306 12.6905 8.5757 12.7431C8.62389 12.7913 8.68717 12.8271 8.74825 12.854C8.81043 12.8813 8.87681 12.9022 8.93643 12.9179C8.99633 12.9337 9.05122 12.9446 9.09108 12.9517C9.11107 12.9552 9.12744 12.9578 9.13894 12.9595L9.15244 12.9614L9.1562 12.9619L9.15728 12.962L9.15762 12.9621L9.15773 12.9621L9.15777 12.9621L9.17021 12.8629L9.15781 12.9621L9.20811 12.9684L9.24291 12.9315L10.7913 11.2923L10.8128 11.3138C10.7785 11.4013 10.7614 11.4939 10.7734 11.5897C10.7886 11.7115 10.8492 11.8263 10.9566 11.9337L11.8138 12.7907C12.0433 13.0202 12.3923 13.0202 12.6219 12.7907L12.7171 12.6955C12.9466 12.466 12.9466 12.117 12.7171 11.8875L12.7172 11.8874L12.7133 11.8839L11.7628 11.0286C11.6057 10.8728 11.4431 10.8596 11.307 10.8585L11.2164 10.7679L11.3782 10.6061C11.5334 10.6776 11.7157 10.6776 11.8699 10.6775L11.8845 10.6775C12.5496 10.6775 13.0797 10.213 13.0797 9.57762V9.57608C13.0797 9.52917 13.0797 9.46553 13.0733 9.40102C13.0669 9.3369 13.0534 9.26326 13.0216 9.1996L12.9617 9.07993L12.8639 9.17122Z" fill="#7C29E5" stroke="#7C29E5" stroke-width="0.2"/>
<path d="M6.2654 1.72651C7.78161 1.72651 9.02254 2.96729 9.02254 4.48325C9.02254 5.99921 7.78161 7.23998 6.2654 7.23998C4.74919 7.23998 3.50826 5.99921 3.50826 4.48325C3.50826 2.96729 4.74919 1.72651 6.2654 1.72651ZM6.2654 1.05039C4.35304 1.05039 2.83207 2.57113 2.83207 4.48325C2.83207 6.39537 4.35304 7.91611 6.2654 7.91611C8.17776 7.91611 9.69873 6.39537 9.69873 4.48325C9.69873 2.57113 8.17776 1.05039 6.2654 1.05039Z" fill="#7C29E5" stroke="#7C29E5" stroke-width="0.2"/>
</svg>
