<svg width="14" height="11" viewBox="0 0 14 11" fill="none" xmlns="http://www.w3.org/2000/svg">
<path d="M4.94162 8.24723L4.9416 8.24725C4.33787 8.99106 4.32982 9.74663 4.32982 9.78329C4.32982 10.3484 4.78966 10.8081 5.35481 10.8081H12.5048C13.0699 10.8081 13.5298 10.3484 13.5298 9.78329C13.5298 9.74666 13.5224 8.99106 12.918 8.24723L12.918 8.24723C12.5707 7.81997 12.098 7.4826 11.515 7.24335L11.5149 7.24334C10.8105 6.9549 9.94043 6.80937 8.92979 6.80937C7.9192 6.80937 7.04848 6.95423 6.34463 7.24335C5.76154 7.4826 5.28889 7.81997 4.94162 8.24723ZM12.3112 8.69051L12.3112 8.69053C12.7553 9.21753 12.7788 9.75704 12.7798 9.78588C12.7788 9.93594 12.6558 10.0582 12.5048 10.0582H5.35481C5.20372 10.0582 5.08082 9.93652 5.07982 9.78588C5.08077 9.75707 5.10424 9.21818 5.5484 8.69053C6.16737 7.956 7.33122 7.55928 8.92979 7.55928C10.5284 7.55928 11.6922 7.95536 12.3112 8.69051Z" fill="#7C29E5" stroke="#7C29E5" stroke-width="0.1"/>
<path d="M6.27959 3.60938C6.27959 5.07068 7.46807 6.25899 8.92957 6.25899C10.3911 6.25899 11.5796 5.07068 11.5796 3.60938C11.5796 2.14807 10.3911 0.959766 8.92957 0.959766C7.46807 0.959766 6.27959 2.14807 6.27959 3.60938ZM7.02959 3.60938C7.02959 2.56206 7.88209 1.70967 8.92957 1.70967C9.97706 1.70967 10.8296 2.56206 10.8296 3.60938C10.8296 4.6567 9.97706 5.50909 8.92957 5.50909C7.88209 5.50909 7.02959 4.6567 7.02959 3.60938Z" fill="#7C29E5" stroke="#7C29E5" stroke-width="0.1"/>
<path d="M4.94162 8.24723L4.9416 8.24725C4.33787 8.99106 4.32982 9.74663 4.32982 9.78329C4.32982 10.3484 4.78966 10.8081 5.35481 10.8081H12.5048C13.0699 10.8081 13.5298 10.3484 13.5298 9.78329C13.5298 9.74666 13.5224 8.99106 12.918 8.24723L12.918 8.24723C12.5707 7.81997 12.098 7.4826 11.515 7.24335L11.5149 7.24334C10.8105 6.9549 9.94043 6.80937 8.92979 6.80937C7.9192 6.80937 7.04848 6.95423 6.34463 7.24335C5.76154 7.4826 5.28889 7.81997 4.94162 8.24723ZM12.3112 8.69051L12.3112 8.69053C12.7553 9.21753 12.7788 9.75704 12.7798 9.78588C12.7788 9.93594 12.6558 10.0582 12.5048 10.0582H5.35481C5.20372 10.0582 5.08082 9.93652 5.07982 9.78588C5.08077 9.75707 5.10424 9.21818 5.5484 8.69053C6.16737 7.956 7.33122 7.55928 8.92979 7.55928C10.5284 7.55928 11.6922 7.95536 12.3112 8.69051Z" fill="#7C29E5" stroke="#7C29E5" stroke-width="0.1"/>
<path d="M6.27959 3.60938C6.27959 5.07068 7.46807 6.25899 8.92957 6.25899C10.3911 6.25899 11.5796 5.07068 11.5796 3.60938C11.5796 2.14807 10.3911 0.959766 8.92957 0.959766C7.46807 0.959766 6.27959 2.14807 6.27959 3.60938ZM7.02959 3.60938C7.02959 2.56206 7.88209 1.70967 8.92957 1.70967C9.97706 1.70967 10.8296 2.56206 10.8296 3.60938C10.8296 4.6567 9.97706 5.50909 8.92957 5.50909C7.88209 5.50909 7.02959 4.6567 7.02959 3.60938Z" fill="#7C29E5" stroke="#7C29E5" stroke-width="0.1"/>
<path d="M4.07554 7.46796L4.07562 7.46796C4.28259 7.47921 4.44079 7.65545 4.43029 7.86227C4.41979 8.06935 4.24275 8.22829 4.0358 8.21707M4.07554 7.46796L4.03575 8.21707C4.03576 8.21707 4.03578 8.21707 4.0358 8.21707M4.07554 7.46796C3.96356 7.46206 3.84763 7.45879 3.73036 7.45879C3.01243 7.45879 2.39149 7.57129 1.88682 7.79585L4.07554 7.46796ZM4.0358 8.21707C3.93729 8.21192 3.83483 8.20934 3.73101 8.20934C2.47618 8.20934 1.8424 8.59212 1.52087 8.97465C1.19987 9.35654 1.18207 9.74754 1.18103 9.78656C1.18196 9.93668 1.30496 10.0591 1.45603 10.0591H3.40601C3.61302 10.0591 3.78101 10.227 3.78101 10.434C3.78101 10.641 3.61302 10.809 3.40601 10.809H3.39421L3.39291 10.8083H1.45473C0.889576 10.8083 0.429736 10.3485 0.429736 9.78345C0.429736 9.75464 0.435565 9.16349 0.870674 8.58364C1.12206 8.24785 1.46458 7.98349 1.8868 7.79586L4.0358 8.21707Z" fill="#7C29E5" stroke="#7C29E5" stroke-width="0.1"/>
<path d="M1.72966 4.90918C1.72966 6.01174 2.62695 6.90889 3.72965 6.90889C4.83235 6.90889 5.72964 6.01174 5.72964 4.90918C5.72964 3.80662 4.83235 2.90947 3.72965 2.90947C2.62695 2.90947 1.72966 3.80662 1.72966 4.90918ZM2.47966 4.90918C2.47966 4.21996 3.04031 3.65938 3.72965 3.65938C4.41899 3.65938 4.97964 4.21996 4.97964 4.90918C4.97964 5.5984 4.41899 6.15899 3.72965 6.15899C3.04031 6.15899 2.47966 5.5984 2.47966 4.90918Z" fill="#7C29E5" stroke="#7C29E5" stroke-width="0.1"/>
</svg>
