<svg width="14" height="13" viewBox="0 0 14 13" fill="none" xmlns="http://www.w3.org/2000/svg">
<path d="M8.17407 0.161627L8.17421 0.162253L8.17858 0.180234C8.18253 0.196106 8.1886 0.21956 8.19698 0.249512C8.21375 0.309427 8.23974 0.39528 8.27651 0.498413C8.35011 0.704847 8.46659 0.979655 8.63811 1.25406C8.9815 1.8034 9.54022 2.3438 10.4127 2.3438C10.7463 2.3438 11.1099 2.2833 11.5045 2.10134L11.6275 2.03985L11.6695 2.01883L11.6931 2.05949L12.9302 4.19321L12.9495 4.22646L12.9223 4.25364L12.8604 4.31549L12.8587 4.31722L12.8587 4.31717L12.8586 4.31721L12.8584 4.31744L12.8573 4.31846L12.8526 4.32276L12.8343 4.34017C12.8183 4.35564 12.7949 4.37869 12.7659 4.40876C12.7079 4.46891 12.6274 4.55705 12.5379 4.66851C12.3586 4.89172 12.1444 5.20708 12.0019 5.57754C11.8595 5.94777 11.7894 6.37111 11.8951 6.81242C12.0006 7.25259 12.2824 7.71626 12.8535 8.16616L13.0055 8.2573L13.0477 8.28264L13.023 8.32526L11.7859 10.459L11.7655 10.4942L11.7268 10.4813L8.17407 0.161627ZM8.17407 0.161627V0.105469V0.0554687H8.12407H5.68077H5.64173L5.63226 0.0933404L5.60133 0.217034L5.60105 0.216963L5.60031 0.22233C5.47812 1.1081 5.12826 1.62799 4.70471 1.9278C4.27957 2.22874 3.77324 2.31288 3.33025 2.31288C3.04066 2.31288 2.78122 2.27476 2.59411 2.23658C2.50063 2.2175 2.42537 2.19845 2.37364 2.18421C2.34778 2.1771 2.32781 2.17119 2.3144 2.16709L2.29929 2.16237L2.29558 2.16118L2.29471 2.16089L2.29453 2.16083L2.29451 2.16083L8.17407 0.161627ZM2.27014 10.5405L2.39252 10.4793L2.20173 2.1299L2.16266 2.11688L2.1424 2.15273L0.93621 4.28645L0.913348 4.32689L0.952004 4.35266L1.04315 4.41341C1.61487 4.86354 1.89693 5.32748 2.00247 5.7679C2.10823 6.2092 2.03812 6.63254 1.8957 7.00277C1.75319 7.37323 1.53899 7.68859 1.35973 7.9118C1.27021 8.02326 1.18969 8.1114 1.13167 8.17155C1.10267 8.20162 1.07931 8.22468 1.06328 8.24014L1.04497 8.25756L1.04034 8.26185L1.03922 8.26287L1.03898 8.2631L1.03893 8.26314L1.0389 8.26309L1.03717 8.26482L0.975311 8.32667L0.948127 8.35385L0.967409 8.3871L2.20452 10.5208L2.2281 10.5615L2.27014 10.5405ZM11.105 6.47717L11.105 6.47787C11.1361 7.19297 11.4434 7.84509 12.0512 8.43317L11.3756 9.63727C11.3413 9.63211 11.3046 9.6263 11.2661 9.62019C11.067 9.58863 10.8168 9.54896 10.5674 9.54896C9.80066 9.54896 9.15514 9.75247 8.65761 10.1433C8.16877 10.5274 7.82678 11.0891 7.65162 11.8064H6.27263C5.92299 10.8448 5.07674 9.51804 3.45396 9.51804C3.14979 9.51804 2.84707 9.57663 2.51975 9.66423L1.8445 8.4607C2.21963 8.01713 2.82326 7.15224 2.76163 6.10206C2.73044 5.38711 2.42323 4.73512 1.81548 4.14714L2.49105 2.94304C2.52539 2.9482 2.56204 2.95401 2.60061 2.96012C2.79965 2.99167 3.04992 3.03135 3.29932 3.03135C4.06603 3.03135 4.71155 2.82785 5.20908 2.43699C5.69792 2.05295 6.03991 1.49117 6.21507 0.773937H7.5942C7.88238 1.55847 8.63952 3.06227 10.4127 3.06227C10.7171 3.06227 11.0201 3.0036 11.3476 2.91589L12.0527 4.12014C11.6774 4.56399 11.0742 5.42812 11.105 6.47717Z" fill="#7C29E5" stroke="#7C29E5" stroke-width="0.1"/>
<path d="M6.94881 3.61162C5.40573 3.61162 4.14623 4.87094 4.14623 6.41381C4.14623 7.95668 5.40573 9.21599 6.94881 9.21599C8.49188 9.21599 9.75138 7.95668 9.75138 6.41381C9.75138 4.87094 8.49188 3.61162 6.94881 3.61162ZM6.94881 8.49752C5.80115 8.49752 4.86478 7.56128 4.86478 6.41381C4.86478 5.26634 5.80115 4.33009 6.94881 4.33009C8.09646 4.33009 9.03283 5.26634 9.03283 6.41381C9.03283 7.56128 8.09646 8.49752 6.94881 8.49752Z" fill="#7C29E5" stroke="#7C29E5" stroke-width="0.1"/>
</svg>
